<svg xmlns="http://www.w3.org/2000/svg" viewBox="0 0 124.71 144"><defs><style>.cls-1{fill:#fff;}.cls-2{fill:#6477ad;}.cls-3{fill:#250c0d;}.cls-4{opacity:0.5;}.cls-10,.cls-16,.cls-4,.cls-7,.cls-8{isolation:isolate;}.cls-5{fill:#801710;}.cls-6{fill:#fad4d5;}.cls-7{opacity:0.8;}.cls-8{opacity:0.6;}.cls-9{fill:#0d8136;}.cls-10{opacity:0.21;}.cls-11{fill:#010101;}.cls-12{fill:#6b79ac;}.cls-13{fill:#8091c9;}.cls-14{fill:#b9c5e6;}.cls-15{fill:#eaedf8;}</style></defs><title>BO</title><g id="BO"><polygon class="cls-1" points="2.83 106.37 2.83 37.64 62.35 3.28 121.87 37.64 121.87 106.37 62.35 140.73 2.83 106.37"/><path class="cls-2" d="M62.35,0,0,36v72l62.35,36,62.36-36V36ZM119,104.73,62.35,137.45,5.67,104.73V39.27L62.35,6.55,119,39.27Z"/><g id="layer1"><g id="g3193"><g id="g4482"><g id="path4423"><path class="cls-3" d="M24.49,65.83v13c0,55.22,77.79,52.38,77.83,0v-13Z"/></g><g id="path4427" class="cls-4"><path class="cls-5" d="M34,67.59v10.8c0,45.8,67,43.44,67,0V67.59Z"/></g><g id="g3797"><g id="path2890-0"><path class="cls-6" d="M102.49,66.37c0,10.08-17.5,18.26-39.08,18.26S24.32,76.45,24.32,66.37s17.5-18.25,39.09-18.25,39.08,8.17,39.08,18.25Z"/></g><g id="path3708" class="cls-7"><path class="cls-1" d="M38.55,58.51l8.56.53-1.4,4.89-5.06,1.39-4.2-2.27,2.1-4.54Z"/></g><g id="path3710" class="cls-8"><path class="cls-1" d="M33.49,69l4.71-.35-.35,3-4,1.23L33.49,69Z"/></g><g id="path3712"><path class="cls-1" d="M87.11,63.75,85.19,67.6l4.37.69L94.1,66l.18-3.14Z"/></g><g id="path3714"><path class="cls-1" d="M67,67.77l5.06-2.1,2.62,2.1s-.17,2.27-.87,3-6.47,1.4-6.47,1.4L63.88,70,67,67.77Z"/><path class="cls-1" d="M67.36,72.2l-3.59-2.15L67,67.71l5.1-2.11,2.67,2.14v0c0,.1-.18,2.31-.89,3s-6.26,1.39-6.5,1.42ZM64,70l3.4,2c.37,0,5.75-.73,6.41-1.38s.82-2.63.85-2.9l-2.57-2.06-5,2.08Z"/></g><g id="path3716" class="cls-8"><path class="cls-1" d="M54.27,74.06,59,72.49l-.52,3-3.32,2.27-2.8-1.92Z"/></g><g id="path3708-3" class="cls-7"><path class="cls-1" d="M80,74.32l4.21.28-.69,2.64L81.05,78,79,76.77Z"/></g><g id="path3714-4"><path class="cls-1" d="M55.72,66.47,52.82,64l.69-2.28a5.33,5.33,0,0,1,2.29-.42c.68.2,2.82,3.53,2.82,3.53l-.44,2.82Z"/><path class="cls-1" d="M58.22,67.74l-2.53-1.23-2.92-2.46.7-2.34h0a5.27,5.27,0,0,1,2.32-.42c.69.21,2.76,3.41,2.85,3.54v0h0Zm-2.48-1.3,2.41,1.18.43-2.75c-.15-.24-2.15-3.31-2.79-3.5a5.22,5.22,0,0,0-2.25.41L52.87,64Z"/></g><g id="path3764" class="cls-4"><path class="cls-9" d="M49.62,69c.24.79-.7,1.76-2.08,2.18s-2.7.12-2.94-.67.7-1.76,2.08-2.17S49.38,68.24,49.62,69Z"/></g><g id="path3764-2" class="cls-4"><path class="cls-9" d="M69.94,73.87a3.39,3.39,0,0,1,3.21,1.88c.36,1.07-.48,2-1.88,2a3.37,3.37,0,0,1-3.2-1.88C67.7,74.79,68.54,73.9,69.94,73.87Z"/></g><g id="path3764-7" class="cls-4"><path class="cls-9" d="M83.52,67.14c.18.75-.56,1.67-1.66,2.06s-2.14.11-2.33-.63.55-1.66,1.65-2.06S83.33,66.4,83.52,67.14Z"/></g></g></g><g id="g4498"><g id="path3832" class="cls-10"><path class="cls-11" d="M55.37,69.67c-1.35-.16-2-.35-2.19-.58s-.28-.17-.9-.25a6.26,6.26,0,0,1-1.72-.36c-.23-.11-.27-.26-.27-1.11,0-1.56-.38-2.05-2-2.6A2.59,2.59,0,0,0,47,64.64a9.34,9.34,0,0,0-2.7.47,3.58,3.58,0,0,0-1.78,1.18,1.8,1.8,0,0,0-.34,1.3,3.38,3.38,0,0,0,.17,1.28c.17.31.17.38-.05.53a3.61,3.61,0,0,1-1.59.39,7,7,0,0,1-2.91-.55c-.65-.4-.72-.64-.71-2.66,0-2.36.22-2.95,2.13-5.65A3.53,3.53,0,0,1,41,59.36c1.11-.39,4.1-.72,8.74-1l3.15-.16L55,57.8c1.17-.23,2.59-.49,3.16-.57a11.73,11.73,0,0,1,4.27,0l.4.11,1.57-.15c2.29-.21,6.5-.43,8.25-.44a68.62,68.62,0,0,1,9.89.68l1.27.21,2,0c1.09,0,3.26-.1,4.84-.16l2.87-.13,1.07-.23A6.56,6.56,0,0,1,97,56.76c.53.07.6.12.73.54s.07.35-.35.58c-.66.38-1,.42-2.51.34a59.89,59.89,0,0,0-6.43.13c-2.26.11-2.21.1-1.68.48a2.41,2.41,0,0,1,.93,1.5c0,.83-.82,1.91-2.13,2.8-.4.27-.4.27-.36,1.46.08,2.58.09,2.52-.31,2.78-.64.43-2.63.74-5.12.81a17.92,17.92,0,0,1-3.58-.24l-1.5-.18a2.7,2.7,0,0,1-1.39-.38c-.39-.24-.44-.32-.44-.81V66l-1.06.08c-2.5.2-5.91.3-7.88.23h-.35l-.05,1.17c0,1.13-.06,1.17-.44,1.42-.69.43-2.44.73-5,.84a11.39,11.39,0,0,1-2.71-.09Z"/></g><g id="g4126"><g id="path3944"><path class="cls-11" d="M61.25,58.29a45.84,45.84,0,0,1-.12,8.29A2.2,2.2,0,0,1,60,68.46c-2.2,1.64-9.57,2-10.49-1.44-.34,0-.06-1.13-.39-1.1A4.08,4.08,0,0,1,45.91,64c0-3.79.44-17.48-6.34-13.8A6.65,6.65,0,0,0,36.48,54a13.12,13.12,0,0,0-.63,4.35c-.06,1.89.42,4,.48,6.22,0,1,.2,1.28-.56,2.14-1.21,1.39-3.33.21-4.48-1.31a5,5,0,0,1-.77-2.56c-.74-9.79-.18-20,2.66-29.5,1-3.25,1.31-3.72,4.4-4.46a34,34,0,0,1,10.71-.63c2.78-.9,9.39-5.81,12.23-1.92,8.81-1.58,17.61-.67,25.36,4.63a96.35,96.35,0,0,0,11.27.2c.54-.34,1.15-.7,1.7-1a3.66,3.66,0,0,1,1.31-.56c.61-.09,1.4-.12,1.57.63a8.07,8.07,0,0,1,.16,2.36,2.13,2.13,0,0,1-1.7,2,10,10,0,0,1-3-1c-3.43.09-5.55-.09-9,0,.56.59.52,1,.93,1.77,2.69,5.15.16,13.88-2,15.82-.25,3.94,0,7.93.07,11.88,0,1.37.12,2.67-1.17,3.57a8.65,8.65,0,0,1-7.59.63,6.79,6.79,0,0,1-1.76-1.47,5.91,5.91,0,0,1-1.32,0,3.15,3.15,0,0,1-1.83-1.34,8.17,8.17,0,0,1-.62-1.39c0-1.85-.06-2.58-.06-4.43a28.11,28.11,0,0,1-11.51-.33Z"/><path class="cls-11" d="M55,69.69a9.64,9.64,0,0,1-3.13-.47A3.37,3.37,0,0,1,49.47,67c-.18,0-.19-.3-.2-.58s0-.43-.1-.49a.11.11,0,0,0-.08,0A4.12,4.12,0,0,1,45.9,64h0v-.59c0-3.49.08-11.65-2.93-13.46a3.32,3.32,0,0,0-3.39.26A6.67,6.67,0,0,0,36.5,54a12.92,12.92,0,0,0-.63,4.34,22.83,22.83,0,0,0,.22,3.22c.12,1,.23,2,.26,3,0,.16,0,.3,0,.43a1.85,1.85,0,0,1-.58,1.72,1.77,1.77,0,0,1-1.44.62,4.6,4.6,0,0,1-3.07-1.93,4.92,4.92,0,0,1-.78-2.57c-.82-10.89.08-20.82,2.66-29.51a7.61,7.61,0,0,1,1.41-3.17,5.76,5.76,0,0,1,3-1.3,34.71,34.71,0,0,1,10.72-.63,21.73,21.73,0,0,0,2.46-1.11c3.2-1.6,7.59-3.79,9.78-.81A39,39,0,0,1,73.6,26,30.22,30.22,0,0,1,85.89,30.9a97,97,0,0,0,11.26.2c.54-.34,1.14-.69,1.69-1L99,30a3.26,3.26,0,0,1,1.2-.48c.59-.1,1.41-.13,1.59.64a8.49,8.49,0,0,1,.16,2.36,2.16,2.16,0,0,1-1.71,2h0l-.69-.16a7.27,7.27,0,0,1-2.35-.83c-1.72,0-3.13,0-4.49,0s-2.76,0-4.46,0a2.75,2.75,0,0,1,.59,1,6.52,6.52,0,0,0,.32.72,11.07,11.07,0,0,1,1.12,4.38,19.41,19.41,0,0,1-.31,4.74c-.55,3-1.73,5.72-2.87,6.72-.16,2.63-.08,5.33,0,7.94,0,1.29.08,2.62.09,3.93v.26c0,1.27,0,2.47-1.18,3.32a7.47,7.47,0,0,1-3.61,1.19,8.67,8.67,0,0,1-4-.56,4.21,4.21,0,0,1-1.35-1c-.14-.15-.28-.28-.42-.41a3.57,3.57,0,0,0-.57,0,2.09,2.09,0,0,1-.75,0,3.21,3.21,0,0,1-1.83-1.35,4.08,4.08,0,0,1-.43-.92c-.06-.15-.12-.31-.19-.47h0c0-.92,0-1.58,0-2.21s0-1.28,0-2.2a28.51,28.51,0,0,1-11.47-.33,46.88,46.88,0,0,1-.12,8.27A2.22,2.22,0,0,1,60,68.46h0A9.31,9.31,0,0,1,55,69.69ZM49.1,65.9a.14.14,0,0,1,.09,0c.09.08.1.29.11.52s0,.55.18.55h0a3.33,3.33,0,0,0,2.34,2.18c2.68.94,6.63.36,8.12-.74h0a2.19,2.19,0,0,0,1.14-1.86,46.16,46.16,0,0,0,.11-8.29v0h0a28.61,28.61,0,0,0,11.49.33h0v0c0,.93,0,1.58,0,2.22s0,1.28,0,2.21c.07.16.13.32.19.47a4.54,4.54,0,0,0,.42.92,3.2,3.2,0,0,0,1.82,1.33,2.28,2.28,0,0,0,.74,0,3.57,3.57,0,0,1,.58,0h0q.21.19.42.42a4.25,4.25,0,0,0,1.34,1,8.62,8.62,0,0,0,7.57-.63c1.2-.84,1.19-2,1.17-3.29V63c0-1.31,0-2.64-.09-3.93-.07-2.61-.15-5.31,0-8h0c2.26-2,4.69-10.74,2-15.8a6.57,6.57,0,0,1-.32-.73,2.91,2.91,0,0,0-.61-1l0,0h0c1.72,0,3.13,0,4.5,0s2.77,0,4.49,0h0a7.52,7.52,0,0,0,2.35.83l.69.16a2.12,2.12,0,0,0,1.67-2,8.41,8.41,0,0,0-.15-2.35c-.17-.75-1-.71-1.56-.62a3.16,3.16,0,0,0-1.18.48l-.12.07c-.56.32-1.16.67-1.7,1h0a95,95,0,0,1-11.27-.2h0c-7.05-4.82-15.58-6.38-25.34-4.62h0c-2.18-3-6.55-.79-9.75.81a21.73,21.73,0,0,1-2.46,1.11h0a34.63,34.63,0,0,0-10.71.63,5.77,5.77,0,0,0-3,1.29,7.7,7.7,0,0,0-1.4,3.16,81.87,81.87,0,0,0-2.65,29.5,4.85,4.85,0,0,0,.76,2.55,4.57,4.57,0,0,0,3.05,1.92,1.73,1.73,0,0,0,1.41-.61,1.82,1.82,0,0,0,.58-1.7c0-.12,0-.27,0-.43,0-1-.15-2-.26-3a21.43,21.43,0,0,1-.22-3.22A12.87,12.87,0,0,1,36.47,54a6.65,6.65,0,0,1,3.09-3.78A3.35,3.35,0,0,1,43,49.9c3,1.82,3,10,3,13.49V64a4,4,0,0,0,3.16,1.93Z"/></g><g id="path3946"><path class="cls-12" d="M73.65,58.19a13.1,13.1,0,0,0,2.51-.49A30.37,30.37,0,0,1,76.52,65a3.1,3.1,0,0,1-3-1.75A23.5,23.5,0,0,1,73.65,58.19Z"/><path class="cls-11" d="M76.42,65a3.12,3.12,0,0,1-2.92-1.77h0a23.84,23.84,0,0,1,.13-5h0a13,13,0,0,0,2.51-.5h0a26.63,26.63,0,0,1,.37,6.51c0,.26,0,.52,0,.77h-.12Zm-2.89-1.78A3.1,3.1,0,0,0,76.42,65h.09c0-.25,0-.5,0-.75a26.88,26.88,0,0,0-.37-6.48,12.77,12.77,0,0,1-2.49.49A24.23,24.23,0,0,0,73.53,63.21Z"/></g><g id="path3948"><path class="cls-2" d="M35.2,65.43c-.59-3.9-1.2-10.79,1.58-14.06a10.14,10.14,0,0,1,.71-.86c4.4-4.15,8.24-.58,9.28,4a70.66,70.66,0,0,1,.13,8.73,2.93,2.93,0,0,0,2.78,1.59c.4.84.3,1.46.75,2,2,2.38,4.85,2.46,7.15,1.83A21.61,21.61,0,0,0,60,67.48a27,27,0,0,0-.26-10.71c0-.48-.17-.8-.17-1.29a1.73,1.73,0,0,1,.83.36c-.53,1.95,6.77,3.28,15.27.93.1-.34-.07-.76.14-.88a1,1,0,0,1,.89-.11c0,.62,0,1.23.1,1.85a13.29,13.29,0,0,0,2,0,2.23,2.23,0,0,1-1.58.57c.14,0-.09.28,0,.31.4.09,1.15,0,1.44.08-.57.35-1.23.15-1.62.53.09,2.07.15,4.28.23,6.35,3,1.75,6,2.07,8.77-.4.46-4.82-.07-8.46-.27-12.43l-.92-.13c4.83-6.51,5.76-13.16,1.71-19.18,0-.26-.22-.52-.26-.79,3.53-.13,7.15.23,10.68.1a19,19,0,0,0,2.94.83c1-.37,1.22-3.25.2-2.94s-1.57,1-2.68,1.38c-4,0-8.54-.16-12.59-.16-6.3-5-14.53-7-23.81-4.1,2.78,5.67,2.45,11.34.69,17-.23.76-3.71,3-.86.55S62,25.72,58.41,25.69c-3.77,0-7.14,1.17-11.24,4.5-.56-.59-.51-.35-.27-1.19a26.17,26.17,0,0,0-9,.79,3.78,3.78,0,0,0-3.44,2.52c-2.24,9.31-4,18.61-3.17,29.35a12.13,12.13,0,0,0,.92,3.44C33.81,66.85,34.67,66.34,35.2,65.43Z"/></g><g id="path3950"><path class="cls-11" d="M41.53,33a5.86,5.86,0,0,0-2.81-.39.41.41,0,0,0-.42.25.54.54,0,0,0,0,.41c.08.23.1.22.3.25a1.89,1.89,0,0,0,.78-.06,2.35,2.35,0,0,1,2-.1c.3,0,.32-.13.23-.36Z"/><path class="cls-11" d="M38.76,33.56l-.21,0h0c-.17,0-.2,0-.27-.26a.49.49,0,0,1,0-.42.42.42,0,0,1,.42-.26,6.05,6.05,0,0,1,2.82.39h0c.06.14.07.23,0,.29s-.13.09-.27.1h0a2.28,2.28,0,0,0-1.95.1h0A2.8,2.8,0,0,1,38.76,33.56Zm.58-1c-.21,0-.41,0-.62,0a.39.39,0,0,0-.4.25.46.46,0,0,0,0,.39c.07.21.08.21.24.24h0a1.86,1.86,0,0,0,.77-.06,2.35,2.35,0,0,1,2-.1q.2,0,.24-.09s0-.12,0-.25A6,6,0,0,0,39.34,32.59Z"/></g><g id="path3952"><path class="cls-11" d="M39.36,36.35a1.48,1.48,0,0,1,1.34-.83c0-.35,0-.54-.43-.53a4,4,0,0,0-1.52,1.35,2.89,2.89,0,0,0-.21,1.59,1.43,1.43,0,0,0,.53.93,1.77,1.77,0,0,0,2-.08c.95-.56,1.89-2.13.23-2.73a2.51,2.51,0,0,0-1.93.4s0,0,0-.1Z"/><path class="cls-11" d="M39.88,39.15a1.26,1.26,0,0,1-.82-.28,1.36,1.36,0,0,1-.53-.94,2.77,2.77,0,0,1,.2-1.6A4.17,4.17,0,0,1,40.26,35h0a.49.49,0,0,1,.39.11.57.57,0,0,1,.06.44h0a1.49,1.49,0,0,0-1.32.82.17.17,0,0,0,0,.09A2.57,2.57,0,0,1,41.3,36a1.19,1.19,0,0,1,.91,1,2.2,2.2,0,0,1-1.14,1.79A2.4,2.4,0,0,1,39.88,39.15Zm.4-4.15a4.12,4.12,0,0,0-1.52,1.35,2.7,2.7,0,0,0-.2,1.58,1.39,1.39,0,0,0,.52.92,1.75,1.75,0,0,0,2-.09A2.17,2.17,0,0,0,42.18,37a1.18,1.18,0,0,0-.89-.95,2.54,2.54,0,0,0-1.92.41h0s0-.09,0-.13h0a1.5,1.5,0,0,1,1.34-.84.51.51,0,0,0,0-.4A.5.5,0,0,0,40.28,35Z"/></g><g id="path3954"><path class="cls-1" d="M40.11,38.17a1.88,1.88,0,0,0,.06.29.27.27,0,0,0,0,.11.54.54,0,0,1-.52.06c-.58-.26-.55-1.08-.24-1.53a1.81,1.81,0,0,1,1.39-.77c.31.17.4.31.25.35a1.32,1.32,0,0,0-.28.09.46.46,0,0,0-.25.29c.13,0,.2,0,.33,0v.41a.6.6,0,0,0-.42,0c-.26.08-.37.45-.37.69Z"/></g><g id="path3956"><path class="cls-11" d="M41.22,49c3.41-1,5-3.71,4.43-6.94a2.82,2.82,0,0,1-1.36-.37l-.06-.53c1.08.53,2.63.7,2.44-1,.16,0,.38,0,.53-.1-.05,1.18-.27,1.28-1,1.79a8,8,0,0,1-2.38,7,2.26,2.26,0,0,0,.1,1.09A3.3,3.3,0,0,0,41.22,49Z"/><path class="cls-11" d="M44,50l0-.05a3.31,3.31,0,0,0-2.68-1h0v0c3.34-1,5-3.66,4.42-6.91l-.16,0a2.44,2.44,0,0,1-1.19-.34h0l-.07-.56h0a2.31,2.31,0,0,0,2.07.18,1.17,1.17,0,0,0,.36-1.16h0a1.09,1.09,0,0,1,.26-.05l.27,0h0v0c0,1.14-.26,1.28-.92,1.75l-.07.05A7.77,7.77,0,0,1,46,45.39a9.14,9.14,0,0,1-2.15,3.49,1.88,1.88,0,0,0,.07.93l0,.15ZM41.32,49a3.29,3.29,0,0,1,2.58.95l0-.09a2,2,0,0,1-.07-1h0a8,8,0,0,0,2.37-7h0l.09-.06c.65-.46.85-.59.9-1.7l-.24,0-.25,0a1.17,1.17,0,0,1-.37,1.17,2.26,2.26,0,0,1-2.08-.16l.07.49a2.44,2.44,0,0,0,1.16.34l.18,0h0a5.89,5.89,0,0,1-.7,4.31A6.5,6.5,0,0,1,41.32,49Z"/></g><g id="path3958"><path class="cls-13" d="M83.14,66.85c-.08-1-.19-1.87-.22-2.88-.07-2.29-1.81-2.79-1.9-.49,0,1.2,0,2.34,0,3.47A5.86,5.86,0,0,0,83.14,66.85Z"/><path class="cls-11" d="M82,67.21c-.27,0-.53,0-.79,0l-.42,0V67c0-.38,0-.76,0-1.13,0-.76,0-1.54,0-2.35,0-1.25.56-1.7,1-1.7h0c.59,0,1.25.78,1.29,2.2,0,.63.07,1.21.13,1.81q0,.51.09,1V67l-.16,0A4.13,4.13,0,0,1,82,67.21Zm-.79-.46h0a5.14,5.14,0,0,0,1.66-.06c0-.3,0-.59-.07-.87-.06-.61-.11-1.19-.13-1.84,0-1.22-.54-1.78-.87-1.78h0c-.27,0-.56.39-.6,1.29s0,1.57,0,2.33C81.22,66.12,81.23,66.44,81.23,66.75Z"/></g><g id="path3960"><path class="cls-13" d="M81.05,67a18.55,18.55,0,0,1-.22-3.49c.15-2.12-1.85-4.35-2-.41A21.78,21.78,0,0,0,79,66.48,14.39,14.39,0,0,0,81.05,67Z"/><path class="cls-11" d="M81.3,67.2l-.28,0a15.33,15.33,0,0,1-2.12-.48l-.12,0,0-.13A21.54,21.54,0,0,1,78.63,63c0-1.3.29-2.07.74-2.3a.65.65,0,0,1,.69.07,3.17,3.17,0,0,1,1,2.67,14.81,14.81,0,0,0,.17,3c0,.15,0,.31.05.47Zm-2.14-.88a13.53,13.53,0,0,0,1.65.37l0-.19a15.31,15.31,0,0,1-.17-3,2.85,2.85,0,0,0-.79-2.29c-.16-.1-.24-.06-.27,0s-.45.35-.51,1.93A21.45,21.45,0,0,0,79.16,66.32Z"/></g><g id="path3962"><path class="cls-13" d="M79,66.68l-.29-4.49c-.2-3.37-1.55-3-1.66-.2-.06,1.31,0,2-.07,3.34C77.58,65.76,78.25,66.61,79,66.68Z"/><path class="cls-11" d="M79.2,66.92l-.25,0a3.06,3.06,0,0,1-1.52-.9,5.9,5.9,0,0,0-.6-.49l-.1-.07v-.12a15.68,15.68,0,0,0,.05-1.89c0-.43,0-.88,0-1.44.06-1.46.46-2.4,1-2.41h0c.58,0,1,1,1.06,2.6Zm-2-1.69a7,7,0,0,1,.54.44,3.9,3.9,0,0,0,1,.74l-.27-4.21c-.11-1.83-.53-2.2-.64-2.2h0c-.17,0-.55.6-.6,2,0,.55,0,1,0,1.42S77.23,64.52,77.17,65.23Z"/></g><g id="path3964"><path class="cls-13" d="M55.9,69a18.84,18.84,0,0,0-.17-3.14q-.85-3.64-2.12-.93v4A9.74,9.74,0,0,0,55.9,69Z"/><path class="cls-11" d="M55.06,69.26c-.45,0-.9,0-1.34-.07l-.32,0V64.88l0,0c.43-.91.82-1.32,1.25-1.28s.92.77,1.27,2.25v0l0,.29A16.76,16.76,0,0,1,56.11,69v.17l-.17,0A6.35,6.35,0,0,1,55.06,69.26Zm-1.23-.49a8.94,8.94,0,0,0,1.86,0,16.19,16.19,0,0,0-.14-2.64l0-.28c-.41-1.73-.78-1.89-.89-1.91s-.36.05-.8,1Z"/></g><g id="path3966"><path class="cls-13" d="M51.73,68.34c0-1.56,0-2.58,0-4.14q.87-3.42,1.72.7c0,1.47,0,2.42,0,3.9a4.36,4.36,0,0,1-1.78-.46Z"/><path class="cls-11" d="M53.73,69l-.34,0a4.39,4.39,0,0,1-1.76-.48l-.11-.06v-.13c0-.77,0-1.42,0-2.06s0-1.29,0-2.07v0c.3-1.2.59-1.71,1-1.71h0c.33,0,.7.3,1.14,2.41v.05c0,.73,0,1.34,0,1.95s0,1.21,0,2Zm-1.79-.83a3.7,3.7,0,0,0,1.36.35c0-.63,0-1.17,0-1.71s0-1.2,0-1.93c-.41-2-.72-2.06-.73-2.06s-.24.07-.57,1.37c0,.77,0,1.4,0,2S52,67.49,51.94,68.21Z"/></g><g id="path3968"><path class="cls-13" d="M49.65,65.29c.07-1.3.35-2.6.43-3.9-.53-2.56-1.11-3-1.72-1.35,0,1.66,0,3.33-.07,5a1.79,1.79,0,0,0,1.36.26Z"/><path class="cls-11" d="M49.27,65.55a2.12,2.12,0,0,1-.94-.27l-.25-.12L48.15,60v0c.3-.8.59-1.14.94-1.11s.74.34,1.18,2.5v.06c0,.65-.13,1.32-.22,2s-.17,1.29-.21,1.94v.15l-.16,0A1.6,1.6,0,0,1,49.27,65.55Zm-.77-.65h0a1.59,1.59,0,0,0,1,.22c0-.61.12-1.21.2-1.8s.18-1.28.21-1.91c-.43-2.09-.78-2.14-.79-2.14s-.19,0-.5.81Z"/></g><g id="path3970"><path class="cls-13" d="M74.84,64.86c.11-1.37,0-2.52,0-3.87,0-1.64,1.66-1.16,1.74.34s.14,2.28.22,3.77a3.56,3.56,0,0,1-2-.24Z"/><path class="cls-11" d="M76,65.33a2.66,2.66,0,0,1-1.3-.28L74.62,65v-.14a19.14,19.14,0,0,0,0-2.27c0-.51,0-1,0-1.59,0-.9.48-1.23.9-1.24h0a1.5,1.5,0,0,1,1.25,1.57c0,.77.07,1.35.11,1.91s.07,1.12.11,1.86v.21H76Zm-1-.59a3.21,3.21,0,0,0,1.47.16h0c0-.63-.07-1.13-.1-1.63s-.08-1.15-.12-1.92-.5-1.17-.82-1.17h0c-.29,0-.46.32-.48.83s0,1.06,0,1.57C75.09,63.26,75.11,64,75.06,64.74Z"/></g><g id="path3972"><path class="cls-14" d="M74.74,64.93c0-1,0-2.23-.07-3.24.1-1.39-.86-3.44-1.24-1.16a24.35,24.35,0,0,0-.21,2.55A11.31,11.31,0,0,0,74.74,64.93Z"/><path class="cls-11" d="M75,65.37l-.36-.27a7.21,7.21,0,0,1-1.23-1.45l-.33-.44,0-.06v-.09c0-.29,0-.55,0-.79a15.86,15.86,0,0,1,.17-1.77c.06-.31.21-1.26.75-1.2s1,1.49.91,2.39c0,.51,0,1.07,0,1.62s0,1.11,0,1.61ZM73.43,63c.09.12.19.25.29.4.24.33.52.72.79,1,0-.37,0-.75,0-1.12,0-.54,0-1.11,0-1.61h0a2.68,2.68,0,0,0-.54-2s-.16.1-.28.85a12.65,12.65,0,0,0-.16,1.72C73.46,62.51,73.45,62.75,73.43,63Z"/></g><g id="path3980"><path class="cls-15" d="M33.55,66a4.24,4.24,0,0,1-.8-1A3.73,3.73,0,0,1,32.29,63c-.69-11.74-.09-22,3.66-30.38.46-1,.54-1.34,1.48-1.8,2.27-1.12,5.74-1.28,9.14-1.07.09-.26.29-.53.2-.79a26.4,26.4,0,0,0-8.33.66c-1.85.3-3.66.62-4.1,3.57C30.6,43.12,30.88,52.5,31.26,61.7a6.52,6.52,0,0,0,.3,2c.72,2.32,1.43,2.25,2,2.37Z"/></g><g id="path3982"><path class="cls-15" d="M47.89,64.57c0-2.44-.19-4.89-.19-7.34-.35-1.54-.23-2.86-.91-4.09a19.16,19.16,0,0,0-1.87-2.72q2.91,4.53,1.85,13C47.17,63.82,47.5,64.2,47.89,64.57Z"/></g><g id="path3984"><path class="cls-11" d="M48.17,65.14,47.89,65a4,4,0,0,1-1.78-1.46l0-.06v-.08c0-.92,0-1.76,0-2.58s0-1.67,0-2.61V58l.23,0a2.15,2.15,0,0,1,1.89,1.64v.06c0,.91,0,1.73,0,2.54s0,1.63,0,2.55Zm-1.68-1.77a4,4,0,0,0,1.26,1.14c0-.79,0-1.52,0-2.24s0-1.6,0-2.5a1.7,1.7,0,0,0-1.31-1.26c0,.83,0,1.59,0,2.33S46.53,62.47,46.49,63.37Z"/></g><g id="path3986"><path class="cls-15" d="M51.6,68a2.67,2.67,0,0,1-1.32-1.12L50,53.79l.66.67a14.35,14.35,0,0,1,.2,2.77c.07.18.13.36.2.53A95.1,95.1,0,0,0,51.6,68Z"/></g><g id="path3988"><path class="cls-11" d="M51.91,69.06,51.63,69a3.36,3.36,0,0,1-1.84-1.59l0,0,0-4.54,0,0c.42-.76.79-1.25,1.2-1.16s.73.83.91,2.52v1Zm-1.72-1.84a3,3,0,0,0,1.3,1.24l0-4.31C51.3,62.13,51,62,51,62s-.24,0-.73.9Z"/></g><g id="path3990"><path class="cls-11" d="M47,53.2a1.52,1.52,0,0,0-.1-.66l.33.06L49,54a1,1,0,0,0,.53-.53.68.68,0,0,1,.56.27c0,1.1,0,2.2,0,3.3a1,1,0,0,1,.33.6,16.89,16.89,0,0,1,2.12.2c0,.17.09.28.13.46a10.49,10.49,0,0,0-2.38,0v.5a7.27,7.27,0,0,1,1.85.13c0,.15,0,.21.07.36a7.8,7.8,0,0,0-2,0c.08,2.73.11,5.43,0,8.16-.22-.51-.64-1-.86-1.52a52,52,0,0,0,.17-10.51A7.16,7.16,0,0,0,47,53.2Z"/><path class="cls-11" d="M50.13,67.49a5.85,5.85,0,0,0-.43-.76,5.85,5.85,0,0,1-.43-.76h0a51.81,51.81,0,0,0,.16-10.51A7.29,7.29,0,0,0,47,53.21h0a1.07,1.07,0,0,0-.06-.47c0-.06,0-.13,0-.19v0l.36.07L49,54a1,1,0,0,0,.52-.51h0a.7.7,0,0,1,.58.27h0c0,.55,0,1.11,0,1.65s0,1.1,0,1.65a1.09,1.09,0,0,1,.33.58,12.5,12.5,0,0,1,1.61.14l.49.06h0c0,.09.05.17.07.24s0,.14.06.23v0h0a11,11,0,0,0-2.36,0v.47A7.25,7.25,0,0,1,52,58.9h.06l0,.18s0,.1,0,.18v0h0a7,7,0,0,0-2,0c.1,3.27.1,5.78,0,8.15ZM49.3,66a5.16,5.16,0,0,0,.43.75c.14.23.29.47.4.7.09-2.35.09-4.85,0-8.09v0h0a7.47,7.47,0,0,1,2,0l0-.16s0-.1,0-.17h0a7.43,7.43,0,0,0-1.81-.13h0v-.53h0a10.32,10.32,0,0,1,2.36,0l-.06-.2-.07-.23L52,57.78a11,11,0,0,0-1.62-.13h0v0a1.09,1.09,0,0,0-.33-.58h0c0-.56,0-1.12,0-1.66s0-1.1,0-1.65a.66.66,0,0,0-.54-.25A1.05,1.05,0,0,1,49,54h0l-1.71-1.39-.31-.06a2.71,2.71,0,0,1,.1.63,7.32,7.32,0,0,1,2.44,2.25h0A51.82,51.82,0,0,1,49.3,66Z"/></g><g id="path3992"><path class="cls-15" d="M48.62,29.13c1.68-.51,1.66-.12,3.46-1.19a15.83,15.83,0,0,1,6.86-2,4.79,4.79,0,0,0-3.18-.27,19.41,19.41,0,0,0-7.14,3.44Z"/></g><g id="path3994"><path class="cls-15" d="M61.85,27.68a27.36,27.36,0,0,1,17.58.79c-4.71-2.11-10-3-17.52-1.19C61.91,27.55,61.85,27.41,61.85,27.68Z"/></g></g></g><g id="g4390"><g id="text4386" class="cls-16"><g class="cls-16"><path class="cls-2" d="M26.66,92.72h2.85l-.37,1.69A5.74,5.74,0,0,1,31,93a4.86,4.86,0,0,1,2.22-.55A3.45,3.45,0,0,1,36.23,94a5.57,5.57,0,0,1,.45,4.39,8.37,8.37,0,0,1-2.4,4.5,5.54,5.54,0,0,1-3.78,1.6,3.3,3.3,0,0,1-1.65-.38,4.3,4.3,0,0,1-1.35-1.3l-1.27,5.81H23.17Zm1.8,5.57a4,4,0,0,0,.15,2.88,1.82,1.82,0,0,0,1.67.93,2.78,2.78,0,0,0,2-.86,5.31,5.31,0,0,0,1.32-2.8,3.69,3.69,0,0,0-.14-2.69,1.74,1.74,0,0,0-1.61-.88,3,3,0,0,0-2,.86A4.82,4.82,0,0,0,28.46,98.29Z"/><path class="cls-2" d="M45.42,104.26l.38-1.73a6.1,6.1,0,0,1-2,1.46,5.42,5.42,0,0,1-2.28.53,3.64,3.64,0,0,1-2-.51,2.22,2.22,0,0,1-1-1.43,6.31,6.31,0,0,1,.14-2.56l1.6-7.3h3.06L42.18,98a15.06,15.06,0,0,0-.49,3,1.3,1.3,0,0,0,.43.87,1.6,1.6,0,0,0,1.06.32,2.89,2.89,0,0,0,1.49-.43,3.11,3.11,0,0,0,1.09-1.07,14.65,14.65,0,0,0,.91-3.11l1.06-4.87h3.06l-2.53,11.54Z"/><path class="cls-2" d="M51,105l3.4.43a1,1,0,0,0,.22.83,2,2,0,0,0,1.3.33,4,4,0,0,0,1.87-.36,2.12,2.12,0,0,0,.78-.77,5.27,5.27,0,0,0,.45-1.4l.37-1.69a5.29,5.29,0,0,1-3.87,1.87,3.3,3.3,0,0,1-3.26-2A6,6,0,0,1,52,98.42,8,8,0,0,1,54.38,94a5.66,5.66,0,0,1,3.81-1.54,3.29,3.29,0,0,1,3.13,1.89l.35-1.62h2.86l-2.27,10.36a12,12,0,0,1-1,3,5.27,5.27,0,0,1-1.3,1.59,5.63,5.63,0,0,1-1.82.9,9.23,9.23,0,0,1-2.64.33c-2,0-3.28-.34-4-1a2.61,2.61,0,0,1-.67-2.55C50.9,105.29,50.93,105.17,51,105Zm4.22-6.77a3.74,3.74,0,0,0,.12,2.69,1.72,1.72,0,0,0,1.57.85,3.06,3.06,0,0,0,2.08-.87,4.82,4.82,0,0,0,1.34-2.59,3.62,3.62,0,0,0-.16-2.67,1.84,1.84,0,0,0-1.68-.87,2.83,2.83,0,0,0-2,.86A4.86,4.86,0,0,0,55.19,98.25Z"/><path class="cls-2" d="M68.55,88.32h6.37a18.12,18.12,0,0,1,2.78.16,3.24,3.24,0,0,1,1.52.66,3,3,0,0,1,.94,1.33,3.31,3.31,0,0,1,.08,1.86,4.68,4.68,0,0,1-1.06,2.06,5.09,5.09,0,0,1-1.94,1.4,3.1,3.1,0,0,1,1.92,1.45,3.33,3.33,0,0,1,.26,2.4,5.77,5.77,0,0,1-1,2.12,6,6,0,0,1-1.74,1.64,5.48,5.48,0,0,1-2.32.75c-.55.06-1.85.1-3.91.11H65.06Zm1.25,9-.94,4.27h3a15.8,15.8,0,0,0,2.23-.1,2.61,2.61,0,0,0,1.31-.64,2.53,2.53,0,0,0,.75-1.35A1.88,1.88,0,0,0,76,98.27a1.43,1.43,0,0,0-.84-.73,10.41,10.41,0,0,0-2.81-.23ZM71.18,91l-.8,3.68h2.11c1.25,0,2,0,2.35,0A2.74,2.74,0,0,0,76.26,94,2.17,2.17,0,0,0,77,92.79a1.53,1.53,0,0,0-.14-1.2A1.44,1.44,0,0,0,75.77,91c-.31,0-1.22,0-2.74,0Z"/><path class="cls-2" d="M82.2,96.39a11.9,11.9,0,0,1,1.62-4.09,10.12,10.12,0,0,1,2-2.18,8.19,8.19,0,0,1,2.38-1.44,9.77,9.77,0,0,1,3.57-.63,6,6,0,0,1,5.16,2.19c1.09,1.45,1.35,3.48.78,6.07a10.53,10.53,0,0,1-3.42,6,9.06,9.06,0,0,1-6.08,2.18q-3.56,0-5.18-2.17C81.91,100.92,81.64,98.93,82.2,96.39Zm3.34-.11a5.27,5.27,0,0,0,.35,4.11,3.22,3.22,0,0,0,2.87,1.39,5.06,5.06,0,0,0,3.46-1.38,7.63,7.63,0,0,0,2.14-4.16c.4-1.83.3-3.19-.3-4.09a3.25,3.25,0,0,0-2.9-1.35,5.07,5.07,0,0,0-3.5,1.37A7.46,7.46,0,0,0,85.54,96.28Z"/></g><g class="cls-16"><path class="cls-1" d="M26.23,109.61H23.17a.93.93,0,0,1-.74-.36,1,1,0,0,1-.19-.8l3.49-15.94a1,1,0,0,1,.93-.75h2.85a.93.93,0,0,1,.74.36l.09.12.17-.09a5.84,5.84,0,0,1,2.66-.65,4.45,4.45,0,0,1,3.86,2,6.55,6.55,0,0,1,.58,5.13,9.28,9.28,0,0,1-2.69,5,6.49,6.49,0,0,1-4.42,1.86,4.39,4.39,0,0,1-2.11-.5l-.34-.21-.89,4.09A1,1,0,0,1,26.23,109.61Zm-1.87-1.91h1.1l1.11-5.07a1,1,0,0,1,.74-.73,1,1,0,0,1,.81.22,3.72,3.72,0,0,1-.33-.45,4.86,4.86,0,0,1-.26-3.58,5.92,5.92,0,0,1,1.31-2.77l-.13-.06a.93.93,0,0,1-.5-1.05l.12-.54h-.9Zm3.9-5.44,0,0a3.51,3.51,0,0,0,1,1,2.52,2.52,0,0,0,1.19.26,4.57,4.57,0,0,0,3.14-1.36,7.3,7.3,0,0,0,2.1-4,4.72,4.72,0,0,0-.3-3.66,2.5,2.5,0,0,0-2.27-1.15,3.79,3.79,0,0,0-1.79.44l-.23.12a3.6,3.6,0,0,1,.66,0,2.72,2.72,0,0,1,2.43,1.33,4.62,4.62,0,0,1,.25,3.4,6.27,6.27,0,0,1-1.59,3.28,3.74,3.74,0,0,1-2.62,1.12A2.77,2.77,0,0,1,28.26,102.26Zm3.55-6.44a2,2,0,0,0-1.4.61,4,4,0,0,0-1,2.07h0c-.3,1.36-.11,2,0,2.17a.88.88,0,0,0,.86.48,1.87,1.87,0,0,0,1.3-.59,4.56,4.56,0,0,0,1.05-2.32,2.86,2.86,0,0,0,0-2A.83.83,0,0,0,31.81,95.82Zm-3.35,2.47Z"/><path class="cls-1" d="M41.54,105.48a4.67,4.67,0,0,1-2.49-.66,3.15,3.15,0,0,1-1.44-2,7,7,0,0,1,.14-3l1.6-7.31a1,1,0,0,1,.93-.75h3.06a.93.93,0,0,1,.74.36,1,1,0,0,1,.19.8l-1.16,5.3a15.77,15.77,0,0,0-.47,2.7c0,.16.07.21.1.23s.13.09.44.09a1.84,1.84,0,0,0,1-.29,2,2,0,0,0,.75-.73,12.39,12.39,0,0,0,.8-2.84l1.07-4.87a1,1,0,0,1,.93-.75h3.06a.93.93,0,0,1,.74.36,1,1,0,0,1,.19.8l-2.53,11.55a1,1,0,0,1-.93.74H45.42a1,1,0,0,1-.74-.35,1.08,1.08,0,0,1-.11-.18l-.34.17A6.29,6.29,0,0,1,41.54,105.48Zm-.49-11.81-1.43,6.56a5,5,0,0,0-.15,2.13,1.23,1.23,0,0,0,.6.84,2.65,2.65,0,0,0,1.47.37,4.33,4.33,0,0,0,1.84-.43h-.2a2.52,2.52,0,0,1-1.68-.55,2.23,2.23,0,0,1-.76-1.51,12.92,12.92,0,0,1,.51-3.27l.91-4.15Zm5.56,9.64h.88l2.11-9.64H48.5l-.9,4.12a12.37,12.37,0,0,1-1,3.39,4.1,4.1,0,0,1-.35.5h0a1,1,0,0,1,.49,1Z"/><path class="cls-1" d="M55.5,109.9c-2.24,0-3.75-.42-4.62-1.28a3.57,3.57,0,0,1-.93-3.43l.1-.42a1,1,0,0,1,1-.69l1.47.18a4.38,4.38,0,0,1-1.19-1.56,6.93,6.93,0,0,1-.28-4.48,9,9,0,0,1,2.66-5,6.62,6.62,0,0,1,4.44-1.77,4.37,4.37,0,0,1,2.62.79,1,1,0,0,1,.86-.53h2.86a.93.93,0,0,1,.74.36,1,1,0,0,1,.19.8l-2.27,10.36a12.54,12.54,0,0,1-1.1,3.31,6,6,0,0,1-1.54,1.88,6.31,6.31,0,0,1-2.14,1.06A10,10,0,0,1,55.5,109.9Zm-3.75-3.82a1.53,1.53,0,0,0,.48,1.19c.27.27,1.06.72,3.27.72a8.46,8.46,0,0,0,2.37-.28,4.48,4.48,0,0,0,1.5-.74,4.15,4.15,0,0,0,1.05-1.3,11,11,0,0,0,.91-2.8l2-9.2h-.91l-.19.87a1,1,0,0,1-.81.74.94.94,0,0,1-.44,0,4.53,4.53,0,0,1,.23,3.3,5.78,5.78,0,0,1-1.51,3l.08,0a1,1,0,0,1,.49,1l-.37,1.68a6,6,0,0,1-.56,1.68h0a2.91,2.91,0,0,1-1.14,1.12,4.88,4.88,0,0,1-2.32.47A2.82,2.82,0,0,1,54,107a1.57,1.57,0,0,1-.45-.7Zm3.57-.48a2,2,0,0,0,.57.06,3.09,3.09,0,0,0,1.42-.25,1.1,1.1,0,0,0,.41-.42,1.64,1.64,0,0,0,.12-.3,5.48,5.48,0,0,1-2.35.52h-.2a.8.8,0,0,1,0,.31Zm-.11,0Zm3-12.15A4.65,4.65,0,0,0,55,94.7,7,7,0,0,0,53,98.63a5.14,5.14,0,0,0,.15,3.26,2.36,2.36,0,0,0,2.39,1.42,3.77,3.77,0,0,0,2-.62,3.49,3.49,0,0,1-.65.06,2.67,2.67,0,0,1-2.38-1.31,4.57,4.57,0,0,1-.25-3.39h0A5.91,5.91,0,0,1,55.81,95a3.76,3.76,0,0,1,2.65-1.11,3,3,0,0,1,1.76.52A2.33,2.33,0,0,0,58.19,93.41Zm-2.07,5c-.29,1.32-.1,1.83,0,2a.78.78,0,0,0,.76.4,2.08,2.08,0,0,0,1.44-.63,3.89,3.89,0,0,0,1-2.09c.27-1.23.1-1.75,0-2a.9.9,0,0,0-.88-.43,1.91,1.91,0,0,0-1.34.6,4.08,4.08,0,0,0-1,2.11Z"/><path class="cls-1" d="M65.06,105.21a1,1,0,0,1-.75-.35.93.93,0,0,1-.18-.8l3.49-15.94a.94.94,0,0,1,.93-.75h6.37a19.09,19.09,0,0,1,3,.17,4.27,4.27,0,0,1,1.95.85,4,4,0,0,1,1.23,1.75,4.21,4.21,0,0,1,.12,2.4A5.62,5.62,0,0,1,79.9,95a5.82,5.82,0,0,1-.75.74,3.52,3.52,0,0,1,.85,1,4.33,4.33,0,0,1,.35,3.06,6.68,6.68,0,0,1-1.12,2.47,6.75,6.75,0,0,1-2,1.9,6.57,6.57,0,0,1-2.72.89c-.59.06-1.9.1-4,.11Zm1.18-1.9h4.24c2.5,0,3.45-.07,3.81-.1a4.59,4.59,0,0,0,1.93-.63,5.3,5.3,0,0,0,2.27-3.14,2.44,2.44,0,0,0-.16-1.74,2.2,2.2,0,0,0-1.37-1,1,1,0,0,1-.08-1.79,4.17,4.17,0,0,0,1.58-1.14,3.65,3.65,0,0,0,.85-1.64,2.36,2.36,0,0,0,0-1.33,2,2,0,0,0-.63-.92,2.41,2.41,0,0,0-1.09-.46,16.42,16.42,0,0,0-2.62-.14H69.31Zm5.6-.78h-3a.93.93,0,0,1-.74-.36,1,1,0,0,1-.19-.8l.94-4.26a.94.94,0,0,1,.93-.75h2.59a9.61,9.61,0,0,1,3.14.29,2.39,2.39,0,0,1,1.37,1.21,2.74,2.74,0,0,1,.16,1.83,3.47,3.47,0,0,1-1,1.86,3.43,3.43,0,0,1-1.77.86A12.91,12.91,0,0,1,71.84,102.53Zm-1.79-1.91h1.79a12.44,12.44,0,0,0,2-.08h0a1.63,1.63,0,0,0,.83-.41,1.56,1.56,0,0,0,.46-.85,1,1,0,0,0,0-.6s-.07-.15-.32-.25a10,10,0,0,0-2.47-.16H70.56Zm2.44-5H70.38a1,1,0,0,1-.75-.35.93.93,0,0,1-.18-.8l.8-3.69a1,1,0,0,1,.93-.75H73c2.09,0,2.63,0,2.85.06a2.35,2.35,0,0,1,1.77,1A2.42,2.42,0,0,1,77.94,93a3.06,3.06,0,0,1-1.08,1.78,3.56,3.56,0,0,1-1.92.78A23.54,23.54,0,0,1,72.49,95.61Zm-.93-1.9h.93c1.58,0,2.08,0,2.24,0a1.72,1.72,0,0,0,.93-.36,1.21,1.21,0,0,0,.41-.71.72.72,0,0,0,0-.47s-.14-.11-.42-.14-.69,0-2.62,0H72Z"/><path class="cls-1" d="M88.17,105.49c-2.68,0-4.68-.86-6-2.55s-1.57-4-1-6.75h0A13,13,0,0,1,83,91.78a11.33,11.33,0,0,1,2.15-2.39,9.47,9.47,0,0,1,2.65-1.6,10.74,10.74,0,0,1,3.91-.69c2.65,0,4.65.86,5.92,2.57s1.58,4,.95,6.85a11.52,11.52,0,0,1-3.73,6.56A10.08,10.08,0,0,1,88.17,105.49ZM91.73,89a8.84,8.84,0,0,0-3.23.57,7.23,7.23,0,0,0-2.1,1.28,9.31,9.31,0,0,0-1.79,2,11.36,11.36,0,0,0-1.48,3.76h0c-.49,2.25-.28,4,.62,5.2s2.35,1.79,4.42,1.79a8.17,8.17,0,0,0,5.47-2,9.74,9.74,0,0,0,3.1-5.52c.51-2.3.3-4.08-.61-5.3S93.78,89,91.73,89ZM82.2,96.39Zm6.56,6.35a4.19,4.19,0,0,1-3.66-1.82,6.12,6.12,0,0,1-.49-4.84h0A8.41,8.41,0,0,1,87,91.46a6,6,0,0,1,4.14-1.61,4.16,4.16,0,0,1,3.69,1.77c.76,1.13.91,2.71.44,4.82a8.49,8.49,0,0,1-2.43,4.66A6,6,0,0,1,88.76,102.74Zm-2.29-6.26a4.4,4.4,0,0,0,.21,3.37,2.28,2.28,0,0,0,2.08,1,4.06,4.06,0,0,0,2.82-1.14A6.75,6.75,0,0,0,93.43,96a4.58,4.58,0,0,0-.16-3.35,2.25,2.25,0,0,0-2.11-.93,4.15,4.15,0,0,0-2.87,1.12,6.66,6.66,0,0,0-1.82,3.62Z"/></g></g><g id="text4382" class="cls-16"><g class="cls-16"><path class="cls-2" d="M26.66,92.72h2.85l-.37,1.69A5.74,5.74,0,0,1,31,93a4.86,4.86,0,0,1,2.22-.55A3.45,3.45,0,0,1,36.23,94a5.57,5.57,0,0,1,.45,4.39,8.37,8.37,0,0,1-2.4,4.5,5.54,5.54,0,0,1-3.78,1.6,3.3,3.3,0,0,1-1.65-.38,4.3,4.3,0,0,1-1.35-1.3l-1.27,5.81H23.17Zm1.8,5.57a4,4,0,0,0,.15,2.88,1.82,1.82,0,0,0,1.67.93,2.78,2.78,0,0,0,2-.86,5.31,5.31,0,0,0,1.32-2.8,3.69,3.69,0,0,0-.14-2.69,1.74,1.74,0,0,0-1.61-.88,3,3,0,0,0-2,.86A4.82,4.82,0,0,0,28.46,98.29Z"/><path class="cls-2" d="M45.42,104.26l.38-1.73a6.1,6.1,0,0,1-2,1.46,5.42,5.42,0,0,1-2.28.53,3.64,3.64,0,0,1-2-.51,2.22,2.22,0,0,1-1-1.43,6.31,6.31,0,0,1,.14-2.56l1.6-7.3h3.06L42.18,98a15.06,15.06,0,0,0-.49,3,1.3,1.3,0,0,0,.43.87,1.6,1.6,0,0,0,1.06.32,2.89,2.89,0,0,0,1.49-.43,3.11,3.11,0,0,0,1.09-1.07,14.65,14.65,0,0,0,.91-3.11l1.06-4.87h3.06l-2.53,11.54Z"/><path class="cls-2" d="M51,105l3.4.43a1,1,0,0,0,.22.83,2,2,0,0,0,1.3.33,4,4,0,0,0,1.87-.36,2.12,2.12,0,0,0,.78-.77,5.27,5.27,0,0,0,.45-1.4l.37-1.69a5.29,5.29,0,0,1-3.87,1.87,3.3,3.3,0,0,1-3.26-2A6,6,0,0,1,52,98.42,8,8,0,0,1,54.38,94a5.66,5.66,0,0,1,3.81-1.54,3.29,3.29,0,0,1,3.13,1.89l.35-1.62h2.86l-2.27,10.36a12,12,0,0,1-1,3,5.27,5.27,0,0,1-1.3,1.59,5.63,5.63,0,0,1-1.82.9,9.23,9.23,0,0,1-2.64.33c-2,0-3.28-.34-4-1a2.61,2.61,0,0,1-.67-2.55C50.9,105.29,50.93,105.17,51,105Zm4.22-6.77a3.74,3.74,0,0,0,.12,2.69,1.72,1.72,0,0,0,1.57.85,3.06,3.06,0,0,0,2.08-.87,4.82,4.82,0,0,0,1.34-2.59,3.62,3.62,0,0,0-.16-2.67,1.84,1.84,0,0,0-1.68-.87,2.83,2.83,0,0,0-2,.86A4.86,4.86,0,0,0,55.19,98.25Z"/><path class="cls-2" d="M68.55,88.32h6.37a18.12,18.12,0,0,1,2.78.16,3.24,3.24,0,0,1,1.52.66,3,3,0,0,1,.94,1.33,3.31,3.31,0,0,1,.08,1.86,4.68,4.68,0,0,1-1.06,2.06,5.09,5.09,0,0,1-1.94,1.4,3.1,3.1,0,0,1,1.92,1.45,3.33,3.33,0,0,1,.26,2.4,5.77,5.77,0,0,1-1,2.12,6,6,0,0,1-1.74,1.64,5.48,5.48,0,0,1-2.32.75c-.55.06-1.85.1-3.91.11H65.06Zm1.25,9-.94,4.27h3a15.8,15.8,0,0,0,2.23-.1,2.61,2.61,0,0,0,1.31-.64,2.53,2.53,0,0,0,.75-1.35A1.88,1.88,0,0,0,76,98.27a1.43,1.43,0,0,0-.84-.73,10.41,10.41,0,0,0-2.81-.23ZM71.18,91l-.8,3.68h2.11c1.25,0,2,0,2.35,0A2.74,2.74,0,0,0,76.26,94,2.17,2.17,0,0,0,77,92.79a1.53,1.53,0,0,0-.14-1.2A1.44,1.44,0,0,0,75.77,91c-.31,0-1.22,0-2.74,0Z"/><path class="cls-2" d="M82.2,96.39a11.9,11.9,0,0,1,1.62-4.09,10.12,10.12,0,0,1,2-2.18,8.19,8.19,0,0,1,2.38-1.44,9.77,9.77,0,0,1,3.57-.63,6,6,0,0,1,5.16,2.19c1.09,1.45,1.35,3.48.78,6.07a10.53,10.53,0,0,1-3.42,6,9.06,9.06,0,0,1-6.08,2.18q-3.56,0-5.18-2.17C81.91,100.92,81.64,98.93,82.2,96.39Zm3.34-.11a5.27,5.27,0,0,0,.35,4.11,3.22,3.22,0,0,0,2.87,1.39,5.06,5.06,0,0,0,3.46-1.38,7.63,7.63,0,0,0,2.14-4.16c.4-1.83.3-3.19-.3-4.09a3.25,3.25,0,0,0-2.9-1.35,5.07,5.07,0,0,0-3.5,1.37A7.46,7.46,0,0,0,85.54,96.28Z"/></g></g><g id="text4223" class="cls-16"><g class="cls-16"><path class="cls-2" d="M26.66,92.72h2.85l-.37,1.69A5.74,5.74,0,0,1,31,93a4.86,4.86,0,0,1,2.22-.55A3.45,3.45,0,0,1,36.23,94a5.57,5.57,0,0,1,.45,4.39,8.37,8.37,0,0,1-2.4,4.5,5.54,5.54,0,0,1-3.78,1.6,3.3,3.3,0,0,1-1.65-.38,4.3,4.3,0,0,1-1.35-1.3l-1.27,5.81H23.17Zm1.8,5.57a4,4,0,0,0,.15,2.88,1.82,1.82,0,0,0,1.67.93,2.78,2.78,0,0,0,2-.86,5.31,5.31,0,0,0,1.32-2.8,3.69,3.69,0,0,0-.14-2.69,1.74,1.74,0,0,0-1.61-.88,3,3,0,0,0-2,.86A4.82,4.82,0,0,0,28.46,98.29Z"/><path class="cls-2" d="M45.42,104.26l.38-1.73a6.1,6.1,0,0,1-2,1.46,5.42,5.42,0,0,1-2.28.53,3.64,3.64,0,0,1-2-.51,2.22,2.22,0,0,1-1-1.43,6.31,6.31,0,0,1,.14-2.56l1.6-7.3h3.06L42.18,98a15.06,15.06,0,0,0-.49,3,1.3,1.3,0,0,0,.43.87,1.6,1.6,0,0,0,1.06.32,2.89,2.89,0,0,0,1.49-.43,3.11,3.11,0,0,0,1.09-1.07,14.65,14.65,0,0,0,.91-3.11l1.06-4.87h3.06l-2.53,11.54Z"/><path class="cls-2" d="M51,105l3.4.43a1,1,0,0,0,.22.83,2,2,0,0,0,1.3.33,4,4,0,0,0,1.87-.36,2.12,2.12,0,0,0,.78-.77,5.27,5.27,0,0,0,.45-1.4l.37-1.69a5.29,5.29,0,0,1-3.87,1.87,3.3,3.3,0,0,1-3.26-2A6,6,0,0,1,52,98.42,8,8,0,0,1,54.38,94a5.66,5.66,0,0,1,3.81-1.54,3.29,3.29,0,0,1,3.13,1.89l.35-1.62h2.86l-2.27,10.36a12,12,0,0,1-1,3,5.27,5.27,0,0,1-1.3,1.59,5.63,5.63,0,0,1-1.82.9,9.23,9.23,0,0,1-2.64.33c-2,0-3.28-.34-4-1a2.61,2.61,0,0,1-.67-2.55C50.9,105.29,50.93,105.17,51,105Zm4.22-6.77a3.74,3.74,0,0,0,.12,2.69,1.72,1.72,0,0,0,1.57.85,3.06,3.06,0,0,0,2.08-.87,4.82,4.82,0,0,0,1.34-2.59,3.62,3.62,0,0,0-.16-2.67,1.84,1.84,0,0,0-1.68-.87,2.83,2.83,0,0,0-2,.86A4.86,4.86,0,0,0,55.19,98.25Z"/><path class="cls-2" d="M68.55,88.32h6.37a18.12,18.12,0,0,1,2.78.16,3.24,3.24,0,0,1,1.52.66,3,3,0,0,1,.94,1.33,3.31,3.31,0,0,1,.08,1.86,4.68,4.68,0,0,1-1.06,2.06,5.09,5.09,0,0,1-1.94,1.4,3.1,3.1,0,0,1,1.92,1.45,3.33,3.33,0,0,1,.26,2.4,5.77,5.77,0,0,1-1,2.12,6,6,0,0,1-1.74,1.64,5.48,5.48,0,0,1-2.32.75c-.55.06-1.85.1-3.91.11H65.06Zm1.25,9-.94,4.27h3a15.8,15.8,0,0,0,2.23-.1,2.61,2.61,0,0,0,1.31-.64,2.53,2.53,0,0,0,.75-1.35A1.88,1.88,0,0,0,76,98.27a1.43,1.43,0,0,0-.84-.73,10.41,10.41,0,0,0-2.81-.23ZM71.18,91l-.8,3.68h2.11c1.25,0,2,0,2.35,0A2.74,2.74,0,0,0,76.26,94,2.17,2.17,0,0,0,77,92.79a1.53,1.53,0,0,0-.14-1.2A1.44,1.44,0,0,0,75.77,91c-.31,0-1.22,0-2.74,0Z"/><path class="cls-2" d="M82.2,96.39a11.9,11.9,0,0,1,1.62-4.09,10.12,10.12,0,0,1,2-2.18,8.19,8.19,0,0,1,2.38-1.44,9.77,9.77,0,0,1,3.57-.63,6,6,0,0,1,5.16,2.19c1.09,1.45,1.35,3.48.78,6.07a10.53,10.53,0,0,1-3.42,6,9.06,9.06,0,0,1-6.08,2.18q-3.56,0-5.18-2.17C81.91,100.92,81.64,98.93,82.2,96.39Zm3.34-.11a5.27,5.27,0,0,0,.35,4.11,3.22,3.22,0,0,0,2.87,1.39,5.06,5.06,0,0,0,3.46-1.38,7.63,7.63,0,0,0,2.14-4.16c.4-1.83.3-3.19-.3-4.09a3.25,3.25,0,0,0-2.9-1.35,5.07,5.07,0,0,0-3.5,1.37A7.46,7.46,0,0,0,85.54,96.28Z"/></g><g class="cls-16"><path class="cls-11" d="M26.23,108.89H23.17a.21.21,0,0,1-.18-.09.21.21,0,0,1,0-.2l3.49-15.94a.23.23,0,0,1,.23-.18h2.85a.25.25,0,0,1,.19.09.23.23,0,0,1,0,.2l-.19.89a5.84,5.84,0,0,1,1.29-.87,5,5,0,0,1,2.33-.57,3.7,3.7,0,0,1,3.26,1.68,5.84,5.84,0,0,1,.48,4.57,8.54,8.54,0,0,1-2.47,4.63,5.82,5.82,0,0,1-3.94,1.66,3.63,3.63,0,0,1-1.76-.41,4,4,0,0,1-1.12-1l-1.16,5.31A.24.24,0,0,1,26.23,108.89Zm-2.76-.47H26l1.23-5.63a.24.24,0,0,1,.18-.19.24.24,0,0,1,.24.1A4.06,4.06,0,0,0,29,103.93a3.06,3.06,0,0,0,1.53.35,5.3,5.3,0,0,0,3.62-1.54,8.09,8.09,0,0,0,2.32-4.37,5.4,5.4,0,0,0-.4-4.21,3.23,3.23,0,0,0-2.87-1.47,4.63,4.63,0,0,0-2.11.52,5.57,5.57,0,0,0-1.74,1.36.24.24,0,0,1-.29.05.21.21,0,0,1-.12-.26l.3-1.41H26.85Zm6.81-6.08a2.08,2.08,0,0,1-1.88-1,4.2,4.2,0,0,1-.17-3.05l.23.05-.23-.05a5.06,5.06,0,0,1,1.37-2.68,3.18,3.18,0,0,1,2.21-.93,2,2,0,0,1,1.82,1,4,4,0,0,1,.16,2.88,5.73,5.73,0,0,1-1.38,2.92A3,3,0,0,1,30.28,102.34Zm1.53-7.23a2.7,2.7,0,0,0-1.89.8,4.55,4.55,0,0,0-1.22,2.43h0a3.77,3.77,0,0,0,.11,2.7,1.6,1.6,0,0,0,1.47.82,2.54,2.54,0,0,0,1.8-.79,5.24,5.24,0,0,0,1.25-2.68,3.57,3.57,0,0,0-.11-2.52A1.54,1.54,0,0,0,31.81,95.11Z"/><path class="cls-11" d="M41.54,104.76a3.8,3.8,0,0,1-2.1-.55,2.4,2.4,0,0,1-1.13-1.58,6.26,6.26,0,0,1,.14-2.66l1.6-7.31a.23.23,0,0,1,.23-.18h3.06a.21.21,0,0,1,.18.09.21.21,0,0,1,0,.2l-1.16,5.3a14.55,14.55,0,0,0-.48,2.91,1,1,0,0,0,.34.71,1.35,1.35,0,0,0,.91.27,2.65,2.65,0,0,0,1.37-.4,2.69,2.69,0,0,0,1-1,13.71,13.71,0,0,0,.88-3l1.07-4.87a.23.23,0,0,1,.23-.18h3.06a.21.21,0,0,1,.18.09.24.24,0,0,1,.05.2l-2.53,11.54a.24.24,0,0,1-.23.19H45.42a.24.24,0,0,1-.23-.29l.21-.95a6.68,6.68,0,0,1-1.48.95A5.73,5.73,0,0,1,41.54,104.76ZM40.48,93l-1.56,7.12a6,6,0,0,0-.15,2.45,2,2,0,0,0,.92,1.29,3.46,3.46,0,0,0,1.85.47,5.11,5.11,0,0,0,2.18-.51,5.86,5.86,0,0,0,1.9-1.4.24.24,0,0,1,.29-.05.22.22,0,0,1,.12.26L45.72,104h2.35L50.49,93H47.92l-1,4.69a13.82,13.82,0,0,1-.94,3.18A3.2,3.2,0,0,1,44.8,102a3.09,3.09,0,0,1-1.62.46,1.83,1.83,0,0,1-1.22-.37,1.44,1.44,0,0,1-.5-1A14.05,14.05,0,0,1,42,98L43,93Z"/><path class="cls-11" d="M55.5,109.19c-2,0-3.39-.36-4.12-1.08a2.84,2.84,0,0,1-.73-2.77c0-.11.05-.23.09-.38a.24.24,0,0,1,.26-.17l3.4.42a.24.24,0,0,1,.21.25c0,.32,0,.55.14.64a1.63,1.63,0,0,0,1.14.27,3.83,3.83,0,0,0,1.76-.33,1.94,1.94,0,0,0,.69-.68,5.41,5.41,0,0,0,.41-1.33l.21-.93a5.24,5.24,0,0,1-3.47,1.4A3.55,3.55,0,0,1,52,102.4a6.31,6.31,0,0,1-.24-4,8.32,8.32,0,0,1,2.45-4.56,5.85,5.85,0,0,1,4-1.59,3.5,3.5,0,0,1,3,1.48l.23-1a.23.23,0,0,1,.23-.18h2.86a.21.21,0,0,1,.18.09.21.21,0,0,1,.05.2l-2.27,10.36a11.87,11.87,0,0,1-1,3.12,5.42,5.42,0,0,1-1.35,1.66,5.82,5.82,0,0,1-1.9.94A9.72,9.72,0,0,1,55.5,109.19Zm-4.35-3.91a.62.62,0,0,1,0,.16,2.35,2.35,0,0,0,.61,2.33c.62.62,1.89.94,3.78.94a9,9,0,0,0,2.57-.32,5.11,5.11,0,0,0,1.75-.86A5,5,0,0,0,61.05,106a11.79,11.79,0,0,0,1-3L64.23,93H61.86l-.31,1.44a.23.23,0,0,1-.2.18.27.27,0,0,1-.25-.12,3,3,0,0,0-2.91-1.76,5.44,5.44,0,0,0-3.65,1.48,7.79,7.79,0,0,0-2.29,4.3,5.77,5.77,0,0,0,.2,3.72,3.06,3.06,0,0,0,3,1.83,5.06,5.06,0,0,0,3.69-1.79.24.24,0,0,1,.29,0,.25.25,0,0,1,.12.26l-.37,1.69a5.39,5.39,0,0,1-.48,1.47,2.24,2.24,0,0,1-.87.86,4.22,4.22,0,0,1-2,.39,2.16,2.16,0,0,1-1.46-.39,1,1,0,0,1-.3-.8ZM56.88,102a1.93,1.93,0,0,1-1.77-1A3.9,3.9,0,0,1,55,98.2h0a5.28,5.28,0,0,1,1.35-2.73,3.09,3.09,0,0,1,2.16-.92,2.1,2.1,0,0,1,1.89,1,3.84,3.84,0,0,1,.18,2.85,5,5,0,0,1-1.41,2.71A3.25,3.25,0,0,1,56.88,102ZM55.42,98.3a3.57,3.57,0,0,0,.09,2.52,1.51,1.51,0,0,0,1.37.74,2.83,2.83,0,0,0,1.92-.82,4.57,4.57,0,0,0,1.27-2.47,3.44,3.44,0,0,0-.13-2.48A1.61,1.61,0,0,0,58.46,95a2.59,2.59,0,0,0-1.83.79,4.74,4.74,0,0,0-1.21,2.48Z"/><path class="cls-11" d="M65.06,104.5a.23.23,0,0,1-.19-.09.29.29,0,0,1-.05-.2l3.49-15.94a.25.25,0,0,1,.24-.19h6.37a17.43,17.43,0,0,1,2.83.17,3.46,3.46,0,0,1,1.62.7,3.22,3.22,0,0,1,1,1.44,3.52,3.52,0,0,1,.09,2,4.86,4.86,0,0,1-1.11,2.16,5.37,5.37,0,0,1-1.51,1.22,3.11,3.11,0,0,1,1.52,1.35,3.58,3.58,0,0,1,.28,2.57,6,6,0,0,1-1,2.2,6.15,6.15,0,0,1-1.82,1.71,5.77,5.77,0,0,1-2.42.79c-.56.06-1.84.1-3.93.11Zm.29-.48h5.13c2,0,3.34,0,3.88-.1a5.34,5.34,0,0,0,2.23-.73,5.78,5.78,0,0,0,1.67-1.57,5.7,5.7,0,0,0,.93-2A3.16,3.16,0,0,0,79,97.35,2.9,2.9,0,0,0,77.17,96,.25.25,0,0,1,77,95.8a.25.25,0,0,1,.15-.23A4.72,4.72,0,0,0,79,94.23a4.34,4.34,0,0,0,1-2,3,3,0,0,0-.07-1.73,2.83,2.83,0,0,0-.86-1.23,3,3,0,0,0-1.41-.6,16.43,16.43,0,0,0-2.74-.16H68.74Zm6.49-2.21h-3a.23.23,0,0,1-.18-.08.21.21,0,0,1-.05-.2l.93-4.27a.24.24,0,0,1,.24-.18h2.59a10.47,10.47,0,0,1,2.89.24,1.7,1.7,0,0,1,1,.85,2.14,2.14,0,0,1,.1,1.37,2.71,2.71,0,0,1-2.25,2.17A14.81,14.81,0,0,1,71.84,101.81Zm-2.68-.47h2.68a13.54,13.54,0,0,0,2.18-.1,2.4,2.4,0,0,0,1.2-.57,2.31,2.31,0,0,0,.67-1.23,1.64,1.64,0,0,0-.06-1.07,1.22,1.22,0,0,0-.72-.6,9.25,9.25,0,0,0-2.72-.22H70Zm3.33-6.44H70.38a.23.23,0,0,1-.19-.09.29.29,0,0,1,0-.2L71,90.92a.24.24,0,0,1,.23-.18H73c1.54,0,2.44,0,2.77.05a1.68,1.68,0,0,1,1.26.67,1.75,1.75,0,0,1,.18,1.38,2.4,2.4,0,0,1-.83,1.38,3,3,0,0,1-1.55.62C74.54,94.88,73.76,94.9,72.49,94.9Zm-1.82-.48h1.82c1.23,0,2,0,2.32,0a2.44,2.44,0,0,0,1.3-.52,1.89,1.89,0,0,0,.66-1.11,1.27,1.27,0,0,0-.11-1,1.21,1.21,0,0,0-.92-.45c-.3,0-1.21-.06-2.71-.06H71.38Z"/><path class="cls-11" d="M88.17,104.77c-2.44,0-4.25-.76-5.37-2.26s-1.4-3.58-.84-6.17a12.29,12.29,0,0,1,1.66-4.17,10.66,10.66,0,0,1,2-2.24,8.58,8.58,0,0,1,2.44-1.47,10.09,10.09,0,0,1,3.66-.65,6.27,6.27,0,0,1,5.35,2.28c1.13,1.51,1.41,3.62.83,6.27a11,11,0,0,1-3.5,6.18A9.43,9.43,0,0,1,88.17,104.77Zm3.56-16.48a9.84,9.84,0,0,0-3.49.61,8,8,0,0,0-2.3,1.4A9.91,9.91,0,0,0,84,92.43a11.93,11.93,0,0,0-1.59,4h0c-.54,2.46-.29,4.4.75,5.78s2.71,2.08,5,2.08a8.92,8.92,0,0,0,5.93-2.13,10.4,10.4,0,0,0,3.34-5.91c.55-2.51.3-4.49-.74-5.88A5.82,5.82,0,0,0,91.73,88.29Zm-9.53,8.1ZM88.76,102a3.47,3.47,0,0,1-3.07-1.5,5.57,5.57,0,0,1-.39-4.29h0A7.77,7.77,0,0,1,87.5,92a5.31,5.31,0,0,1,3.66-1.43A3.44,3.44,0,0,1,94.25,92c.64,1,.76,2.38.35,4.27a7.88,7.88,0,0,1-2.22,4.28A5.3,5.3,0,0,1,88.76,102Zm-3-5.69a5.07,5.07,0,0,0,.32,3.92,3,3,0,0,0,2.67,1.29,4.83,4.83,0,0,0,3.3-1.32,7.43,7.43,0,0,0,2.07-4c.38-1.76.29-3.07-.27-3.91A3,3,0,0,0,91.16,91a4.92,4.92,0,0,0-3.35,1.3,7.41,7.41,0,0,0-2,4Z"/></g></g></g></g></g></g></svg>