<?xml version="1.0" encoding="utf-8"?>
<!-- Generator: Adobe Illustrator 24.2.2, SVG Export Plug-In . SVG Version: 6.00 Build 0)  -->
<svg version="1.1" id="Layer_1" xmlns="http://www.w3.org/2000/svg" xmlns:xlink="http://www.w3.org/1999/xlink" x="0px" y="0px"
	 viewBox="0 0 124.7 144" style="enable-background:new 0 0 124.7 144;" xml:space="preserve">
<style type="text/css">
	.st0{fill:#FFFFFF;}
	.st1{fill:#6280B5;}
	.st2{fill:#E10A17;}
	.st3{fill:#6080B6;}
</style>
<g>
	<polygon class="st0" points="3,106.8 3,38 62.5,3.7 122,38 122,106.8 62.5,141.1 	"/>
	<g>
		<g>
			<g>
				<path class="st1" d="M62.5,0.4l-62.4,36v72l62.4,36l62.4-36v-72L62.5,0.4z M119.2,105.1l-56.7,32.7L5.8,105.1V39.7L62.5,6.9
					l56.7,32.7V105.1z"/>
			</g>
		</g>
	</g>
	<g>
		<path class="st2" d="M46,84.6l-3.3,25.1c-0.4,3.4,1.4,5.7,4.6,5.7h18.1c3.1,0,5.6-2.3,6-5.7L74.2,88h0.1l0.4-3.3H46z"/>
		<path class="st2" d="M76.6,29.3H58.6c-3.1,0-5.6,2.3-6,5.7l-3.2,24.5H78L81.2,35C81.7,31.6,79.8,29.3,76.6,29.3"/>
		<path class="st3" d="M91.4,38.8c0.4,0.1,0.5,0.1,0.7,0c0.8-0.3,1.9,0,2.4,0.6l0.3,0.3l2.7,0c3,0,3.5,0.1,4.7,0.5
			c0.6,0.3,1.7,0.9,1.9,1.2c0.2,0.2,0.3,0.2,1.2,0.2c0.6,0,1.1,0,1.1-0.1c0-0.1,0.7-0.6,1.1-0.7c0.4-0.1,0.9,0.1,1,0.4
			c0,0.2,0.1,0.3,0.4,0.4c0.5,0.2,0.5,0.8,0,1c-0.1,0-0.2,0.1-0.2,0.3c0,0.1-0.1,0.3-0.3,0.4c-0.4,0.3-0.9,0.2-1.6-0.3
			c-0.5-0.3-0.6-0.4-1.1-0.4c-0.3,0-0.5,0-0.5,0.1c0,0.1,0.1,0.3,0.2,0.5c0.5,1.1,0.7,3.2,0.4,4.2c-0.2,0.4-0.2,0.8-0.2,3.7
			c0,3.5,0,3.6-0.5,4c-0.7,0.5-0.9,0.6-2.3,0.6c-1.4,0-1.9-0.1-2.4-0.5c-0.1-0.1-0.4-0.2-0.6-0.2c-0.2,0-0.5-0.1-0.8-0.2
			c-0.9-0.4-1.1-0.8-1.1-2.4v-1.2h-0.4h-0.4v1.6c0,1.8-0.1,2.1-0.6,2.5c-1.1,0.9-3.8,0.9-4.9-0.1c-0.1-0.1-0.5-0.3-0.7-0.3
			c-0.5-0.1-1-0.4-1.3-0.9c-0.2-0.2-0.2-0.4-0.2-2.8l0-2.6H89c-0.5,0-0.9,0.3-1.1,0.8c-0.2,0.4-0.2,0.7-0.5,3.7
			c-0.1,0.8-0.2,1.5-0.2,1.6c0,0.1-0.2,0.3-0.4,0.4c-0.3,0.2-0.5,0.2-1,0.2c-0.8,0-1.3-0.2-1.5-0.7c-0.1-0.3-0.2-0.7-0.1-3.7
			c0-3.3,0-3.3,0.2-3.4c0.5-0.1,4.4-1.4,6.6-2.2c1.5-0.6,2.9-1.3,4-2c0.5-0.3,0.6-0.5,0.7-0.7c0-0.3-0.1-1.4-0.2-1.6
			c-0.1-0.1-0.4,0-1.3,0.4c-2.4,0.9-5.3,1.8-6.8,2c-0.2,0-0.6,0.1-0.9,0.2c-0.3,0.1-0.9,0.2-1.4,0.2l-0.8,0.1l0.1-0.4
			c0.2-1.7,1.3-2.7,3.3-3.2c0.6-0.2,0.8-0.2,1.3-0.7c0.3-0.3,0.7-0.6,0.9-0.7C90.2,38.6,90.9,38.6,91.4,38.8"/>
		<path class="st3" d="M30.5,38.8c0.4,0.1,0.5,0.1,0.7,0c0.8-0.3,1.9,0,2.4,0.6l0.3,0.3l2.7,0c3,0,3.5,0.1,4.7,0.5
			c0.6,0.3,1.7,0.9,1.9,1.2c0.2,0.2,0.3,0.2,1.2,0.2c0.6,0,1.1,0,1.1-0.1c0-0.1,0.7-0.6,1.1-0.7c0.4-0.1,0.9,0.1,1,0.4
			c0,0.2,0.1,0.3,0.4,0.4c0.5,0.2,0.5,0.8,0,1c-0.1,0-0.2,0.1-0.2,0.3c0,0.1-0.1,0.3-0.3,0.4c-0.4,0.3-0.9,0.2-1.6-0.3
			c-0.5-0.3-0.6-0.4-1.1-0.4c-0.3,0-0.5,0-0.5,0.1c0,0.1,0.1,0.3,0.2,0.5c0.5,1.1,0.7,3.2,0.4,4.2c-0.2,0.4-0.2,0.8-0.2,3.7
			c0,3.5,0,3.6-0.5,4c-0.7,0.5-0.9,0.6-2.3,0.6c-1.4,0-1.8-0.1-2.4-0.5c-0.1-0.1-0.4-0.2-0.6-0.2c-0.2,0-0.5-0.1-0.8-0.2
			c-0.9-0.4-1.1-0.8-1.1-2.4v-1.2h-0.4h-0.4v1.6c0,1.8-0.1,2.1-0.6,2.5c-1.1,0.9-3.8,0.9-4.9-0.1c-0.1-0.1-0.5-0.3-0.7-0.3
			c-0.5-0.1-1-0.4-1.3-0.9c-0.2-0.2-0.2-0.4-0.2-2.8l0-2.6H28c-0.5,0-0.9,0.3-1.1,0.8c-0.2,0.4-0.2,0.7-0.5,3.7
			c-0.1,0.8-0.2,1.5-0.2,1.6c0,0.1-0.2,0.3-0.4,0.4c-0.3,0.2-0.5,0.2-1,0.2c-0.8,0-1.3-0.2-1.5-0.7c-0.1-0.3-0.2-0.7-0.1-3.7
			c0-3.3,0-3.3,0.2-3.4c0.5-0.1,4.4-1.4,6.6-2.2c1.5-0.6,2.9-1.3,4-2c0.5-0.3,0.6-0.5,0.7-0.7c0-0.3-0.1-1.4-0.2-1.6
			c-0.1-0.1-0.4,0-1.3,0.4c-2.4,0.9-5.3,1.8-6.8,2c-0.2,0-0.6,0.1-0.9,0.2c-0.3,0.1-0.9,0.2-1.4,0.2l-0.8,0.1l0.1-0.4
			c0.2-1.7,1.3-2.7,3.3-3.2c0.6-0.2,0.8-0.2,1.3-0.7c0.3-0.3,0.7-0.6,0.9-0.7C29.3,38.6,30,38.6,30.5,38.8"/>
		<path class="st3" d="M84,89c0.4,0.1,0.5,0.1,0.7,0c0.8-0.3,1.9,0,2.4,0.6l0.3,0.3l2.7,0c3,0,3.5,0.1,4.7,0.5
			c0.6,0.3,1.7,0.9,1.9,1.2c0.2,0.2,0.3,0.2,1.2,0.2c0.6,0,1.1,0,1.1-0.1c0-0.1,0.7-0.6,1.1-0.7c0.4-0.1,0.9,0.1,1,0.4
			c0,0.2,0.1,0.3,0.4,0.4c0.5,0.2,0.5,0.8,0,1c-0.1,0-0.2,0.1-0.2,0.3c0,0.1-0.1,0.3-0.3,0.4c-0.4,0.3-0.9,0.2-1.6-0.3
			c-0.5-0.3-0.6-0.4-1.1-0.4c-0.3,0-0.5,0-0.5,0.1s0.1,0.3,0.2,0.5c0.5,1.1,0.7,3.2,0.4,4.2c-0.2,0.4-0.2,0.8-0.2,3.7
			c0,3.5,0,3.6-0.5,4c-0.7,0.5-0.9,0.6-2.3,0.6c-1.4,0-1.9-0.1-2.4-0.5c-0.1-0.1-0.4-0.2-0.6-0.2c-0.2,0-0.5-0.1-0.8-0.2
			c-0.9-0.4-1.1-0.8-1.1-2.4v-1.2H90h-0.4v1.6c0,1.8-0.1,2.1-0.6,2.5c-1.1,0.9-3.8,0.9-4.9-0.1c-0.1-0.1-0.5-0.3-0.7-0.3
			c-0.5-0.1-1-0.4-1.3-0.9c-0.2-0.2-0.2-0.4-0.2-2.8l0-2.6h-0.4c-0.5,0-0.9,0.3-1.1,0.8c-0.2,0.4-0.2,0.7-0.5,3.7
			c-0.1,0.8-0.2,1.5-0.2,1.6c0,0.1-0.2,0.3-0.4,0.4c-0.3,0.2-0.5,0.2-1,0.2c-0.8,0-1.3-0.2-1.5-0.7c-0.1-0.3-0.2-0.7-0.1-3.7
			c0-3.3,0-3.3,0.2-3.4c0.5-0.1,4.4-1.4,6.6-2.2c1.5-0.6,2.9-1.3,4-2c0.5-0.3,0.6-0.5,0.7-0.7c0-0.3-0.1-1.4-0.2-1.6
			c-0.1-0.1-0.4,0-1.3,0.4c-2.4,0.9-5.3,1.8-6.8,2c-0.2,0-0.6,0.1-0.9,0.2C78.6,93.9,78,94,77.5,94l-0.8,0.1l0.1-0.4
			C77,92,78,91,80.1,90.5c0.6-0.2,0.8-0.2,1.3-0.7c0.3-0.3,0.7-0.6,0.9-0.7C82.7,88.9,83.4,88.8,84,89L84,89z"/>
		<path class="st3" d="M23,89c0.4,0.1,0.5,0.1,0.7,0c0.8-0.3,1.9,0,2.4,0.6l0.3,0.3l2.7,0c3,0,3.5,0.1,4.7,0.5
			c0.6,0.3,1.7,0.9,1.9,1.2c0.2,0.2,0.3,0.2,1.2,0.2c0.6,0,1.1,0,1.1-0.1c0-0.1,0.7-0.6,1.1-0.7c0.4-0.1,0.9,0.1,1,0.4
			c0,0.2,0.1,0.3,0.4,0.4c0.5,0.2,0.5,0.8,0,1c-0.1,0-0.2,0.1-0.2,0.3c0,0.1-0.1,0.3-0.3,0.4c-0.4,0.3-0.9,0.2-1.6-0.3
			c-0.5-0.3-0.6-0.4-1.1-0.4c-0.3,0-0.5,0-0.5,0.1s0.1,0.3,0.2,0.5c0.5,1.1,0.7,3.2,0.4,4.2c-0.2,0.4-0.2,0.8-0.2,3.7
			c0,3.5,0,3.6-0.5,4c-0.7,0.5-0.9,0.6-2.3,0.6c-1.4,0-1.9-0.1-2.4-0.5c-0.1-0.1-0.4-0.2-0.6-0.2c-0.2,0-0.5-0.1-0.8-0.2
			c-0.9-0.4-1.1-0.8-1.1-2.4v-1.2h-0.4h-0.4v1.6c0,1.8-0.1,2.1-0.6,2.5c-1.1,0.9-3.8,0.9-4.9-0.1c-0.1-0.1-0.5-0.3-0.7-0.3
			c-0.5-0.1-1-0.4-1.3-0.9c-0.2-0.2-0.2-0.4-0.2-2.8l0-2.6h-0.4c-0.5,0-0.9,0.3-1.1,0.8c-0.2,0.4-0.2,0.7-0.5,3.7
			c-0.1,0.8-0.2,1.5-0.2,1.6c0,0.1-0.2,0.3-0.4,0.4c-0.3,0.2-0.5,0.2-1,0.2c-0.8,0-1.3-0.2-1.5-0.7c-0.1-0.3-0.2-0.7-0.1-3.7
			c0-3.3,0-3.3,0.2-3.4c0.5-0.1,4.4-1.4,6.6-2.2c1.5-0.6,2.9-1.3,4-2c0.5-0.3,0.6-0.5,0.7-0.7c0-0.3-0.1-1.4-0.2-1.6
			c-0.1-0.1-0.4,0-1.3,0.4c-2.4,0.9-5.3,1.8-6.8,2c-0.2,0-0.6,0.1-0.9,0.2C17.6,93.9,17,94,16.6,94l-0.8,0.1l0.1-0.4
			c0.2-1.7,1.3-2.7,3.3-3.2c0.6-0.2,0.8-0.2,1.3-0.7c0.3-0.3,0.7-0.6,0.9-0.7C21.8,88.9,22.5,88.8,23,89z"/>
		<path class="st3" d="M25.8,74.4c0.1-0.7,0.6-0.7,1.1-0.6l1.7,0.3c0.6,0.1,0.9,0.3,0.7,1.1c-0.5,2.4-2,4.5-5.7,4.5
			c-3.2,0-4.7-1.7-4.7-5.5c0-5.9,2-9.1,6.7-9.1c3.8,0,4.6,2.1,4.6,4.2c0,1.1-0.3,1.4-1,1.5l-1.7,0.3c-0.8,0.1-1,0.1-1-0.3
			c0.1-1.1-0.3-2.2-1.3-2.2c-1.8,0-2.2,2.7-2.2,5.2c0,1.6,0.4,2.4,1.2,2.4C25,76.2,25.7,75.3,25.8,74.4"/>
		<path class="st3" d="M40.8,78.6c0.1,0.5-0.3,0.9-0.8,0.9h-2.2c-0.6,0-1-0.4-1-0.9l-0.1-1.5H34l-0.5,1.5c-0.2,0.6-0.6,0.9-1.2,0.9
			h-2.2c-0.6,0-0.7-0.5-0.6-1l5.1-12.4c0.2-0.6,0.7-0.9,1.3-0.9h2c0.7,0,1,0.4,1.1,0.9L40.8,78.6z M36.6,74.6l-0.3-4.5l-1.5,4.5
			H36.6z"/>
		<path class="st3" d="M52.1,72c0.6,0,0.9,0.4,0.8,0.9l-0.2,1.5c-0.3,2.7-1.7,5.2-5.9,5.2c-3.2,0-4.7-1.7-4.7-5.5
			c0-5.9,2-9.1,6.7-9.1c3.6,0,4.6,1.9,4.6,4.3c0,1-0.2,1.3-1,1.4l-1.7,0.3c-0.7,0.1-1,0-1-0.7c0-1.1-0.6-1.8-1.3-1.8
			c-1.8,0-2.2,2.7-2.2,5.2c0,1.6,0.4,2.4,1.2,2.4c1.1,0,1.7-0.5,1.8-1.6l0-0.1h-0.7c-0.6,0-0.9-0.3-0.8-0.9l0.1-0.4
			c0.1-0.6,0.4-1.1,1.1-1.1H52.1z"/>
		<path class="st3" d="M61.5,76.2c0.6,0,0.9,0.5,0.8,1l-0.2,1.5c-0.1,0.5-0.5,0.9-1.1,0.9h-6.2c-0.6,0-0.9-0.4-0.8-1l1.6-12.2
			c0.1-0.6,0.5-1,1.1-1h2c0.6,0,0.9,0.4,0.8,1l-1.3,9.9H61.5z"/>
		<path class="st3" d="M70.2,76.2c0.6,0,0.9,0.5,0.8,1l-0.2,1.3c-0.1,0.5-0.5,1-1.1,1h-5.4c-0.6,0-0.9-0.5-0.8-1l0.2-1.4
			c0.1-0.5,0.5-1,1.1-1h0.7l1-7.5h-0.7c-0.6,0-0.9-0.4-0.8-1l0.2-1.4c0.1-0.5,0.5-1,1.1-1h5.4c0.6,0,0.9,0.4,0.8,1l-0.2,1.4
			c-0.1,0.5-0.5,1-1.1,1h-0.8l-1,7.5H70.2z"/>
		<path class="st3" d="M83.1,78.6c0.1,0.5-0.3,0.9-0.8,0.9h-2.2c-0.6,0-1-0.4-1-0.9L79,77.1h-2.7l-0.5,1.5c-0.2,0.6-0.6,0.9-1.2,0.9
			h-2.2c-0.6,0-0.7-0.5-0.6-1l5.1-12.4c0.2-0.6,0.7-0.9,1.3-0.9h2c0.6,0,1,0.4,1.1,0.9L83.1,78.6z M78.8,74.6l-0.3-4.5l-1.5,4.5
			H78.8z"/>
		<path class="st3" d="M94.7,78.6c0.1,0.4-0.1,0.9-0.7,0.9h-2c-0.7,0-1.1-0.4-1.2-0.9L89.6,75c0,0,0,0-0.4,0h-0.5l-0.5,3.5
			c-0.1,0.5-0.5,1-1.1,1h-2c-0.6,0-0.9-0.5-0.8-1L86,66.2c0.1-0.5,0.6-0.9,1.1-0.9h4c3.1,0,5.1,1,5.1,4.2c0,2.4-1.1,3.9-2.9,4.8
			L94.7,78.6z M90.8,68.6h-1.2L89.2,72h1.4c1.1,0,2.1-0.6,2.1-1.9C92.6,69.1,91.9,68.6,90.8,68.6"/>
		<path class="st3" d="M102.7,76.2c0.6,0,0.9,0.5,0.8,1l-0.2,1.3c-0.1,0.5-0.5,1-1.1,1h-5.4c-0.6,0-0.9-0.5-0.8-1l0.2-1.4
			c0.1-0.5,0.5-1,1.1-1H98l1-7.5h-0.7c-0.6,0-0.9-0.4-0.8-1l0.2-1.4c0.1-0.5,0.5-1,1.1-1h5.4c0.6,0,0.9,0.4,0.8,1l-0.2,1.4
			c-0.1,0.5-0.5,1-1.1,1h-0.8l-1,7.5H102.7z"/>
		<path class="st0" d="M60.7,50.2h-1.4c-0.2,0-0.3,0.1-0.3,0.3l-0.5,4.3c0,0.2,0.1,0.4,0.3,0.4h0.6c0.2,0,0.3-0.1,0.4-0.4l0.1-1.1
			h0.4c1.2,0,2.1-0.7,2.1-2C62.4,50.5,61.7,50.2,60.7,50.2 M60.5,52.5H60l0.1-1.2h0.4c0.3,0,0.6,0.2,0.6,0.5
			C61.2,52.3,60.9,52.5,60.5,52.5"/>
		<path class="st0" d="M66.3,50.2h-0.6c-0.2,0-0.3,0.1-0.4,0.3L65,53.2c-0.1,0.5-0.2,0.8-0.6,0.8C64,54,64,53.7,64,53.2l0.3-2.7
			c0-0.2-0.1-0.3-0.3-0.3h-0.6c-0.2,0-0.3,0.2-0.4,0.4l-0.3,2.8c-0.1,1.1,0.1,1.9,1.5,1.9c1.4,0,1.8-0.7,2-1.9l0.3-2.8
			C66.6,50.3,66.5,50.2,66.3,50.2"/>
		<path class="st0" d="M68.9,51.3c0.2,0,0.4,0.2,0.4,0.6c0,0.3,0.1,0.3,0.3,0.2l0.5-0.1c0.3,0,0.3-0.1,0.3-0.5
			c0-0.8-0.3-1.5-1.5-1.5c-1.5,0-2.2,1.1-2.2,3.2c0,1.3,0.5,1.9,1.5,1.9c1.4,0,1.8-0.9,1.9-1.8l0.1-0.5c0-0.2-0.1-0.3-0.3-0.3H69
			c-0.2,0-0.3,0.2-0.4,0.4l0,0.2c0,0.2,0.1,0.3,0.3,0.3h0.2l0,0c-0.1,0.4-0.2,0.6-0.6,0.6c-0.3,0-0.4-0.3-0.4-0.8
			C68.1,52.3,68.3,51.3,68.9,51.3"/>
	</g>
</g>
</svg>
