<?xml version="1.0" encoding="utf-8"?>
<!-- Generator: Adobe Illustrator 24.2.2, SVG Export Plug-In . SVG Version: 6.00 Build 0)  -->
<svg version="1.1" id="Layer_1" xmlns="http://www.w3.org/2000/svg" xmlns:xlink="http://www.w3.org/1999/xlink" x="0px" y="0px"
	 viewBox="0 0 124.7 144" style="enable-background:new 0 0 124.7 144;" xml:space="preserve">
<style type="text/css">
	.st0{fill:#FFFFFF;}
	.st1{fill:#6280B5;}
	.st2{fill-rule:evenodd;clip-rule:evenodd;fill:#314A7E;}
	.st3{fill:none;stroke:#617CBC;stroke-width:0.5669;stroke-miterlimit:22.9256;}
	.st4{fill:#314A7E;}
</style>
<g>
	<polygon class="st0" points="3,106.8 3,38 62.5,3.7 122,38 122,106.8 62.5,141.1 	"/>
	<g>
		<g>
			<g>
				<path class="st1" d="M62.5,0.4l-62.4,36v72l62.4,36l62.4-36v-72L62.5,0.4z M119.2,105.1l-56.7,32.7L5.8,105.1V39.7L62.5,6.9
					l56.7,32.7V105.1z"/>
			</g>
		</g>
	</g>
	<g>
		<g>
			<path class="st1" d="M77.6,64.3c-2.2,5.5-6.2,10.8-10.9,14c-4.7,3.2-10.4,5-16.3,4.9c-8,0-15.3-3.3-20.5-8.6
				c-5.2-5.3-8.5-12.5-8.4-20.5c0-8,3.3-15.3,8.6-20.5c5.3-5.2,12.5-8.5,20.5-8.4v8c-5.8,0-11.1,2.3-14.9,6.1
				c-3.8,3.8-6.2,9.1-6.2,14.9c0,5.8,2.3,11.1,6.1,14.9c3.8,3.8,9.1,6.2,14.9,6.2c4.3,0,8.4-1.3,11.8-3.6c3.4-2.3,6.8-6.8,8.4-10.8
				L77.6,64.3z"/>
			
				<ellipse transform="matrix(8.248043e-02 -0.9966 0.9966 8.248043e-02 12.2153 112.4981)" class="st2" cx="67.2" cy="49.6" rx="4.6" ry="4.6"/>
			
				<ellipse transform="matrix(8.248043e-02 -0.9966 0.9966 8.248043e-02 12.2153 112.4981)" class="st3" cx="67.2" cy="49.6" rx="4.6" ry="4.6"/>
			<path class="st1" d="M87.1,56.7V39.5h-7.3v14.2C82.4,54.9,84.8,55.9,87.1,56.7"/>
			<path class="st1" d="M106.3,102.8c2.6-3.2,2.5-2.9,3.5-8.8l-6.5-4.3c-0.2,4.9-0.8,6-2.2,7.8c-1.4,1.8-3.3,2.7-5.8,2.7
				c-1.8,0-3.4-0.5-4.7-1.4c-1.3-1-2.2-2.3-2.7-3.9c-0.5-1.7-0.7-4.3-0.7-7.9V68.6c-2.5-0.8-5-2.1-7.3-3.7v21.4
				c0,5.3,0.5,9.4,1.7,12.3c1.1,2.9,2.9,5.1,5.3,6.7c2.4,1.5,5.2,2.3,8.5,2.3C100.1,107.6,103.8,106,106.3,102.8"/>
			<path class="st2" d="M79.8,55c9.8,5.3,17.6,7.4,23.8,2.7c0,12.4-14.1,12.9-23.8,5.4V55z"/>
			<path class="st4" d="M25.6,100v7.4h-4.2V86h6.9c1.4,0,2.6,0.2,3.6,0.5c1,0.4,1.8,0.8,2.5,1.4c0.7,0.6,1.2,1.3,1.4,2.2
				c0.3,0.8,0.5,1.7,0.5,2.7c0,1.1-0.2,2-0.5,2.9c-0.3,0.9-0.8,1.6-1.5,2.2c-0.7,0.6-1.5,1.1-2.5,1.4c-1,0.4-2.2,0.5-3.5,0.5H25.6z
				 M25.6,96.7h2.6c1.3,0,2.2-0.3,2.8-1c0.6-0.7,0.9-1.6,0.9-2.8c0-1.1-0.3-2-0.9-2.6c-0.6-0.7-1.5-1-2.8-1h-2.6V96.7z M47.7,103.9
				c0.8,0,1.4-0.1,2-0.4c0.6-0.2,1.1-0.6,1.4-1.1c0.4-0.4,0.7-1,1-1.6c0.2-0.7,0.3-1.4,0.3-2.2V86h4.2v12.7c0,1.3-0.2,2.5-0.6,3.6
				c-0.4,1.1-1,2-1.8,2.8c-0.8,0.8-1.7,1.4-2.8,1.8c-1.1,0.5-2.3,0.7-3.7,0.7s-2.6-0.2-3.8-0.7c-1.1-0.4-2-1.1-2.8-1.8
				c-0.8-0.8-1.4-1.7-1.8-2.8c-0.4-1.1-0.6-2.3-0.6-3.6V86H43v12.7c0,0.8,0.1,1.5,0.3,2.2c0.2,0.6,0.5,1.2,0.9,1.6
				c0.4,0.5,0.9,0.8,1.5,1.1C46.3,103.8,47,103.9,47.7,103.9z M78,105.3c-1.1,0.8-2.2,1.4-3.4,1.7c-1.2,0.4-2.5,0.6-3.9,0.6
				c-1.7,0-3.3-0.3-4.7-0.8c-1.4-0.5-2.6-1.3-3.6-2.3c-1-1-1.7-2.1-2.3-3.5c-0.5-1.3-0.8-2.8-0.8-4.4s0.3-3.1,0.8-4.4
				c0.5-1.3,1.3-2.5,2.2-3.5c1-1,2.1-1.7,3.5-2.2c1.4-0.6,2.9-0.8,4.5-0.8c0.9,0,1.7,0.1,2.4,0.2c0.8,0.1,1.4,0.3,2.1,0.6
				c0.6,0.3,1.2,0.6,1.7,0.9c0.5,0.3,1,0.7,1.4,1.2l-1.2,1.9c-0.2,0.3-0.4,0.5-0.7,0.6c-0.3,0.1-0.6,0-1-0.2c-0.3-0.2-0.7-0.4-1-0.6
				c-0.3-0.2-0.7-0.3-1.1-0.5c-0.4-0.1-0.8-0.2-1.3-0.3c-0.5-0.1-1-0.1-1.6-0.1c-1,0-1.9,0.2-2.7,0.5c-0.8,0.3-1.5,0.8-2,1.5
				c-0.6,0.6-1,1.4-1.3,2.3c-0.3,0.9-0.5,1.9-0.5,3c0,1.2,0.2,2.3,0.5,3.2c0.3,1,0.8,1.7,1.4,2.4c0.6,0.7,1.3,1.2,2.2,1.5
				c0.9,0.4,1.8,0.5,2.9,0.5c0.7,0,1.3-0.1,1.9-0.2c0.6-0.1,1.1-0.3,1.7-0.6v-3.8h-2.5c-0.3,0-0.5-0.1-0.6-0.2
				c-0.2-0.2-0.2-0.3-0.2-0.6v-2.4H78V105.3z"/>
		</g>
	</g>
</g>
</svg>
