<svg id="Layer_1" data-name="Layer 1" xmlns="http://www.w3.org/2000/svg" viewBox="0 0 124.71 144"><defs><style>.cls-1{fill:#fff;}.cls-2,.cls-5{fill:#314a7e;}.cls-3{fill:#617cbd;}.cls-4{fill:none;stroke:#617cbd;stroke-miterlimit:22.93;stroke-width:0.57px;}.cls-5{fill-rule:evenodd;}</style></defs><polygon class="cls-1" points="2.83 106.37 2.83 37.64 62.35 3.28 121.87 37.64 121.87 106.37 62.35 140.73 2.83 106.37"/><path class="cls-2" d="M62.35,0,0,36v72l62.35,36,62.36-36V36ZM119,104.73,62.35,137.45,5.67,104.73V39.27L62.35,6.55,119,39.27Z"/><path class="cls-3" d="M77.4,63.91a31.42,31.42,0,0,1-10.9,14A29,29,0,1,1,50.34,24.78v7.95A21.09,21.09,0,1,0,62,71.29a25.72,25.72,0,0,0,8.44-10.81Z"/><circle class="cls-2" cx="67.06" cy="49.23" r="4.59" transform="translate(12.47 111.99) rotate(-85.27)"/><circle class="cls-4" cx="67.06" cy="49.23" r="4.59" transform="translate(12.47 111.99) rotate(-85.27)"/><path class="cls-3" d="M87,56.32V39.09H79.66V53.25A64.44,64.44,0,0,0,87,56.32"/><path class="cls-3" d="M106.2,102.44c2.56-3.21,2.53-2.87,3.53-8.82l-6.54-4.31c-.18,4.86-.79,6-2.19,7.79a7,7,0,0,1-5.82,2.69,7.82,7.82,0,0,1-4.72-1.44,7.47,7.47,0,0,1-2.75-3.95,30.7,30.7,0,0,1-.74-8V68.22a26.55,26.55,0,0,1-7.31-3.71V86q0,8,1.67,12.34A13.19,13.19,0,0,0,86.62,105a15.63,15.63,0,0,0,8.49,2.29q7.26,0,11.09-4.8"/><path class="cls-5" d="M79.66,54.61C89.49,60,97.26,62,103.44,57.28c0,12.42-14.08,12.93-23.78,5.44Z"/><path class="cls-2" d="M25.42,99.58V107H21.17V85.62h6.88a11.16,11.16,0,0,1,3.55.53,7.32,7.32,0,0,1,2.47,1.42,5.54,5.54,0,0,1,1.45,2.17A7.28,7.28,0,0,1,36,92.47a8.76,8.76,0,0,1-.46,2.89A6,6,0,0,1,34,97.6a7,7,0,0,1-2.5,1.45,10.29,10.29,0,0,1-3.49.53Zm0-3.29h2.63a3.59,3.59,0,0,0,2.83-1,4.11,4.11,0,0,0,.89-2.8,3.55,3.55,0,0,0-.92-2.6,3.62,3.62,0,0,0-2.8-1H25.42Zm22.18,7.27a4.94,4.94,0,0,0,2-.36,3.78,3.78,0,0,0,1.44-1.06,4.24,4.24,0,0,0,1-1.61,7.45,7.45,0,0,0,.29-2.17V85.62h4.22V98.36a9.53,9.53,0,0,1-.63,3.55,7.45,7.45,0,0,1-1.78,2.8,7.36,7.36,0,0,1-2.79,1.84,9.53,9.53,0,0,1-3.72.66,9.78,9.78,0,0,1-3.75-.66,7.72,7.72,0,0,1-2.8-1.84,7.58,7.58,0,0,1-1.78-2.8,9.53,9.53,0,0,1-.62-3.55V85.62h4.21V98.36a6.54,6.54,0,0,0,.33,2.17,4.3,4.3,0,0,0,.92,1.61,3.77,3.77,0,0,0,1.48,1.06A4.91,4.91,0,0,0,47.6,103.56Zm30.28,1.35a10.6,10.6,0,0,1-3.43,1.74,13.47,13.47,0,0,1-3.85.56,12.57,12.57,0,0,1-4.7-.82A10.07,10.07,0,0,1,60,100.66a11.65,11.65,0,0,1-.83-4.37A11.93,11.93,0,0,1,60,91.91a9.66,9.66,0,0,1,5.66-5.69,12,12,0,0,1,4.54-.83,11.69,11.69,0,0,1,2.44.23,14.12,14.12,0,0,1,2.11.56,13.5,13.5,0,0,1,1.74.89,8.63,8.63,0,0,1,1.45,1.15L76.69,90.1a1.11,1.11,0,0,1-.72.56,1.32,1.32,0,0,1-1-.23c-.33-.2-.66-.36-1-.56a7.62,7.62,0,0,0-1.08-.46A7.39,7.39,0,0,0,70.08,89a6.45,6.45,0,0,0-2.74.53,5.34,5.34,0,0,0-2,1.48A5.78,5.78,0,0,0,64,93.29a8.67,8.67,0,0,0-.46,3A9.73,9.73,0,0,0,64,99.51a6,6,0,0,0,1.42,2.37,5.49,5.49,0,0,0,2.17,1.48,7.29,7.29,0,0,0,2.86.53,8.26,8.26,0,0,0,1.91-.23,8.64,8.64,0,0,0,1.68-.59V99.31H71.59a1,1,0,0,1-.63-.19.75.75,0,0,1-.23-.56V96.19h7.15Z"/></svg>