<?xml version="1.0" encoding="utf-8"?>
<!-- Generator: Adobe Illustrator 24.2.2, SVG Export Plug-In . SVG Version: 6.00 Build 0)  -->
<svg version="1.1" id="Layer_1" xmlns="http://www.w3.org/2000/svg" xmlns:xlink="http://www.w3.org/1999/xlink" x="0px" y="0px"
	 viewBox="0 0 124.7 144" style="enable-background:new 0 0 124.7 144;" xml:space="preserve">
<style type="text/css">
	.st0{fill:#FFFFFF;}
	.st1{fill:#6280B5;}
	.st2{clip-path:url(#SVGID_2_);fill:#6080B6;}
	.st3{clip-path:url(#SVGID_4_);fill:#6080B6;}
	.st4{clip-path:url(#SVGID_6_);fill:#6080B6;}
	.st5{clip-path:url(#SVGID_8_);fill:#6080B6;}
</style>
<g>
	<polygon class="st0" points="2.8,106.4 2.8,37.6 62.4,3.3 121.9,37.6 121.9,106.4 62.4,140.7 	"/>
	<g>
		<g>
			<g>
				<path class="st1" d="M62.4,0L0,36v72l62.4,36l62.4-36V36L62.4,0z M119,104.7l-56.7,32.7L5.7,104.7V39.3L62.4,6.5L119,39.3V104.7
					z"/>
			</g>
		</g>
	</g>
	<g>
		<g>
			<g>
				<defs>
					<rect id="SVGID_1_" x="15.6" y="43.4" width="93.5" height="57.2"/>
				</defs>
				<clipPath id="SVGID_2_">
					<use xlink:href="#SVGID_1_"  style="overflow:visible;"/>
				</clipPath>
				<path class="st2" d="M76.7,48.7h-4.5c-1.4,0-2.3,0.8-2.5,2.1l-2.3,17.7c-0.3,3-1.4,5-3.9,5c-2.5,0-3-2.1-2.6-5l2.3-17.6
					c0.2-1.2-0.4-2.1-1.9-2.1h-4.5c-1.7,0-2.3,1.1-2.5,2.3L52,69.3c-1,7.3,0.9,12,10.5,12s12.7-4.6,13.7-12L78.5,51
					C78.7,49.8,78.1,48.7,76.7,48.7"/>
			</g>
			<g>
				<defs>
					<rect id="SVGID_3_" x="15.6" y="43.4" width="93.5" height="57.2"/>
				</defs>
				<clipPath id="SVGID_4_">
					<use xlink:href="#SVGID_3_"  style="overflow:visible;"/>
				</clipPath>
				<path class="st3" d="M92.6,56.3c1.7,0,2.9,1.6,2.9,4c0,1.7,0.7,1.9,2.3,1.6l3.8-0.6c1.9-0.3,2.3-0.9,2.3-3.2
					c0-5.4-2.3-9.6-10.3-9.6c-10.5,0-15,7.3-15,20.6c0,8.5,3.5,12.3,10.7,12.3c9.5,0,12.5-5.6,13.3-11.8l0.4-3.4
					c0.1-1.2-0.5-2.1-1.9-2.1h-7.4c-1.7,0-2.3,1-2.5,2.4l-0.1,1c-0.2,1.4,0.6,2.1,1.9,2.1h1.5l0,0.3c-0.3,2.5-1.5,3.6-4.1,3.6
					c-1.8,0-2.8-1.7-2.8-5.3C87.6,62.3,88.6,56.3,92.6,56.3"/>
			</g>
			<g>
				<defs>
					<rect id="SVGID_5_" x="15.6" y="43.4" width="93.5" height="57.2"/>
				</defs>
				<clipPath id="SVGID_6_">
					<use xlink:href="#SVGID_5_"  style="overflow:visible;"/>
				</clipPath>
				<path class="st4" d="M37.2,48.7h-7.4c-1.3,0-2.2,1-2.4,2.2l-3.6,27.6c0,0.1,0,0.2,0,0.3l-1.9,14.3l0,0.1c0,0.1,0,0.2,0,0.3
					c0,1.2,0.7,2,1.9,2h0h3.1h1.4c1.3,0,2.3-0.9,2.5-2.4l1.6-12.3H33c9.9,0,17.9-6.9,17.9-18.1C50.9,54.3,45.3,48.7,37.2,48.7
					 M33.8,73.3h-0.5l1-7.4l0-0.1c0-0.1,0-0.2,0-0.3c0,0,0,0,0-0.1l1.2-9H36c3.9,0,5.9,2.7,5.9,7.1C41.9,69.6,39,73.3,33.8,73.3"/>
			</g>
			<g>
				<defs>
					<rect id="SVGID_7_" x="15.6" y="43.4" width="93.5" height="57.2"/>
				</defs>
				<clipPath id="SVGID_8_">
					<use xlink:href="#SVGID_7_"  style="overflow:visible;"/>
				</clipPath>
				<path class="st5" d="M31.4,82l1.4-3.4c0.1-1.2-0.5-2.1-1.9-2.1h-7.4c-1.7,0-2.3,1-2.5,2.4l-0.1,1c-0.2,1.4,0.6,2.1,1.9,2.1h1.5
					L31.4,82L31.4,82z"/>
			</g>
		</g>
		<g>
			<path d="M66,92.8c0,0,1-6.5,1.2-7.2c0.5-0.1,5-0.1,4.9,0c0,0.3-0.4,2.1-0.4,2.1c-0.3,0.1-1.6,0-2.5,0L69,88.9c1.1,0,1.9,0,2,0.1
				c0,0-0.2,1.8-0.3,1.8c-0.5,0.1-0.9,0.1-2,0.1c-0.2,1-0.3,1.8-0.3,1.9C68.4,92.8,66,92.9,66,92.8z"/>
			<path d="M76.8,89.9c0,1.6-1.2,3-3,3c-1.2,0-2.2-0.9-2.2-2.3c0-1.6,1.2-3.1,3-3.1C75.8,87.6,76.8,88.5,76.8,89.9z M74.3,89.6
				c-0.4,0-0.7,0.4-0.7,0.9c0,0.3,0.1,0.6,0.4,0.6c0.4,0,0.7-0.4,0.7-1C74.7,89.8,74.5,89.6,74.3,89.6z"/>
			<path d="M82.9,87.7c0,0-0.3,3.4-0.7,5.1c-0.4,1.8-1.7,2.4-3,2.4c-1.2,0-1.8-0.4-2.3-0.8c0.2-0.4,0.6-1.2,0.9-1.5
				c0-0.1,0.4,0.4,1.2,0.4c0.6,0,0.8-0.4,1-1c-0.1,0.1-0.6,0.4-1.1,0.4c-0.7,0-1.9-0.6-1.9-2.1c0-1.8,1.2-3,2.6-3
				c0.6,0,1,0.2,1.3,0.5c0-0.1,0.1-0.4,0.1-0.5C81.3,87.5,82.9,87.6,82.9,87.7z M79.7,91c0.3,0,0.6-0.4,0.6-0.8
				c0-0.3-0.1-0.5-0.4-0.5c-0.4,0-0.6,0.4-0.6,0.9C79.3,90.8,79.5,91,79.7,91z"/>
			<path d="M89,87.7c0,0-0.3,3.4-0.7,5.1c-0.4,1.8-1.7,2.4-3,2.4c-1.2,0-1.8-0.4-2.3-0.8c0.2-0.4,0.6-1.2,0.9-1.5
				c0-0.1,0.4,0.4,1.2,0.4c0.6,0,0.8-0.4,1-1c-0.1,0.1-0.6,0.4-1.1,0.4c-0.7,0-1.9-0.6-1.9-2.1c0-1.8,1.2-3,2.6-3
				c0.6,0,1,0.2,1.3,0.5c0-0.1,0.1-0.4,0.1-0.5C87.4,87.5,89,87.6,89,87.7z M85.8,91c0.3,0,0.6-0.4,0.6-0.8c0-0.3-0.1-0.5-0.4-0.5
				c-0.4,0-0.6,0.4-0.6,0.9C85.4,90.8,85.5,91,85.8,91z"/>
			<path d="M92.1,87.6c0,0-1,5.1-1.1,5.2c-0.1,0.1-2,0-2,0s0.8-5.1,0.9-5.2C90,87.5,92.1,87.6,92.1,87.6z M91.5,84.9
				c0.6,0,1,0.4,1,1c0,0.7-0.5,1.2-1.2,1.2c-0.6,0-1-0.3-1-1C90.2,85.5,90.6,84.9,91.5,84.9z"/>
			<path d="M93.9,92.8c-1.1,0-1.8-0.9-1.8-2.2c0-2.1,1.2-3,2.3-3c0.7,0,1.1,0.4,1.2,0.6c0-0.1,0.1-0.4,0.1-0.5c0.1-0.1,1.8-0.2,2,0
				c0,0-0.3,1.6-0.5,3c0,0.2,0,0.2,0.1,0.2c0.1,0,0.1,0,0.2,0c0,0-0.2,1.7-0.4,1.8c-0.2,0.2-0.6,0.2-0.9,0.2c-0.6,0-0.9-0.3-1-0.6
				C94.9,92.6,94.6,92.8,93.9,92.8z M94.6,90.9c0.3,0,0.6-0.4,0.6-0.9c0-0.3-0.1-0.5-0.4-0.5c-0.4,0-0.6,0.5-0.6,1
				C94.3,90.7,94.4,90.9,94.6,90.9z"/>
		</g>
	</g>
</g>
</svg>
