<?xml version="1.0" encoding="utf-8"?>
<!-- Generator: Adobe Illustrator 24.2.2, SVG Export Plug-In . SVG Version: 6.00 Build 0)  -->
<svg version="1.1" id="Layer_1" xmlns="http://www.w3.org/2000/svg" xmlns:xlink="http://www.w3.org/1999/xlink" x="0px" y="0px"
	 viewBox="0 0 124.7 144" style="enable-background:new 0 0 124.7 144;" xml:space="preserve">
<style type="text/css">
	.st0{fill:#FFFFFF;}
	.st1{fill:#6280B5;}
	.st2{fill:#6181B6;}
	.st3{fill:#010101;}
</style>
<g>
	<polygon class="st0" points="2.8,106.4 2.8,37.6 62.4,3.3 121.9,37.6 121.9,106.4 62.4,140.7 	"/>
	<g>
		<g>
			<g>
				<path class="st1" d="M62.4,0L0,36v72l62.4,36l62.4-36V36L62.4,0z M119,104.7l-56.7,32.7L5.7,104.7V39.3L62.4,6.5L119,39.3V104.7
					z"/>
			</g>
		</g>
	</g>
	<g>
		<path class="st2" d="M78.4,45.8h-5.1c-1.6,0-2.6,1-2.8,2.3L67.9,68c-0.4,3.4-1.5,5.6-4.3,5.6c-2.8,0-3.4-2.3-2.9-5.6l2.6-19.8
			c0.2-1.3-0.5-2.3-2.1-2.3h-5.1c-1.8,0-2.6,1.2-2.8,2.6L50.7,69c-1.1,8.2,1,13.4,11.7,13.4S76.7,77.3,77.8,69l2.7-20.6
			C80.7,47,80,45.8,78.4,45.8 M96.4,54.3c1.9,0,3.3,1.8,3.3,4.5c0,1.9,0.7,2.1,2.6,1.8l4.3-0.7c2.1-0.4,2.6-1,2.6-3.7
			c0-6-2.6-10.8-11.6-10.8c-11.9,0-16.9,8.2-16.9,23.2c0,9.6,4,13.9,12,13.9c10.7,0,14.1-6.3,14.9-13.3l0.5-3.8
			c0.1-1.3-0.6-2.3-2.1-2.3h-8.4c-1.9,0-2.6,1.2-2.8,2.7l-0.1,1.1c-0.2,1.5,0.7,2.3,2.1,2.3h1.7l-0.1,0.4c-0.4,2.9-1.7,4-4.6,4
			c-2.1,0-3.1-1.8-3.1-6C90.7,61,91.9,54.3,96.4,54.3 M34,45.8h-8.3c-1.5,0-2.5,1.1-2.7,2.4l-3.8,28.8h-0.7c-1.9,0-2.6,1.2-2.8,2.7
			l-0.1,1.1c-0.2,1.5,0.7,2.3,2.1,2.3h0.7l-1.6,12.5l0,0.1c0,0.1,0,0.2,0,0.4c0,1.4,0.8,2.3,2.1,2.3h5.1c1.5,0,2.6-1,2.8-2.6
			l1.8-13.9h0.7c11.1,0,20.2-7.8,20.2-20.3C49.5,52,43.2,45.8,34,45.8 M30.2,73.5h-0.5l1.1-8.4l0-0.1c0-0.1,0-0.2,0-0.4
			c0,0,0-0.1,0-0.1l1.3-10.1h0.5c4.3,0,6.7,3,6.7,7.9C39.3,69.3,36.1,73.5,30.2,73.5"/>
		<path class="st3" d="M63.5,95.4c-0.1,0,1.1-7.4,1.3-8.1c0.5-0.1,5.6-0.1,5.6,0c0,0.3-0.4,2.3-0.5,2.3c-0.3,0.1-1.8,0-2.8,0
			L66.9,91c1.2,0,2.2,0,2.2,0.1c0,0-0.2,2-0.4,2c-0.5,0.1-1,0.1-2.2,0.1c-0.2,1.1-0.4,2-0.4,2.2C66.2,95.4,63.5,95.5,63.5,95.4"/>
		<path class="st3" d="M73.4,89.6c0,0.1-1.1,5.7-1.2,5.8s-2.3,0.1-2.3,0c0,0,0.9-5.7,1-5.8C71,89.4,73.4,89.5,73.4,89.6 M72.7,86.5
			c0.6,0,1.1,0.4,1.1,1.1c0,0.8-0.6,1.4-1.4,1.4c-0.6,0-1.1-0.3-1.1-1.1C71.3,87.2,71.7,86.5,72.7,86.5"/>
		<path class="st3" d="M77.8,92.2c-0.2-0.1-0.6-0.1-0.8-0.1c-0.4,0-0.5,0.3-0.6,0.7c-0.1,0.3-0.4,2.5-0.4,2.6c-0.1,0-2.5,0.1-2.6,0
			c0-0.1,0.9-5.5,1-5.7c0.1-0.2,2.3-0.2,2.4-0.1c0,0.2-0.1,0.7-0.1,0.8c0.4-0.7,1.2-0.9,1.8-0.7C78.8,89.7,78.1,91.9,77.8,92.2"/>
		<path class="st3" d="M81.6,93.7c0.4,0,0.9-0.2,1.2-0.3c0.1,0.2,0.5,1.5,0.4,1.7c-0.4,0.3-1.2,0.5-2,0.5c-2,0-2.6-1.2-2.6-2.6
			c0-1.8,1.3-3.5,3.3-3.5c1.5,0,2.2,1,2.2,2.1c0,0.6-0.1,1-0.2,1.4c-0.6,0.1-2.5,0.1-3,0.1C80.7,93.4,80.9,93.7,81.6,93.7
			 M82.1,91.8c0-0.1,0.1-0.2,0.1-0.3c0-0.2-0.1-0.5-0.4-0.5c-0.4,0-0.7,0.3-0.7,0.8H82.1z"/>
		<path class="st3" d="M87.6,90.2c0.3-0.4,0.8-0.7,1.5-0.7c1.1,0,1.4,0.7,1.4,1.4c0,0.6-0.2,1.9-0.2,2.2c0,0.2,0,0.2,0.1,0.2
			c0.1,0,0.1,0,0.2,0c0.1,0.1-0.2,1.9-0.4,2c-0.3,0.2-0.7,0.2-1,0.2c-1.2,0-1.6-0.7-1.5-1.7c0.1-0.5,0.2-1.5,0.3-1.7
			c0-0.3-0.1-0.5-0.3-0.5c-0.4,0-0.5,0.4-0.5,0.7c-0.1,0.3-0.6,3.1-0.6,3.2c-0.1,0.1-2.3,0-2.3-0.1c0-0.1,0.4-3.2,0.9-5.7
			c0.2-0.2,2.3-0.2,2.4-0.1L87.6,90.2L87.6,90.2z"/>
		<path class="st3" d="M96.4,89.5c0.1,0-0.1,1.5-0.2,1.7c0,0-2,2.4-2,2.4c0.1,0,1.5-0.1,1.5,0c0,0.1-0.3,1.9-0.4,1.9
			c-0.1,0.1-4.2,0-4.2,0c-0.1,0,0-1.3,0.2-1.7c0,0,2-2.3,2-2.3s-1.5,0.2-1.6,0c-0.1-0.1,0.3-1.8,0.4-1.9
			C92.2,89.6,96.4,89.5,96.4,89.5"/>
		<path class="st3" d="M99.6,93.7c0.4,0,0.9-0.2,1.2-0.3c0.1,0.2,0.5,1.5,0.4,1.7c-0.4,0.3-1.2,0.5-2,0.5c-2,0-2.6-1.2-2.6-2.6
			c0-1.8,1.3-3.5,3.3-3.5c1.5,0,2.2,1,2.2,2.1c0,0.6-0.1,1-0.2,1.4c-0.6,0.1-2.5,0.1-3,0.1C98.7,93.4,99,93.7,99.6,93.7 M100.1,91.8
			c0-0.1,0.1-0.2,0.1-0.3c0-0.2-0.1-0.5-0.4-0.5c-0.4,0-0.7,0.3-0.7,0.8H100.1z"/>
	</g>
</g>
</svg>
