<svg xmlns="http://www.w3.org/2000/svg" viewBox="0 0 124.71 144"><defs><style>.cls-1{fill:#fff;}.cls-2,.cls-3{fill:#6583b5;}.cls-3{fill-rule:evenodd;}</style></defs><title>FRIULI</title><g id="Friuli"><polygon class="cls-1" points="2.84 106.37 2.84 37.64 62.36 3.28 121.88 37.64 121.88 106.37 62.36 140.73 2.84 106.37"/><path class="cls-2" d="M62.36,0,0,36v72l62.36,36,62.35-36V36ZM119,104.73,62.36,137.45,5.67,104.73V39.27L62.36,6.55,119,39.27Z"/><path class="cls-3" d="M81.07,105.58q-.76,0-1.53,0c-.17,0-.21,0-.21.21,0,1,0,2,0,3.18,0,.92,0,2,0,3.18A3,3,0,0,0,82.2,115c1.17.09,2.34,0,3.5,0,.16,0,.18-.06.18-.19,0-.37,0-.75,0-1.12,0-.21,0-.28-.27-.28-.92,0-1.84,0-2.76,0A1.49,1.49,0,0,1,81.38,112c0-.41,0-.83,0-1.25,0-1.63,0-3.27,0-4.9C81.34,105.62,81.28,105.57,81.07,105.58Z"/><path class="cls-3" d="M65.35,114.85c0,.16,0,.22.2.22h1.72c.17,0,.2-.06.2-.22q0-4.53,0-9.06c0-.18-.06-.21-.23-.21-.55,0-1.11,0-1.67,0-.19,0-.23.06-.22.24v9Z"/><path class="cls-3" d="M46.57,115.07c.52,0,1,0,1.56,0,.22,0,.25-.07.25-.26,0-1.11,0-2.22,0-3.32,0-.25.07-.29.29-.29h5.18c.22,0,.26-.06.26-.26a10.84,10.84,0,0,1,0-1.14c0-.2-.07-.23-.25-.23H48.48c-.06,0-.09,0-.1-.09a2.14,2.14,0,0,1,.89-1.89,2.84,2.84,0,0,1,1.43-.33c1,0,2.09,0,3.13,0,.23,0,.27-.07.27-.27a11.22,11.22,0,0,1,0-1.16c0-.22-.07-.25-.27-.25-1,0-2,0-3,0a8.22,8.22,0,0,0-1.78.19,3,3,0,0,0-2.51,2.45,10.17,10.17,0,0,0-.17,2.06c0,1.52,0,3,0,4.57C46.35,115,46.41,115.07,46.57,115.07Z"/><path class="cls-3" d="M55.64,115.07c.49,0,1,0,1.48,0,.22,0,.29,0,.29-.27,0-1.07,0-2.14,0-3.21,0-.18,0-.25.24-.25.63,0,1.27,0,1.9,0a.31.31,0,0,1,.31.18c.63,1.13,1.26,2.26,1.9,3.38,0,.07,0,.17.17.16h2.15a.61.61,0,0,0-.13-.28c-.69-1.15-1.38-2.3-2.08-3.44-.09-.16-.11-.22.11-.29a2.16,2.16,0,0,0,1.52-1.49,3.94,3.94,0,0,0,.09-1.93A2.19,2.19,0,0,0,62,105.81a4.84,4.84,0,0,0-1.41-.23c-1.65,0-3.3,0-5,0-.19,0-.25,0-.25.24,0,1.41,0,2.83,0,4.25,0,1.59,0,3.17,0,4.76C55.39,115,55.45,115.07,55.64,115.07Zm1.76-7.6c0-.19.06-.22.22-.22H59a11.71,11.71,0,0,1,1.74.07c.73.13.93.59.9,1.24a1,1,0,0,1-.9,1,5,5,0,0,1-1,.08H57.62c-.16,0-.22,0-.22-.22C57.41,108.8,57.41,108.13,57.4,107.47Z"/><path class="cls-3" d="M71.16,105.58c-.53,0-1.07,0-1.6,0-.18,0-.22.06-.22.22,0,.59,0,1.18,0,1.77,0,1.56,0,3.13,0,4.69a2.67,2.67,0,0,0,1.75,2.5,4.74,4.74,0,0,0,1.57.37,6.82,6.82,0,0,0,2.84-.26,2.64,2.64,0,0,0,2-2,4.58,4.58,0,0,0,.11-1v-3h0c0-1.06,0-2.11,0-3.16,0-.18-.05-.22-.22-.22-.52,0-1,0-1.55,0-.2,0-.24.06-.24.25,0,1.76,0,3.53,0,5.29a6.41,6.41,0,0,1,0,.88,1.53,1.53,0,0,1-1.34,1.55,3.72,3.72,0,0,1-1.66,0,1.41,1.41,0,0,1-1.06-1,4.1,4.1,0,0,1-.14-1.1v-5.57C71.37,105.64,71.35,105.57,71.16,105.58Z"/><path class="cls-3" d="M87,114.85c0,.16,0,.22.2.22h1.72c.17,0,.2-.06.2-.22q0-4.53,0-9.06c0-.18-.06-.21-.23-.21-.53,0-1.07,0-1.6,0-.23,0-.3,0-.3.28,0,1.49,0,3,0,4.46Z"/><path class="cls-3" d="M45.68,93.42h5.11a5.52,5.52,0,0,0,1.34-.16,2.51,2.51,0,0,0,1.95-1.51,3.87,3.87,0,0,0,.12-2.21,2.14,2.14,0,0,0-1.49-1.67,6.48,6.48,0,0,0-2-.31h-5c-.17,0-.24,0-.24.22,0,1.81,0,3.61,0,5.41C45.45,93.36,45.5,93.42,45.68,93.42Z"/><path class="cls-3" d="M98.48,95.42c.19-.77.37-1.55.55-2.32.14-.61.28-1.22.43-1.82s.33-1.38.47-2.07.34-1.56.47-2.35.3-1.58.47-2.37c.1-.44.19-.88.26-1.33s.18-1,.24-1.48c0-.14,0-.32.13-.44,0-.11,0-.2,0-.3s0-.07,0-.1a5.54,5.54,0,0,1,.12-.71c0-.14,0-.31.11-.42a.45.45,0,0,1,0-.3c-.14-.19.06-.36,0-.56a1.24,1.24,0,0,1,0-.41c.05-.18,0-.38.08-.56s0-.48.12-.68a.74.74,0,0,1,0-.39v0c0-.14,0-.26.05-.39a.43.43,0,0,1,0-.37s0-.07,0-.09v-.09a1,1,0,0,1,0-.42v-.09c0-.15,0-.28.05-.43v-.08a1.14,1.14,0,0,1,0-.52,1.34,1.34,0,0,1,0-.49.79.79,0,0,0,0-.48c.06-.09,0-.19.06-.29s0-.15,0-.23v-.23a.93.93,0,0,0,0-.23c0-.1,0-.22,0-.32s0-.19,0-.29v-.42a4,4,0,0,1,0-.6q0-.73,0-1.47a3.46,3.46,0,0,1,0-.56v-.42c0-.09,0-.19,0-.28s0-.19,0-.28a.93.93,0,0,0,0-.23v-.24c0-.19-.09-.37,0-.56V66.6a1.32,1.32,0,0,1,0-.52c0-.19-.16-.36,0-.56s-.09-.14,0-.18a6.57,6.57,0,0,1,.39,1A34.61,34.61,0,0,1,104,71.55a16,16,0,0,1,.24,1.69.77.77,0,0,0,0,.37v0a.59.59,0,0,0,0,.37v.09a1,1,0,0,0,0,.42,4.05,4.05,0,0,1,0,.7,1.19,1.19,0,0,0,0,.46v.52c0,.14,0,.28,0,.42q0,.73,0,1.47a2.41,2.41,0,0,0,0,.38v.28c0,.2-.08.4,0,.6v.09a2.2,2.2,0,0,0,0,.36c0,.05,0,.11.09.11s0-.11,0-.16c.07-.31.09-.64.15-1s0-.43.12-.6c0-.14,0-.26,0-.39v-.08a.89.89,0,0,1,0-.43v-.08c0-.13,0-.25,0-.38s.06-.14,0-.22,0-.19,0-.29,0-.13,0-.18,0-.16,0-.24V75.6a3.62,3.62,0,0,1,0-.47q0-.52,0-1a3.46,3.46,0,0,1,0-.46v-.28c0-.22-.08-.44,0-.66v-.09a1.83,1.83,0,0,1,0-.47,1.69,1.69,0,0,1-.09-.59c0-.33-.09-.65-.14-1,.07-.1,0-.2,0-.29a.65.65,0,0,1-.08-.17c-.06-.42-.15-.83-.24-1.25a19.54,19.54,0,0,0-2-5.31,2.75,2.75,0,0,1-.48-1.14,2.5,2.5,0,0,0-.09-.61c-.19-.66-.29-1.35-.49-2-.32-1.08-.64-2.16-1-3.21-.21-.54-.42-1.08-.67-1.6a29.72,29.72,0,0,0-1.41-2.68c-.42-.69-.86-1.37-1.33-2s-.87-1.14-1.29-1.72a.55.55,0,0,0-.17-.2l-.06-.08a.58.58,0,0,0-.18-.2l-.1-.13a.84.84,0,0,0-.22-.24.28.28,0,0,1-.11-.13,1.67,1.67,0,0,0-.31-.34c-.1-.1-.2-.2-.29-.31a8.73,8.73,0,0,0-.85-.87,2,2,0,0,0-.47-.44l-.36-.33A.66.66,0,0,0,92.1,45l-.22-.2c-.06-.06-.1-.14-.2-.17l-.17-.16c-.07,0-.1-.14-.2-.16l-.69-.57a.27.27,0,0,0-.15-.13l-.08-.06a.32.32,0,0,0-.15-.13.9.9,0,0,1-.27-.2s-.07-.11-.15-.12c-.67-.48-1.32-1-2-1.45s-1.52-1-2.3-1.47a61.64,61.64,0,0,0-8.12-4.08,97.11,97.11,0,0,0-10.61-3.68c-2.52-.72-5.06-1.37-7.62-1.93L56.89,30a.42.42,0,0,0-.15,0l-3.15-.61c-.1,0-.18-.09-.29,0l-1.71-.24a1,1,0,0,0-.24,0c-.06,0-.08,0-.13,0s-.22,0-.33,0a.45.45,0,0,0-.23,0,.86.86,0,0,0-.42,0h-.19a3.43,3.43,0,0,0-.56-.06h-.24l-.66,0H46.86l-.61,0H46a3,3,0,0,0-.51.06,6.15,6.15,0,0,1-.74.06c-.12-.05-.22,0-.33,0h-.09a1.2,1.2,0,0,0-.38.05l-1.07.17-1.43.25a.28.28,0,0,0-.15,0l-.13,0A25.45,25.45,0,0,0,34.7,32c-.87.47-1.69,1-2.52,1.54a.38.38,0,0,0-.16.12s0,0,0,0a.3.3,0,0,0-.15.12c-.15.08-.24.24-.41.3a.35.35,0,0,0-.15.12,3.25,3.25,0,0,1-.54.44.47.47,0,0,0-.2.17l-.09.06a.84.84,0,0,0-.24.22.22.22,0,0,1-.13.1,1.1,1.1,0,0,0-.29.28l-.31.28a5.69,5.69,0,0,0-.85.85l-.38.41a.64.64,0,0,0-.22.24l-.16.17c-.06.07-.14.11-.17.2l-.11.13c-.06.06-.14.1-.16.2l-.08.08a.53.53,0,0,0-.16.2l-.06.08a.38.38,0,0,0-.13.15l-.2.27a.3.3,0,0,0-.12.15s0,0,0,0a.42.42,0,0,0-.12.15.05.05,0,0,1,0,0,.3.3,0,0,0-.12.15l-.06.12a30.94,30.94,0,0,0-2.1,3.32c-.35.63-.63,1.3-.95,2s-.58,1.37-.84,2.07-.57,1.67-.84,2.51a.5.5,0,0,0-.09.29s0,.07,0,.11c-.35,1.24-.63,2.5-.87,3.77-.16.87-.27,1.74-.42,2.61,0,.11-.08.21,0,.33a5.16,5.16,0,0,1-.1.88.72.72,0,0,0,0,.29l0,.31c0,.11-.09.22,0,.33v.09a2.45,2.45,0,0,0,0,.38,2.37,2.37,0,0,1,0,.65.17.17,0,0,0,0,.18v.14c0,.17,0,.34-.06.51s0,.16,0,.24v.28a1.67,1.67,0,0,0,0,.32,1.19,1.19,0,0,1,0,.42,1.29,1.29,0,0,0,0,.48v2.2a1.51,1.51,0,0,0,0,.52,1,1,0,0,1,0,.42c0,.12,0,.25,0,.37v.28c0,.08,0,.16,0,.24s0,.18,0,.27a.91.91,0,0,0,0,.23c0,.08,0,.16,0,.24v.14a1.5,1.5,0,0,0,0,.42A5.16,5.16,0,0,1,20,68c-.05.16,0,.31,0,.46v.14a1,1,0,0,0,0,.42v.09a.86.86,0,0,0,.05.42v.09a.67.67,0,0,0,.05.37c0,.44.09.87.14,1.31,0,.11,0,.22,0,.32a5.16,5.16,0,0,1,.09.79c0,.12,0,.22,0,.33a.06.06,0,0,1,0,0,.35.35,0,0,0,0,.28c.06.42.12.84.19,1.25a.33.33,0,0,0,0,.29c.06.38.13.77.19,1.16,0,.09,0,.16,0,.23.11.54.21,1.09.32,1.63s.25,1.3.38,2a.26.26,0,0,0,.05.19s0,.08,0,.13c.64,3,1.44,5.91,2.33,8.83-.05.08,0,.13,0,.2.3.89.58,1.78.88,2.67.84,2.57,1.78,5.1,2.78,7.62.41,1,.83,2.08,1.27,3.12.18.43.38.85.52,1.3a.29.29,0,0,0,.24.06h3.09c.09,0,.18,0,.24-.06-.34-.89-.63-1.81-.92-2.73,0-.09,0-.16-.06-.23a2.45,2.45,0,0,1-.18-.6.64.64,0,0,0-.1-.33c-.22-.66-.39-1.33-.55-2s-.29-1.19-.4-1.79l-.33-1.54c-.07-.33-.14-.67-.2-1s-.12-.67-.19-1c.06-.09,0-.18,0-.27s-.05-.18,0-.27-.06-.17,0-.26a.64.64,0,0,1-.08-.19q-.09-.53-.15-1.05c0-.12-.1-.25,0-.37a.63.63,0,0,1-.05-.3v0a1.36,1.36,0,0,1-.07-.35c0-.12-.06-.23,0-.35s-.08-.25,0-.38-.14-.26,0-.41a1,1,0,0,1-.05-.38,1.56,1.56,0,0,1-.09-.64c0-.1,0-.2,0-.29v-.08a.8.8,0,0,1,0-.43v-.08a1.13,1.13,0,0,1-.05-.48c0-.08-.08-.14,0-.22s-.06-.23,0-.34v-.13c-.05-.13,0-.28-.08-.42a1,1,0,0,0,0-.46,2.06,2.06,0,0,0,0-.43,1.69,1.69,0,0,1,0-.23c0-.08,0-.16,0-.23s0-.15,0-.23a1.32,1.32,0,0,0,0-.28v-.29c0-.1,0-.21,0-.31a.78.78,0,0,1,0-.37c0-.16,0-.31,0-.46a1,1,0,0,0,0-.29,1.23,1.23,0,0,0-.47-.14.45.45,0,0,0-.28,0,1.52,1.52,0,0,1-.6-.05.65.65,0,0,0-.24,0,2,2,0,0,0-.6,0h-.09c-.12,0-.24-.08-.37,0a1.18,1.18,0,0,1-.67-.17l.32-.21c.48-.3,1-.46,1.52-.72l2.52-1.33c.71-.36,1.4-.76,2.09-1.16s1.58-1,2.35-1.45l1-.65c.31-.2.59-.43.89-.64.07,0,.11-.07.15-.11a.76.76,0,0,0,.23-.17c.07,0,.1-.07.15-.11s0,0,0,0a1,1,0,0,0,.2-.15c0-.1.14-.13.22-.18s.13-.1.2-.14l.38-.34,1.05-.87c.11,0,.16-.14.24-.22a.6.6,0,0,0,.22-.2c.13-.05.2-.17.29-.27a3,3,0,0,0,.55-.52,2.37,2.37,0,0,0,.57-.57c.2-.12.31-.33.49-.47a1.26,1.26,0,0,1,.3-.31l.14-.22c.08-.06.15-.14.23-.19l.1-.14a.84.84,0,0,1,.22-.24.59.59,0,0,1,.28-.36l.15-.19,0-.09.14-.14c0-.13.14-.18.19-.28s.12-.1.17-.15c0-.23.25-.35.35-.55a.74.74,0,0,0,.16-.19h0c0-.07.12-.12.14-.21a2.11,2.11,0,0,1,.26-.4.36.36,0,0,0,.13-.17c0-.06.11-.1.12-.18s0-.06,0-.06.12-.1.11-.2l.34-.54c.24-.4.48-.8.71-1.2,0,0,0-.12.11-.12s.06.1.06.15,0,.34,0,.51a4.35,4.35,0,0,0,0,.51v.51c0,.19,0,.37,0,.56,0,.52,0,1,0,1.55,0,.1,0,.22,0,.31a10,10,0,0,1-.8,1.48c-.18.31-.4.6-.6.89-.05,0-.11.09-.12.16l-.11.17a.3.3,0,0,0-.12.15.59.59,0,0,1-.21.26s-.11.08-.11.15a1.8,1.8,0,0,1-.3.37c-.06.06-.15.1-.17.19l-.2.22a.94.94,0,0,0-.27.29,11,11,0,0,1-1,1,1,1,0,0,0-.34.32.36.36,0,0,1-.18.14,1.24,1.24,0,0,0-.29.27,4.35,4.35,0,0,1-.73.62.79.79,0,0,0-.24.21l-.08.06a.58.58,0,0,0-.2.18l-.08.06a.47.47,0,0,0-.2.17l-.08.06a.55.55,0,0,0-.2.17,1.12,1.12,0,0,1-.36.29.84.84,0,0,0-.24.22l-.09.06a.75.75,0,0,0-.24.23.22.22,0,0,1-.13.1,1.06,1.06,0,0,0-.29.27l-.35.33a1.83,1.83,0,0,0-.48.48l-.34.36c-.11.08-.19.17-.13.32v.1a1,1,0,0,0,.05.46V79a1.48,1.48,0,0,0,.05.47v.09a1.08,1.08,0,0,0,0,.47,5.34,5.34,0,0,1,.05.69,1.25,1.25,0,0,0,0,.47v.09a1.25,1.25,0,0,0,0,.51v.1a1.26,1.26,0,0,0,0,.51v.09a1.45,1.45,0,0,0,.05.51,4.6,4.6,0,0,1,0,.74,1.3,1.3,0,0,0,0,.52,4.53,4.53,0,0,1,.05.74,1.27,1.27,0,0,0,0,.51v.09a1.24,1.24,0,0,0,0,.51c0,.45.09.9.1,1.35a.84.84,0,0,0,0,.47,4,4,0,0,1,0,.69,1.07,1.07,0,0,0,.05.47v.09a.75.75,0,0,0,0,.42v.09a.86.86,0,0,0,0,.42v.09a.34.34,0,0,0,0,.28c0,.22.07.43.05.65a.71.71,0,0,0,0,.38v0a.67.67,0,0,0,0,.37,0,0,0,0,1,0,0c0,.12,0,.22.05.33v0c-.05.12,0,.22,0,.33v.09c0,.1,0,.19,0,.28a2.56,2.56,0,0,1,.05.27c.15,1.16.37,2.31.63,3.45a35.47,35.47,0,0,0,2.41,6.8s0,.14.11.12,0-.11.06-.17a.86.86,0,0,0,0-.16v-19c0-.29,0-.3.3-.3h9.2a20.16,20.16,0,0,1,3.38.24,5.4,5.4,0,0,1,4.45,3.83,8,8,0,0,1,.24,4,5.31,5.31,0,0,1-3.35,4.27,9.24,9.24,0,0,1-3.48.59c-2.09,0-4.18,0-6.27,0-.22,0-.29,0-.29.28q0,3.19,0,6.41a.34.34,0,0,0,.24.05H64.59c.09,0,.18,0,.25-.05a2.34,2.34,0,0,0-.24-.09,7.8,7.8,0,0,1-2-1,4.81,4.81,0,0,1-2.09-3.12,14.35,14.35,0,0,1-.25-2.7V84.25c0-.21.07-.25.26-.25,1.22,0,2.43,0,3.65,0,.22,0,.28.06.28.28q0,5.94,0,11.87a9,9,0,0,0,.2,1.94,3,3,0,0,0,2.29,2.58,7.72,7.72,0,0,0,4,0,2.82,2.82,0,0,0,2.07-2,8.24,8.24,0,0,0,.35-2.47c0-4,0-7.93,0-11.89,0-.25.07-.29.29-.29q1.81,0,3.63,0c.22,0,.28.06.28.28q0,5.63,0,11.25a23.82,23.82,0,0,1-.1,2.8,6.83,6.83,0,0,1-.58,2.31,5.68,5.68,0,0,1-2.2,2.23,10.27,10.27,0,0,1-1.69.76c.07.07.16.05.25.05H84.34c.09,0,.17,0,.25-.05l-.13,0a7.41,7.41,0,0,1-3.74-2.38,9.23,9.23,0,0,1-2-5.28,19.59,19.59,0,0,1,0-3.25,13.28,13.28,0,0,1,.66-3.42,7,7,0,0,1,4-4.42A11.16,11.16,0,0,1,87.77,84h9c.2,0,.25.06.25.25,0,1,0,1.93,0,2.9,0,.23-.07.28-.29.28-2.81,0-5.62,0-8.43,0a7.67,7.67,0,0,0-1.27.08A3.73,3.73,0,0,0,84.51,89a5.28,5.28,0,0,0-.85,1.94,14.12,14.12,0,0,0-.33,3.78,10.47,10.47,0,0,0,.37,2.61,3.78,3.78,0,0,0,2.2,2.65,5.88,5.88,0,0,0,2.23.37c1.46,0,2.91,0,4.37,0,.2,0,.26,0,.26-.26,0-1.39,0-2.78,0-4.18,0-.21-.06-.25-.26-.25H87.37c-.17,0-.23,0-.23-.21q0-1.56,0-3.12c0-.16,0-.2.21-.2h9.48c.2,0,.23.07.23.24,0,2.87,0,5.75,0,8.62v.09h0l.25-.91a.75.75,0,0,1,.09-.15s0-.08,0-.11c.15-.59.29-1.19.45-1.78C98.05,97.21,98.26,96.31,98.48,95.42ZM34.42,47.49c-.06.07-.15.1-.16.2a1.22,1.22,0,0,1-.75.41h-.57a1,1,0,0,1-.55-.26,3.06,3.06,0,0,0-.32-.3,1.46,1.46,0,0,1-.32-.69c0-.06,0-.1,0-.15a.62.62,0,0,1,0-.33.89.89,0,0,1,.23-.78l.06-.1a1.38,1.38,0,0,0,.27-.27c.21-.11.38-.29.65-.28s.32,0,.47,0c.16-.08.28,0,.41.09a1,1,0,0,0,.24.16,1.07,1.07,0,0,0,.26.26,1.37,1.37,0,0,1,.29.56c0,.07,0,.13,0,.19v0a1.13,1.13,0,0,0,0,.41A1.26,1.26,0,0,1,34.42,47.49ZM56.27,42c-.6.69-1.29,1.29-1.94,1.93A11.09,11.09,0,0,0,53.1,45.3a3.63,3.63,0,0,0-.15,4,16.35,16.35,0,0,0,1.65,2.24,8.44,8.44,0,0,1,1.69,2.93,6,6,0,0,1,0,3.5,4.72,4.72,0,0,1-3.07,3.12,10.8,10.8,0,0,1-3.17.66,5.7,5.7,0,0,1-.84,0,2.26,2.26,0,0,1,.53-.28A32.65,32.65,0,0,0,52.93,60a5.7,5.7,0,0,0,1.89-1.59,4.33,4.33,0,0,0,.64-2.93,6,6,0,0,0-1.65-3.41A19.6,19.6,0,0,1,52,49.79a4.73,4.73,0,0,1-.74-2.15A3.78,3.78,0,0,1,52,45.11a15.59,15.59,0,0,1,2-2.12,10.16,10.16,0,0,0,2-2.33,4,4,0,0,0,.21-3.58,3.32,3.32,0,0,0-1.95-1.76,10.49,10.49,0,0,0-2.76-.66c-1.22-.14-2.44-.14-3.66-.17-.05,0-.1,0-.15,0a4.74,4.74,0,0,1,1.23-.62A7.76,7.76,0,0,1,54,33.9a6.7,6.7,0,0,1,2.41,1.39,4.22,4.22,0,0,1,1.26,2.77A4.9,4.9,0,0,1,56.27,42Z"/></g></svg>