<svg xmlns="http://www.w3.org/2000/svg" viewBox="0 0 124.71 144"><defs><style>.cls-1{fill:#f29104;}.cls-2{fill:#6682b8;}</style></defs><title>MI</title><g id="Milano"><path class="cls-1" d="M46.57,96.57H43.66l-1.09-2.93L41.67,96l-.9-2.39-1.09,2.93H36.77l3.95-9.06,1,2.18.95-2.18Z"/><path class="cls-1" d="M49.57,87.78h2.61v8.79H49.57Z"/><path class="cls-1" d="M56,87.78h2.6V94H61.5v2.61H56Z"/><path class="cls-1" d="M67.49,96.12l-.16.45h-2.8l3.94-9.06,4,9.06h-2.8l-.16-.45ZM69.05,95l-.58-1.55L67.89,95Z"/><path class="cls-1" d="M78,96.57H75.42v-9l3.72,3.54V87.78h2.61v9L78,93.27Z"/><path class="cls-1" d="M85.36,92.18a4.58,4.58,0,1,1,4.58,4.56A4.59,4.59,0,0,1,85.36,92.18Zm6.32,0a1.74,1.74,0,1,0-1.74,1.73A1.74,1.74,0,0,0,91.68,92.18Z"/><path class="cls-2" d="M37.46,45.27c-1.75-.29-4.1,1.78-4.14-.33,0-.64-1.18-.74-1.19-.75C18.5,42.77,16.11,64,15.69,63.67l-.3-.22c-.58-.4-1.21-.84-1.77-1.27-.37-.25-.71-.48-1-.66-2.59-1.6-3.39.51-.23,6.19a10.08,10.08,0,0,0,2.38,2.75C13.3,82.07,13.62,95.72,22.42,99c5,1.88,7.1-.15,4.64-6-2.18-5.15-.29-13.33-.29-13.33l0,0c.14-.82.28-1.63.41-2.42A.85.85,0,0,1,28,76.6a1.74,1.74,0,0,1,.58.13A12.23,12.23,0,0,0,32.86,78c7.45,0,16.07-8,16.07-17C48.93,54.15,46,46.7,37.46,45.27ZM29.6,67.14a.47.47,0,0,1-.52-.51l2.29-10.38a1.51,1.51,0,0,1,1.42-1.1c1.75,0,3.24,1.36,3.24,3.76C36,63,32.06,67.14,29.6,67.14ZM79.87,47.2a48.41,48.41,0,0,0-8.3-2.2,1.06,1.06,0,0,0-1,1c-.46,3.72-2.38,15.55-4.87,22.87-1,3.07-1.69,4.23-2.73,4.23-.7,0-1.16-1-1.16-2.55,0-4.53,2.84-15.9,5-22.34a1.52,1.52,0,0,0,.05-.35,1.24,1.24,0,0,0-.81-1.16,35,35,0,0,0-8.88-2.2c-1,0-1.21.4-1.62,1.21-1.68,3.31-5.4,14.74-5.4,24.61,0,3.36.93,6.61,3.2,8.7,2.49,2.38,8.35,4.41,11.6,4.41,12.77,0,16.19-24.31,16.19-33.77C81.15,48.59,81.09,47.67,79.87,47.2Zm16.61-3.42c-9.11,0-15.2,12.59-15.2,24.14,0,3.65,1.33,8,3.59,10.21,2.73,2.73,8.3,5.28,11.43,5.28,7.2,0,12.31-5.51,13.93-9.4a4.55,4.55,0,0,0,.35-1.62,44.89,44.89,0,0,0-1.86-9.64,1.7,1.7,0,0,0-1.57-1.16c-.75-.06-1.56-.06-2.43-.06a71.08,71.08,0,0,0-7.55.41c-.87.12-1.16.46-1.21,1.22v.46a32.2,32.2,0,0,0,.63,5.92,1.22,1.22,0,0,0,1.28.93h1.39c.35,0,.53.06.53.29,0,.93-1.92,2.21-3.25,2.21-1.86,0-2.91-2.09-2.91-5.4,0-6.56,3.49-14.33,5.81-14.33,1,0,1.51.75,1.68,2.14.12.76.12,1.57.17,2.5,0,.75.12,1.39,1,1.39,1.86,0,5.63-.11,7.72-.29a2,2,0,0,0,1.62-1.16,16.4,16.4,0,0,0,.7-4.7C112.38,47.32,101,43.78,96.48,43.78Z"/><path class="cls-1" d="M62.36,0,0,36v72l62.36,36,62.35-36V36ZM119,104.73,62.36,137.45,5.67,104.73V39.27L62.36,6.55,119,39.27Z"/></g></svg>