<?xml version="1.0" encoding="utf-8"?>
<!-- Generator: Adobe Illustrator 24.2.2, SVG Export Plug-In . SVG Version: 6.00 Build 0)  -->
<svg version="1.1" id="Layer_1" xmlns="http://www.w3.org/2000/svg" xmlns:xlink="http://www.w3.org/1999/xlink" x="0px" y="0px"
	 viewBox="0 0 124.7 144" style="enable-background:new 0 0 124.7 144;" xml:space="preserve">
<style type="text/css">
	.st0{fill:#F19001;}
	.st1{fill:#6581B7;}
</style>
<g>
	<g>
		<g>
			<path class="st0" d="M46.6,96.6h-2.9l-1.1-2.9L41.7,96l-0.9-2.4l-1.1,2.9h-2.9l4-9.1l0.9,2.2l0.9-2.2L46.6,96.6z"/>
			<path class="st0" d="M49.6,87.8h2.6v8.8h-2.6V87.8z"/>
			<path class="st0" d="M56,87.8h2.6V94h2.9v2.6H56V87.8z"/>
			<path class="st0" d="M67.5,96.1l-0.2,0.4h-2.8l3.9-9.1l4,9.1h-2.8l-0.2-0.4H67.5z M69,95l-0.6-1.6L67.9,95H69z"/>
			<path class="st0" d="M78,96.6h-2.6v-9l3.7,3.5v-3.3h2.6v9L78,93.3V96.6z"/>
			<path class="st0" d="M85.4,92.2c0-2.5,2.1-4.6,4.6-4.6c2.5,0,4.6,2.1,4.6,4.6c0,2.5-2.1,4.6-4.6,4.6
				C87.4,96.7,85.4,94.7,85.4,92.2z M91.7,92.2c0-1-0.8-1.7-1.7-1.7s-1.7,0.8-1.7,1.7c0,0.9,0.8,1.7,1.7,1.7S91.7,93.1,91.7,92.2z"
				/>
		</g>
		<path class="st1" d="M37.5,45.3c-1.8-0.3-4.1,1.8-4.1-0.3c0-0.6-1.2-0.7-1.2-0.7c-13.6-1.4-16,19.8-16.4,19.5
			c-0.1-0.1-0.2-0.1-0.3-0.2c-0.6-0.4-1.2-0.8-1.8-1.3c-0.4-0.3-0.7-0.5-1-0.7c-2.6-1.6-3.4,0.5-0.2,6.2c0.6,1,1.4,1.9,2.4,2.8
			c-1.5,11.6-1.2,25.3,7.7,28.6c5,1.9,7.1-0.1,4.6-5.9c-2.2-5.2-0.3-13.3-0.3-13.3l0,0c0.1-0.8,0.3-1.6,0.4-2.4
			c0.1-0.5,0.4-0.8,0.8-0.8c0.2,0,0.4,0.1,0.6,0.1c1.8,0.8,3.2,1.3,4.3,1.3c7.5,0,16.1-8,16.1-17C48.9,54.1,46,46.7,37.5,45.3z
			 M29.6,67.1c-0.3,0-0.5-0.2-0.5-0.5l2.3-10.4c0.2-0.6,0.8-1.1,1.4-1.1c1.8,0,3.2,1.4,3.2,3.8C36,63,32.1,67.1,29.6,67.1z
			 M79.9,47.2C78,46.4,72.6,45,71.6,45c-0.5,0-0.9,0.3-1,1c-0.5,3.7-2.4,15.6-4.9,22.9c-1,3.1-1.7,4.2-2.7,4.2c-0.7,0-1.2-1-1.2-2.6
			c0-4.5,2.8-15.9,5-22.3c0,0,0.1-0.2,0.1-0.3c0-0.5-0.3-1-0.8-1.2c-2.3-1-7.3-2.2-8.9-2.2c-1,0-1.2,0.4-1.6,1.2
			c-1.7,3.3-5.4,14.7-5.4,24.6c0,3.4,0.9,6.6,3.2,8.7c2.5,2.4,8.4,4.4,11.6,4.4c12.8,0,16.2-24.3,16.2-33.8
			C81.1,48.6,81.1,47.7,79.9,47.2z M96.5,43.8c-9.1,0-15.2,12.6-15.2,24.1c0,3.7,1.3,7.9,3.6,10.2c2.7,2.7,8.3,5.3,11.4,5.3
			c7.2,0,12.3-5.5,13.9-9.4c0.2-0.3,0.3-1.1,0.3-1.6c0-2.5-1.2-7.6-1.9-9.6c-0.2-0.6-0.8-1.1-1.6-1.2c-0.8-0.1-1.6-0.1-2.4-0.1
			c-2.6,0-5.6,0.2-7.5,0.4c-0.9,0.1-1.2,0.5-1.2,1.2v0.5c0,1.5,0.2,4.1,0.6,5.9c0.1,0.6,0.6,0.9,1.3,0.9h1.4c0.3,0,0.5,0.1,0.5,0.3
			c0,0.9-1.9,2.2-3.2,2.2c-1.9,0-2.9-2.1-2.9-5.4c0-6.6,3.5-14.3,5.8-14.3c1,0,1.5,0.8,1.7,2.1c0.1,0.8,0.1,1.6,0.2,2.5
			c0,0.8,0.1,1.4,1,1.4c1.9,0,5.6-0.1,7.7-0.3c0.6-0.1,1.4-0.5,1.6-1.2c0.3-1,0.7-2.6,0.7-4.7C112.4,47.3,101,43.8,96.5,43.8z"/>
	</g>
	<g>
		<g>
			<g>
				<path class="st1" d="M62.4,0L0,36v72l62.4,36l62.4-36V36L62.4,0z M119,104.7l-56.7,32.7L5.7,104.7V39.3L62.4,6.5L119,39.3V104.7
					z"/>
			</g>
		</g>
	</g>
</g>
</svg>
