<?xml version="1.0" encoding="utf-8"?>
<!-- Generator: Adobe Illustrator 24.2.2, SVG Export Plug-In . SVG Version: 6.00 Build 0)  -->
<svg version="1.1" id="Layer_1" xmlns="http://www.w3.org/2000/svg" xmlns:xlink="http://www.w3.org/1999/xlink" x="0px" y="0px"
	 viewBox="0 0 124.7 144" style="enable-background:new 0 0 124.7 144;" xml:space="preserve">
<style type="text/css">
	.st0{fill:#FFFFFF;}
	.st1{fill:#6280B5;}
	.st2{fill:#010101;}
	.st3{fill:#6181B6;}
</style>
<g>
	<polygon class="st0" points="3,106.8 3,38 62.5,3.7 122,38 122,106.8 62.5,141.1 	"/>
	<g>
		<g>
			<g>
				<path class="st1" d="M62.5,0.4l-62.4,36v72l62.4,36l62.4-36v-72L62.5,0.4z M119.2,105.1l-56.7,32.7L5.8,105.1V39.7L62.5,6.9
					l56.7,32.7V105.1z"/>
			</g>
		</g>
	</g>
	<g>
		<path class="st2" d="M60.1,95.8c0-0.4,1.3-7.8,1.4-7.9c0.2-0.2,1.8-0.3,2.5-0.3c2.2,0,3.3,0.9,3.3,2.7c0,2-1.2,3.4-3.6,3.4h-0.3
			c-0.2,1.2-0.3,2-0.4,2C62.9,95.9,60.1,95.9,60.1,95.8 M64,91.5c0.4,0,0.7-0.3,0.7-0.9c0-0.4-0.2-0.5-0.5-0.5c0,0-0.1,0-0.2,0
			c-0.1,0.3-0.2,1-0.3,1.4C63.8,91.5,63.9,91.5,64,91.5"/>
		<path class="st2" d="M70.4,94.1c0.4,0,0.9-0.2,1.2-0.3c0.1,0.2,0.5,1.5,0.4,1.7c-0.4,0.3-1.2,0.5-2,0.5c-2,0-2.6-1.2-2.6-2.6
			c0-1.8,1.3-3.5,3.3-3.5c1.5,0,2.2,1,2.2,2.1c0,0.6-0.1,1-0.2,1.4c-0.6,0.1-2.5,0.1-3,0.1C69.5,93.8,69.7,94.1,70.4,94.1
			 M70.9,92.2c0-0.1,0.1-0.2,0.1-0.3c0-0.2-0.1-0.5-0.4-0.5c-0.4,0-0.7,0.3-0.7,0.8H70.9z"/>
		<path class="st2" d="M72.9,95.4c-0.1-0.1,0.7-1.8,0.8-1.7c0.2,0.1,0.8,0.6,1.4,0.6c0.1,0,0.2-0.1,0.2-0.2s-0.1-0.2-0.5-0.4
			c-0.9-0.3-1.3-0.9-1.3-1.6c0-1.5,0.9-2.3,2.6-2.3c1,0,2,0.4,2.1,0.5c0.1,0.1-0.8,1.8-0.9,1.7c-0.1-0.1-0.8-0.4-1.2-0.4
			c-0.2,0-0.2,0.1-0.2,0.2c0,0.1,0.1,0.2,0.4,0.3c1.1,0.3,1.6,0.8,1.6,1.6c0,1.2-0.8,2.2-2.7,2.2C74,96,73,95.6,72.9,95.4"/>
		<path class="st2" d="M81.5,93.9c0.4,0,0.8-0.2,1.1-0.4c0.1-0.1,0.6,1.2,0.7,1.6C82.9,95.5,81.9,96,81,96c-1.8,0-2.5-1.3-2.5-2.6
			c0-2,1.6-3.4,3.5-3.4c1.1,0,1.8,0.5,1.8,0.6c0,0.1-0.7,2-0.9,2c-0.1,0-0.5-0.5-1.1-0.5c-0.7,0-1,0.7-1,1.2
			C80.9,93.8,81.3,93.9,81.5,93.9"/>
		<path class="st2" d="M86,95.8c-1.2,0-2-1-2-2.4c0-2.4,1.4-3.4,2.5-3.4c0.8,0,1.3,0.5,1.4,0.7c0-0.1,0.1-0.4,0.1-0.5
			c0.1-0.2,2-0.2,2.3,0c0,0-0.3,1.7-0.6,3.4c0,0.2,0,0.2,0.1,0.2c0.1,0,0.2,0,0.2,0c0,0.1-0.2,1.9-0.4,2c-0.3,0.2-0.7,0.2-1,0.2
			c-0.7,0-1-0.4-1.2-0.7C87.2,95.5,86.7,95.8,86,95.8 M86.8,93.6c0.3,0,0.6-0.4,0.6-1c0-0.4-0.1-0.5-0.4-0.5c-0.4,0-0.6,0.6-0.6,1.1
			C86.4,93.4,86.6,93.6,86.8,93.6"/>
		<path class="st2" d="M95,92.6c-0.2-0.1-0.6-0.1-0.8-0.1c-0.4,0-0.5,0.3-0.6,0.7c-0.1,0.3-0.4,2.5-0.4,2.6c-0.1,0-2.5,0.1-2.6,0
			c0-0.1,0.9-5.5,1-5.7c0.1-0.2,2.3-0.2,2.4-0.1c0,0.2-0.1,0.7-0.1,0.8c0.4-0.7,1.2-0.9,1.8-0.7C96,90.1,95.3,92.3,95,92.6"/>
		<path class="st2" d="M97.8,95.8c-1.2,0-2-1-2-2.4c0-2.4,1.4-3.4,2.5-3.4c0.8,0,1.3,0.5,1.4,0.7c0-0.1,0.1-0.4,0.1-0.5
			c0.1-0.2,2-0.2,2.3,0c0,0-0.3,1.7-0.6,3.4c0,0.2,0,0.2,0.1,0.2c0.1,0,0.2,0,0.2,0c0,0.1-0.2,1.9-0.4,2c-0.3,0.2-0.7,0.2-1,0.2
			c-0.7,0-1-0.4-1.2-0.7C99,95.5,98.5,95.8,97.8,95.8 M98.7,93.6c0.3,0,0.6-0.4,0.6-1c0-0.4-0.1-0.5-0.4-0.5c-0.4,0-0.6,0.6-0.6,1.1
			C98.2,93.4,98.4,93.6,98.7,93.6"/>
		<path class="st3" d="M78.6,46.2h-5.1c-1.6,0-2.6,1-2.8,2.3l-2.6,19.9c-0.4,3.4-1.5,5.6-4.3,5.6s-3.4-2.3-2.9-5.6l2.6-19.8
			c0.2-1.3-0.5-2.3-2.1-2.3h-5.1c-1.8,0-2.6,1.2-2.8,2.6l-2.7,20.6c-1.1,8.2,1,13.4,11.7,13.4S76.9,77.7,78,69.4l2.7-20.6
			C80.9,47.4,80.2,46.2,78.6,46.2 M96.5,54.7c1.9,0,3.3,1.8,3.3,4.5c0,1.9,0.7,2.1,2.6,1.8l4.3-0.7c2.1-0.4,2.6-1,2.6-3.7
			c0-6-2.6-10.8-11.6-10.8c-11.9,0-16.9,8.2-16.9,23.2c0,9.6,4,13.9,12,13.9c10.7,0,14.1-6.3,14.9-13.3l0.5-3.8
			c0.1-1.3-0.6-2.3-2.1-2.3h-8.4c-1.9,0-2.6,1.2-2.8,2.7l-0.1,1.1c-0.2,1.5,0.7,2.3,2.1,2.3h1.7l-0.1,0.4c-0.4,2.9-1.7,4-4.6,4
			c-2.1,0-3.1-1.8-3.1-6C90.8,61.4,92.1,54.7,96.5,54.7 M34.2,46.2h-8.3c-1.5,0-2.5,1.1-2.7,2.4l-3.8,28.8h-0.7
			c-1.9,0-2.6,1.2-2.8,2.7l-0.1,1.1c-0.2,1.5,0.7,2.3,2.1,2.3h0.7l-1.6,12.5l0,0.1c0,0.1,0,0.2,0,0.4c0,1.4,0.8,2.3,2.1,2.3h5.1
			c1.5,0,2.6-1,2.8-2.6l1.8-13.9h0.7c11.1,0,20.2-7.8,20.2-20.3C49.6,52.4,43.3,46.2,34.2,46.2 M30.3,73.9h-0.5l1.1-8.4l0-0.1
			c0-0.1,0-0.2,0-0.4c0,0,0-0.1,0-0.1l1.3-10.1h0.5c4.3,0,6.7,3,6.7,7.9C39.5,69.7,36.2,73.9,30.3,73.9"/>
	</g>
</g>
</svg>
