<?xml version="1.0" encoding="utf-8"?>
<!-- Generator: Adobe Illustrator 24.2.2, SVG Export Plug-In . SVG Version: 6.00 Build 0)  -->
<svg version="1.1" id="Layer_1" xmlns="http://www.w3.org/2000/svg" xmlns:xlink="http://www.w3.org/1999/xlink" x="0px" y="0px"
	 viewBox="0 0 125.1 144" style="enable-background:new 0 0 125.1 144;" xml:space="preserve">
<style type="text/css">
	.st0{fill:#FFFFFF;}
	.st1{fill:#6280B5;}
	.st2{fill:#0093CB;}
	.st3{fill:#020202;}
	.st4{fill:#020202;stroke:#020202;stroke-width:0.857;stroke-miterlimit:10;}
	.st5{fill:#020202;stroke:#020202;stroke-width:0.7739;stroke-miterlimit:10;}
	.st6{fill:#020202;stroke:#020202;stroke-width:0.9036;stroke-miterlimit:10;}
</style>
<g>
	<polygon class="st0" points="3,106.4 3,37.6 62.5,3.3 122.1,37.6 122.1,106.4 62.5,140.7 	"/>
	<g>
		<g>
			<g>
				<path class="st1" d="M62.5,0L0.2,36v72l62.4,36l62.4-36V36L62.5,0z M119.2,104.7l-56.7,32.7L5.9,104.7V39.3L62.5,6.5l56.7,32.7
					V104.7z"/>
			</g>
		</g>
	</g>
	<g>
		<g>
			<polygon class="st2" points="47.5,24.5 82,30.3 94.1,63 71.9,89.9 37.5,84.1 25.3,51.5 			"/>
		</g>
		<g>
			<path d="M27.8,52.1c-0.1,0.1-0.1,0.1-0.1,0.1l-0.1,0.2L27.8,52.1z"/>
			<path d="M38.2,33.7L38.2,33.7C38.1,33.6,38.1,33.7,38.2,33.7C38.1,33.7,38.1,33.7,38.2,33.7z"/>
			<path d="M35.6,38.3c-0.1,0.1-0.1,0.1-0.2,0.2C35.4,38.5,35.5,38.4,35.6,38.3z"/>
			<path d="M29.6,49.7l-0.5,0.5C29.2,50.2,29.4,50,29.6,49.7z"/>
			<path d="M36,37.7c-0.1,0.1-0.3,0.4-0.5,0.5C35.7,38.1,35.9,37.9,36,37.7z"/>
			<path d="M43.7,25.4c-0.1,0.1-0.2,0.2-0.3,0.4c0,0,0,0,0,0.1L43.7,25.4z"/>
			<path d="M48.2,27.3c0.5,0,0.5,0,0.5-0.1C48.6,27.2,48.5,27.2,48.2,27.3z"/>
			<path d="M59.7,28.1c-0.1,0-0.2,0-0.3,0C59.7,28.2,59.8,28.1,59.7,28.1z"/>
			<path d="M53.2,26.7C53.2,26.7,53.1,26.6,53.2,26.7C53.1,26.6,53.1,26.7,53.2,26.7z"/>
			<path d="M89,74.4l0.2-0.2C89.1,74.2,89.1,74.3,89,74.4z"/>
			<path d="M80.7,87.1l-0.1,0.1L80.7,87.1z"/>
			<path d="M80.4,87.5l0.2-0.3C80.5,87.3,80.4,87.4,80.4,87.5z"/>
			<path d="M44.3,25.2c0.1-0.4,0.6-1.1,0.5-1.2l-1.1,1.5C44.2,24.9,44.5,24.7,44.3,25.2z"/>
			<path d="M87.3,45.5c0.3,0.5,0.4,0.8,0.5,0.9L87.3,45.5L87.3,45.5z"/>
			<polygon points="94.2,56.9 94.2,56.9 94.2,56.9 			"/>
			<path d="M86.7,44.6c-0.1-0.1-0.1-0.1-0.1-0.1C86.7,44.6,86.7,44.6,86.7,44.6z"/>
			<path d="M27.8,55.1c0.1,0.1,0.1,0.1,0.1,0.2C27.9,55.3,27.8,55.2,27.8,55.1z"/>
			<path d="M94,56l0.2,0.9c0.1,0.1,0.2,0.2,0.3,0.3C94.7,57.3,94.2,56.4,94,56z"/>
			<path d="M86.7,44.6c0.2,0.2,0.4,0.5,0.6,0.9L87.2,45C86.7,43.9,86.7,44.4,86.7,44.6z"/>
			<path d="M47.3,26.6c0.5,0.1-1.4,0.2-0.2,0.3l1.1-0.2c-0.2,0.1,0.4,0.3,0.5,0.4c0.5-0.2-1.4-0.5-0.1-0.7c0.3-0.1,1.3,0,1.8,0.1
				c-1.1-0.1,0-0.2,0.5-0.3c0.7,0.1,1.8,0.2,2.1,0.4c0.1-0.1,0.7,0,1,0l0,0.1c0.8,0-0.3-0.1-0.1-0.2c0.6,0,1.5,0.3,2.5,0.3
				c-1-0.1-1.8,0-2.5,0c1.8,0.3-0.3,0.4-0.8,0.5c1.5,0,2-0.1,3.2-0.1c1.4,0.3-0.1,0.6-0.5,0.6c1.3,0,2.7-0.2,3.4-0.2
				c-1,0.2-0.8,0.3-1.7,0.5c1,0.3,1.3,0.1,1.8,0c-0.3,0-0.7,0-0.9-0.1c1.3,0.1,1.1-0.4,1.7-0.5c0.9,0.2,2.7,0.4,2.5,0.7l0-0.3
				c1.1,0,0.5,0.2,0.7,0.3c0.4-0.2-0.1-0.5,1.8-0.4c-0.3,0.5,1.6,0.2,1.5,0.6c0.9,0,1.3-0.2,2.1-0.1c1,0.3-1.4,0.5-1.9,0.4
				c-1.2-0.1,0.2-0.2-0.3-0.2l-1.2,0c0.7,0.1,1.9,0.3,1.8,0.5c1.2,0-0.9-0.3,0.4-0.3l0.8,0.2c1.3,0-0.3-0.3,1.5-0.3
				c-1.2,0.1,1.9,0.1,1.7,0.4c0.1-0.4,3.1,0.2,3.4-0.1l-0.9-0.2l0.2,0.2c-1-0.1-1.8,0-2.8-0.2c0.8-0.1-0.3-0.3,0.7-0.4
				c1.8-0.1,0.5,0.2,0.7,0.3l1.4-0.1l-0.9-0.2c1.1,0,2.6,0.1,4.1,0.2c2.2,0.4-0.3,0.2,1.3,0.5c0.4,0,0.5-0.1,0.7-0.1
				c0.1,0,0.2,0,0.3,0l0.2,0c0.1,0,0.1,0,0.2,0C80.1,29,80,29,80,29h-0.1h-0.1c-0.1,0-0.1,0-0.2,0c-0.2,0-0.4,0-0.6,0
				c-0.2-0.1,0.2-0.1,0.7-0.1H80h0h0h0.1c0.1,0,0.1,0,0.2,0c0.1,0,0.2,0,0.2-0.1c0.2,0.1,0.1,0.2-0.1,0.3c0.2,0,0.4,0,0.6,0
				c0.2,0.3,0.3,0.6,0.4,0.9l0,0.1l0,0.1l0.1,0.2c0,0.1,0.1,0.2,0.1,0.3c0.1,0.2,0.1,0.4,0.1,0.5l0.6,0.5c1.2,2.6-1.1-1.7-0.2,0.6
				c0.4,0.9,0.9,1.8,1.2,2.1l-0.4-0.8c0.4,0.5,0.5,0.4,1.1,1.3c0.3,0.7-0.1,0.4,0.5,1.2c0.9,2.2-0.1,0.8-0.5,0.6
				c0.6,1.6-0.9-0.5-0.3,0.5l-0.1-0.3l1.1,1.4c-0.4-1.6-0.6-0.5-0.5-1.2l-0.4-0.9c0.3,0.2,1.2,2.3,1.4,2.4c-0.1,0.1-0.4-0.1-0.9-1
				l-0.1,0.7c0.2,0.5,0.6,0.8,0.6,1.1c0.2,0.9-0.9-1-0.1,1c0.9,2.1,1.3,1.8,1.9,3.2c0-0.2-0.2-0.5-0.4-1c0.3,0.4,0-0.5,0.5,0.3
				c0,0.5,0.7,2,1.3,3.2c-0.3-0.2,0,0.5-0.3,0.2c0.3,0.6,0.6,1.1,0.8,1.3c-0.9-2.4,1.3,2.1,0.6,0.2c0.9,1.8,0.8,2.3,1.2,3.4
				c-0.1,0-1.1-2-0.5-0.4c1.1,1.7,0.2-0.5,1.1,0.8l-0.5-1.2c0.2-0.3,1,2,1.2,2.2c0.3,0.7-0.6-0.9-0.4-0.2c0.5,1.1,0.9,1.5,1.1,2.3
				c-0.5-0.6-0.2-0.2-0.8-0.9c1.2,2.5-0.3,0,0.5,1.9c0.3,0.6,0.3,0.1,0.7,1.1c-0.1-0.7,0-0.6-0.7-2.2c0.6,0.4,0.9,2.1,1.7,3.1
				c-0.4-0.9-0.1-0.3-0.6-1.2c0.2-0.3,0.1-0.6,0.7,0.1c-0.6-1-1.1-1.3-1.7-2.8c0.1-0.5,1.1,1.7,1.4,1.6c0.3,0.3,0.6,0.9,0.9,1.6
				c0.1,0.2,0.1,0.3,0.2,0.5L95,58l0,0.1l0,0.1c0.1,0.2,0.1,0.3,0.1,0.4c0.1,0.1,0.2,0.3,0.3,0.4c-0.1,0.2-0.1,0.3-0.2,0.5l-0.1,0.3
				l-0.1,0.1l-0.1,0.2c-0.3,0.6-0.6,1.1-0.8,1.6c-0.7,0.9-2.1,3.4-3.4,5.2c-0.3,0.2-1.6,2.1-1,0.9c-0.1,0.2-1,1.7-0.7,1.4
				c0.1-0.2,0.2-0.3,0.4-0.7l0,0.4c-0.7,0.8-1.1,1.9-1.8,2.7c-0.3,0.2,1-1.6,0.4-1.2c-0.3,1-2.4,4.3-3.2,5.2c-0.5,0.7-0.8,0.6-1,0.9
				l-0.8,1.2c-0.2,0.1-0.3,0.1-0.5,0.2c-0.4,0.5-0.6,1-0.8,1.4c-1.2,1.4-0.8,0.5-0.4-0.4l0.7-0.8c0.3-0.7,1-1.6,0.4-1.2
				c-0.3,0.5-0.2,0.5-0.2,0.7L82,78.1c-0.3,0.6-1.2,2-0.9,1.9c-0.8,0.9-1.5,2.2-2.2,3c0.5-0.6,0,0.3,0.3,0.2l0.8-1.1
				c-0.5,0.9-1.3,2.3-2,3c0-0.2,0-0.2-0.4,0.1c0.1-0.1,0.1-0.1,0.1,0c0,0.1-0.1,0.1-0.1,0.2c0,0.1-0.1,0.2-0.1,0.2
				c0,0.1-0.1,0.2-0.1,0.2c0,0,0,0,0.1,0c0,0,0.1,0,0.1-0.1l0.1-0.1l0,0l0.1-0.1c0.3-0.5,0.5-1,1-1.6c0.5-0.3-0.1,0.7-0.4,1.3
				l-1.1,1.8l-0.9,0c-0.1,0-0.3-0.1-0.4-0.1l-0.2-0.1l-0.1,0l-0.1,0c-0.3-0.1-0.6-0.1-1.2-0.1c1.5,0.3-1.5,0.3-1.9,0.5
				c-1.1-0.2-1.9,0.1-2.8-0.2c0.5-0.1,2.2,0.1,2.7-0.1c0.1-0.2-0.3-0.5,1.4-0.5c-2.1-0.2-1.2,0.1-2.2,0.1l0.7,0
				C72,87,72.6,87.2,72,87.1c-2.4-0.2-2.8-0.5-4.5-0.8c0.4,0.2-0.4,0.2-0.8,0.2c-1.6-0.3,0.1-0.4-0.9-0.7c-0.6,0.1-1.6,0-1.3,0.1
				c-0.6,0-0.3-0.1-0.7-0.2c-0.4,0.1-0.9,0.2-1.8,0.1c0.1-0.1,0.2-0.2,1.1-0.1c-0.9-0.1-1.3-0.4-0.8-0.5l1.5,0.2
				c0.7-0.1-1.4-0.2-1.3-0.3c0.7,0,1.2,0.2,1.6,0.1c-0.4-0.2-1.7-0.1-2.5-0.2c-1.2-0.1-0.8-0.3-0.8-0.4c-2.1,0.1,2.4,0.5,0.4,0.7
				c-0.7,0.2-2.6,0-3.9-0.1c1.1,0.3-0.1,0.3-1.5,0.3c1.7,0.1,0.4,0.3,2.5,0.3l0,0.2c-0.9-0.1-1.9-0.2-2.8-0.3c0.2,0,0-0.1,0.3-0.1
				l-2.6-0.1l0.3-0.1c-1.6-0.1-3.6-0.4-4.5-0.4c0.8,0,1.4,0.3,0.6,0.3c-0.5,0.1-1.3,0.1-2.1,0c-0.4-0.3-3.1-0.5-1.4-0.6
				c-2.2-0.1-1.4,0.1-3.1,0.1l-0.1-0.1l0.1,0.1l1.1,0c0.1,0.1-0.2,0.2-0.3,0.3c-0.1,0.1-0.1,0.2,0.6,0.3c-0.6,0-0.9,0.1-1.1,0.1
				c-0.2,0.1-0.4,0.1-0.8,0.1c-0.1-0.2-0.3-0.5-0.7-1.1c-0.2-0.5-0.1-0.5,0.1-0.3c0.2,0.2,0.5,0.6,0.7,1.1h0.4c-0.1,0-0.2,0-0.3,0
				c-0.2-0.5-0.4-0.9-0.7-1.4c0-0.3,0.1,0,0.3,0.3s0.4,0.6,0.4,0.5c-0.2-0.5-0.2-0.5-0.3-0.4c0,0,0,0.1-0.3-0.4
				c-1-1.6-0.2-1.2-1.1-2.7c0.2,0.3,0.4,1,0.1,0.6c-1-2.1-0.7-1.1-1.6-2.6c-0.2-1,0.3-0.7-0.4-2.2l0.4,0.8c-0.1-0.6-0.4-1.3-0.7-1.8
				c-1.6-2.8-3.2-5.1-4.8-8l0.6,1.1c0.1,0.4-0.5-0.9-0.6-0.8l-0.2-0.7c-0.3-0.1,0.6,1.6,0.2,1.3c0-0.1-0.1-0.3-0.2-0.5l0.3,0.7
				c-0.6-1.4-1.5-2.4-1.7-3.6c1.4,2.7,0.7,0.2,2.1,2.8c-0.8-1.4,0.1-0.3,0.1-0.5c-0.3-0.8-0.3-0.3-0.7-1.2c0.1,0,1.1,1.7,0.8,0.9
				c-0.2,0-0.6-0.8-0.9-1.1c-0.3-0.7,0.1,0,0.1-0.3c-0.2-0.3-0.4-0.5-0.5-0.8l0.2,0.2c-0.7-1.8-0.4-0.4-1.3-2.5
				c-0.2,0,0.1,0.6,0.6,1.4c-0.1,0.6-1.6-2.4-1.9-2c-1-1.9,0.4,0.4-0.3-1.2c-0.2-1,0.8,1.1,1.2,1.4l-0.7-1.7c0.6,0.4,1,1.5,1.4,1.6
				c-0.6-1.2-0.6-1.1-1.3-2.3c0.7,2.1-0.6-0.8-0.4,0.5c-0.4-1-0.2-0.7-0.8-2.1c0.5,0.8,0.3-0.1,0.8,1.1c-0.9-1.8-0.7-1.3-1.6-3.1
				c-0.5-0.5,0.6,2-0.6-0.1c-0.2-0.5-0.1-0.4,0-0.1c-0.7-1.6-0.1,0.5-0.7-0.5c0-0.1-0.1-0.2-0.1-0.3s-0.1-0.1-0.1-0.2
				c-0.1-0.1-0.1-0.2-0.1-0.3c0-0.1,0-0.1,0.1,0c-0.3-0.5-0.5-0.7-0.6-0.7c-0.1-0.1-0.2-0.1-0.4-0.5l0-0.1l-0.1,0.1l0.1,0.3
				c-0.1-0.1-0.1-0.1-0.2-0.1s-0.2,0-0.4-0.3c0.1-0.2,0.2-0.5,0.5-0.9c0.9-1.3,0.7-0.8,0.8-0.8l0.2-0.3c0.1-0.1,0.1-0.2,0.2-0.3
				c0.1-0.2,0.2-0.3,0.3-0.5c0.2-0.3,0.5-0.6,0.7-0.8c-0.1,0-0.1-0.1,0.1-0.3c0.8-1.4,0.7-0.6,1-1.1c1.4-1.8-0.5,0,0.9-2.1l-1.7,2.4
				c0-0.2-0.1-0.3-0.5,0.2c0.1,0.1-0.3,1.1-0.9,1.9c-0.3,0.1,1.3-2.3,0.2-1.1c0.4-0.5,0.8-1.2,1.2-1.8c-0.2,0.7,1.3-1.9,0.8-0.7
				c1.8-2.7,2.1-3,3.7-5.5c0,0.3-0.8,2-1.7,3.2l-0.2,0c-1,1.7,0.9-1.2,0.9-0.7c1.1-2.1,3.1-4.2,4.6-6.7c-0.4,0.4-0.1-0.1-0.1-0.3
				c-0.6,1-0.5,0.8-1.1,1.5c0-0.2,0.4-0.8,0.5-1.1c0-0.3-0.5,0.7-0.8,1c0.5-1,0.5-0.9,0.7-1.5c0.5-0.4,0.5-0.3,0.9-0.6
				c1.6-2.2,1.1-2.2,2.4-3.9c-0.7,1,0.5-0.4-0.3,0.7L40,33c-0.9,1.7-2.7,4.4-2.2,4.4c0.8-1.3,1.3-2.4,2.3-3.9l0,0.1
				c0.8-1.1-0.1,0,0-0.3c0.7-1.3,1.4-1.4,1.8-2.5L41.1,32c0.5-1.1-0.2,0.3-0.3-0.1c1-1.9,3.2-4.8,4.7-7.3c-0.6,0.6-0.7,0.8-1.4,1.7
				c0-0.6,0.3-1-0.3-0.7l-0.8,1.1l-0.3-0.2c0.2-0.3,0.4-0.6,0.6-0.9c-0.1-0.3,1.2-1.7,1.1-1.9l-0.6,1c-0.5,0.4,0.3-0.7,0.7-1.5
				c-0.6,0.5-1.4,2.1-2.3,3.5c0.2,0-0.5,1.5,0.4,0.2c0.1,0.1-0.4,0.9-0.7,1.5c0.1-0.3-1,0.8-0.3-0.5c-0.7,1.3-0.3,0.5-1.2,1.9
				c0.1-0.2-1.6,2.3-1.7,2c-0.2,0.5,0.4,0.2-0.7,1.7c0.4-0.3,1.6-1.9,1-0.7l0.4-0.8c0.8-1,0,0.4,1-0.9c-0.3,0.4-0.8,1.3-1,1.4
				c0.6-0.1-1.2,2.2-1,2.4c-0.3,0.2-0.6,0.6-1.1,1.4c0-0.2-0.4,0.2-0.1-0.5c0.4-0.5,0.6-0.9,1-1.3c-0.6,0.1-1.5,1.9-2.4,3.1
				c0.1-0.2,0.2-0.2,0,0.2c-0.6,0.7-1.8,2.4-1.6,1.8l-2.6,3.9c-0.1,0,0.3-0.6,0.5-0.8L30.8,45c-0.5,0.4,0.4-0.8,0.4-1.1l-1.1,1.6
				l0-0.3c-0.2,0.4-1.4,2.3-1.9,2.6c-0.6,0.9-0.7,1.4-1,1.9c-0.1,0.3-0.3,0.6-0.5,0.9c-0.1,0.1-0.1,0.2-0.2,0.3l-0.3,0.4
				c-0.3,0.4-0.6,0.8-1,1.3c-0.1-0.1,0.3-0.7,0.8-1.4l0.3-0.4l0.2-0.3c0.1-0.2,0.2-0.4,0.3-0.5c-0.1,0.1-0.2,0.3-0.3,0.5l-0.5,0.7
				c-0.5,0.8-1.1,1.5-1.3,1.7c-0.2,0.3-0.4,0.6-0.5,0.9c0.7,1.2,1.1,1.8,1.4,2.1l0.9,1c0.7,1.5-0.1,0.2-0.1,0.3
				c0.2,0.4,0.9,1,0.8,1.5c0.5,0.7,0.9,1,0.4-0.1c0.4,0.8,1,1.9,1.2,2c-0.6-0.5,0.3,1,0.1,1.2c0.5,1.2,1.7,3.9,2.6,4.9l-0.5-0.2
				l0.7,1.4c0.3,1.1-0.8-1.1-1.1-1.8c0.9,1.9,1.5,3.2,2.3,4.9c-0.2-0.5,0-0.3,0-0.5c0.4,0.5,0.7,1.4,1,2c0,0.2-0.1,0.1-0.4-0.3
				l0.6,1.1c-0.2,0,0,0.6-0.7-0.5l0.6,1.1c0.5,1.2-0.2,0-0.4-0.2l0.9,1.9c0.4,0.6,0-0.5,0.7,0.8c0.7,1.8,1.8,4,2.7,6l-0.5-1.5
				c0.5,1.2,0.7,0.8,1,1.1c0.3,0.6,0.6,1.2,0.9,1.8c0.1,0.3,0.3,0.6,0.4,0.9l0.3,0.6l0.3,0.6c-0.5-0.8-0.7-1.1-0.7-0.9
				c0,0.2,0.2,0.9,0.6,1.9c0.2,0.4,0.4,0.8,0.5,1.1c1.6,0.1,2.2,0.1,2.7,0l0.4-0.1l0.2,0l0.1,0l0.1,0c0.2,0,0.4-0.1,0.7-0.1
				c-1.1,0.3,1.7,0.3,1.5,0.5c3.1,0.2,6.3,0.3,9.6,0.5c-0.1-0.1-1-0.2-0.4-0.2c1.2,0,1.8,0.2,1.9,0.3c1.5,0.1,2.5,0,3-0.1
				c-0.7,0-0.7-0.1-0.6-0.2c1.5,0.1,1.1,0.3,2.6,0.2c0.4,0.3-1.6,0-1.5,0.2c1.4,0.1,2.2,0.1,3.2,0c0.2,0.2-0.9,0-0.2,0.1l6.3,0.1
				l0.4,0.2c1,0.1,1.7,0.1,2.2,0c0.5,0.1,0.1,0.1-0.4,0.1c0.7,0.1,1.4,0.1,2.1,0.1h0.5h0.2h0.1h0.2c0.5,0,0.9,0,1.2,0.1
				c-0.1,0.1-0.4,0-0.8,0c-0.2,0-0.3,0-0.5,0h-0.1h-0.1c0,0-0.1,0-0.1,0l0.3,0l0.4,0l0.8,0.1c0.6,0,1.1,0.1,1.7,0.1
				c0.5-0.8,1-1.7,1.5-2.3l0.3-0.4c0.1-0.1,0.1-0.2,0.2-0.3c0.1-0.2,0.3-0.3,0.4-0.5c-0.1,0.1-0.1,0.3-0.2,0.4
				c1.4-2.1,2.6-4,4.1-6.3c1.6-2,0.2-0.8,1.6-2.9c0.4,0.3,1.9-2.8,2.6-3.6l-0.3,0.2c0.5-1.1,1.6-2.4,2.2-3c1.1-1.5,2.6-3.8,3.5-5.4
				l-0.1,0.4c0.7-1.3,1.4-2,2.2-3.4c0,0.1-0.3,0.6,0.1,0.1l1.1-1.5l1.7-2.4l-1.5-3.1l-1-2.1l-2.1-4.2c-1.4-2.8-2.8-5.5-4.1-8.3
				l-3.4-7.2l-4.1-8.5l-8.5-0.6c-2.5-0.2-5-0.3-7.4-0.5c-4.9-0.2-9.7-0.5-14.1-0.7C53,24.1,46.3,25.7,47.3,26.6z"/>
			<path d="M28.7,56.3l0.1,0.2C28.8,56.4,28.7,56.4,28.7,56.3z"/>
			<path d="M43.4,85.6c-0.2,0-0.3,0-0.5,0C43.1,85.6,43.2,85.6,43.4,85.6z"/>
			<path d="M71.6,87l-0.6,0C71.3,86.9,71.5,87,71.6,87z"/>
			<path d="M94.8,58c0,0.3-0.8-0.7-0.5,0.3l0.1,0.2l0.1,0.1c0,0.1,0.1,0.1,0.1,0.2c0.1,0.1,0.1,0.2,0.2,0.2c0,0.1,0.1,0.2,0.1,0.4
				c0,0.1,0,0.2-0.1,0.3c0,0,0,0,0,0.1l-0.1,0.1l-0.2,0.3c-0.1,0.2-0.3,0.4-0.5,0.7l0.6-0.7l0.3-0.3l0.2-0.2c-0.1,0-0.1-0.1-0.1-0.2
				c0-0.1,0.1-0.3,0.1-0.4c-0.1-0.1-0.2-0.3-0.3-0.5c0-0.1,0.1-0.1,0.1-0.2c0.1,0.1,0.2,0.2,0.3,0.3c-0.1-0.1-0.1-0.2-0.2-0.2
				c0,0-0.1-0.1-0.1-0.1c0,0,0,0,0-0.1L94.8,58z"/>
			<path d="M95.2,58.6C95.2,58.6,95.2,58.6,95.2,58.6L95.2,58.6C95.2,58.6,95.2,58.6,95.2,58.6z"/>
		</g>
		<path class="st0" d="M53.5,83.8c-0.9-0.1-1.7-0.7-1.9-1.5l-4.8-22.7c-0.2-0.9-1.2-1.5-2.2-1.3c-1,0.1-1.6,1-1.5,1.9l3.2,21.2
			c0.1,0.4-0.1,0.7-0.3,1c-0.3,0.3-0.7,0.4-1.1,0.3l-2.2-0.5c-0.2-0.1-0.4-0.2-0.4-0.4L30.2,42.4c-0.1-0.2,0-0.5,0.2-0.6
			c7.7-6.4,16.1-9.3,25.8-8.7c0.2,0,0.4,0.1,0.5,0.3l3.2,6.9c0.2,0.5,0.7,0.7,1.2,0.7c11.5-0.6,24.2,3.4,32,10.2
			c3.8,3.3,5.9,6.9,6.1,10.3c0,0.1,0,0.3-0.1,0.4c-0.4,0.5-0.7,0.9-1.1,1.4c-5.8,7.1-12.3,15.1-18.1,17.3c-0.2,0.1-0.5,0-0.7-0.1
			c-0.2-0.2-0.2-0.6,0-0.8l7.7-9.2c0.2-0.2,0.2-0.4,0.2-0.6c0-0.2-0.1-0.4-0.3-0.6c-0.2-0.2-0.5-0.3-0.8-0.2c-0.3,0-0.5,0.2-0.7,0.4
			l-7.3,11.3l0,0c-0.3,0.4-0.7,0.7-1.2,0.9c-0.3,0.1-0.7,0.2-1.1,0.3c-2.6,0.7-6.3,1.7-8.9,2c-0.5,0.1-0.9-0.1-1.2-0.5
			c-0.3-0.3-0.3-0.8-0.1-1.2c0,0,0,0,0,0l7-14.1c0.3-0.6,0.3-1.3,0-1.9c-0.3-0.7-1-1.2-1.8-1.4c-1.4-0.3-2.8,0.4-3.2,1.6l-5.9,16.2
			C61,83.4,60.1,84,59,84L53.5,83.8z"/>
		<g>
			<path class="st3" d="M55.1,84.4c-1,0-1.8-0.6-2-1.5l-6.1-23.1c-0.2-0.9-1.3-1.5-2.3-1.3c-1,0.2-1.6,1.1-1.4,2l4.5,21.6
				c0.1,0.4,0,0.7-0.3,1c-0.3,0.3-0.7,0.4-1.1,0.3L44,83.1c-0.2,0-0.4-0.2-0.5-0.4L29,43.2c-0.1-0.2,0-0.5,0.2-0.7
				c7.5-7,16-10.4,26-10.4c0.2,0,0.4,0.1,0.5,0.3l3.7,6.9c0.2,0.5,0.7,0.7,1.3,0.7c11.7-1.2,25,2.2,33.3,8.7
				c4.1,3.2,6.4,6.7,6.8,10.2c0,0.1,0,0.3-0.1,0.4c-0.3,0.5-0.7,1-1.1,1.5C94,68.5,87.8,77.1,81.9,79.6c-0.2,0.1-0.5,0.1-0.7-0.1
				c-0.3-0.2-0.3-0.6-0.1-0.8l7.4-9.9c0.1-0.2,0.2-0.4,0.2-0.6s-0.2-0.4-0.3-0.6c-0.2-0.2-0.5-0.3-0.9-0.2c-0.3,0.1-0.5,0.2-0.7,0.4
				l-6.9,12l0,0c-0.3,0.4-0.7,0.8-1.2,0.9c-0.3,0.1-0.7,0.2-1.1,0.4c-2.7,0.9-6.3,2.1-9,2.5c-0.5,0.1-0.9-0.1-1.2-0.5
				c-0.3-0.3-0.3-0.8-0.2-1.2c0,0,0,0,0,0l6.4-14.8c0.2-0.6,0.2-1.3-0.1-1.9c-0.4-0.7-1.1-1.2-1.9-1.3c-1.5-0.3-2.9,0.5-3.2,1.8
				L63,82.6c-0.3,1-1.2,1.7-2.3,1.7L55.1,84.4z M45.1,57.3c1.4,0,2.7,0.9,3,2.2l6.1,23.1c0.1,0.3,0.4,0.6,0.8,0.6l5.6-0.1
				c0.5,0,1-0.3,1.1-0.8l5.2-16.9c0.5-1.9,2.6-3.1,4.7-2.7c1.2,0.2,2.2,0.9,2.7,1.9c0.5,0.9,0.6,2,0.2,3c0,0,0,0,0,0l-6.4,14.8
				c0,0,0,0,0.1,0c2.6-0.4,6.2-1.6,8.8-2.5c0.4-0.1,0.8-0.3,1.1-0.4c0.2-0.1,0.4-0.2,0.5-0.4l6.9-12l0,0c0.3-0.5,0.9-0.9,1.5-1
				s1.3,0,1.8,0.4c0.5,0.3,0.8,0.9,0.8,1.4c0.1,0.5-0.1,1.1-0.4,1.5L83.8,77c4.9-3.4,10-10.5,14.7-16.9c0.3-0.4,0.6-0.8,0.9-1.3
				c-0.4-3.1-2.6-6.3-6.3-9.1c-6.7-5.2-18.9-9.7-31.7-8.5c-0.7,0.1-1.3,0.7-1.1,1.5l1.6,10.3c0.2,1.6-0.3,2.8-1.3,3.6
				c-3.6,2.8-13.4-0.3-15.6-1.2c-0.3-0.1,0.1-0.8,1.3-0.4c2.8,0.9,10.1,2.8,13,0.6c0.7-0.5,1.1-1.4,1-2.5l-3.4-12l-2.5-6.5
				c-0.3-0.8-1.1-1.3-1.9-1.3c-8.3,0.4-14.8,3.4-21.3,9c-0.5,0.5-0.7,1.2-0.5,1.9l13.8,37.7l0.9,0.2c0.4,0.1,0.8-0.3,0.7-0.7
				L42,60.8c-0.3-1.6,0.7-3.1,2.4-3.4C44.6,57.3,44.9,57.3,45.1,57.3z"/>
		</g>
		<path class="st4" d="M71.8,49.9c-0.7-0.1-1.2-0.2-1.8-0.3c-0.3,0-0.5-0.3-0.4-0.6c0.2-1.5,0.4-2.9,0.6-4.3c0.1-0.9,1-1.3,1.9-1.2
			l0,0c0.9,0.1,1.5,0.8,1.3,1.7c-0.3,1.4-0.7,2.9-1,4.3C72.3,49.8,72,49.9,71.8,49.9z"/>
		<path class="st4" d="M80,47.2c0.3-0.8-0.1-1.6-1-2l0,0c-0.9-0.4-1.8-0.1-2.1,0.7c-0.5,1.4-0.9,2.8-1.3,4.2
			c-0.1,0.3,0.1,0.6,0.3,0.6c0.7,0.2,1.2,0.4,1.9,0.6c0.3,0.1,0.5,0,0.6-0.3C79,49.8,79.5,48.5,80,47.2z"/>
		<path class="st4" d="M86.3,50.1c0.4-0.7,0.1-1.7-0.8-2.2l0,0c-0.9-0.6-1.9-0.5-2.3,0.4c-0.6,1.3-1.2,2.7-1.8,4
			c-0.1,0.3,0,0.6,0.3,0.7c0.8,0.3,1.3,0.6,2,0.9c0.2,0.1,0.5,0,0.7-0.2C85,52.4,85.7,51.2,86.3,50.1z"/>
		<path class="st4" d="M91.7,54c0.4-0.7,0.2-1.8-0.5-2.6l0,0c-0.7-0.8-1.7-0.8-2.1,0c-0.7,1.3-1.3,2.6-2,3.9
			c-0.1,0.2-0.1,0.5,0.1,0.6c0.7,0.5,1.2,0.9,1.9,1.4c0.2,0.2,0.6,0.1,0.7-0.1C90.4,56.3,90.9,55.4,91.7,54z"/>
		<path class="st5" d="M70.1,57c-0.6-0.1-1-0.2-1.6-0.2c-0.3,0-0.5-0.3-0.4-0.6c0.2-1.3,0.4-2.6,0.6-3.9c0.1-0.8,0.9-1.2,1.8-1.1
			l0,0c0.8,0.1,1.3,0.7,1.1,1.5c-0.3,1.3-0.6,2.6-0.9,3.9C70.6,56.8,70.4,57,70.1,57z"/>
		<path class="st5" d="M77.6,54.5c0.3-0.7-0.1-1.5-0.9-1.8l0,0c-0.8-0.3-1.7-0.1-1.9,0.7c-0.4,1.3-0.8,2.5-1.2,3.8
			c-0.1,0.3,0.1,0.6,0.3,0.6c0.6,0.2,1,0.3,1.6,0.5c0.3,0.1,0.5,0,0.6-0.3C76.7,56.9,77.2,55.7,77.6,54.5z"/>
		<path class="st5" d="M83.3,57.2c0.4-0.7,0.1-1.5-0.7-2l0,0c-0.8-0.5-1.7-0.4-2.1,0.3c-0.5,1.2-1.1,2.4-1.6,3.6
			c-0.1,0.3,0,0.6,0.3,0.7c0.7,0.3,1.1,0.5,1.7,0.8c0.2,0.1,0.5,0,0.7-0.2C82.2,59.2,82.7,58.2,83.3,57.2z"/>
		<path class="st5" d="M88.2,60.7c0.4-0.6,0.2-1.6-0.5-2.3l0,0c-0.7-0.7-1.5-0.7-1.9,0c-0.6,1.2-1.2,2.3-1.8,3.5
			c-0.1,0.2-0.1,0.5,0.1,0.6c0.6,0.5,1.1,0.8,1.6,1.2c0.2,0.2,0.6,0.1,0.7-0.1C87,62.8,87.5,61.9,88.2,60.7z"/>
		<path class="st6" d="M39.7,50.5c0.9-0.4,1.4-0.6,2.5-0.9c-0.2-0.9-0.5-1.7-0.9-3c-0.2-0.6-0.9-0.8-1.5-0.5l0,0
			c-0.6,0.3-0.9,1-0.8,1.5C39.3,48.9,39.6,49.6,39.7,50.5z"/>
		<path class="st3" d="M69.5,61.1c0,0,0.1,0,0.4,0.1c0.3,0.1,0.6,0.1,1.1,0.2c0.5,0.1,1,0.2,1.7,0.3c0.6,0.1,1.3,0.2,2.1,0.3
			c0.8,0.1,1.6,0.2,2.5,0.3c0.9,0.1,1.8,0.2,2.8,0.2c0.5,0,1,0.1,1.5,0.1c0.5,0,1,0.1,1.5,0.1c1,0,2,0.1,3,0.1c0.5,0,1,0,1.5,0
			c0.3,0,0.5,0,0.7,0c0.3,0,0.5,0,0.7,0c0.3,0,0.5,0,0.7,0c0.2,0,0.5,0,0.7-0.1c0.5,0,0.9-0.1,1.4-0.1c0.9-0.1,1.8-0.2,2.6-0.4
			c0.8-0.2,1.5-0.4,2.2-0.7c0.6-0.3,1.2-0.6,1.6-0.9c0.4-0.3,0.8-0.7,1-1.1c0.2-0.4,0.4-0.7,0.5-0.9c0.1-0.2,0.1-0.4,0.1-0.4h0.3
			c0,0,0,0.1,0,0.4c0,0.3-0.1,0.6-0.2,1.1c-0.1,0.5-0.4,1-0.8,1.5c-0.2,0.3-0.5,0.5-0.7,0.8c-0.3,0.3-0.6,0.5-0.9,0.7
			c-0.7,0.5-1.5,0.9-2.4,1.2c-0.9,0.3-1.8,0.6-2.8,0.8c-2,0.4-4.1,0.6-6.3,0.6c-2.2,0-4.3-0.2-6.3-0.5c-2-0.3-3.8-0.7-5.4-1.2
			c-1.5-0.5-2.8-1-3.6-1.4c-0.4-0.2-0.8-0.4-1-0.5c-0.2-0.1-0.3-0.2-0.3-0.2L69.5,61.1z"/>
		<g>
			<path class="st2" d="M50.4,98.4v5.6c0,1.6-1.3,2.9-2.9,2.9H36.9c-0.4,0-0.7,0.3-0.7,0.7v3c0,0.4-0.3,0.7-0.7,0.7h-5.8
				c-0.4,0-0.7-0.3-0.7-0.7V99c0-0.4-0.3-0.7-0.7-0.7l0,0c-0.4,0-0.7-0.3-0.7-0.7v-1.4c0-0.4,0.3-0.7,0.7-0.7h19.1
				C49.1,95.6,50.4,96.9,50.4,98.4z M36.2,99v4.4c0,0.4,0.3,0.7,0.7,0.7h3.4c1.6,0,2.9-1.3,2.9-2.9l0,0c0-1.6-1.3-2.9-2.9-2.9h-3.4
				C36.5,98.3,36.2,98.6,36.2,99z"/>
			<path class="st2" d="M67.5,95.6h5.8c0.4,0,0.7,0.3,0.7,0.7v14.3c0,0.4-0.3,0.7-0.7,0.7h-17c-2,0-3.6-1.6-3.6-3.6v-8.6
				c0-2,1.6-3.6,3.6-3.6l0,0c2,0,3.6,1.6,3.6,3.6v5.8c0,2,1.6,3.6,3.6,3.6h2.7c0.4,0,0.7-0.3,0.7-0.7V96.3
				C66.8,95.9,67.1,95.6,67.5,95.6z"/>
			<path class="st2" d="M88.1,104.1h8.6c0.4,0,0.7,0.3,0.7,0.7v5.8c0,0.4-0.3,0.7-0.7,0.7h-16c-2.5,0-4.6-2.1-4.6-4.6v-6.1
				c0-2.8,2.3-5,5-5h13.9c0.6,0,1.1,0.5,1.1,1.1v2.8c0,0.6-0.5,1.1-1.1,1.1h-4.9c-0.6,0-1.1-0.5-1.1-1.1l0,0c0-0.6-0.5-1.1-1.1-1.1
				l0,0c-2.5,0-4.6,2.1-4.6,4.6v1c0,2.5,2.1,4.6,4.6,4.6h1.7c0.4,0,0.7-0.3,0.7-0.7v-0.2c0-0.4-0.3-0.7-0.7-0.7h-1.5
				c-0.4,0-0.7-0.3-0.7-0.7v-1.4C87.4,104.4,87.7,104.1,88.1,104.1z"/>
		</g>
		<g>
			<path d="M51,113.7v4.2c0,0.3-0.3,0.6-0.6,0.6l0,0c-0.5,0-0.8,0.7-0.4,1.1l0,0c0.4,0.4,0.1,1.1-0.4,1.1h-1.7
				c-0.2,0-0.3-0.1-0.4-0.2l-1.8-1.8c-0.1-0.1-0.3-0.2-0.4-0.2h-0.6c-0.2,0-0.3,0.1-0.3,0.3v1.4c0,0.2-0.1,0.3-0.3,0.3H41
				c-0.2,0-0.3-0.1-0.3-0.3v-5.6c0-0.2-0.1-0.3-0.3-0.3l0,0c-0.2,0-0.3-0.1-0.3-0.3v-0.7c0-0.2,0.1-0.3,0.3-0.3h10
				C50.7,113.1,51,113.3,51,113.7z M44.5,117.2h2.4c0.3,0,0.6-0.3,0.6-0.6V115c0-0.3-0.3-0.6-0.6-0.6h-2.4c-0.2,0-0.3,0.1-0.3,0.3
				v2.1C44.2,117,44.3,117.2,44.5,117.2z"/>
			<path d="M53.3,113.1h6.9c0.9,0,1.7,0.7,1.7,1.7v5.6c0,0.2-0.1,0.3-0.3,0.3H52c-0.2,0-0.3-0.1-0.3-0.3v-5.6
				C51.7,113.8,52.4,113.1,53.3,113.1z M55.5,119.3h2.7c0.2,0,0.3-0.1,0.3-0.3v-2.9c0-0.9-0.7-1.7-1.7-1.7l0,0
				c-0.9,0-1.7,0.7-1.7,1.7v2.9C55.1,119.1,55.3,119.3,55.5,119.3z"/>
			<path d="M74.1,120.6h-2.8c-0.2,0-0.3-0.1-0.3-0.3l-0.1-2c0-0.4-0.6-0.4-0.7-0.1l-0.4,2.1c0,0.2-0.2,0.3-0.3,0.3h-1.7
				c-0.2,0-0.3-0.1-0.3-0.3l-0.5-2.1c-0.1-0.4-0.6-0.3-0.7,0.1l-0.1,2c0,0.2-0.2,0.3-0.3,0.3H63c-0.2,0-0.3-0.2-0.3-0.4l0.5-6.9
				c0-0.2,0.2-0.3,0.3-0.3h3.7c0.2,0,0.3,0.1,0.3,0.3l0.7,3.4c0.1,0.4,0.6,0.4,0.7,0l0.7-3.4c0-0.2,0.2-0.3,0.3-0.3h3.7
				c0.2,0,0.3,0.1,0.3,0.3l0.5,6.9C74.4,120.5,74.3,120.6,74.1,120.6z"/>
			<path d="M76.7,113.1H84c0.6,0,1.1,0.5,1.1,1.1v5.5c0,0.6-0.5,1.1-1.1,1.1h-1.3c-0.6,0-1.1-0.5-1.1-1.1l0,0c0-0.6-0.5-1.1-1.1-1.1
				H79c-0.2,0-0.3,0.1-0.3,0.3l-0.3,1.6c0,0.2-0.2,0.3-0.3,0.3h-2.8c-0.2,0-0.4-0.2-0.3-0.4l1.5-6.9
				C76.4,113.2,76.5,113.1,76.7,113.1z M79.4,117.2h1.1c0.6,0,1.1-0.5,1.1-1.1v-0.7c0-0.6-0.5-1.1-1.1-1.1h-0.7
				c-0.2,0-0.3,0.1-0.3,0.3l-0.5,2.1C79,117,79.2,117.2,79.4,117.2z"/>
		</g>
	</g>
</g>
</svg>
