<svg xmlns="http://www.w3.org/2000/svg" viewBox="0 0 125.07 144"><defs><style>.cls-1{fill:#fff;}.cls-2{fill:#0094cd;}.cls-3{fill:#010101;}.cls-4,.cls-5,.cls-6,.cls-7{fill:#020303;}.cls-5,.cls-6,.cls-7{stroke:#020303;stroke-miterlimit:10;}.cls-5{stroke-width:0.86px;}.cls-6{stroke-width:0.77px;}.cls-7{stroke-width:0.9px;}</style></defs><title>RM</title><g id="Roma"><polygon class="cls-1" points="2.84 106.37 2.84 37.64 62.36 3.28 121.88 37.64 121.88 106.37 62.36 140.73 2.84 106.37"/><path class="cls-2" d="M62.36,0,0,36v72l62.36,36,62.35-36V36ZM119,104.73,62.36,137.45,5.67,104.73V39.27L62.36,6.55,119,39.27Z"/><polygon class="cls-2" points="47.36 24.54 81.77 30.31 93.97 63 71.76 89.92 37.34 84.15 25.15 51.46 47.36 24.54"/><path class="cls-3" d="M27.67,52.06c-.07.09-.11.11-.13.11l-.14.23Z"/><path class="cls-3" d="M38,33.65l0,0a.34.34,0,0,1-.11.05C37.91,33.73,37.91,33.73,38,33.65Z"/><path class="cls-3" d="M35.38,38.28a1.12,1.12,0,0,1-.2.18A1,1,0,0,0,35.38,38.28Z"/><path class="cls-3" d="M29.39,49.72l-.47.54A1.57,1.57,0,0,0,29.39,49.72Z"/><path class="cls-3" d="M35.86,37.74l-.48.54A6.55,6.55,0,0,0,35.86,37.74Z"/><path class="cls-3" d="M43.57,25.4a4.28,4.28,0,0,0-.31.36.06.06,0,0,0,0,0Z"/><path class="cls-3" d="M48,27.26c.48,0,.55,0,.49-.09A1.13,1.13,0,0,1,48,27.26Z"/><path class="cls-3" d="M59.56,28.14h0Z"/><path class="cls-3" d="M53,26.7a.17.17,0,0,0-.09-.07S52.9,26.67,53,26.7Z"/><path class="cls-3" d="M88.8,74.36l.2-.2A.88.88,0,0,0,88.8,74.36Z"/><path class="cls-3" d="M80.49,87.09l-.08.11Z"/><path class="cls-3" d="M80.23,87.47l.18-.26Z"/><path class="cls-3" d="M44.13,25.18c.11-.37.6-1.15.51-1.24l-1,1.46C44,24.92,44.31,24.74,44.13,25.18Z"/><path class="cls-3" d="M87.11,45.45a6.81,6.81,0,0,0,.49.89l-.51-.93Z"/><polygon class="cls-3" points="94.03 56.92 93.99 56.87 94.03 56.94 94.03 56.92"/><path class="cls-3" d="M86.55,44.58c-.06,0-.09-.11-.15-.13C86.49,44.63,86.53,44.63,86.55,44.58Z"/><path class="cls-3" d="M27.6,55.11a2.32,2.32,0,0,1,.14.23C27.69,55.25,27.63,55.18,27.6,55.11Z"/><path class="cls-3" d="M93.81,56l.22.89.27.31C94.5,57.3,94,56.4,93.81,56Z"/><path class="cls-3" d="M86.55,44.58a4.43,4.43,0,0,1,.56.85L87,45C86.48,43.89,86.57,44.43,86.55,44.58Z"/><path class="cls-3" d="M47.07,26.63c.55.14-1.38.18-.23.33L48,26.79c-.2.11.43.29.54.4.48-.2-1.41-.49-.07-.71a6.8,6.8,0,0,1,1.83.06c-1.12-.13,0-.22.51-.26a16.22,16.22,0,0,1,2.13.37,2.88,2.88,0,0,1,1,0l0,.07c.83,0-.27-.09-.06-.16.6,0,1.55.25,2.53.3-1-.05-1.82,0-2.53,0,1.78.27-.34.36-.76.55,1.45,0,2-.09,3.2-.13,1.41.27-.15.56-.53.56,1.33,0,2.7-.16,3.41-.2-1,.24-.83.35-1.74.53a3.16,3.16,0,0,0,1.78,0,2.78,2.78,0,0,1-.85-.07c1.25.11,1.07-.37,1.72-.53.91.2,2.67.38,2.52.65l0-.29c1.09,0,.55.2.71.29.42-.16-.07-.49,1.76-.43-.31.45,1.61.16,1.54.58a16.81,16.81,0,0,1,2.14-.05c1,.3-1.38.49-1.9.36-1.24-.07.18-.18-.31-.22l-1.18,0c.65.14,1.92.34,1.76.52,1.2,0-.94-.27.38-.29l.78.17c1.33,0-.25-.35,1.47-.28-1.16.13,1.85.15,1.73.44.09-.38,3.06.18,3.44-.11l-.9-.16.18.18c-1-.06-1.82,0-2.83-.16.81-.1-.26-.35.69-.4,1.76-.11.45.23.69.25l1.39-.11-.92-.23c1.09,0,2.56.1,4.06.23,2.2.4-.29.2,1.27.53.37,0,.49-.06.68-.07a1.47,1.47,0,0,1,.32,0l.2,0H80a.53.53,0,0,0-.2-.05h-.32a3.21,3.21,0,0,1-.62,0c-.24-.15.22-.15.73-.13h.3a.59.59,0,0,0,.2,0c.13,0,.2,0,.22-.11.24.11.13.2-.09.3h.6a4.87,4.87,0,0,1,.38.88l0,.06,0,.09,0,.16a2.54,2.54,0,0,1,.09.31,1.68,1.68,0,0,1,.07.51l.58.53c1.17,2.65-1.1-1.67-.21.61A10.34,10.34,0,0,0,83,34.33l-.36-.79a7.16,7.16,0,0,1,1.08,1.35c.31.69,0,.42.49,1.16.86,2.16-.1.83-.52.63.6,1.58-.89-.52-.27.46l-.08-.31,1.13,1.4c-.42-1.62-.56-.46-.55-1.18l-.4-.89c.3.2,1.17,2.29,1.42,2.39-.07.06-.4,0-.85-1L84,38.3c.22.54.62.78.6,1.14.17.89-.9-1-.05,1s1.29,1.78,1.91,3.21a3.48,3.48,0,0,0-.39-1c.33.4,0-.45.49.29a12.7,12.7,0,0,0,1.27,3.16c-.27-.23,0,.55-.27.24a6.2,6.2,0,0,0,.82,1.27c-.94-2.4,1.27,2.14.63.23a21.43,21.43,0,0,1,1.24,3.44c-.11,0-1.14-2-.47-.37,1.12,1.73.16-.49,1.14.8l-.47-1.2c.22-.29,1,2,1.23,2.24.27.74-.56-1-.42-.17.46,1.09.89,1.54,1.11,2.27a9.84,9.84,0,0,1-.78-.85c1.22,2.48-.29,0,.51,1.94.33.58.31.13.74,1.11a4.44,4.44,0,0,0-.7-2.22c.58.4.92,2.11,1.65,3.12a7.48,7.48,0,0,0-.58-1.23c.2-.25,0-.62.72.13a19.12,19.12,0,0,1-1.69-2.8c.08-.52,1.08,1.71,1.42,1.56a9.4,9.4,0,0,1,.85,1.6,3.37,3.37,0,0,1,.2.49l.09.24,0,.11,0,.07c.05.18.09.32.11.43s.22.28.32.42c-.07.16-.14.35-.23.53l-.13.27-.07.14-.13.22A10.05,10.05,0,0,0,94,61.79c-.73.89-2.07,3.41-3.36,5.15-.33.18-1.58,2.12-1,.93-.05.18-1,1.68-.65,1.38,0-.19.22-.33.42-.66l0,.4c-.66.82-1.09,1.93-1.76,2.67-.33.18,1-1.62.41-1.16a28,28,0,0,1-3.17,5.22c-.51.68-.78.6-1,.88l-.76,1.18c-.17.09-.26,0-.49.2a7,7,0,0,0-.84,1.36c-1.16,1.41-.8.49-.4-.38l.66-.8c.32-.69,1-1.56.41-1.16a1.25,1.25,0,0,0-.23.67l-.46.41c-.25.57-1.16,2-.9,2-.8.94-1.47,2.21-2.22,3,.53-.57,0,.27.29.18l.78-1.07a22.68,22.68,0,0,1-2,3c0-.16,0-.22-.41.13.12-.13.14-.09.1,0a1.13,1.13,0,0,1-.09.22,1.13,1.13,0,0,0-.09.22c0,.11-.07.2,0,.24s0,0,.07,0l.09-.07.06-.06,0,0,.06,0a11.74,11.74,0,0,1,1-1.56c.47-.26-.15.71-.4,1.32L77,87.38l-.89,0a1.31,1.31,0,0,1-.38-.11l-.17-.06-.07,0-.11,0a3.57,3.57,0,0,0-1.21-.09c1.48.34-1.46.29-1.86.51-1.12-.2-1.86.07-2.75-.2a21.81,21.81,0,0,0,2.68-.08c.07-.16-.34-.49,1.38-.45-2.07-.24-1.23.06-2.19.06l.7,0c-.32.06.28.22-.36.18a27.71,27.71,0,0,1-4.46-.8c.36.17-.4.22-.8.2-1.58-.27,0-.38-.91-.7-.56.12-1.63,0-1.29.14-.63,0-.29-.09-.74-.18a5.37,5.37,0,0,1-1.76.11c.09-.07.21-.18,1-.07-.93-.13-1.25-.42-.84-.55l1.51.22c.71-.13-1.42-.18-1.34-.35.67,0,1.18.17,1.59.15a9.79,9.79,0,0,0-2.52-.18c-1.21-.13-.76-.27-.76-.38-2.09.14,2.36.51.42.65a24.88,24.88,0,0,1-3.91,0c1.09.32-.14.34-1.48.32,1.74.13.41.33,2.48.31l0,.2c-.87-.07-1.91-.23-2.78-.29.19,0,0-.11.28-.11L53,85.65l.27-.11c-1.59-.14-3.55-.43-4.51-.43.78,0,1.43.29.61.27a10.68,10.68,0,0,1-2.07,0c-.36-.26-3.12-.45-1.36-.56-2.21-.06-1.41,0-3.12,0l-.09-.14.07.14,1.07,0c.06.09-.2.2-.34.31s-.15.2.56.32a4.38,4.38,0,0,0-1.12.11,2.9,2.9,0,0,1-.8.15,9.16,9.16,0,0,1-.66-1.15c-.16-.45-.07-.47.11-.25a9.33,9.33,0,0,1,.75,1.11h.36l-.33,0a5.75,5.75,0,0,0-.69-1.38c0-.25.15,0,.35.25s.38.57.4.51c-.24-.49-.24-.45-.27-.43s0,.09-.3-.38c-1-1.58-.23-1.2-1.12-2.74.18.34.42,1,.14.61a21.69,21.69,0,0,0-1.57-2.63c-.19-1,.25-.73-.37-2.16l.38.78a9.17,9.17,0,0,0-.67-1.81c-1.61-2.84-3.16-5.09-4.79-8l.58,1.05c.09.4-.54-.85-.62-.79l-.21-.73c-.26-.11.56,1.6.2,1.27a2,2,0,0,0-.2-.45l.25.65c-.63-1.43-1.47-2.41-1.71-3.61,1.37,2.74.71.18,2.11,2.83-.76-1.4,0-.35.07-.53-.32-.76-.31-.31-.65-1.18.13,0,1.12,1.73.82.87-.24,0-.57-.76-.88-1.07-.25-.65.13,0,.06-.34a9.52,9.52,0,0,1-.49-.84l.23.19C32.73,63.6,33,65,32.06,63c-.18,0,.15.61.58,1.41-.14.58-1.61-2.36-1.9-2-1-1.85.38.41-.29-1.22-.18-1,.81,1.05,1.18,1.38L31,60.81c.58.4,1,1.47,1.38,1.63a17.58,17.58,0,0,0-1.29-2.25c.75,2.12-.61-.78-.36.51a13.84,13.84,0,0,0-.82-2.07c.49.83.28-.09.82,1-.91-1.81-.74-1.29-1.63-3.12-.49-.47.61,2-.6-.15-.24-.47-.11-.41,0-.14-.67-1.62-.1.45-.7-.49l-.13-.26-.11-.21L27.45,55c0-.13,0-.13.11,0a2.42,2.42,0,0,0-.58-.74,1.15,1.15,0,0,1-.38-.45l0-.08-.06.08.13.29c-.09-.13-.15-.08-.22-.06s-.16,0-.36-.27a6.8,6.8,0,0,1,.52-.89c.91-1.32.73-.83.84-.83l.2-.33.16-.27A5.19,5.19,0,0,1,28.2,51a6.15,6.15,0,0,1,.67-.8c-.08,0-.08-.06.09-.29.83-1.36.69-.64,1-1.11,1.38-1.8-.52,0,.89-2.1l-1.7,2.37c0-.16-.15-.32-.49.2a4.2,4.2,0,0,1-.93,1.89c-.33.13,1.29-2.31.18-1,.36-.47.78-1.18,1.2-1.76-.24.72,1.34-1.91.83-.73,1.77-2.67,2.15-3,3.67-5.48a12,12,0,0,1-1.74,3.25l-.16,0c-1,1.67.94-1.16.92-.74,1.05-2.14,3.07-4.23,4.59-6.7-.38.37-.11-.14-.12-.32a5.89,5.89,0,0,1-1.08,1.45c0-.22.4-.76.51-1.13s-.49.73-.8,1a7.41,7.41,0,0,0,.73-1.51c.45-.43.47-.31.85-.61,1.56-2.24,1.15-2.16,2.42-3.94-.71,1,.47-.38-.33.69l.44-.6c-.86,1.7-2.71,4.39-2.18,4.35C38.52,36.07,39,35,40,33.45l0,.11c.78-1.12-.09,0,0-.34.75-1.35,1.44-1.42,1.8-2.45L41,32c.52-1.07-.22.27-.3-.11,1-1.85,3.16-4.77,4.67-7.33A11,11,0,0,0,44,26.32c0-.62.29-1-.29-.69l-.78,1.13-.29-.18c.2-.31.43-.6.63-.88-.07-.27,1.22-1.67,1.11-1.87l-.63,1c-.48.39.32-.74.72-1.45a23.4,23.4,0,0,0-2.32,3.47c.16,0-.55,1.47.38.16.11.09-.38.93-.73,1.45.13-.3-1,.82-.25-.47a18.75,18.75,0,0,1-1.18,1.89c0-.24-1.56,2.29-1.69,2-.18.49.37.22-.65,1.74.42-.25,1.6-1.94,1-.67l.4-.82c.79-1,0,.4,1-.92-.29.4-.77,1.29-1,1.39.6-.1-1.22,2.18-1,2.42a5.21,5.21,0,0,0-1.09,1.41c0-.16-.4.19-.07-.45a11.73,11.73,0,0,1,1-1.32c-.57.05-1.46,1.88-2.38,3.1.14-.16.22-.18,0,.2-.59.74-1.8,2.39-1.64,1.8l-2.59,3.92c-.09,0,.34-.58.47-.84L30.61,45c-.45.44.4-.82.44-1.11L30,45.41l0-.29a11.9,11.9,0,0,1-1.85,2.58,11.27,11.27,0,0,0-1,1.93,7,7,0,0,1-.51.92l-.18.29-.27.38c-.27.4-.6.84-1,1.35a4.51,4.51,0,0,1,.79-1.42l.26-.38.2-.31a2.92,2.92,0,0,0,.29-.54,4.07,4.07,0,0,0-.35.47l-.49.74a10.29,10.29,0,0,1-1.32,1.74c-.2.33-.38.6-.53.86a12,12,0,0,0,1.4,2.14l.87,1c.73,1.47-.09.23-.11.32.2.44.91,1,.84,1.51.49.65.85,1,.4-.13a11.14,11.14,0,0,0,1.19,2c-.59-.51.33,1,.13,1.16a25.92,25.92,0,0,0,2.58,4.86l-.47-.18.7,1.38C32,69,30.85,66.7,30.5,66c.87,1.91,1.51,3.16,2.34,4.87-.18-.53,0-.27,0-.55a14.64,14.64,0,0,1,1,2c0,.19-.1.15-.36-.32l.6,1.14c-.24,0,0,.56-.65-.53l.58,1.06c.52,1.21-.18,0-.38-.24l.87,1.91c.43.61,0-.47.67.8.67,1.81,1.81,4,2.7,6l-.49-1.48c.53,1.21.73.83,1,1.12.25.56.56,1.2.85,1.83q.23.47.42.93l.27.63.27.64c-.49-.83-.72-1.07-.72-.85a8.43,8.43,0,0,0,.61,1.88c.2.44.39.8.55,1.13a16.32,16.32,0,0,0,2.74,0l.38,0,.2,0,.11,0,.07,0a3.13,3.13,0,0,1,.69,0c-1.11.34,1.73.27,1.45.49,3.14.21,6.32.29,9.57.54-.06-.07-1-.2-.42-.22a4.33,4.33,0,0,1,1.91.33,16.62,16.62,0,0,0,3-.07c-.68,0-.73-.08-.6-.18,1.54.07,1.09.32,2.57.23.37.26-1.63,0-1.5.22a22.22,22.22,0,0,0,3.23,0c.22.16-.91,0-.18.14l6.26.13.42.22a14,14,0,0,0,2.16,0c.54.11.1.13-.42.11.67.06,1.43.08,2.12.09h1l1.2.06a2.33,2.33,0,0,1-.77,0l-.5,0h-.17l-.11,0,.29,0,.42,0,.84.06c.56,0,1.14,0,1.68.07.53-.83,1-1.65,1.49-2.34l.27-.4c.08-.09.13-.2.2-.29a3.72,3.72,0,0,1,.4-.45,1.8,1.8,0,0,1-.23.4c1.43-2.09,2.56-4,4.08-6.28,1.6-2,.22-.84,1.63-2.87.44.27,1.93-2.78,2.6-3.6l-.25.24a13.65,13.65,0,0,1,2.21-3A60.55,60.55,0,0,0,94.23,66l-.11.36c.74-1.34,1.41-2,2.16-3.38,0,.06-.26.57.1.09l1.06-1.48,1.65-2.4L97.6,56.12l-1-2.08-2.09-4.16c-1.4-2.78-2.78-5.54-4.1-8.31L87,34.38,82.9,25.89l-8.53-.64-7.44-.51c-4.88-.23-9.66-.51-14.07-.69C52.86,24.05,46.15,25.69,47.07,26.63Z"/><path class="cls-3" d="M28.52,56.34l.08.18A.58.58,0,0,0,28.52,56.34Z"/><path class="cls-3" d="M43.24,85.58l-.49,0A1.91,1.91,0,0,0,43.24,85.58Z"/><path class="cls-3" d="M71.45,87l-.58,0Z"/><path class="cls-3" d="M94.66,58c0,.27-.78-.67-.45.29l.07.16,0,.1.11.16c.08.09.13.16.2.23s.09.22.08.4a.91.91,0,0,1-.11.35s0,0,0,.07l-.07.13-.18.29q-.19.3-.48.69l.58-.71.3-.34.18-.19c-.09,0-.13-.1-.11-.23A1.19,1.19,0,0,1,94.9,59a2.88,2.88,0,0,1-.29-.49,1.1,1.1,0,0,0,.09-.24l.31.31a.42.42,0,0,0-.17-.21.43.43,0,0,1-.07-.1s0,0,0-.07Z"/><path class="cls-3" d="M95,58.63v-.06A.15.15,0,0,1,95,58.63Z"/><path class="cls-1" d="M53.3,83.8a2,2,0,0,1-1.91-1.54L46.62,59.52a1.86,1.86,0,0,0-2.16-1.35A1.69,1.69,0,0,0,43,60L46.2,81.22a1.09,1.09,0,0,1-.34,1,1.18,1.18,0,0,1-1.09.28l-2.2-.55a.62.62,0,0,1-.43-.4L30,42.4a.59.59,0,0,1,.18-.63A35.75,35.75,0,0,1,56,33a.61.61,0,0,1,.51.34l3.21,6.9a1.31,1.31,0,0,0,1.2.73c11.47-.6,24.18,3.41,32,10.16C96.71,54.45,98.82,58,99,61.44a.71.71,0,0,1-.12.42L97.8,63.22C92,70.32,85.46,78.36,79.65,80.5a.62.62,0,0,1-.65-.13.59.59,0,0,1,0-.82l7.66-9.23a.79.79,0,0,0,.22-.6.88.88,0,0,0-.31-.58,1.08,1.08,0,0,0-.84-.24,1,1,0,0,0-.67.38L77.73,80.57l0,0a2.25,2.25,0,0,1-1.24.85l-1.08.29a67.59,67.59,0,0,1-8.92,2,1.23,1.23,0,0,1-1.16-.51A1.15,1.15,0,0,1,65.17,82s0,0,0,0l7-14.1a2.15,2.15,0,0,0,0-1.87,2.78,2.78,0,0,0-5,.24L61.17,82.46A2.28,2.28,0,0,1,58.83,84Z"/><path class="cls-4" d="M54.91,84.38a2.07,2.07,0,0,1-2-1.49l-6.13-23a2,2,0,0,0-2.29-1.27,1.72,1.72,0,0,0-1.44,2l4.47,21.56a1.19,1.19,0,0,1-.31,1,1.24,1.24,0,0,1-1.11.34l-2.27-.43a.65.65,0,0,1-.47-.4L28.81,43.18a.61.61,0,0,1,.17-.67A36.67,36.67,0,0,1,55,32.15a.61.61,0,0,1,.54.32l3.67,6.9a1.27,1.27,0,0,0,1.25.67c11.73-1.23,25,2.2,33.34,8.71,4.09,3.18,6.45,6.72,6.85,10.24a.69.69,0,0,1-.11.44l-1.07,1.45c-5.56,7.58-11.84,16.19-17.68,18.69a.63.63,0,0,1-.67-.09.6.6,0,0,1-.09-.83l7.35-9.89a.85.85,0,0,0,.18-.62,1,1,0,0,0-.35-.58,1.06,1.06,0,0,0-.85-.2,1,1,0,0,0-.67.42l-6.9,12,0,0a2.3,2.3,0,0,1-1.21.93c-.35.1-.71.23-1.11.36a67.12,67.12,0,0,1-9,2.5,1.27,1.27,0,0,1-1.21-.45A1.18,1.18,0,0,1,67,82a.06.06,0,0,1,0,0l6.39-14.84a2.33,2.33,0,0,0-.14-1.93,2.87,2.87,0,0,0-5.14.51L62.84,82.59a2.36,2.36,0,0,1-2.32,1.67Zm-10-27.1a3.08,3.08,0,0,1,3,2.24l6.14,23a.83.83,0,0,0,.81.56L60.52,83a1.14,1.14,0,0,0,1.14-.78l5.23-16.93a4,4,0,0,1,4.67-2.71,4,4,0,0,1,2.72,1.93,3.55,3.55,0,0,1,.22,3,0,0,0,0,1,0,0L68.11,82.3s0,0,0,0A65.87,65.87,0,0,0,77,79.84l1.11-.36a1,1,0,0,0,.54-.42l6.86-12h0a2.2,2.2,0,0,1,1.51-1,2.37,2.37,0,0,1,1.81.41,2.1,2.1,0,0,1,.84,1.42,2,2,0,0,1-.44,1.54L83.66,77c4.87-3.41,10-10.51,14.7-16.86l.93-1.26c-.44-3.1-2.63-6.26-6.34-9.14C86.29,44.53,74.1,40,61.27,41.19a1.26,1.26,0,0,0-1.15,1.47l1.6,10.25a3.72,3.72,0,0,1-1.33,3.65c-3.64,2.78-13.39-.29-15.61-1.2-.3-.13.1-.8,1.35-.36,2.76.92,10.11,2.79,13,.58a2.63,2.63,0,0,0,1-2.52L56.75,41l-2.55-6.5a2,2,0,0,0-1.94-1.25c-8.27.38-14.83,3.4-21.27,9a1.78,1.78,0,0,0-.49,1.91L44.35,81.86l.94.18A.62.62,0,0,0,46,81.3L41.77,60.77a3,3,0,0,1,2.4-3.45C44.44,57.3,44.68,57.28,44.91,57.28Z"/><path class="cls-5" d="M71.57,49.86c-.69-.13-1.18-.18-1.83-.25a.48.48,0,0,1-.43-.58c.21-1.46.39-2.89.63-4.34a1.65,1.65,0,0,1,1.94-1.22h0a1.35,1.35,0,0,1,1.27,1.67c-.34,1.44-.65,2.89-1,4.32A.49.49,0,0,1,71.57,49.86Z"/><path class="cls-5" d="M79.85,47.19a1.53,1.53,0,0,0-1-2h0a1.51,1.51,0,0,0-2.12.74c-.46,1.42-.88,2.83-1.33,4.25a.51.51,0,0,0,.34.64c.69.19,1.18.36,1.87.59a.5.5,0,0,0,.64-.29C78.82,49.81,79.31,48.5,79.85,47.19Z"/><path class="cls-5" d="M86.13,50.08a1.7,1.7,0,0,0-.8-2.23h0a1.51,1.51,0,0,0-2.3.36c-.62,1.32-1.18,2.67-1.78,4a.52.52,0,0,0,.25.68c.76.32,1.29.56,2,.92a.52.52,0,0,0,.66-.2C84.84,52.42,85.48,51.24,86.13,50.08Z"/><path class="cls-5" d="M91.52,54A2.23,2.23,0,0,0,91,51.46h0c-.72-.76-1.7-.84-2.14,0-.69,1.29-1.34,2.62-2,3.9A.51.51,0,0,0,87,56c.73.53,1.22.89,1.87,1.43a.51.51,0,0,0,.75-.12C90.18,56.34,90.7,55.4,91.52,54Z"/><path class="cls-6" d="M69.94,57c-.58-.09-1-.17-1.56-.22a.5.5,0,0,1-.44-.58c.19-1.29.37-2.58.57-3.87a1.46,1.46,0,0,1,1.76-1.09h0a1.21,1.21,0,0,1,1.14,1.51c-.31,1.29-.58,2.58-.89,3.87A.54.54,0,0,1,69.94,57Z"/><path class="cls-6" d="M77.45,54.54a1.4,1.4,0,0,0-.87-1.83h0a1.36,1.36,0,0,0-1.92.67c-.4,1.25-.78,2.53-1.18,3.78a.49.49,0,0,0,.34.63c.59.17,1,.31,1.6.51a.51.51,0,0,0,.64-.29C76.53,56.89,77,55.71,77.45,54.54Z"/><path class="cls-6" d="M83.12,57.16a1.55,1.55,0,0,0-.73-2h0a1.4,1.4,0,0,0-2.09.33c-.54,1.18-1,2.38-1.57,3.56a.51.51,0,0,0,.25.67c.65.27,1.12.49,1.74.8a.52.52,0,0,0,.66-.2C82,59.24,82.55,58.19,83.12,57.16Z"/><path class="cls-6" d="M88,60.73a2,2,0,0,0-.47-2.32h0c-.66-.69-1.54-.74-1.93,0-.61,1.16-1.19,2.32-1.81,3.49a.5.5,0,0,0,.14.63c.62.46,1.06.78,1.62,1.24a.49.49,0,0,0,.74-.13C86.8,62.77,87.27,61.91,88,60.73Z"/><path class="cls-7" d="M39.49,50.5A19.43,19.43,0,0,1,42,49.63c-.23-.91-.49-1.73-.91-3.05a1,1,0,0,0-1.47-.49h0a1.4,1.4,0,0,0-.78,1.52A23.71,23.71,0,0,1,39.49,50.5Z"/><path class="cls-4" d="M69.34,61.13s.15,0,.4.08l1.09.19c.47.1,1,.19,1.67.28s1.34.2,2.12.29,1.62.2,2.49.27,1.81.16,2.76.24c.47,0,1,.07,1.45.09s1,0,1.49.07c1,0,2,.07,3,0h1.51l.74,0,.75,0c.25,0,.49,0,.72,0l.73,0c.47,0,.94-.09,1.4-.15A19.67,19.67,0,0,0,94.24,62a13.33,13.33,0,0,0,2.18-.67A7.25,7.25,0,0,0,98,60.37a4.55,4.55,0,0,0,1-1.07,4.48,4.48,0,0,0,.47-.93l.13-.36h.26s0,.15,0,.4a4.9,4.9,0,0,1-.2,1.09,5.07,5.07,0,0,1-.8,1.54,8.5,8.5,0,0,1-.71.8c-.27.25-.6.49-.92.73a11.82,11.82,0,0,1-2.36,1.18,19,19,0,0,1-2.82.79,30.56,30.56,0,0,1-6.28.6,43.65,43.65,0,0,1-6.28-.5,39.46,39.46,0,0,1-5.37-1.22A24.37,24.37,0,0,1,70.52,62l-1-.49-.34-.18Z"/><path class="cls-2" d="M50.18,98.45V104a2.89,2.89,0,0,1-2.89,2.89H36.74a.7.7,0,0,0-.7.71v3a.71.71,0,0,1-.71.71H29.56a.71.71,0,0,1-.71-.71V99.05a.71.71,0,0,0-.71-.71h0a.71.71,0,0,1-.71-.71V96.27a.71.71,0,0,1,.71-.71H47.27A2.89,2.89,0,0,1,50.18,98.45ZM36,99v4.37a.71.71,0,0,0,.7.71H40.1A2.88,2.88,0,0,0,43,101.23h0a2.89,2.89,0,0,0-2.89-2.89H36.74A.68.68,0,0,0,36,99Z"/><path class="cls-2" d="M67.29,95.56H73a.71.71,0,0,1,.71.71v14.32a.71.71,0,0,1-.71.71H56a3.58,3.58,0,0,1-3.58-3.58V99.16A3.58,3.58,0,0,1,56,95.58h0a3.57,3.57,0,0,1,3.57,3.58v5.77a3.57,3.57,0,0,0,3.58,3.57h2.7a.71.71,0,0,0,.71-.7V96.27A.7.7,0,0,1,67.29,95.56Z"/><path class="cls-2" d="M88,104.11h8.63a.71.71,0,0,1,.71.71v5.77a.71.71,0,0,1-.71.71h-16A4.58,4.58,0,0,1,76,106.71v-6.1a5,5,0,0,1,5-5h13.9a1.14,1.14,0,0,1,1.13,1.13v2.75a1.14,1.14,0,0,1-1.13,1.13H90a1.14,1.14,0,0,1-1.13-1.13h0a1.13,1.13,0,0,0-1.12-1.12h0a4.59,4.59,0,0,0-4.6,4.59v1a4.59,4.59,0,0,0,4.6,4.59h1.67a.7.7,0,0,0,.7-.7v-.2a.7.7,0,0,0-.7-.71H88a.71.71,0,0,1-.71-.71V104.8A.7.7,0,0,1,88,104.11Z"/><path class="cls-3" d="M50.79,113.68v4.21a.61.61,0,0,1-.61.61h0a.62.62,0,0,0-.44,1.06h0a.61.61,0,0,1-.44,1H47.6a.63.63,0,0,1-.44-.18l-1.76-1.76a.62.62,0,0,0-.43-.18h-.64a.34.34,0,0,0-.34.34v1.43a.35.35,0,0,1-.35.35H40.86a.35.35,0,0,1-.34-.35v-5.57a.35.35,0,0,0-.35-.34h0a.35.35,0,0,1-.34-.35v-.65a.35.35,0,0,1,.34-.35h10A.71.71,0,0,1,50.79,113.68Zm-6.48,3.5h2.4a.62.62,0,0,0,.62-.62V115a.62.62,0,0,0-.62-.62h-2.4a.35.35,0,0,0-.34.35v2.1A.36.36,0,0,0,44.31,117.18Z"/><path class="cls-3" d="M53.17,113.06h6.9a1.69,1.69,0,0,1,1.69,1.69v5.55a.35.35,0,0,1-.35.35H51.83a.35.35,0,0,1-.35-.35v-5.55A1.69,1.69,0,0,1,53.17,113.06Zm2.11,6.24H58a.35.35,0,0,0,.35-.34v-2.89a1.69,1.69,0,0,0-1.69-1.69h0a1.69,1.69,0,0,0-1.69,1.69V119A.37.37,0,0,0,55.28,119.3Z"/><path class="cls-3" d="M73.88,120.63H71.1a.35.35,0,0,1-.34-.31l-.15-2a.34.34,0,0,0-.67-.06l-.43,2.07a.34.34,0,0,1-.33.28H67.49a.34.34,0,0,1-.33-.28l-.45-2.08a.34.34,0,0,0-.67,0l-.15,2a.33.33,0,0,1-.34.31H62.77a.35.35,0,0,1-.34-.37l.49-6.89a.32.32,0,0,1,.34-.31H67a.32.32,0,0,1,.32.27l.73,3.43a.33.33,0,0,0,.65,0l.73-3.43a.32.32,0,0,1,.32-.27h3.67a.36.36,0,0,1,.35.31l.49,6.89A.32.32,0,0,1,73.88,120.63Z"/><path class="cls-3" d="M76.49,113.06h7.34a1,1,0,0,1,1,1v5.46a1.05,1.05,0,0,1-1,1.06H82.5a1.05,1.05,0,0,1-1-1.06h0a1,1,0,0,0-1-1H78.82a.33.33,0,0,0-.33.27l-.33,1.58a.32.32,0,0,1-.32.28H75.08a.34.34,0,0,1-.33-.42l1.47-6.9A.25.25,0,0,1,76.49,113.06Zm2.74,4.12h1.15a1,1,0,0,0,1.05-1.05v-.68a1,1,0,0,0-1.05-1h-.69a.33.33,0,0,0-.33.27l-.45,2.11A.32.32,0,0,0,79.23,117.18Z"/></g></svg>