<svg id="Layer_1" data-name="Layer 1" xmlns="http://www.w3.org/2000/svg" viewBox="0 0 125.07 144"><defs><style>.cls-1{fill:#fff;}.cls-2{fill:#262e60;}.cls-3{fill:#dfdfdf;}.cls-4{fill:#777bb4;}</style></defs><polygon class="cls-1" points="3.98 106.76 3.98 38.03 63.5 3.67 123.02 38.03 123.02 106.76 63.5 141.12 3.98 106.76"/><path class="cls-2" d="M63.5.39l-62.35,36v72l62.35,36,62.35-36v-72Zm56.68,104.73L63.5,137.84,6.82,105.12V39.66L63.5,6.94l56.68,32.72Z"/><polygon class="cls-3" points="57.11 45.1 107.78 60.28 98.65 106.81 63.04 121.01 25.61 106.81 19.22 60.28 57.11 45.1"/><path class="cls-2" d="M106,68a3.66,3.66,0,0,0-2.7-4.89L80.94,58.63a3.66,3.66,0,0,0-4.37,3.58V97.39a3.66,3.66,0,0,0,3.66,3.66H90.82a3.66,3.66,0,0,0,3.42-2.36Z"/><path class="cls-2" d="M61.41,103.39h3a2.45,2.45,0,0,0,2-.83,3.68,3.68,0,0,0,.69-2.41,4.38,4.38,0,0,0-.71-2.62,2.27,2.27,0,0,0-1.9-1h-3.1Zm0,3.7v7.73H57v-22h7.49a6.85,6.85,0,0,1,5.2,2,7.25,7.25,0,0,1,1.94,5.26,6.79,6.79,0,0,1-1.91,5.1,7.28,7.28,0,0,1-5.32,1.87Z"/><path class="cls-2" d="M78.55,114a2.65,2.65,0,0,1-1,.68,3.57,3.57,0,0,1-1.33.23,2.43,2.43,0,0,1-1.93-.77,3.34,3.34,0,0,1-.7-2.23v-1.3a3.59,3.59,0,0,1,.64-2.29,2.33,2.33,0,0,1,1.9-.8,2.44,2.44,0,0,1,1.77.58,2.8,2.8,0,0,1,.69,1.81H77.13a1.61,1.61,0,0,0-.28-.93.91.91,0,0,0-.71-.26,1,1,0,0,0-.86.43,2.78,2.78,0,0,0-.28,1.37v1.31a2.65,2.65,0,0,0,.3,1.43,1.06,1.06,0,0,0,1,.45,1.23,1.23,0,0,0,.7-.18l.13-.09v-1.32h-1V111h2.48Zm-6-6.38v5a2.33,2.33,0,0,1-.61,1.72,2.9,2.9,0,0,1-3.52,0,2.39,2.39,0,0,1-.61-1.75v-4.94h1.47v5a1.47,1.47,0,0,0,.19.87.86.86,0,0,0,.72.27.84.84,0,0,0,.71-.26,1.47,1.47,0,0,0,.2-.86v-5Z"/><path class="cls-4" d="M89.31,55.31a1.75,1.75,0,0,1,1.63-1.79,1.78,1.78,0,0,1,1.65,1.85,1.65,1.65,0,1,1-3.29-.06Zm.11,13.55a3.2,3.2,0,0,1-.77-1.51,3.81,3.81,0,0,1,1.76-3.68A1.13,1.13,0,0,1,91.9,64q1.48,1.83,2.95,3.69a3.59,3.59,0,0,1,.42.71c.39.81.16,1.41-.67,1.63-.5.13-1,.16-1.53.24a5.52,5.52,0,0,1-3.65-1.41Zm-15,9c.34-2.45,1.3-4.45,3.61-5.42.91-.37,1.69-1.06,2.58-1.49a18.57,18.57,0,0,1,3.12-1.27,1.8,1.8,0,0,1,1.79,2.94c-.43.69-.91,1.34-1.39,2-.8,1.06-1.64,2.08-2.42,3.16a5.32,5.32,0,0,0-1.26,3.54A11.68,11.68,0,0,0,84,88.74a1.24,1.24,0,0,0,.9.34,5.46,5.46,0,0,0,3.39-1.65,1.93,1.93,0,0,0-.38-3.24,6.88,6.88,0,0,1-.91-.61,2.27,2.27,0,0,1-.62-2.7,4.06,4.06,0,0,1,.77-1.29c1.65-1.64,3.27-3.32,5-4.81A19.22,19.22,0,0,0,99,60.6a31.77,31.77,0,0,0-4.12-17.93c-1.18-2.08-2.56-4.07-4.67-5.1A27,27,0,0,0,85.66,36c-4.24-1.21-8.51-2.12-12.91-1.31A9.42,9.42,0,0,0,64.9,41.6a20.69,20.69,0,0,0-.77,8.19c.51,5.51,4.25,10.44,9.14,11.9,2.12.63,3.28.28,4.55-1.64.91-1.38,1.67-2.88,2.49-4.34a7.22,7.22,0,0,0,.31-.69c.1-.23.21-.45.31-.68a17.36,17.36,0,0,1-2,6.74,3.64,3.64,0,0,1-2.79,2.06,11.67,11.67,0,0,1-11.41-5.29C61.59,53.29,60.9,48,61.8,42.5c.18-1.09.48-2.16.69-3.24a1.17,1.17,0,0,0-.75-1.47,5.65,5.65,0,0,0-.89-.26,33.94,33.94,0,0,0-11.58-.76,25.48,25.48,0,0,0-12.34,4.46c-5.85,4.19-9.48,10.14-11.45,17.34a13.88,13.88,0,0,0-.35,3.29c0,.74.41.93.93.47a15.6,15.6,0,0,0,1.58-1.67c.45-.56.81-1.2,1.26-1.79s.64-.39.8.18c.11.35.2.69.29,1a25.85,25.85,0,0,0,5.24,10.62A3.16,3.16,0,0,1,36,72.34,29.77,29.77,0,0,1,36,77.06c-.28,3.35-.73,6.68-1.08,10-.19,1.89.37,3,2,3.65a12.6,12.6,0,0,0,3.59.89c1.93.14,3.88,0,5.82,0,.06-2.35-.13-4.67,1.91-5.93-.4-1.74-.85-3.4-1.13-5.09a4.93,4.93,0,0,1,.88-4c.85-1.09,1.92-1.38,2.9-.76a9.6,9.6,0,0,0,9.14.65,2.28,2.28,0,0,1,3.23,1.18,9.22,9.22,0,0,1,1.12,5c-.12,2.19-.47,4.36-.74,6.54-.15,1.22,0,1.53,1.09,1.84a21.18,21.18,0,0,0,7.52.54c.13,0,.27-.08.36-.1.12-2.28-.1-4.65,2.4-5.87-1.1-2.55-1-5.2-.57-7.85v0Z"/><path class="cls-2" d="M81.63,98.39c-6.16,8.92-8.88-14-18.82-14s-12.25,24.66-18,14C44.81,86,52.87,76,62.81,76S81.63,86,81.63,98.39Z"/><path class="cls-2" d="M19.83,40.89a3.65,3.65,0,0,1,2.83-4.2l20.63-4.46a3.66,3.66,0,0,1,4.42,3.36l2.22,37.49L52.17,111a3.66,3.66,0,0,1-3.65,3.87H35.93a3.64,3.64,0,0,1-3.59-3Z"/><path class="cls-1" d="M35.62,57.49a2.78,2.78,0,0,0,1.5-.57,1.29,1.29,0,0,0,.4-1.15,1.27,1.27,0,0,0-.66-1,2.89,2.89,0,0,0-1.73-.18,2.65,2.65,0,0,0-1.49.57,1.27,1.27,0,0,0-.4,1.16,1.22,1.22,0,0,0,.67,1A2.94,2.94,0,0,0,35.62,57.49Zm.1,1.9a4.23,4.23,0,0,1-1.93-.17,3,3,0,0,1-1.42-1,3.52,3.52,0,0,1-.67-1.72,3.26,3.26,0,0,1,.59-2.44,3.53,3.53,0,0,1,2.26-1.3l.48-.08a3.78,3.78,0,0,1,2.73.59,3.57,3.57,0,0,1,.6,4.89,3.83,3.83,0,0,1-2.56,1.23Zm.85,5.73A2.68,2.68,0,0,0,38,64.55a1.24,1.24,0,0,0,.41-1.13,1.33,1.33,0,0,0-.8-1.16l-3,.37a1.29,1.29,0,0,0-.5,1.3,1.22,1.22,0,0,0,.69,1A2.85,2.85,0,0,0,36.57,65.12Zm.1,1.9A4.11,4.11,0,0,1,34,66.57a2.54,2.54,0,0,1-1.25-2,2.24,2.24,0,0,1,.58-1.91H32.6L32.39,61l6.84-.84a3.08,3.08,0,0,1,1.67.23,2.7,2.7,0,0,1,1.19,1.06,4.31,4.31,0,0,1,.58,1.74,3.94,3.94,0,0,1-.13,1.56A2.65,2.65,0,0,1,41.88,66l-1.25-.7a2.24,2.24,0,0,0,.58-1.81,1.63,1.63,0,0,0-.55-1.12A1.5,1.5,0,0,0,39.47,62l-.38.05A2.17,2.17,0,0,1,40,63.72a2.53,2.53,0,0,1-.74,2.18A4.13,4.13,0,0,1,36.75,67Zm-4.91,4a1,1,0,0,1-.74-.19,1.12,1.12,0,0,1-.37-.75,1.06,1.06,0,0,1,.18-.8.94.94,0,0,1,.67-.38,1,1,0,0,1,.74.21,1.06,1.06,0,0,1,.37.73,1.1,1.1,0,0,1-.18.81A1,1,0,0,1,31.76,71Zm8.66-3.1.23,1.9-7.08.87-.23-1.9Zm-1.56,6.41-4.93-.73-.24-2,7.37,1.52.22,1.8L34.5,78.15l-.25-2Zm-.11,8.66a2.66,2.66,0,0,0,1.5-.57A1.39,1.39,0,0,0,40,80.21,3,3,0,0,0,38.25,80a2.55,2.55,0,0,0-1.48.58,1.25,1.25,0,0,0-.41,1.15,1.23,1.23,0,0,0,.67,1A3,3,0,0,0,38.75,82.94Zm.09,1.91a4.32,4.32,0,0,1-1.92-.18,2.93,2.93,0,0,1-1.42-1A3.43,3.43,0,0,1,34.83,82a3.25,3.25,0,0,1,.59-2.45,3.55,3.55,0,0,1,2.26-1.3l.48-.07a3.75,3.75,0,0,1,2.73.58,3.57,3.57,0,0,1,.6,4.89,3.82,3.82,0,0,1-2.56,1.24Zm-.71,6.35-.19-1.58a1.64,1.64,0,0,0-.52-1.1,1.37,1.37,0,0,0-1.09-.28,1.46,1.46,0,0,0-1,.52A1.54,1.54,0,0,0,35.08,90l.19,1.58Zm1.4-1.76L39.72,91l3.49-.42.24,2-9.53,1.17-.43-3.54a4.09,4.09,0,0,1,.43-2.7,2.62,2.62,0,0,1,2-1.17,2.67,2.67,0,0,1,2.87,1.37l3.63-2.54h.1l.25,2.11Z"/></svg>