<?xml version="1.0" encoding="utf-8"?>
<!-- Generator: Adobe Illustrator 24.2.2, SVG Export Plug-In . SVG Version: 6.00 Build 0)  -->
<svg version="1.1" id="Layer_1" xmlns="http://www.w3.org/2000/svg" xmlns:xlink="http://www.w3.org/1999/xlink" x="0px" y="0px"
	 viewBox="0 0 125.1 144" style="enable-background:new 0 0 125.1 144;" xml:space="preserve">
<style type="text/css">
	.st0{fill:#FFFFFF;}
	.st1{fill:#6280B5;}
	.st2{fill:#DFDFDF;}
	.st3{fill:#262E60;}
	.st4{fill:#777BB4;}
</style>
<g>
	<polygon class="st0" points="3,106.4 3,37.6 62.6,3.3 122.1,37.6 122.1,106.4 62.6,140.7 	"/>
	<g>
		<g>
			<g>
				<g>
					<path class="st1" d="M62.5,0L0.2,36v72l62.4,36l62.4-36V36L62.5,0z M119.2,104.7l-56.7,32.7L5.9,104.7V39.3L62.5,6.5l56.7,32.7
						V104.7z"/>
				</g>
			</g>
		</g>
	</g>
	<g>
		<polygon class="st2" points="56.2,44.7 106.8,59.9 97.7,106.4 62.1,120.6 24.7,106.4 18.3,59.9 		"/>
		<path class="st3" d="M105,67.6c0.8-2.1-0.5-4.4-2.7-4.9L80,58.2c-2.3-0.5-4.4,1.3-4.4,3.6v17.3V97c0,2,1.6,3.7,3.7,3.7h10.6
			c1.5,0,2.9-0.9,3.4-2.4L105,67.6z"/>
		<path class="st3" d="M60.5,103h3.1c0.8,0,1.5-0.3,2-0.8c0.5-0.6,0.7-1.4,0.7-2.4c0-1.1-0.2-2-0.7-2.6c-0.5-0.7-1.1-1-1.9-1h-3.1
			V103z M60.5,106.7v7.7H56v-22h7.5c2.2,0,3.9,0.7,5.2,2c1.3,1.3,1.9,3.1,1.9,5.3c0,2.2-0.6,3.9-1.9,5.1c-1.3,1.2-3.1,1.9-5.3,1.9
			H60.5z"/>
		<path class="st3" d="M77.6,113.6c-0.3,0.3-0.6,0.5-1,0.7c-0.4,0.2-0.8,0.2-1.3,0.2c-0.8,0-1.5-0.3-1.9-0.8
			c-0.5-0.5-0.7-1.3-0.7-2.2v-1.3c0-1,0.2-1.8,0.6-2.3c0.4-0.5,1.1-0.8,1.9-0.8c0.8,0,1.4,0.2,1.8,0.6c0.4,0.4,0.6,1,0.7,1.8h-1.4
			c0-0.5-0.1-0.8-0.3-0.9c-0.2-0.2-0.4-0.3-0.7-0.3c-0.4,0-0.7,0.1-0.9,0.4c-0.2,0.3-0.3,0.7-0.3,1.4v1.3c0,0.7,0.1,1.1,0.3,1.4
			c0.2,0.3,0.5,0.4,1,0.4c0.3,0,0.5-0.1,0.7-0.2l0.1-0.1v-1.3h-1v-1.1h2.5V113.6z M71.6,107.2v5c0,0.7-0.2,1.3-0.6,1.7
			c-0.4,0.4-1,0.6-1.7,0.6c-0.8,0-1.4-0.2-1.8-0.6c-0.4-0.4-0.6-1-0.6-1.7v-4.9h1.5v5c0,0.4,0.1,0.7,0.2,0.9s0.4,0.3,0.7,0.3
			s0.6-0.1,0.7-0.3c0.1-0.2,0.2-0.5,0.2-0.9v-5H71.6z"/>
		<path class="st4" d="M88.4,54.9c0-1,0.7-1.8,1.6-1.8c0.9,0,1.7,0.9,1.7,1.8c0,1-0.8,1.8-1.7,1.7C89.1,56.7,88.3,55.9,88.4,54.9
			L88.4,54.9z M88.5,68.5c-0.4-0.4-0.7-1-0.8-1.5c-0.3-1.4,0.7-3.2,1.8-3.7c0.6-0.3,1.1-0.2,1.5,0.3c1,1.2,2,2.5,2.9,3.7
			c0.2,0.2,0.3,0.5,0.4,0.7c0.4,0.8,0.2,1.4-0.7,1.6c-0.5,0.1-1,0.2-1.5,0.2C90.8,69.7,89.5,69.5,88.5,68.5L88.5,68.5L88.5,68.5z
			 M73.5,77.4c0.3-2.5,1.3-4.5,3.6-5.4c0.9-0.4,1.7-1.1,2.6-1.5c1-0.5,2-1,3.1-1.3c0.8-0.2,1.6,0.2,2,0.9c0.5,0.7,0.1,1.4-0.3,2
			c-0.4,0.7-0.9,1.3-1.4,2c-0.8,1.1-1.6,2.1-2.4,3.2c-0.7,1-1.4,2.2-1.3,3.5c0.2,3,1.5,5.5,3.5,7.5c0.2,0.2,0.6,0.4,0.9,0.3
			c1.3-0.2,2.4-0.7,3.4-1.7c1.1-1.1,0.9-2.4-0.4-3.2c-0.3-0.2-0.6-0.4-0.9-0.6c-0.8-0.6-1.1-1.7-0.6-2.7c0.2-0.5,0.4-1,0.8-1.3
			c1.7-1.6,3.3-3.3,5-4.8c4.3-3.6,6.5-8.4,6.8-14.2c0.4-6.4-1-12.4-4.1-17.9c-1.2-2.1-2.6-4.1-4.7-5.1c-1.4-0.7-3-1.1-4.6-1.5
			c-4.2-1.2-8.5-2.1-12.9-1.3C68,35,65.2,37.2,64,41.2c-0.8,2.6-1,5.4-0.8,8.2c0.5,5.5,4.3,10.4,9.1,11.9c2.1,0.6,3.3,0.3,4.5-1.6
			c0.9-1.4,1.7-2.9,2.5-4.3c0.1-0.2,0.2-0.5,0.3-0.7c0.1-0.2,0.2-0.5,0.3-0.7c-0.3,2.4-0.8,4.7-2,6.7c-0.6,1.1-1.5,1.9-2.8,2.1
			c-4.7,0.5-8.6-1.2-11.4-5.3c-3.1-4.6-3.8-9.8-2.9-15.3c0.2-1.1,0.5-2.2,0.7-3.2c0.1-0.7-0.1-1.2-0.7-1.5c-0.3-0.1-0.6-0.2-0.9-0.3
			c-3.8-0.9-7.7-1.2-11.6-0.8c-4.4,0.5-8.6,1.8-12.3,4.5C30.1,45,26.5,51,24.5,58.2c-0.3,1-0.3,2.2-0.4,3.3c0,0.7,0.4,0.9,0.9,0.5
			c0.6-0.5,1.1-1.1,1.6-1.7c0.5-0.6,0.8-1.2,1.3-1.8c0.3-0.5,0.6-0.4,0.8,0.2c0.1,0.3,0.2,0.7,0.3,1c1,4,2.6,7.6,5.2,10.6
			c0.4,0.4,0.7,1.1,0.7,1.6c0.1,1.6,0.2,3.2,0.1,4.7c-0.3,3.3-0.7,6.7-1.1,10c-0.2,1.9,0.4,3,2,3.7c1.1,0.5,2.4,0.8,3.6,0.9
			c1.9,0.1,3.9,0,5.8,0c0.1-2.4-0.1-4.7,1.9-5.9c-0.4-1.7-0.8-3.4-1.1-5.1c-0.2-1.4,0-2.8,0.9-3.9c0.9-1.1,1.9-1.4,2.9-0.8
			c3,1.9,6,1.9,9.1,0.7c1.4-0.6,2.4-0.2,3.2,1.2c0.9,1.5,1.2,3.2,1.1,5c-0.1,2.2-0.5,4.4-0.7,6.5c-0.1,1.2,0,1.5,1.1,1.8
			c2.5,0.7,5,0.8,7.5,0.5c0.1,0,0.3-0.1,0.4-0.1c0.1-2.3-0.1-4.7,2.4-5.9C73,82.7,73.1,80.1,73.5,77.4L73.5,77.4L73.5,77.4z"/>
		<path class="st3" d="M80.7,98c-6.2,8.9-8.9-14-18.8-14s-12.3,24.7-18,14c0-12.3,8.1-22.4,18-22.4S80.7,85.6,80.7,98z"/>
		<path class="st3" d="M18.9,40.5c-0.3-1.9,0.9-3.8,2.8-4.2l20.6-4.5c2.2-0.5,4.3,1.1,4.4,3.4L49,72.7l2.2,37.9
			c0.1,2.1-1.5,3.9-3.6,3.9H35c-1.8,0-3.3-1.3-3.6-3L18.9,40.5z"/>
		<path class="st0" d="M34.7,57.1c0.7-0.1,1.2-0.3,1.5-0.6c0.3-0.3,0.5-0.7,0.4-1.2c-0.1-0.5-0.3-0.8-0.7-1c-0.4-0.2-1-0.3-1.7-0.2
			c-0.7,0.1-1.2,0.3-1.5,0.6c-0.3,0.3-0.5,0.7-0.4,1.2c0.1,0.5,0.3,0.8,0.7,1C33.3,57.1,33.9,57.2,34.7,57.1z M34.8,59
			c-0.7,0.1-1.3,0-1.9-0.2c-0.6-0.2-1.1-0.5-1.4-1c-0.4-0.5-0.6-1-0.7-1.7c-0.1-1,0.1-1.8,0.6-2.4c0.5-0.7,1.3-1.1,2.3-1.3l0.5-0.1
			c1.1-0.1,2,0.1,2.7,0.6c0.7,0.5,1.2,1.3,1.3,2.3c0.1,1-0.1,1.9-0.7,2.6C36.8,58.4,36,58.9,34.8,59L34.8,59z M35.6,64.7
			c0.6-0.1,1.1-0.3,1.5-0.6c0.3-0.3,0.5-0.7,0.4-1.1c-0.1-0.6-0.3-1-0.8-1.2l-3,0.4c-0.4,0.3-0.6,0.7-0.5,1.3c0.1,0.5,0.3,0.8,0.7,1
			C34.3,64.8,34.9,64.8,35.6,64.7z M35.7,66.6c-1.1,0.1-2,0-2.7-0.4c-0.7-0.4-1.1-1.1-1.3-2c-0.1-0.8,0.1-1.4,0.6-1.9l-0.7,0
			l-0.2-1.7l6.8-0.8c0.6-0.1,1.2,0,1.7,0.2c0.5,0.2,0.9,0.6,1.2,1.1c0.3,0.5,0.5,1.1,0.6,1.7c0.1,0.5,0,1-0.1,1.6
			c-0.1,0.5-0.4,0.9-0.7,1.2l-1.3-0.7c0.5-0.5,0.7-1.1,0.6-1.8c-0.1-0.5-0.2-0.9-0.5-1.1c-0.3-0.2-0.7-0.3-1.2-0.3l-0.4,0
			c0.5,0.4,0.9,0.9,1,1.6c0.1,0.9-0.1,1.6-0.7,2.2C37.7,66.1,36.9,66.5,35.7,66.6L35.7,66.6z M30.8,70.6c-0.3,0-0.5,0-0.7-0.2
			c-0.2-0.2-0.3-0.4-0.4-0.7c0-0.3,0-0.6,0.2-0.8c0.2-0.2,0.4-0.3,0.7-0.4c0.3,0,0.5,0,0.7,0.2c0.2,0.2,0.3,0.4,0.4,0.7
			c0,0.3,0,0.6-0.2,0.8C31.3,70.4,31.1,70.5,30.8,70.6z M39.5,67.5l0.2,1.9l-7.1,0.9l-0.2-1.9L39.5,67.5z M37.9,73.9L33,73.2l-0.2-2
			l7.4,1.5l0.2,1.8l-6.8,3.3l-0.2-2L37.9,73.9z M37.8,82.5c0.7-0.1,1.2-0.3,1.5-0.6c0.3-0.3,0.5-0.7,0.4-1.2c-0.1-0.5-0.3-0.8-0.7-1
			c-0.4-0.2-1-0.3-1.7-0.2c-0.7,0.1-1.2,0.3-1.5,0.6c-0.3,0.3-0.5,0.7-0.4,1.2c0.1,0.5,0.3,0.8,0.7,1C36.5,82.6,37,82.6,37.8,82.5z
			 M37.9,84.5c-0.7,0.1-1.3,0-1.9-0.2c-0.6-0.2-1.1-0.5-1.4-1c-0.4-0.5-0.6-1-0.7-1.7c-0.1-1,0.1-1.8,0.6-2.4
			c0.5-0.7,1.3-1.1,2.3-1.3l0.5-0.1c1.1-0.1,2,0.1,2.7,0.6c0.7,0.5,1.2,1.3,1.3,2.3c0.1,1-0.1,1.9-0.7,2.6
			C40,83.9,39.1,84.3,37.9,84.5L37.9,84.5z M37.2,90.8L37,89.2c-0.1-0.5-0.2-0.9-0.5-1.1c-0.3-0.2-0.6-0.3-1.1-0.3
			c-0.4,0.1-0.8,0.2-1,0.5c-0.2,0.3-0.3,0.7-0.2,1.2l0.2,1.6L37.2,90.8z M38.6,89.1l0.2,1.6l3.5-0.4l0.2,2L33,93.3l-0.4-3.5
			c-0.1-1.1,0-2,0.4-2.7c0.4-0.7,1.1-1.1,2-1.2c0.6-0.1,1.2,0,1.7,0.2c0.5,0.2,0.9,0.6,1.2,1.1l3.6-2.5l0.1,0l0.3,2.1L38.6,89.1z"/>
	</g>
</g>
</svg>
