<svg id="Layer_1" data-name="Layer 1" xmlns="http://www.w3.org/2000/svg" viewBox="0 0 124.71 146.22"><defs><style>.cls-1{fill:#f7ec3c;}.cls-2{fill:#fff;}.cls-3{fill:none;stroke:#231f20;stroke-linecap:round;stroke-linejoin:round;stroke-width:2px;}.cls-4{fill:#4e6196;}.cls-5{fill:#231f20;}</style></defs><title>romagna</title><path class="cls-1" d="M62.35,2.22,0,38.22v72l62.35,36,62.36-36v-72Z"/><polygon class="cls-2" points="6.67 106.38 6.67 42.08 62.35 9.93 118.04 42.08 118.04 106.38 62.35 138.53 6.67 106.38"/><polygon class="cls-3" points="6.67 106.38 6.67 42.08 62.35 9.93 118.04 42.08 118.04 106.38 62.35 138.53 6.67 106.38"/><path class="cls-4" d="M60.76,55a1.59,1.59,0,0,1-1.6-1.59c0-2.59-1.37-2.59-2-2.59-1.43,0-2.16.87-2.16,2.59a1.6,1.6,0,0,1-3.19,0,6.73,6.73,0,0,1,.95-3.51,4.88,4.88,0,0,1,4.4-2.27c3.18,0,5.15,2.22,5.15,5.78A1.59,1.59,0,0,1,60.76,55Z"/><path class="cls-4" d="M93.55,39.18c-5.43-7.64-14-9.78-20.26-10.22H72.9c-8.33,0-15.05,1.62-20.53,4.95s-9.68,8.28-13,15.23S33.86,64.86,32.12,75.7a32.69,32.69,0,0,1-6.13-4,3.18,3.18,0,0,0-4,4.93,37.94,37.94,0,0,0,9.19,5.61c-1,7.59-1.84,16.06-2.63,25.49a3.19,3.19,0,0,0,2.91,3.43h.27a3.17,3.17,0,0,0,3.16-2.92c.75-8.94,1.53-17,2.47-24.2l.54.09a24.44,24.44,0,0,0,14.75-2.36,14.23,14.23,0,0,0,5.68,4.72c1.18.5,11.8,4.69,22.57-.56,7.74-3.77,13.19-11.29,16.19-22.34C99.46,54.79,98.14,45.66,93.55,39.18ZM56.41,71.36c-.49.46-1,.9-1.48,1.32A27.57,27.57,0,0,1,54.05,70a.19.19,0,0,0,0-.08,3.65,3.65,0,0,1,.06-2.81,3.28,3.28,0,0,1,1.85-1.26,1.46,1.46,0,0,1,1.75.81A4.2,4.2,0,0,1,56.41,71.36Zm34.52-9.42c-2.5,9.21-6.82,15.36-12.84,18.29-6.69,3.27-14,1.8-17.31.42A7.34,7.34,0,0,1,58,78.36c.92-.72,1.84-1.51,2.75-2.37,3.46-3.26,4.53-8.25,2.61-12.13a7.83,7.83,0,0,0-8.58-4.26l-.1,0a9.7,9.7,0,0,0-6,4.16,9.59,9.59,0,0,0-.79,7.83,34,34,0,0,0,1.6,4.61,18.29,18.29,0,0,1-10.67,1.64l-.59-.1C39.9,67,42.05,58.44,45.16,51.85,50.63,40.27,58.93,35.32,72.9,35.32h0c7,.52,12.22,3.06,15.41,7.55C92.49,48.69,92.39,56.53,90.93,61.94Z"/><path class="cls-4" d="M57.4,47.77c-2.46,0-5.34,1.51-5.34,5.77a1.59,1.59,0,0,0,3.18,0c0-1.72.73-2.58,2.16-2.58.58,0,2,0,2,2.58a1.59,1.59,0,0,0,3.18,0C62.53,50,60.57,47.77,57.4,47.77Z"/><path class="cls-4" d="M95.05,82.59a2.86,2.86,0,0,1,2.73,1.86,3,3,0,0,1-.85,3.29,3,3,0,0,1-3.39.25,2.91,2.91,0,0,1-1.34-3A2.86,2.86,0,0,1,95.05,82.59Zm0,5.32a2.38,2.38,0,0,0,2.26-1.55,2.53,2.53,0,0,0-.69-2.73,2.5,2.5,0,0,0-2.8-.24A2.47,2.47,0,0,0,92.7,86,2.36,2.36,0,0,0,95.05,87.91Zm-1.14-3.82a12.18,12.18,0,0,1,1.48,0,.91.91,0,0,1,.84.74.89.89,0,0,1-.69,1l.59.66c.05.06.19.16.21.23s-.09.13-.2.13a1.69,1.69,0,0,1-.45,0c-.08,0-.11-.08-.17-.16a5.85,5.85,0,0,0-.64-.76.22.22,0,0,0-.24-.06c-.12,0-.08,0-.08.2v.57c0,.11,0,.16,0,.21a1.81,1.81,0,0,1-.52,0c-.11,0,0,0-.08-.07a.88.88,0,0,1,0-.28V84.09Zm.65.54V85a1.42,1.42,0,0,0,0,.46c0,.09.48,0,.62,0,.44,0,.62-.65.16-.8A2.54,2.54,0,0,0,94.56,84.63Z"/><path class="cls-5" d="M45,100c0-.54-.08-7.18,0-8,.58-.07,1.89-.13,2.79-.13,2.2,0,3.39,1,3.39,2.85,0,2.06-1.22,2.91-3.39,2.91h-.62c0,.79,0,2.11-.06,2.32A10.24,10.24,0,0,1,45,100ZM48,95.88c.72,0,1.27-.3,1.27-1,0-.88-.68-1.09-1.49-1.09-.16,0-.41,0-.58,0,0,.33,0,1.62,0,2Z"/><path class="cls-5" d="M55.93,99.94c0-.24,0-.57,0-.65a2,2,0,0,1-1.69.85c-1.39,0-2.06-.85-2.06-2.46,0-.82.12-2.78.15-3.32a7.08,7.08,0,0,1,1.78-.06c0,.13-.09,2.74-.09,3.19,0,.64.27,1,.87,1a1,1,0,0,0,1-1c0-.33,0-3.15.09-3.2a9.25,9.25,0,0,1,1.74,0c0,.05,0,3.12-.07,5.56A3.8,3.8,0,0,1,55.93,99.94Z"/><path class="cls-5" d="M64.87,94.33c0,.13.09,3.78.1,4.48,0,3-1.49,3.71-2.92,3.71a3.37,3.37,0,0,1-2.46-.82,5,5,0,0,1,.57-1.23,4,4,0,0,0,1.64.51c1,0,1.35-.73,1.32-1.72a1.79,1.79,0,0,1-1.57.67,2.64,2.64,0,0,1-2.65-2.71,2.76,2.76,0,0,1,2.69-2.91,2.28,2.28,0,0,1,1.65.66c0-.07,0-.56,0-.62A5.15,5.15,0,0,1,64.87,94.33ZM62,98.43a1.12,1.12,0,0,0,1.15-1.19,1.13,1.13,0,1,0-2.26,0A1.07,1.07,0,0,0,62,98.43Z"/><path class="cls-5" d="M45,111.47c-.06-.54,0-7.18.09-8,.59-.07,1.83-.13,2.72-.13,2.2,0,3.46.87,3.46,2.79a2.23,2.23,0,0,1-1.45,2.26,16.1,16.1,0,0,1,1.73,2.5,5.08,5.08,0,0,1-1.79.71s-1-1.62-2-2.87h-.15l-.61,0c0,.79,0,2.35-.06,2.68A10.87,10.87,0,0,1,45,111.47Zm3-4.28c.75,0,1.26-.3,1.26-1s-.33-1-1.33-1c-.22,0-.53,0-.76,0,0,.31,0,1.57,0,2C47.33,107.18,47.68,107.19,47.94,107.19Z"/><path class="cls-5" d="M58,108.73a2.91,2.91,0,1,1-5.81-.15,2.91,2.91,0,1,1,5.81.15Zm-2.83-1.25a1.1,1.1,0,0,0-1.21,1.24A1.13,1.13,0,0,0,55,110a1.12,1.12,0,0,0,1.23-1.27A1.06,1.06,0,0,0,55.14,107.48Z"/><path class="cls-5" d="M61,105.88c0,.24,0,.55,0,.62a1.76,1.76,0,0,1,1.62-.78,1.68,1.68,0,0,1,1.47.83,2,2,0,0,1,1.73-.83c1.45,0,2.09,1,2.09,2.42,0,.78,0,2.77-.08,3.31a7.63,7.63,0,0,1-1.79.06s0-2.64,0-3.18-.15-1-.76-1-.81.62-.81,1c0,.83,0,2.53-.07,3.1a8.05,8.05,0,0,1-1.77,0s0-2.7,0-3.09c0-.57-.16-1-.76-1a.84.84,0,0,0-.85.87c0,.33,0,3.24-.06,3.28a9.2,9.2,0,0,1-1.74,0s-.07-3.17,0-5.6A4.14,4.14,0,0,1,61,105.88Z"/><path class="cls-5" d="M71.35,105.66a2.34,2.34,0,0,1,2.52,2.52c0,1.22-.06,3.13-.09,3.2a10.44,10.44,0,0,1-1.48,0l-.11-.5a2,2,0,0,1-1.46.63A1.59,1.59,0,0,1,69,109.78c0-1,.9-1.68,2-1.68a1.72,1.72,0,0,1,1.07.31c0-.5,0-1.17-1-1.17a1.93,1.93,0,0,0-1.15.51,3,3,0,0,1-.88-.81A2.44,2.44,0,0,1,71.35,105.66Zm-.12,4.73c.51,0,.76-.3.76-.64a.69.69,0,0,0-.76-.66.66.66,0,1,0,0,1.3Z"/><path class="cls-5" d="M81,105.8c0,.13.09,3.78.1,4.48,0,3-1.49,3.71-2.92,3.71a3.37,3.37,0,0,1-2.46-.82,5,5,0,0,1,.57-1.23,4.06,4.06,0,0,0,1.65.5c1,0,1.34-.72,1.31-1.72a1.78,1.78,0,0,1-1.57.68A2.65,2.65,0,0,1,75,108.69a2.75,2.75,0,0,1,2.69-2.91,2.32,2.32,0,0,1,1.65.65c0-.07,0-.55,0-.62A5.44,5.44,0,0,1,81,105.8Zm-2.87,4.1a1.13,1.13,0,0,0,1.15-1.2,1.13,1.13,0,1,0-2.26,0A1.07,1.07,0,0,0,78.1,109.9Z"/><path class="cls-5" d="M84.33,105.8c0,.24,0,.62,0,.69a2,2,0,0,1,1.75-.8c1.25,0,2,1,2,2.48,0,.76,0,2.7-.1,3.26a6.89,6.89,0,0,1-1.76.07s0-2.73,0-3.14c0-.62-.28-1.06-.87-1.06a1,1,0,0,0-1,1c0,.39,0,3.14,0,3.18a8.44,8.44,0,0,1-1.74,0s-.07-3,0-5.47A4.49,4.49,0,0,1,84.33,105.8Z"/><path class="cls-5" d="M91.56,105.66a2.34,2.34,0,0,1,2.53,2.52c0,1.22-.06,3.13-.1,3.2a10.44,10.44,0,0,1-1.48,0l-.1-.5a2,2,0,0,1-1.47.63,1.58,1.58,0,0,1-1.77-1.73c0-1,.9-1.68,2-1.68a1.72,1.72,0,0,1,1.07.31c0-.5,0-1.17-1-1.17a1.89,1.89,0,0,0-1.15.51,3,3,0,0,1-.88-.81A2.43,2.43,0,0,1,91.56,105.66Zm-.11,4.73a.67.67,0,0,0,.76-.64.69.69,0,0,0-.76-.66.68.68,0,0,0-.75.66A.68.68,0,0,0,91.45,110.39Z"/></svg>