<?xml version="1.0" encoding="utf-8"?>
<!-- Generator: Adobe Illustrator 24.2.2, SVG Export Plug-In . SVG Version: 6.00 Build 0)  -->
<svg version="1.1" id="Layer_1" xmlns="http://www.w3.org/2000/svg" xmlns:xlink="http://www.w3.org/1999/xlink" x="0px" y="0px"
	 viewBox="0 0 124.7 144" style="enable-background:new 0 0 124.7 144;" xml:space="preserve">
<style type="text/css">
	.st0{fill:#6581B7;}
	.st1{fill:#4F5C93;}
	.st2{fill:#8790BE;}
	.st3{fill:#1D1D1B;}
</style>
<g>
	<g>
		<g>
			<g>
				<path class="st0" d="M62.4,0L0,36v72l62.4,36l62.4-36V36L62.4,0z M119,104.7l-56.7,32.7L5.7,104.7V39.3L62.4,6.5L119,39.3V104.7
					z"/>
			</g>
		</g>
	</g>
	<g>
		<g>
			<g>
				<g>
					<path class="st1" d="M60.8,52.5c-0.9,0-1.6-0.7-1.6-1.6c0-2.6-1.4-2.6-2-2.6c-1.4,0-2.2,0.9-2.2,2.6c0,0.9-0.7,1.6-1.6,1.6
						c-0.9,0-1.6-0.7-1.6-1.6c0-0.8,0.1-2.2,0.9-3.5c0.7-1,2-2.3,4.4-2.3c3.2,0,5.1,2.2,5.1,5.8C62.4,51.8,61.6,52.5,60.8,52.5z"/>
				</g>
			</g>
			<g>
				<g>
					<g>
						<g>
							<path class="st2" d="M93.5,36.7c-5.4-7.6-14-9.8-20.3-10.2c-0.1,0-0.3,0-0.4,0c-8.3,0-15,1.6-20.5,5
								c-5.4,3.3-9.7,8.3-13,15.2c-3.3,6.9-5.5,15.7-7.3,26.6c-2.5-1.2-4.5-2.7-6.1-4c-1.4-1.1-3.4-0.9-4.5,0.5
								c-1.1,1.4-0.9,3.4,0.5,4.5c2.3,1.9,5.4,4,9.2,5.6c-1,7.6-1.8,16.1-2.6,25.5c-0.1,1.8,1.2,3.3,2.9,3.4c0.1,0,0.2,0,0.3,0
								c1.6,0,3-1.3,3.2-2.9c0.7-8.9,1.5-17,2.5-24.2c0.2,0,0.4,0.1,0.5,0.1c5.1,0.8,10.1,0,14.8-2.4c1.5,2,3.4,3.7,5.7,4.7
								c1.2,0.5,11.8,4.7,22.6-0.6c7.7-3.8,13.2-11.3,16.2-22.3C99.5,52.3,98.1,43.2,93.5,36.7z M56.4,68.9c-0.5,0.5-1,0.9-1.5,1.3
								c-0.4-1.1-0.7-2-0.9-2.7c0,0,0-0.1,0-0.1c-0.3-1.2-0.3-2.2,0.1-2.8c0.5-0.8,1.6-1.2,1.9-1.3c1.1-0.1,1.5,0.4,1.7,0.8
								C58.3,65.4,58,67.4,56.4,68.9z M90.9,59.5c-2.5,9.2-6.8,15.4-12.8,18.3c-6.7,3.3-14,1.8-17.3,0.4c-1-0.4-1.9-1.3-2.8-2.3
								c0.9-0.7,1.8-1.5,2.8-2.4c3.5-3.3,4.5-8.3,2.6-12.1c-1.6-3.2-4.9-4.9-8.6-4.3c0,0-0.1,0-0.1,0c-0.4,0.1-4,0.9-6,4.2
								c-0.9,1.5-1.8,4.1-0.8,7.8c0.1,0.5,0.6,2.4,1.6,4.6c-3.5,1.6-7,2.2-10.7,1.6c-0.2,0-0.4-0.1-0.6-0.1
								C39.9,64.6,42,56,45.2,49.4c5.5-11.6,13.8-16.5,27.7-16.5c0,0,0,0,0.1,0c7,0.5,12.2,3.1,15.4,7.6
								C92.5,46.2,92.4,54.1,90.9,59.5z"/>
						</g>
						<g>
							<path class="st2" d="M57.4,45.3c-2.5,0-5.3,1.5-5.3,5.8c0,0.9,0.7,1.6,1.6,1.6s1.6-0.7,1.6-1.6c0-1.7,0.7-2.6,2.2-2.6
								c0.6,0,2,0,2,2.6c0,0.9,0.7,1.6,1.6,1.6s1.6-0.7,1.6-1.6C62.5,47.5,60.6,45.3,57.4,45.3z"/>
						</g>
					</g>
					<g>
						<g>
							<path class="st2" d="M95,80.1c1.2,0,2.3,0.7,2.7,1.9c0.4,1.1,0.1,2.5-0.9,3.3c-0.9,0.8-2.3,0.9-3.4,0.3
								c-1.1-0.6-1.6-1.9-1.3-3.1C92.4,81.1,93.7,80.1,95,80.1z M95,85.4c1,0,1.9-0.6,2.3-1.6c0.3-0.9,0.1-2.1-0.7-2.7
								c-0.8-0.6-1.9-0.7-2.8-0.2c-0.9,0.5-1.3,1.6-1.1,2.6C92.9,84.6,93.9,85.4,95,85.4z M93.9,81.6c0.5,0,1,0,1.5,0
								c0.4,0.1,0.8,0.3,0.8,0.7c0.1,0.5-0.2,0.9-0.7,1.1c0.2,0.2,0.4,0.4,0.6,0.7c0,0.1,0.2,0.2,0.2,0.2c0.1,0.2-0.1,0.1-0.2,0.1
								c-0.1,0-0.3,0-0.5,0c-0.1,0-0.1-0.1-0.2-0.2c-0.2-0.2-0.4-0.6-0.6-0.8c-0.1-0.1-0.1-0.1-0.2-0.1c-0.1,0-0.1,0-0.1,0.2
								c0,0.2,0,0.4,0,0.6c0,0.1,0,0.2,0,0.2c-0.1,0-0.4,0-0.5,0c-0.1,0,0,0-0.1-0.1c0-0.1,0-0.2,0-0.3c0-0.2,0-0.4,0-0.5
								C93.9,82.9,93.9,82.3,93.9,81.6z M94.6,82.2c0,0.1,0,0.2,0,0.3c0,0.1,0,0.4,0,0.5c0.1,0.1,0.5,0,0.6,0c0.4,0,0.6-0.7,0.2-0.8
								C95.1,82.1,94.8,82.2,94.6,82.2z"/>
						</g>
					</g>
				</g>
			</g>
		</g>
	</g>
	<g>
		<path class="st3" d="M45,97.5c-0.1-0.5-0.1-7.2,0-8c0.6-0.1,1.9-0.1,2.8-0.1c2.2,0,3.4,1,3.4,2.8c0,2.1-1.2,2.9-3.4,2.9
			c-0.2,0-0.5,0-0.6,0c0,0.8,0,2.1-0.1,2.3C47.1,97.6,45,97.6,45,97.5z M48,93.4c0.7,0,1.3-0.3,1.3-1c0-0.9-0.7-1.1-1.5-1.1
			c-0.2,0-0.4,0-0.6,0c0,0.3,0,1.6,0,2C47.4,93.4,47.7,93.4,48,93.4z"/>
		<path class="st3" d="M55.9,97.5c0-0.2,0-0.6,0-0.7c-0.3,0.4-0.8,0.8-1.7,0.8c-1.4,0-2.1-0.8-2.1-2.5c0-0.8,0.1-2.8,0.1-3.3
			c0-0.1,1.7-0.1,1.8-0.1c0,0.1-0.1,2.7-0.1,3.2c0,0.6,0.3,1,0.9,1c0.6,0,1-0.5,1-1c0-0.3,0-3.2,0.1-3.2c0,0,1.7,0,1.7,0
			c0,0,0,3.1-0.1,5.6C57.5,97.6,56,97.6,55.9,97.5z"/>
		<path class="st3" d="M64.9,91.9c0,0.1,0.1,3.8,0.1,4.5c0,3-1.5,3.7-2.9,3.7c-1.4,0-2.3-0.6-2.5-0.8c0.1-0.4,0.4-1,0.6-1.2
			c0.1-0.1,0.7,0.5,1.6,0.5c1,0,1.3-0.7,1.3-1.7c-0.1,0.2-0.6,0.7-1.6,0.7c-1.2,0-2.6-0.9-2.6-2.7c0-1.8,1.3-2.9,2.7-2.9
			c0.7,0,1.3,0.3,1.7,0.7c0-0.1,0-0.6,0-0.6C63.4,91.7,64.8,91.8,64.9,91.9z M62,96c0.6,0,1.1-0.4,1.1-1.2c0-0.7-0.4-1.2-1.1-1.2
			c-0.6,0-1.1,0.4-1.1,1.2C60.9,95.5,61.3,96,62,96z"/>
		<path class="st3" d="M45,109c-0.1-0.5,0-7.2,0.1-8c0.6-0.1,1.8-0.1,2.7-0.1c2.2,0,3.5,0.9,3.5,2.8c0,1.2-0.6,1.9-1.5,2.3
			c0.9,1.1,1.8,2.5,1.7,2.5c-0.1,0.2-1.4,0.7-1.8,0.7c0,0-1-1.6-2-2.9c0,0-0.1,0-0.1,0c-0.2,0-0.5,0-0.6,0c0,0.8,0,2.4-0.1,2.7
			C46.8,109,45,109.1,45,109z M47.9,104.7c0.7,0,1.3-0.3,1.3-1c0-0.6-0.3-1.1-1.3-1.1c-0.2,0-0.5,0-0.8,0c0,0.3,0,1.6,0,2
			C47.3,104.7,47.7,104.7,47.9,104.7z"/>
		<path class="st3" d="M58,106.3c0,1.5-1.1,2.8-2.9,2.8c-1.6,0-2.9-1.1-2.9-3c0-1.4,1.1-2.8,2.9-2.8C56.7,103.3,58,104.4,58,106.3z
			 M55.1,105c-0.8,0-1.2,0.5-1.2,1.2c0,0.8,0.5,1.2,1.1,1.3c0.8,0,1.2-0.5,1.2-1.3C56.2,105.3,55.7,105,55.1,105z"/>
		<path class="st3" d="M61,103.4c0,0.2,0,0.6,0,0.6c0.3-0.4,0.7-0.8,1.6-0.8c0.6,0,1.2,0.3,1.5,0.8c0.4-0.7,1.3-0.8,1.7-0.8
			c1.4,0,2.1,1,2.1,2.4c0,0.8,0,2.8-0.1,3.3c0,0.1-1.8,0.1-1.8,0.1c0,0,0-2.6,0-3.2c0-0.6-0.1-1-0.8-1c-0.6,0-0.8,0.6-0.8,1
			c0,0.8,0,2.5-0.1,3.1c0,0.1-1.7,0-1.8,0c0,0,0-2.7,0-3.1c0-0.6-0.2-1-0.8-1c-0.6,0-0.8,0.5-0.8,0.9c0,0.3,0,3.2-0.1,3.3
			c0,0-1.7,0-1.7,0c0,0-0.1-3.2,0-5.6C59.3,103.2,60.9,103.3,61,103.4z"/>
		<path class="st3" d="M71.3,103.2c1.4,0,2.5,0.8,2.5,2.5c0,1.2-0.1,3.1-0.1,3.2c0,0.1-1.5,0-1.5,0l-0.1-0.5
			c-0.1,0.1-0.6,0.6-1.5,0.6c-1.3,0-1.8-0.7-1.8-1.7c0-1,0.9-1.7,2.1-1.7c0.5,0,0.8,0.1,1.1,0.3c0-0.5,0-1.2-1-1.2
			c-0.7,0-1,0.5-1.1,0.5c-0.1,0-0.9-0.7-0.9-0.8C69.1,104.3,69.8,103.2,71.3,103.2z M71.2,107.9c0.5,0,0.8-0.3,0.8-0.6
			c0-0.4-0.3-0.7-0.8-0.7c-0.4,0-0.7,0.3-0.7,0.7C70.5,107.7,70.8,107.9,71.2,107.9z"/>
		<path class="st3" d="M81,103.3c0,0.1,0.1,3.8,0.1,4.5c0,3-1.5,3.7-2.9,3.7c-1.4,0-2.3-0.6-2.5-0.8c0.1-0.4,0.4-1,0.6-1.2
			c0.1-0.1,0.7,0.5,1.6,0.5c1,0,1.3-0.7,1.3-1.7c-0.1,0.2-0.6,0.7-1.6,0.7c-1.2,0-2.6-0.9-2.6-2.7c0-1.8,1.3-2.9,2.7-2.9
			c0.7,0,1.3,0.3,1.7,0.7c0-0.1,0-0.6,0-0.6C79.5,103.2,80.9,103.3,81,103.3z M78.1,107.4c0.6,0,1.1-0.4,1.1-1.2
			c0-0.7-0.4-1.2-1.1-1.2c-0.6,0-1.1,0.4-1.1,1.2C77,106.9,77.4,107.4,78.1,107.4z"/>
		<path class="st3" d="M84.3,103.3c0,0.2,0,0.6,0,0.7c0.3-0.4,0.8-0.8,1.7-0.8c1.3,0,2,1,2,2.5c0,0.8,0,2.7-0.1,3.3
			c0,0.1-1.7,0.1-1.8,0.1c0,0,0-2.7,0-3.1c0-0.6-0.3-1.1-0.9-1.1c-0.6,0-1,0.5-1,0.9c0,0.4,0,3.1,0,3.2c0,0-1.7,0-1.7,0
			c0,0-0.1-3,0-5.5C82.6,103.3,84.2,103.2,84.3,103.3z"/>
		<path class="st3" d="M91.6,103.2c1.4,0,2.5,0.8,2.5,2.5c0,1.2-0.1,3.1-0.1,3.2c0,0.1-1.5,0-1.5,0l-0.1-0.5
			c-0.1,0.1-0.6,0.6-1.5,0.6c-1.3,0-1.8-0.7-1.8-1.7c0-1,0.9-1.7,2.1-1.7c0.5,0,0.8,0.1,1.1,0.3c0-0.5,0-1.2-1-1.2
			c-0.7,0-1,0.5-1.1,0.5c-0.1,0-0.9-0.7-0.9-0.8C89.3,104.3,90,103.2,91.6,103.2z M91.5,107.9c0.5,0,0.8-0.3,0.8-0.6
			c0-0.4-0.3-0.7-0.8-0.7c-0.4,0-0.7,0.3-0.7,0.7C90.7,107.7,91,107.9,91.5,107.9z"/>
	</g>
</g>
</svg>
