<svg id="Layer_1" data-name="Layer 1" xmlns="http://www.w3.org/2000/svg" viewBox="0 0 124.71 144"><defs><style>.cls-1{fill:#f5e946;}.cls-2{fill:#fff;}.cls-3{fill:none;stroke:#231f20;stroke-linecap:round;stroke-linejoin:round;stroke-width:2px;}.cls-4{fill:#4e6297;}.cls-5{fill:#231f20;}</style></defs><path class="cls-1" d="M62.3,0,0,36v72l62.3,36,62.4-36V36Z"/><polygon class="cls-2" points="6.7 104.2 6.7 39.9 62.3 7.7 118 39.9 118 104.2 62.3 136.3 6.7 104.2"/><polygon class="cls-3" points="6.7 104.2 6.7 39.9 62.3 7.7 118 39.9 118 104.2 62.3 136.3 6.7 104.2"/><path class="cls-4" d="M60.8,52.8a1.58,1.58,0,0,1-1.6-1.56v0h0c0-2.6-1.4-2.6-2-2.6-1.4,0-2.2.9-2.2,2.6a1.66,1.66,0,0,1-1.7,1.5,1.7,1.7,0,0,1-1.5-1.5,6.47,6.47,0,0,1,1-3.5,4.81,4.81,0,0,1,4.4-2.3c3.2,0,5.2,2.2,5.2,5.8A1.72,1.72,0,0,1,60.8,52.8Z"/><path class="cls-4" d="M93.6,37c-5.4-7.6-14-9.8-20.3-10.2h-.4c-8.3,0-15,1.6-20.5,5s-9.7,8.3-13,15.2-5.5,15.7-7.3,26.6a30.42,30.42,0,0,1-6.1-4,3.19,3.19,0,0,0-4.4.7,3.33,3.33,0,0,0,.4,4.2,37.64,37.64,0,0,0,9.2,5.6c-1,7.6-1.8,16.1-2.6,25.5a3.22,3.22,0,0,0,2.9,3.4h.3a3.25,3.25,0,0,0,3.2-2.9c.8-8.9,1.5-17,2.5-24.2l.5.1a24.6,24.6,0,0,0,14.8-2.4,13.8,13.8,0,0,0,5.7,4.7c1.2.5,11.8,4.7,22.6-.6,7.7-3.8,13.2-11.3,16.2-22.3C99.5,52.6,98.1,43.4,93.6,37ZM56.4,69.1a16.83,16.83,0,0,1-1.5,1.3L54,67.7v-.1a2.86,2.86,0,0,1,1.9-4.1,1.5,1.5,0,0,1,1.8.8A4.3,4.3,0,0,1,56.4,69.1Zm34.5-9.4C88.4,68.9,84.1,75.1,78.1,78c-6.7,3.3-14,1.8-17.3.4A7,7,0,0,1,58,76.1c.9-.7,1.8-1.5,2.8-2.4,3.5-3.3,4.5-8.3,2.6-12.1a7.92,7.92,0,0,0-8.6-4.3h-.1a9.56,9.56,0,0,0-6,4.2,9.34,9.34,0,0,0-.8,7.8,35.76,35.76,0,0,0,1.6,4.6,17.88,17.88,0,0,1-10.7,1.6l-.6-.1c1.7-10.7,3.8-19.3,6.9-25.9C50.6,38,58.9,33.1,72.9,33.1h0c7,.5,12.2,3.1,15.4,7.5C92.5,46.5,92.4,54.3,90.9,59.7Z"/><path class="cls-4" d="M57.4,45.5c-2.5,0-5.3,1.5-5.3,5.8a1.6,1.6,0,0,0,3.2,0c0-1.7.7-2.6,2.2-2.6.6,0,2,0,2,2.6a1.6,1.6,0,0,0,3.2,0C62.5,47.8,60.6,45.5,57.4,45.5Z"/><path class="cls-4" d="M95.1,80.4a2.79,2.79,0,0,1,2.7,1.9,3.08,3.08,0,0,1-.8,3.3,3,3,0,0,1-3.4.3,2.76,2.76,0,0,1-1.3-3A2.67,2.67,0,0,1,95.1,80.4Zm0,5.3a2.45,2.45,0,0,0,1.6-4.3,2.59,2.59,0,0,0-2.8-.2,2.43,2.43,0,0,0-1.1,2.6A2.2,2.2,0,0,0,95.1,85.7Zm-1.2-3.8h1.5a.77.77,0,0,1,.8.7.82.82,0,0,1-.61,1l-.09,0,.6.7.2.2a.35.35,0,0,1-.2.1h-.4c-.1,0-.1-.1-.2-.2-.2-.3-.4-.5-.6-.8a.3.3,0,0,0-.2-.1c-.1,0-.1,0-.1.2v.8h-.5c-.1,0,0,0-.1-.1v-.3l-.1-2.2Zm.7.5v.9c0,.1.5,0,.6,0,.4,0,.6-.7.2-.8A2.41,2.41,0,0,0,94.6,82.4Z"/><path class="cls-5" d="M45,97.8c0-.5-.1-7.2,0-8a23.82,23.82,0,0,1,2.8-.1c2.2,0,3.4,1,3.4,2.8,0,2.1-1.2,2.9-3.4,2.9h-.6a13.58,13.58,0,0,1-.1,2.3A14.77,14.77,0,0,1,45,97.8Zm3-4.1c.7,0,1.3-.3,1.3-1,0-.9-.7-1.1-1.5-1.1h-.6v2Z"/><path class="cls-5" d="M55.9,97.7V97a1.87,1.87,0,0,1-1.7.8c-1.4,0-2.1-.8-2.1-2.5a30.44,30.44,0,0,1,.2-3.3,10.87,10.87,0,0,1,1.8-.1c0,.1-.1,2.7-.1,3.2a.92.92,0,0,0,.9,1,.94.94,0,0,0,1-.88V95.1a31,31,0,0,1,.1-3.2,4.85,4.85,0,0,1,1.7,0c0,.1,0,3.1-.1,5.6A2.44,2.44,0,0,1,55.9,97.7Z"/><path class="cls-5" d="M64.9,92.1c0,.1.1,3.8.1,4.5,0,3-1.5,3.7-2.9,3.7a3.31,3.31,0,0,1-2.5-.8,3.39,3.39,0,0,1,.6-1.2,3.35,3.35,0,0,0,1.6.5c1,0,1.3-.7,1.3-1.7a2,2,0,0,1-1.6.7,2.74,2.74,0,0,1-2.7-2.6v-.1a2.78,2.78,0,0,1,2.6-2.9h.1a2.32,2.32,0,0,1,1.7.7v-.6A2.56,2.56,0,0,1,64.9,92.1ZM62,96.2a1.28,1.28,0,0,0,1.2-1.1V95A1.1,1.1,0,0,0,61,95h0a1.11,1.11,0,0,0,.9,1.2Z"/><path class="cls-5" d="M45,109.3c-.1-.5,0-7.2.1-8a22.16,22.16,0,0,1,2.7-.1c2.2,0,3.5.9,3.5,2.8a2.26,2.26,0,0,1-1.5,2.3,13.61,13.61,0,0,1,1.7,2.5,5.58,5.58,0,0,1-1.8.7s-1-1.6-2-2.9H47a22.16,22.16,0,0,1-.1,2.7Zm3-4.3c.8,0,1.3-.3,1.3-1s-.3-1-1.3-1h-.8v2Z"/><path class="cls-5" d="M58,106.5a2.9,2.9,0,0,1-5.8.2h0v-.3a2.9,2.9,0,1,1,5.8-.2h0Zm-2.8-1.2a1.11,1.11,0,0,0-1.2,1v.3a1.12,1.12,0,0,0,.94,1.29h.16a1.06,1.06,0,0,0,1.19-.91.28.28,0,0,0,0-.09v-.3a1,1,0,0,0-.78-1.18l-.12,0A.3.3,0,0,0,55.2,105.3Z"/><path class="cls-5" d="M61,103.7v.6a2.09,2.09,0,0,1,1.6-.8,1.75,1.75,0,0,1,1.5.8,1.68,1.68,0,0,1,1.7-.8c1.4,0,2.1,1,2.1,2.4,0,.8,0,2.8-.1,3.3a10.87,10.87,0,0,1-1.8.1v-3.2c0-.6-.2-1-.8-1s-.8.6-.8,1a29.19,29.19,0,0,1-.1,3.1,5.44,5.44,0,0,1-1.8,0v-3.1c0-.6-.2-1-.8-1a1,1,0,0,0-.9.8h0c0,.3,0,3.2-.1,3.3a4.85,4.85,0,0,1-1.7,0s-.1-3.2,0-5.6A4.36,4.36,0,0,1,61,103.7Z"/><path class="cls-5" d="M71.3,103.4a2.35,2.35,0,0,1,2.5,2.1v.4c0,1.2-.1,3.1-.1,3.2H72.2l-.1-.5a2,2,0,0,1-1.5.6,1.57,1.57,0,0,1-1.7-1.4v-.3a1.83,1.83,0,0,1,1.95-1.7h.05a2,2,0,0,1,1.1.3c0-.5,0-1.2-1-1.2a2.08,2.08,0,0,0-1.2.5,6.86,6.86,0,0,1-.9-.8A3.3,3.3,0,0,1,71.3,103.4Zm-.1,4.8c.5,0,.8-.3.8-.6a.67.67,0,0,0-.66-.7h0a.67.67,0,0,0-.3,1.3Z"/><path class="cls-5" d="M81,103.6c0,.1.1,3.8.1,4.5,0,3-1.5,3.7-2.9,3.7a3.31,3.31,0,0,1-2.5-.8,3.39,3.39,0,0,1,.6-1.2,3.3,3.3,0,0,0,1.7.5c1,0,1.3-.7,1.3-1.7a2,2,0,0,1-1.6.7,2.67,2.67,0,0,1-2.7-2.6v-.1a2.78,2.78,0,0,1,2.6-2.9h.1a2.32,2.32,0,0,1,1.7.7v-.6A2.18,2.18,0,0,1,81,103.6Zm-2.9,4.1a1.28,1.28,0,0,0,1.2-1.1v-.1a1.1,1.1,0,0,0-2.2,0,1,1,0,0,0,.78,1.18l.12,0Z"/><path class="cls-5" d="M84.3,103.6v.7a2.33,2.33,0,0,1,1.8-.8c1.3,0,2,1,2,2.5,0,.8,0,2.7-.1,3.3a10.87,10.87,0,0,1-1.8.1v-3.1c0-.6-.3-1.1-.9-1.1a.94.94,0,0,0-1,.88v3.32a4.85,4.85,0,0,1-1.7,0s-.1-3,0-5.5A2.59,2.59,0,0,1,84.3,103.6Z"/><path class="cls-5" d="M91.6,103.4a2.27,2.27,0,0,1,2.49,2,.22.22,0,0,1,0,.08v.4c0,1.2-.1,3.1-.1,3.2H92.5l-.1-.5a2,2,0,0,1-1.5.6,1.59,1.59,0,0,1-1.79-1.36v-.44a1.83,1.83,0,0,1,2-1.7h0a2,2,0,0,1,1.1.3c0-.5,0-1.2-1-1.2a2.08,2.08,0,0,0-1.2.5,6.86,6.86,0,0,1-.9-.8A3.65,3.65,0,0,1,91.6,103.4Zm-.2,4.8a.76.76,0,0,0,.8-.6v-.1a.67.67,0,0,0-.66-.7h0c-.4,0-.7.2-.7.6v.1a.55.55,0,0,0,.4.68A.44.44,0,0,0,91.4,108.2Z"/></svg>