<?xml version="1.0" encoding="utf-8"?>
<!-- Generator: Adobe Illustrator 24.2.2, SVG Export Plug-In . SVG Version: 6.00 Build 0)  -->
<svg version="1.1" id="Layer_1" xmlns="http://www.w3.org/2000/svg" xmlns:xlink="http://www.w3.org/1999/xlink" x="0px" y="0px"
	 viewBox="0 0 124.7 144" style="enable-background:new 0 0 124.7 144;" xml:space="preserve">
<style type="text/css">
	.st0{fill:#FFFFFF;}
	.st1{fill:#6280B5;}
	.st2{fill:#6080B6;}
</style>
<g>
	<polygon class="st0" points="2.8,106.4 2.8,37.6 62.4,3.3 121.9,37.6 121.9,106.4 62.4,140.7 	"/>
	<g>
		<g>
			<g>
				<path class="st1" d="M62.4,0L0,36v72l62.4,36l62.4-36V36L62.4,0z M119,104.7l-56.7,32.7L5.7,104.7V39.3L62.4,6.5L119,39.3V104.7
					z"/>
			</g>
		</g>
	</g>
	<g>
		<path class="st2" d="M78.4,45.8h-5.1c-1.6,0-2.6,1-2.8,2.3L68,68c-0.4,3.4-1.6,5.6-4.4,5.6c-2.8,0-3.4-2.3-2.9-5.6l2.6-19.8
			c0.2-1.4-0.5-2.4-2.1-2.4h-5.1c-1.9,0-2.6,1.2-2.8,2.6L50.7,69c-1.1,8.3,1.1,13.5,11.8,13.5c10.7,0,14.3-5.2,15.4-13.5l2.7-20.6
			C80.7,47,80,45.8,78.4,45.8z M96.4,54.3c1.9,0,3.3,1.8,3.3,4.5c0,1.9,0.8,2.1,2.6,1.8l4.3-0.7c2.2-0.4,2.6-1,2.6-3.7
			c0-6.1-2.6-10.8-11.6-10.8c-11.9,0-16.9,8.3-16.9,23.2c0,9.6,4,13.9,12.1,13.9c10.7,0,14.1-6.3,14.9-13.3l0.5-3.8
			c0.1-1.4-0.6-2.4-2.2-2.4h-8.4c-1.9,0-2.6,1.2-2.8,2.7l-0.1,1.1c-0.2,1.6,0.7,2.4,2.2,2.4h1.7l-0.1,0.4c-0.4,2.9-1.7,4.1-4.6,4.1
			c-2.1,0-3.1-1.9-3.1-6C90.7,61,91.9,54.3,96.4,54.3z M34.1,45.8h-8.3c-1.5,0-2.5,1.1-2.7,2.5l-3.8,28.8h-0.7
			c-1.9,0-2.6,1.2-2.8,2.7l-0.1,1.1c-0.2,1.6,0.7,2.4,2.2,2.4h0.7l-1.6,12.5l0,0.1c0,0.1,0,0.3,0,0.4c0,1.4,0.8,2.3,2.1,2.3H24
			c1.5,0,2.6-1.1,2.8-2.7L28.6,82h0.7c11.1,0,20.2-7.8,20.2-20.4C49.5,52,43.2,45.8,34.1,45.8z M30.2,73.5h-0.5l1.1-8.4l0-0.1
			c0-0.1,0-0.3,0-0.4c0,0,0-0.1,0-0.1l1.3-10.1h0.6c4.4,0,6.7,3,6.7,8C39.4,69.3,36.1,73.5,30.2,73.5z"/>
		<g>
			<path d="M58.6,94.7c0-0.2,0.9-2.2,1-2.2c0.2,0,1.1,0.7,1.8,0.7c0.2,0,0.4-0.1,0.4-0.3c0-0.2-0.1-0.4-0.7-0.6
				c-1.1-0.4-1.8-1-1.8-2.2c0-1.7,1.3-2.9,3.2-2.9c1.5,0,2.5,0.5,2.8,0.8c0.1,0.1-0.9,2.1-1,2.2c0,0.1-1-0.6-1.9-0.6
				c-0.2,0-0.3,0.1-0.3,0.2c0,0.2,0.2,0.3,0.8,0.6c0.9,0.4,1.9,1,1.9,2.3c0,1.3-0.9,2.9-3.3,2.9C60.1,95.5,59,94.9,58.6,94.7z"/>
			<path d="M68.4,93.7c0.5,0,0.9-0.2,1.2-0.3c0.1,0.2,0.5,1.5,0.4,1.7c-0.4,0.3-1.2,0.5-2,0.5c-2,0-2.6-1.1-2.6-2.6
				c0-1.8,1.3-3.5,3.3-3.5c1.5,0,2.2,1,2.2,2.1c0,0.6-0.2,1-0.2,1.4c-0.6,0.1-2.5,0.1-3,0.1C67.5,93.4,67.7,93.7,68.4,93.7z
				 M68.9,91.9c0-0.1,0.1-0.2,0.1-0.3c0-0.3-0.1-0.5-0.5-0.5c-0.4,0-0.6,0.3-0.8,0.8L68.9,91.9z"/>
			<path d="M75.5,92.2c-0.2-0.1-0.6-0.2-0.8-0.1c-0.4,0-0.5,0.3-0.6,0.8c-0.1,0.3-0.4,2.5-0.5,2.6c0,0-2.5,0.1-2.6,0
				c0,0,0.9-5.5,1-5.7c0.2-0.2,2.3-0.3,2.4-0.1c0,0.2-0.1,0.7-0.2,0.8c0.4-0.7,1.2-0.9,1.8-0.7C76.4,89.7,75.7,91.9,75.5,92.2z"/>
			<path d="M79.2,93.7c0.5,0,0.9-0.2,1.2-0.3c0.1,0.2,0.5,1.5,0.4,1.7c-0.4,0.3-1.2,0.5-2,0.5c-2,0-2.6-1.1-2.6-2.6
				c0-1.8,1.3-3.5,3.3-3.5c1.5,0,2.2,1,2.2,2.1c0,0.6-0.2,1-0.2,1.4c-0.6,0.1-2.5,0.1-3,0.1C78.4,93.4,78.6,93.7,79.2,93.7z
				 M79.7,91.9c0-0.1,0.1-0.2,0.1-0.3c0-0.3-0.1-0.5-0.5-0.5c-0.4,0-0.6,0.3-0.8,0.8L79.7,91.9z"/>
			<path d="M88.8,89.6c0,0-0.4,3.8-0.8,5.8c-0.5,2.1-2,2.7-3.3,2.7c-1.3,0-2.1-0.4-2.5-0.8c0.2-0.5,0.7-1.3,1-1.7
				c0-0.1,0.4,0.5,1.3,0.5c0.7,0,1-0.4,1.1-1.1c-0.1,0.1-0.6,0.4-1.2,0.4c-0.8,0-2.1-0.6-2.1-2.4c0-2,1.4-3.3,2.9-3.3
				c0.7,0,1.2,0.3,1.4,0.6c0-0.1,0.1-0.4,0.1-0.6C87,89.4,88.7,89.6,88.8,89.6z M85.2,93.4c0.4,0,0.7-0.5,0.7-0.9
				c0-0.3-0.1-0.6-0.5-0.6c-0.4,0-0.7,0.5-0.7,1C84.7,93.2,84.9,93.4,85.2,93.4z"/>
			<path d="M92.3,90.2c0.3-0.3,0.8-0.7,1.5-0.7c1.1,0,1.4,0.7,1.4,1.4c0,0.6-0.2,1.9-0.2,2.2c0,0.2,0,0.2,0.2,0.2c0.1,0,0.2,0,0.2,0
				c0,0-0.2,1.9-0.4,2c-0.3,0.2-0.6,0.2-1,0.2c-1.1,0-1.6-0.7-1.5-1.7c0-0.5,0.3-1.5,0.3-1.7c0-0.3,0-0.5-0.3-0.5
				c-0.3,0-0.5,0.4-0.5,0.7c0,0.3-0.6,3.1-0.6,3.2c0,0-2.3,0-2.3,0c0,0,0.4-3.2,0.9-5.7c0.2-0.2,2.3-0.2,2.4-0.1L92.3,90.2
				L92.3,90.2z"/>
			<path d="M101.9,92.1c0,1.8-1.3,3.4-3.4,3.4c-1.4,0-2.4-1-2.4-2.6c0-1.8,1.3-3.5,3.4-3.5C100.8,89.5,101.9,90.5,101.9,92.1z
				 M99.2,91.8c-0.5,0-0.8,0.4-0.8,1.1c0,0.4,0.2,0.6,0.5,0.6c0.4,0,0.8-0.4,0.8-1.1C99.6,92,99.4,91.8,99.2,91.8z"/>
		</g>
	</g>
</g>
</svg>
