<svg id="Layer_1" data-name="Layer 1" xmlns="http://www.w3.org/2000/svg" xmlns:xlink="http://www.w3.org/1999/xlink" viewBox="0 0 124.71 144"><defs><style>.cls-1{fill:#fff;}.cls-2{fill:#6277ac;}.cls-3{fill:#596ca4;}.cls-4{fill:#7d94c7;}.cls-5{fill:url(#linear-gradient);}.cls-6{fill:url(#linear-gradient-2);}</style><linearGradient id="linear-gradient" x1="58.25" y1="4485.14" x2="131.39" y2="4485.14" gradientTransform="translate(-32.52 -4407.42)" gradientUnits="userSpaceOnUse"><stop offset="0" stop-color="#596ca4"/><stop offset="1" stop-color="#596ca4" stop-opacity="0"/></linearGradient><linearGradient id="linear-gradient-2" x1="62.82" y1="4470.35" x2="179.85" y2="4506.71" gradientTransform="translate(-32.52 -4407.42)" gradientUnits="userSpaceOnUse"><stop offset="0" stop-color="#596ca4"/><stop offset="1" stop-color="#7d94c7"/></linearGradient></defs><title>sondrio</title><polygon class="cls-1" points="2.83 106.37 2.83 37.64 62.35 3.28 121.87 37.64 121.87 106.37 62.35 140.73 2.83 106.37"/><path class="cls-2" d="M62.35,0,0,36v72l62.35,36,62.36-36V36ZM119,104.73,62.35,137.45,5.67,104.73V39.27L62.35,6.55,119,39.27Z"/><g id="g1726"><g id="g1673"><path id="path890" class="cls-3" d="M32.18,110.35l30.13,7.86,30.12-8.35L99,37.32H25.8Z"/><path id="path892" class="cls-4" d="M61.33,42.89h29.8l-4.91,60.59-24.73,7.37Z"/><path id="path1380" class="cls-5" d="M60.32,117.66,53.86,116l-9.18-2.39-8.26-2.15c-2.12-.54-4-1-4.06-1.06s-.2-.23-.2-.43c0-.35-.16-2.11-.66-7.5-.26-2.89-.79-8.78-1.06-11.87-.14-1.53-.39-4.44-.57-6.47s-.48-5.42-.66-7.54-.48-5.43-.66-7.36-.44-4.85-.58-6.47-.39-4.46-.56-6.31-.4-4.31-.5-5.48-.25-2.68-.33-3.36-.18-2.3-.22-3.6a18.66,18.66,0,0,0-.23-2.79A11.87,11.87,0,0,1,25.85,39l-.12-1.72H62.25c20.09,0,36.56,0,36.6.1a6.54,6.54,0,0,1,0,1.47c-.07.76-.21,2.57-.31,4s-.25,3.11-.34,3.68c-.19,1.33-.48,4.41-.58,6.14,0,.72-.18,2.57-.32,4.1-.74,8.31-.92,10.39-1.15,12.85-.14,1.49-.27,3.18-.3,3.77s-.21,2.57-.4,4.42c-.41,4-.81,8.52-.94,10.64-.06.87-.18,2-.26,2.63s-.23,2.13-.31,3.43-.25,3.26-.39,4.34-.29,2.67-.34,3.52a17.78,17.78,0,0,1-.27,2.18,1.9,1.9,0,0,0-.08.74,21.78,21.78,0,0,1-.48,4.43c-.08.07-1.55.52-3.26,1l-3.85,1.08c-.41.13-3.47,1-6.8,1.89l-11,3c-2.74.76-5,1.37-5.16,1.36s-1-.22-1.9-.47Zm13.92-10.57c6.53-1.94,11.91-3.58,12-3.65s4.93-59.63,4.91-60.33c0-.27-.83-.29-14.91-.29H61.3v15c0,8.27.05,23.58.11,34l.11,19,.42-.14c.23-.08,5.77-1.72,12.3-3.67Z"/><path id="path1390" class="cls-6" d="M61.55,118l-2.71-.7c-9.34-2.45-22.72-5.94-24.48-6.39l-2.13-.56-.1-.72c-.06-.4-.15-1.46-.21-2.36s-.17-2.19-.26-2.87-.19-1.81-.25-2.53S31.17,99,31,97.19s-.42-4.64-.56-6.21c-.52-5.8-.91-10.33-1.23-14.08-.19-2.13-.48-5.41-.65-7.3s-.44-4.8-.58-6.47-.4-4.54-.58-6.39-.35-3.91-.41-4.57-.2-2.2-.33-3.37-.26-3.24-.31-4.59a17.5,17.5,0,0,0-.25-2.93A12,12,0,0,1,25.82,39l-.11-1.78,36.53,0c20.09,0,36.56.08,36.6.13a7.31,7.31,0,0,1,0,1.47c-.07.76-.21,2.57-.31,4s-.25,3.11-.34,3.69c-.21,1.49-.48,4.38-.57,6.21,0,.86-.12,1.81-.16,2.13s-.16,1.53-.25,2.7c-.15,2-.41,4.83-1.07,12-.14,1.48-.27,3.18-.3,3.76s-.21,2.58-.4,4.42c-.4,3.94-.8,8.45-.94,10.65-.06.86-.17,2-.26,2.62s-.23,2.13-.31,3.44-.25,3.26-.38,4.34-.29,2.59-.35,3.35-.15,1.69-.2,2a11.46,11.46,0,0,0-.13,1.23,19,19,0,0,1-.48,4.14,77,77,0,0,1-8.61,2.57c-1,.25-6.12,1.68-11.49,3.18s-9.88,2.71-10,2.7a5.59,5.59,0,0,1-.71-.15ZM74.23,107.1c6.53-1.95,11.91-3.61,12-3.7a23.06,23.06,0,0,0,.29-2.65c.1-1.37,1.18-14.75,2.4-29.73S91.1,43.57,91.1,43.3v-.48H61.24L61.36,72c.06,16,.11,31.35.11,34v4.81l.45-.1c.25,0,5.79-1.68,12.32-3.62Z"/></g><g id="g1650"><path id="path1595" class="cls-1" d="M43.25,89.4c2.81-2.2.26-7.57.26-7.57-5.1-13,3.73-19.58,5.25-20.44,3.07-1.74,10.38-3.45,14.07,1.24a4.06,4.06,0,0,1,.22,4.12c-1.24,3-4.56,5.62-7.41,5.93a1.93,1.93,0,0,1-1.81-.56c-1.27-1.48-.61-5.39-.24-6.76a.71.71,0,0,0-.49-.87h0a.86.86,0,0,0-.32,0,.7.7,0,0,0-.54.51c-.15.58-1.45,5.73.53,8a3.15,3.15,0,0,0,2.5,1.07,4.41,4.41,0,0,0,.52,0c3.36-.37,7.12-3.35,8.56-6.79a6.89,6.89,0,0,0,.56-2.49c8.06,0,17.26,4.49,17.86,12.58a.56.56,0,0,1-1,.34A10.78,10.78,0,0,0,80,75.57a8,8,0,0,1-1.14,3.6,14.43,14.43,0,0,0-2.06,7.38v4.78c-.07.59-1.45,1.06-3.17,1.06s-3.09-.47-3.16-1.06l0-3.1a2.94,2.94,0,0,0-.93-2.15,3.18,3.18,0,0,0-2.22-.78h-1.6a3,3,0,0,0-3,3v3c-.07.59-1.46,1.06-3.17,1.06s-3.11-.47-3.17-1.06l0-2.68a13.86,13.86,0,0,0-6.53-12C46.38,74.61,47.91,81,47.91,81c2.29,7.13-3,10.38-3,10.38l0,0s0,0,0,0c-.35.26-1,0-1.39-.54a1.18,1.18,0,0,1-.2-1.38Z"/></g></g><path class="cls-1" d="M36.88,41.63c0-.53.09-.79.26-.79H49.35c.18,0,.28.26.28.79s-.09.8-.28.8H37.14C37,42.43,36.88,42.17,36.88,41.63Zm0,2.13c0-.53.09-.8.26-.8h3.72c.17,0,.27.27.27.8s-.09.8-.27.8H37.14c-.17,0-.26-.27-.26-.8Zm0,2.12c0-.53.09-.79.26-.79h3.72c.18,0,.27.26.27.79s-.09.8-.27.8H37.14c-.17,0-.26-.26-.26-.8Zm0,2.12c0-.53.09-.79.26-.79h3.72c.18,0,.27.26.27.79s-.09.8-.27.8H37.14c-.17,0-.26-.26-.26-.79Zm0,2.13c0-.53.09-.8.26-.8H49.35c.19,0,.28.27.28.8s-.09.8-.28.8H37.14c-.17,0-.26-.27-.26-.8Zm0,2.12c0-.53.09-.8.26-.8h3.72c.17,0,.27.27.27.8s-.09.8-.27.8H37.14c-.17,0-.26-.26-.26-.79Zm0,2.13c0-.54.09-.8.26-.8h3.72c.18,0,.27.26.27.8s-.09.79-.27.8H37.14c-.17,0-.26-.27-.26-.8ZM47.5,43.76c0-.53.09-.8.26-.8h3.72c.18,0,.27.27.27.8s-.09.8-.27.8H47.76c-.17,0-.26-.27-.26-.8Zm0,2.12c0-.53.09-.8.26-.8h3.72c.18,0,.27.27.27.8s-.09.8-.27.8H47.76c-.17,0-.26-.26-.26-.8Zm0,2.12c0-.53.09-.79.26-.79h3.72c.18,0,.27.26.27.79s-.09.8-.27.8H47.76c-.17,0-.26-.26-.26-.79Z"/><path class="cls-1" d="M53.87,41.63c0-.53.09-.79.26-.79h3.72c.18,0,.27.26.27.79s-.09.8-.27.8H54.13C54,42.43,53.87,42.17,53.87,41.63Zm0,2.13c0-.53.09-.8.26-.8h3.72c.18,0,.27.27.27.8s-.09.8-.27.8H54.13c-.17,0-.26-.27-.26-.8Zm0,2.12c0-.53.09-.8.26-.8h3.72c.18,0,.27.27.27.8s-.09.8-.27.8H54.13c-.17,0-.26-.26-.26-.8Zm0,2.12c0-.53.09-.79.26-.79h3.72c.18,0,.27.26.27.79s-.09.8-.27.8H54.13c-.17,0-.26-.26-.26-.79Zm0,2.13c0-.53.09-.8.26-.8h3.72c.18,0,.27.27.27.8s-.09.8-.27.8H54.13c-.17,0-.26-.27-.26-.8Zm0,2.12c0-.53.09-.8.26-.8h3.72c.18,0,.27.27.27.8s-.09.8-.27.8H54.13c-.17,0-.26-.26-.26-.79ZM56,54.38c0-.54.08-.8.25-.8h10.1c.17,0,.27.26.27.8s-.1.8-.27.8H56.25c-.17,0-.25-.27-.25-.8Zm8.49-12.75c0-.53.09-.79.26-.79h3.72c.18,0,.27.26.27.79s-.09.8-.27.8H64.75C64.58,42.43,64.49,42.17,64.49,41.63Zm0,2.13c0-.53.09-.8.26-.8h3.72c.18,0,.27.27.27.8s-.09.8-.27.8H64.75c-.17,0-.26-.27-.26-.8Zm0,2.12c0-.53.09-.8.26-.8h3.72c.18,0,.27.27.27.8s-.09.8-.27.8H64.75c-.17,0-.26-.26-.26-.8Zm0,2.12c0-.53.09-.79.26-.79h3.72c.18,0,.27.26.27.79s-.09.8-.27.8H64.75c-.17,0-.26-.26-.26-.79Zm0,2.13c0-.53.09-.8.26-.8h3.72c.18,0,.27.27.27.8s-.09.8-.27.8H64.75c-.17,0-.26-.27-.26-.8Zm0,2.12c0-.53.09-.8.26-.8h3.72c.18,0,.27.27.27.8s-.09.8-.27.8H64.75c-.17,0-.26-.26-.26-.79Z"/><path class="cls-1" d="M70.86,45.88c0-.53.09-.79.26-.79h3.72c.18,0,.27.26.27.79s-.09.8-.27.8H71.12C71,46.68,70.86,46.42,70.86,45.88Zm0,2.13c0-.53.09-.8.26-.8h3.72c.18,0,.27.27.27.8s-.09.8-.27.8H71.12C71,48.81,70.86,48.54,70.86,48Zm0,2.12c0-.53.09-.8.26-.8h3.72c.18,0,.27.27.27.8s-.09.8-.27.8H71.12C71,50.93,70.86,50.66,70.86,50.13ZM73,43.76c0-.53.08-.8.25-.8H77c.18,0,.27.27.27.8s-.09.8-.27.8H73.24c-.17,0-.25-.27-.25-.8Zm0,8.5c0-.54.08-.8.25-.8H77c.18,0,.27.26.27.8s-.09.79-.27.79H73.24c-.17,0-.25-.26-.25-.79Zm2.12-10.63c0-.53.09-.79.26-.79H85.46c.17,0,.27.26.27.79s-.09.8-.27.8H75.37C75.2,42.43,75.11,42.17,75.11,41.63Zm0,12.75c0-.54.09-.8.26-.8H85.46c.17,0,.27.26.27.8s-.09.8-.27.8H75.37c-.17,0-.26-.27-.26-.8ZM79.36,48c0-.53.08-.79.25-.79h5.85c.17,0,.27.26.27.79s-.09.8-.27.8H79.61c-.17,0-.25-.26-.25-.79Zm2.12,2.13c0-.53.09-.8.26-.8h3.72c.17,0,.27.27.27.8s-.09.8-.27.8H81.73c-.16,0-.25-.27-.25-.8Zm0,2.12c0-.53.09-.8.26-.8h3.72c.17,0,.27.27.27.8s-.09.8-.27.8H81.73c-.16,0-.25-.26-.25-.79Z"/><path class="cls-1" d="M34.9,101.57c0-.25,0-.38.12-.38h1.75c.09,0,.13.13.13.38s0,.37-.13.37H35C35,101.94,34.9,101.82,34.9,101.57Zm0,1c0-.25,0-.38.12-.38h1.75c.09,0,.13.13.13.38s0,.38-.13.38H35c-.07,0-.12-.13-.12-.38Zm0,3c0-.25,0-.37.12-.37h1.75c.09,0,.13.12.13.37s0,.38-.13.38H35C35,106,34.9,105.82,34.9,105.57Zm1-5c0-.25,0-.38.12-.38h3.76c.09,0,.13.13.13.38s0,.37-.13.37H36C35.94,100.94,35.9,100.82,35.9,100.57Zm0,3c0-.25,0-.38.12-.38h4.76c.08,0,.13.13.13.38s0,.38-.13.38H36C35.94,104,35.9,103.82,35.9,103.57Zm0,3c0-.25,0-.37.12-.37h4.76c.08,0,.13.12.13.37s0,.38-.13.38H36c-.08,0-.12-.13-.12-.38Zm3-5c0-.25,0-.38.11-.38h1.76c.08,0,.13.13.13.38s0,.37-.13.37H39c-.08,0-.11-.12-.11-.37Zm1,3c0-.25,0-.37.12-.37h1.75c.09,0,.13.12.13.37s0,.38-.13.38H40c-.08,0-.12-.13-.12-.38Zm0,1c0-.25,0-.37.12-.37h1.75c.09,0,.13.12.13.37s0,.38-.13.38H40c-.08,0-.12-.13-.12-.38Z"/><path class="cls-1" d="M42.91,101.57c0-.25,0-.38.12-.38h1.76c.08,0,.12.13.12.38s0,.37-.12.37H43C43,101.94,42.91,101.82,42.91,101.57Zm0,1c0-.25,0-.38.12-.38h1.76c.08,0,.12.13.12.38s0,.38-.12.38H43c-.08,0-.12-.13-.12-.38Zm0,1c0-.25,0-.38.12-.38h1.76c.08,0,.12.13.12.38s0,.39-.12.39H43C43,104,42.91,103.82,42.91,103.57Zm0,1c0-.25,0-.37.12-.37h1.76c.08,0,.12.12.12.37s0,.38-.12.38H43c-.08,0-.12-.13-.12-.38Zm0,1c0-.25,0-.37.12-.37h1.76c.08,0,.12.12.12.37s0,.38-.12.38H43c-.08,0-.12-.13-.12-.38Zm1-5c0-.25,0-.38.12-.38h4.76c.08,0,.13.13.13.38s-.05.37-.13.37H44c-.08,0-.12-.12-.12-.37Zm0,6c0-.25,0-.37.12-.37h4.76c.08,0,.13.12.13.37s-.05.38-.13.38H44c-.08,0-.12-.13-.12-.38Zm4-5c0-.25,0-.38.13-.38h1.75c.09,0,.13.13.13.38s0,.37-.13.37H48c-.09,0-.13-.12-.13-.37Zm0,1c0-.25,0-.38.13-.38h1.75c.09,0,.13.13.13.38s0,.38-.13.38H48c-.09,0-.13-.13-.13-.38Zm0,1c0-.25,0-.38.13-.38h1.75c.09,0,.13.13.13.38s-.05.39-.13.39H48c-.09,0-.13-.14-.13-.39Zm0,1c0-.25,0-.37.13-.37h1.75c.09,0,.13.12.13.37s0,.38-.13.38H48c-.09,0-.13-.13-.13-.38Zm0,1c0-.25,0-.37.13-.37h1.75c.09,0,.13.12.13.37s0,.38-.13.38H48c-.09,0-.13-.13-.13-.38Z"/><path class="cls-1" d="M50.92,100.57c0-.25,0-.38.12-.38h1.75c.09,0,.13.13.13.38s0,.37-.13.37H51C51,100.94,50.92,100.82,50.92,100.57Zm0,1c0-.25,0-.38.12-.38H53.8c.09,0,.13.13.13.38s0,.37-.13.37H51c-.08,0-.12-.12-.12-.37Zm0,1c0-.25,0-.38.12-.38H54.8c.08,0,.13.13.13.38s0,.38-.13.38H51c-.08,0-.12-.13-.12-.38Zm0,1c0-.25,0-.38.12-.38H57.8c.08,0,.13.13.13.38s0,.38-.13.38H51c-.08,0-.12-.13-.12-.38Zm0,1c0-.25,0-.37.12-.37h1.75c.09,0,.13.12.13.37s0,.38-.13.38H51c-.08,0-.12-.13-.12-.38Zm0,1c0-.25,0-.37.12-.37h1.75c.09,0,.13.12.13.37s0,.38-.13.38H51c-.08,0-.12-.13-.12-.38Zm0,1c0-.25,0-.37.12-.37h1.75c.09,0,.13.12.13.37s0,.38-.13.38H51c-.08,0-.12-.13-.12-.38Zm3-2c0-.25,0-.37.12-.37H57.8c.08,0,.13.12.13.37s0,.38-.13.38H54c-.08,0-.12-.13-.12-.38Zm1,1c0-.25,0-.37.12-.37h2.77c.08,0,.12.12.12.37s0,.38-.12.38H55c-.07,0-.12-.13-.12-.38Zm1-5c0-.25,0-.38.12-.38H57.8c.08,0,.13.13.13.38s0,.37-.13.37H56.05c-.09,0-.12-.12-.12-.37Zm0,1c0-.25,0-.38.12-.38H57.8c.08,0,.13.13.13.38s0,.37-.13.37H56.05c-.09,0-.12-.12-.12-.37Zm0,1c0-.25,0-.38.12-.38H57.8c.08,0,.13.13.13.38s0,.38-.13.38H56.05c-.09,0-.12-.13-.12-.38Zm0,4c0-.25,0-.37.12-.37H57.8c.08,0,.13.12.13.37s0,.38-.13.38H56.05c-.09,0-.12-.13-.12-.38Z"/><path class="cls-1" d="M58.93,100.57c0-.25,0-.38.12-.38h4.76c.08,0,.12.13.12.38s0,.37-.12.37H59.05C59,100.94,58.93,100.82,58.93,100.57Zm0,1c0-.25,0-.38.12-.38H60.8c.09,0,.13.13.13.38s0,.37-.13.37H59.05c-.08,0-.12-.12-.12-.37Zm0,1c0-.25,0-.38.12-.38H60.8c.09,0,.13.13.13.38s0,.38-.13.38H59.05c-.08,0-.12-.13-.12-.38Zm0,1c0-.25,0-.38.12-.38H60.8c.09,0,.13.13.13.38s0,.38-.13.38H59.05c-.08,0-.12-.13-.12-.38Zm0,1c0-.25,0-.37.12-.37H60.8c.09,0,.13.12.13.37s0,.38-.13.38H59.05c-.08,0-.12-.13-.12-.38Zm0,1c0-.25,0-.37.12-.37H60.8c.09,0,.13.12.13.37s0,.38-.13.38H59.05c-.08,0-.12-.13-.12-.38Zm0,1c0-.25,0-.37.12-.37h4.76c.08,0,.12.12.12.37s0,.38-.12.38H59.05c-.08,0-.12-.13-.12-.38Zm4-5c0-.25,0-.38.12-.38h1.76c.09,0,.13.13.13.38s0,.37-.13.37H63.05c-.08,0-.12-.12-.12-.37Zm0,4c0-.25,0-.37.12-.37h1.76c.09,0,.13.12.13.37s0,.38-.13.38H63.05c-.08,0-.12-.13-.12-.38Zm1-3c0-.25,0-.38.12-.38h1.76c.08,0,.13.13.13.38s0,.38-.13.38H64.05c-.08,0-.12-.13-.12-.38Zm0,1c0-.25,0-.38.12-.38h1.76c.08,0,.13.13.13.38s0,.38-.13.38H64.05c-.08,0-.12-.13-.12-.38Zm0,1c0-.25,0-.37.12-.37h1.76c.08,0,.13.12.13.37s0,.38-.13.38H64.05c-.08,0-.12-.13-.12-.38Z"/><path class="cls-1" d="M66.94,100.57c0-.25,0-.38.12-.38h5.76c.08,0,.12.13.12.38s0,.37-.12.37H67.06C67,100.94,66.94,100.82,66.94,100.57Zm0,1c0-.25,0-.38.12-.38h1.75c.09,0,.13.13.13.38s0,.37-.13.37H67.06c-.08,0-.12-.12-.12-.37Zm0,1c0-.25,0-.38.12-.38h1.75c.09,0,.13.13.13.38s0,.38-.13.38H67.06c-.08,0-.12-.13-.12-.38Zm0,1c0-.25,0-.38.12-.38h1.75c.09,0,.13.13.13.38s0,.38-.13.38H67.06c-.08,0-.12-.13-.12-.38Zm0,1c0-.25,0-.37.12-.37h4.76c.08,0,.12.12.12.37s0,.38-.12.38H67.06c-.08,0-.12-.13-.12-.38Zm0,1c0-.25,0-.37.12-.37h1.75c.09,0,.13.12.13.37s0,.38-.13.38H67.06c-.08,0-.12-.13-.12-.38Zm0,1c0-.25,0-.37.12-.37h1.75c.09,0,.13.12.13.37s0,.38-.13.38H67.06c-.08,0-.12-.13-.12-.38Zm3-1c0-.25,0-.37.12-.37h2.76c.09,0,.13.12.13.37s0,.38-.13.38H70.06c-.08,0-.12-.13-.12-.38Zm1-2c0-.25,0-.38.12-.38h2.77c.08,0,.12.13.12.38s0,.38-.12.38H71.06c-.08,0-.12-.13-.12-.38Zm0,3c0-.25,0-.37.12-.37h2.77c.08,0,.12.12.12.37s0,.38-.12.38H71.06c-.08,0-.12-.13-.12-.38Zm1-5c0-.25,0-.38.12-.38h1.76c.08,0,.13.13.13.38s0,.37-.13.37H72.06c-.08,0-.12-.12-.12-.37Zm0,1c0-.25,0-.38.12-.38h1.76c.08,0,.13.13.13.38s0,.38-.13.38H72.06c-.08,0-.12-.13-.12-.38Z"/><path class="cls-1" d="M76,100.57c0-.25,0-.38.12-.38h5.76c.08,0,.13.13.13.38s0,.37-.13.37H76.07C76,100.94,76,100.82,76,100.57Zm0,6c0-.25,0-.37.12-.37h5.76c.08,0,.13.12.13.37s0,.38-.13.38H76.07c-.08,0-.12-.13-.12-.38Zm2-5c0-.25,0-.38.12-.38h1.76c.09,0,.13.13.13.38s0,.37-.13.37H78.07c-.08,0-.12-.12-.12-.37Zm0,1c0-.25,0-.38.12-.38h1.76c.09,0,.13.13.13.38s0,.38-.13.38H78.07c-.08,0-.12-.13-.12-.38Zm0,1c0-.25,0-.38.12-.38h1.76c.09,0,.13.13.13.38s0,.39-.13.39H78.07c-.08,0-.12-.14-.12-.39Zm0,1c0-.25,0-.37.12-.37h1.76c.09,0,.13.12.13.37s0,.38-.13.38H78.07c-.08,0-.12-.13-.12-.38Zm0,1c0-.25,0-.37.12-.37h1.76c.09,0,.13.12.13.37s0,.38-.13.38H78.07c-.08,0-.12-.13-.12-.38Z"/><path class="cls-1" d="M83,101.57c0-.25,0-.38.12-.38h1.76c.08,0,.13.13.13.38s0,.37-.13.37H83.08C83,101.94,83,101.82,83,101.57Zm0,1c0-.25,0-.38.12-.38h1.76c.08,0,.13.13.13.38s0,.38-.13.38H83.08c-.08,0-.12-.13-.12-.38Zm0,1c0-.25,0-.38.12-.38h1.76c.08,0,.13.13.13.38s0,.39-.13.39H83.08C83,104,83,103.82,83,103.57Zm0,1c0-.25,0-.37.12-.37h1.76c.08,0,.13.12.13.37s0,.38-.13.38H83.08c-.08,0-.12-.13-.12-.38Zm0,1c0-.25,0-.37.12-.37h1.76c.08,0,.13.12.13.37s0,.38-.13.38H83.08c-.08,0-.12-.13-.12-.38Zm1-5c0-.25,0-.38.12-.38h4.76c.08,0,.12.13.12.38s0,.37-.12.37H84.08c-.08,0-.12-.12-.12-.37Zm0,6c0-.25,0-.37.12-.37h4.76c.08,0,.12.12.12.37s0,.38-.12.38H84.08c-.08,0-.12-.13-.12-.38Zm4-5c0-.25,0-.38.12-.38h1.76c.09,0,.13.13.13.38s0,.37-.13.37H88.08c-.08,0-.12-.12-.12-.37Zm0,1c0-.25,0-.38.12-.38h1.76c.09,0,.13.13.13.38s0,.38-.13.38H88.08c-.08,0-.12-.13-.12-.38Zm0,1c0-.25,0-.38.12-.38h1.76c.09,0,.13.13.13.38s0,.39-.13.39H88.08c-.08,0-.12-.14-.12-.39Zm0,1c0-.25,0-.37.12-.37h1.76c.09,0,.13.12.13.37s0,.38-.13.38H88.08c-.08,0-.12-.13-.12-.38Zm0,1c0-.25,0-.37.12-.37h1.76c.09,0,.13.12.13.37s0,.38-.13.38H88.08c-.08,0-.12-.13-.12-.38Z"/></svg>