<svg xmlns="http://www.w3.org/2000/svg" viewBox="0 0 623.62 255.12"><defs><style>.cls-1{fill:#fff;}</style></defs><title>customergauge</title><g id="BG"><rect class="cls-1" width="623.62" height="255.12"/></g><g id="Logo"><path d="M69.55,104.35l-12.13,5.81s-4-9.63-12.79-9.63-15.16,7.52-15.16,18.2S34.21,140,44.63,140a12.85,12.85,0,0,0,12.79-9l12.13,6.2s-9.76,15.55-24.92,15.55-30.46-9.89-30.46-34C14.17,107.12,22.61,88,44.63,88c17.53,0,24.92,15.43,24.92,16"/><path d="M70.74,106.07H84.18v30.06c0,1.58,1.19,5.27,6.73,5.27,2,0,7.25-1.45,7.25-5.4V105.94h13.45V151H98.16v-4.35s-4.61,5.54-14,5.54-13.44-7.78-13.44-14.77Z"/><path d="M474.33,106.07h13.45v30.06c0,1.58,1.18,5.27,6.72,5.27,2,0,7.25-1.45,7.25-5.4V105.94H515.2V151H501.75v-4.35s-4.61,5.54-14,5.54-13.45-7.78-13.45-14.77Z"/><path d="M116,118.86c0-7.52,7.25-14.11,19.25-14.11,0,0,12.53-.13,19.25,6.59l-8.17,7.52S141.54,114,135.21,114s-6.46,2.9-6.46,4,1.32,2.91,6.46,3.7c4,.66,20.17,1.45,20.17,14.37,0,4.48-2.37,15.69-20.17,15.69-16.61,0-22.15-8-22.15-8l8.31-7.78s4.21,6.33,13.84,6.33c5,0,7.12-2.64,7.12-4.49,0-1.18-1.19-4.22-7.12-4.22C130.07,133.49,116,131.25,116,118.86Z"/><path d="M154.06,107.26h6.86V93.15h12v14.11H182v7.25h-9.1v23.73a3,3,0,0,0,3.16,2.37h5.41v9.63a65.5,65.5,0,0,1-8.57.79c-3.69,0-12-2.64-12-7.52V114.37h-6.86Z"/><path d="M205.49,104.75c-16,0-23.87,10.81-23.87,23.34s7.25,24,23.87,24,23.86-11.47,23.86-24S221.44,104.75,205.49,104.75Zm0,37.18c-6.07,0-11-6.06-11-13.45s4.88-13.45,11-13.45,10.94,6.07,10.94,13.45S211.55,141.93,205.49,141.93Z"/><path d="M322.57,104.75s-23.07-1.19-23.07,24.66c0,17.53,12.92,22.81,23.07,22.81a24.27,24.27,0,0,0,21.89-12.66l-10.16-4.88s-2.11,8-11.73,8-9.63-11.6-9.63-11.6h31.52C344.46,131,347.36,104.75,322.57,104.75Zm0,18.33h-9.63c0-6.46,5.94-9.1,9.63-9.1,8.57,0,8.57,9.1,8.57,9.1Z"/><path d="M587.46,104.75s-23.08-1.19-23.08,24.66c0,17.53,12.92,22.81,23.08,22.81a24.25,24.25,0,0,0,21.88-12.66l-10.15-4.88s-2.11,8-11.73,8-9.63-11.6-9.63-11.6h31.51C609.34,131,612.25,104.75,587.46,104.75Zm0,18.33h-9.63c0-6.46,5.94-9.1,9.63-9.1,8.57,0,8.57,9.1,8.57,9.1Z"/><path d="M232,106.07v45h12.79V123.08c0-6.07,2.77-7.78,6.72-7.78s6.73,2.11,6.73,7.78v28H271V123.08c0-4.49,1.84-7.78,7.12-7.78s6.32,4.35,6.32,7.78v28h12.79V115.3s-1.45-10.42-12.79-10.42-14.24,5.54-14.24,5.54-2.63-5.54-11.86-5.54-13.45,5.93-13.45,5.93v-4.74Z"/><path d="M346.3,106.07v45h13.45V123.08c0-3,5.54-5.54,12.26-5.54V105.41s-8.17,0-12.26,5h-.53v-4.35Z"/><path d="M371.22,120c0,12.79,6.46,32.18,27.43,32.18A26.17,26.17,0,0,0,416.84,145V151h11.47V117.67h-26.1v10.81h13.58s-.27,11.74-13.58,11.74c-9.5,0-15.82-6.86-15.82-20.18,0,0-1.06-19.38,15.82-19.38a15.56,15.56,0,0,1,14,8.57l11.61-6.72a29.94,29.94,0,0,0-25.58-14.37C382.17,88,371.22,104.09,371.22,120Z"/><path d="M472.22,151c-.92,0-1.19-2.37-1.19-2.37V115.3c0-2.77-3.69-10.42-17.8-10.42-11.47,0-19.77,3.3-19.77,13.32h12.65c0-2.37,2.25-4.88,6.86-4.88,4.35,0,5.27,2.77,5.27,3.82v4.62c-16.48,0-27.29,6.72-27.29,15.82s7.65,14.64,15.16,14.64,12.66-5.41,12.66-5.41h.66V151Zm-14-16.35c0,3.3-4.08,8-9.36,8a5,5,0,0,1-5.27-5c0-5.54,14.5-8.44,14.5-8.44S458.24,131.38,458.24,134.68Z"/><path d="M549.35,106.07v4.35a17.55,17.55,0,0,0-12.66-5.54c-10.41,0-19,9.89-19,22s6.85,21.62,19,21.62c7.39,0,10.95-3.56,10.95-3.56h1.05v8c0,1.32-1.18,5.67-8.83,5.67s-7.52-7.65-7.52-7.65H519v3.69c0,1.19.79,12.4,21,12.4s21.1-12.4,21.1-12.4V106.2H549.35ZM540,138.9c-4.88,0-8.83-5.41-8.83-12.13s4-12.13,8.83-12.13,8.84,5.4,8.84,12.13S544.87,138.9,540,138.9Z"/></g></svg>