<?xml version="1.0" encoding="UTF-8"?>
<!-- Generator: Adobe Illustrator 16.0.3, SVG Export Plug-In . SVG Version: 6.00 Build 0)  -->
<!DOCTYPE svg PUBLIC "-//W3C//DTD SVG 1.1//EN" "http://www.w3.org/Graphics/SVG/1.1/DTD/svg11.dtd">
<svg version="1.1" xmlns="http://www.w3.org/2000/svg" xmlns:xlink="http://www.w3.org/1999/xlink" x="0px" y="0px" width="623.6px" height="255.1px" viewBox="0 0 623.6 255.1" style="enable-background:new 0 0 623.6 255.1;" xml:space="preserve">
<style type="text/css">
<![CDATA[
	.st0{fill:#494444;}
	.st1{fill:#E0561C;}
	.st2{fill:#4AA9DB;}
	.st3{fill:#EA6D35;}
	.st4{fill:#52B1E4;}
	.st5{fill:#5C8E30;}
	.st6{fill:#92BD48;}
	.st7{fill:#FFFFFF;}
	.st8{fill:#9BC44B;}
	.st9{fill:#CF5017;}
	.st10{fill:#6EA534;}
	.st11{fill:#D7541C;}
	.st12{fill:#3E9BCB;}
	.st13{fill:#72AC38;}
	.st14{fill:#78B135;}
	.st15{fill:#44A2D3;}
]]>
</style>
<g id="BG">
	<rect class="st7" width="623.6" height="255.1"/>
</g>
<g id="Logo">
	<g>
		<path class="st0" d="M174.1,108.5c-7.6,0-12.9,1.1-15.8,3.2c-2.1,1.6-3.2,4-3.2,7.3v39.9h-12.3v-39.8c0-15.1,10.4-22.7,31.2-22.7    V108.5z"/>
		<path class="st0" d="M236.4,158.9h-29.2c-19.5,0-29.3-10.4-29.3-31.2c0-20.9,9.8-31.4,29.3-31.4c19.4,0,29.2,10.4,29.2,31.3v6.1    h-45.8c1.3,8.7,6.8,13,16.7,13h29.2V158.9z M223.8,121.5c-1.3-8.7-6.8-13.1-16.5-13.1c-9.8,0-15.4,4.4-16.7,13.1H223.8z"/>
		<path class="st0" d="M297.1,139.7c-3.4,12.8-12.6,19.1-27.7,19.1c-19.4,0-29.1-10.5-29.1-31.4c0-20.8,9.7-31.2,29.1-31.2    c15.1,0,24.3,6.3,27.7,19h-13c-2.4-4.6-7.3-6.9-14.7-6.9c-6.5,0-11.1,1.7-13.7,5.2c-2.1,2.8-3.2,7.5-3.2,13.9    c0,6.4,1.1,11,3.2,13.9c2.6,3.6,7.2,5.3,13.7,5.3c7.4,0,12.3-2.3,14.7-7H297.1z"/>
		<path class="st0" d="M332.2,108.6c-7.6,0-12.9,1.1-15.8,3.2c-2.1,1.6-3.2,4-3.2,7.3v39.8H301v-39.7c0-15.1,10.4-22.7,31.2-22.7    V108.6z"/>
		<path class="st0" d="M394.4,127.7c0,20.8-9.7,31.2-29.2,31.2c-19.4,0-29.1-10.4-29.1-31.2V96.5h12.3v31.3c0,6.4,1.1,11,3.2,13.8    c2.6,3.5,7.2,5.2,13.7,5.2c6.5,0,11.1-1.7,13.7-5.2c2.1-2.8,3.2-7.4,3.2-13.8V96.5h12.4V127.7z"/>
		<path class="st0" d="M410.5,83.9h-12.3V71.7h12.3V83.9z M461.7,83.9h-12.3V71.7h12.3V83.9z M398.2,96.5h12.3v62.4h-12.3V96.5z"/>
		<path class="st0" d="M445.6,158.9c-20.8,0-31.2-7.5-31.2-22.6V71.8l12.3-0.1v24.7h19v12.1h-19v27.8c0,3.3,1.1,5.8,3.2,7.4    c2.9,2.1,8.2,3.2,15.8,3.2V158.9z"/>
		<path class="st0" d="M606.7,160.7c0,15.2-9.7,22.7-29.1,22.7h-23.1v-12.1h23.1c7.3,0,12.2-1.3,14.7-3.9c1.4-1.4,2.1-3.6,2.1-6.7    v-1.8h-16.9c-19.5,0-29.2-10.5-29.2-31.3c0-20.9,9.7-31.3,29.2-31.3c19.4,0,29.1,10.4,29.1,31.3V160.7z M594.4,146.6v-19    c0-6.4-1.1-11-3.2-13.8c-2.6-3.5-7.2-5.3-13.7-5.3c-6.5,0-11.1,1.8-13.8,5.3c-2.1,2.8-3.2,7.5-3.2,13.8c0,6.3,1.1,10.9,3.2,13.8    c2.7,3.5,7.3,5.2,13.8,5.2H594.4z"/>
		<path class="st0" d="M544.4,127c0-20.8-9.4-30.7-28.1-30.7c-18.8,0-28.1,9.8-28.1,30.6c0,1.5-0.1,3-0.2,4.3c0,0,0,0,0,0    c-0.1,0.6-0.2,1.4-0.2,2.1c-1.6,12.2-8,13.2-12.8,13.2c-5.5,0-7.5-1.8-10.1-5.5c-2.1-2.9-3.2-7.6-3.2-14.2V96.5h-12.3l0,30.3    c0,21.5,5.7,32.2,25.2,32.2c14.6,0,22.2-6.7,24.7-20.2c0.2-0.7,0.3-1.3,0.3-2l0,0c0.4-3,0.6-6.3,0.6-9.9c0-6.4,0.6-10.9,2.6-13.7    c2.6-3.5,7-5.3,13.3-5.3c6.3,0,10.7,1.8,13.2,5.3c2,2.8,3.1,7.4,3.1,13.8v32h11.8L544.4,127z"/>
		<rect x="115.6" y="126.3" class="st0" width="23.5" height="10.2"/>
		<path class="st4" d="M39.8,159.2c6.1,0.3,12.7-0.4,17.8-4c4.1-2.9,6.7-7.3,8.1-12l-4.1,2l-2.2,1l-6-5.7c-0.1,0.2-0.1,0.3-0.2,0.5    c0,0,0,0.1-0.1,0.1c-0.2,0.3-0.3,0.6-0.5,0.9c0,0-0.1,0.1-0.1,0.1c0,0,0,0.1-0.1,0.1c0,0-0.1,0.1-0.1,0.1c0,0.1-0.1,0.1-0.1,0.2    c0,0-0.1,0.1-0.1,0.1c-0.3,0.4-0.6,0.8-0.9,1.1c0,0-0.1,0.1-0.1,0.1c-0.4,0.4-0.7,0.7-1.2,1l-0.1,0.1c-0.2,0.1-0.4,0.2-0.6,0.4    c0,0-0.1,0.1-0.2,0.1c-0.1,0-0.1,0.1-0.2,0.1c-0.1,0-0.1,0.1-0.2,0.1c-0.1,0-0.1,0.1-0.2,0.1c-0.1,0-0.1,0.1-0.2,0.1    c-0.2,0.1-0.3,0.2-0.5,0.2c-0.1,0-0.2,0.1-0.3,0.1c-0.2,0.1-0.4,0.1-0.6,0.2c-0.2,0.1-0.4,0.1-0.6,0.2c-0.2,0-0.4,0.1-0.6,0.1    c-0.1,0-0.3,0.1-0.4,0.1c-0.1,0-0.3,0-0.4,0.1c-0.2,0-0.4,0.1-0.6,0.1s-0.4,0-0.6,0.1v6.1v0.1l-3.9,6h0L39.8,159.2L39.8,159.2    L39.8,159.2z"/>
		<path class="st12" d="M65.7,143.1c-1.4,4.8-4,9.2-8.1,12l1.8-9l0,0L65.7,143.1z"/>
		<path class="st4" d="M39.8,159.2c6.1,0.3,12.7-0.4,17.8-4c-4.6-0.8-9.2-1.5-13.8-2.3v0.1l-3.9,6h0L39.8,159.2L39.8,159.2    L39.8,159.2z"/>
		<path class="st5" d="M29.8,134.7l-11,7.7l-0.3,0.2c0,0,0-0.1,0-0.1c0-0.1,0-0.2-0.1-0.2c-0.1-0.3-0.1-0.5-0.2-0.8    c-0.1-0.3-0.1-0.5-0.2-0.8c0-0.1,0-0.2-0.1-0.3c0-0.1,0-0.1,0-0.2c0-0.1,0-0.1,0-0.2c0-0.2-0.1-0.4-0.1-0.5c0-0.2-0.1-0.3-0.1-0.5    c0-0.2-0.1-0.3-0.1-0.5c0-0.2-0.1-0.4-0.1-0.5s0-0.4-0.1-0.5c0-0.1,0-0.2,0-0.4c0-0.1,0-0.2,0-0.3c0,0,0-0.1,0-0.1    c0-0.2,0-0.3-0.1-0.5c0,0,0,0,0,0c0-0.2,0-0.4-0.1-0.5c0-0.1,0-0.3,0-0.4c0-0.1,0-0.3,0-0.4c0-0.4-0.1-0.9-0.1-1.3    c0-0.1,0-0.3,0-0.4s0-0.3,0-0.4c0-0.5,0-0.9-0.1-1.4c0-0.4,0-0.7,0-1.1c0-0.2,0-0.3,0-0.5c0-0.5,0-1.1,0-1.7c0-0.1,0-0.2,0-0.4    c0-0.1,0-0.2,0-0.4l0-31v0h12.3v31.1c0,0.6,0,1.2,0,1.8C29.3,131.2,29.5,133.1,29.8,134.7"/>
		<polygon class="st6" points="111.3,143 100.2,137.8 99.7,137.6 99.7,158.5 99.7,158.5 99.7,158.5 99.7,158.5 99.7,158.5     111.5,158.5 111.5,158.5 111.5,158.5 111.5,158.5 111.5,158.5 111.5,146.4 111.5,143.1 111.5,143.1   "/>
		<path class="st14" d="M29.8,134.7l-11,7.7l-0.3,0.2c0,0,0-0.1,0-0.1c0-0.1,0-0.2-0.1-0.2c-0.1-0.3-0.1-0.5-0.2-0.8    c-0.1-0.3-0.1-0.5-0.2-0.8c0-0.1,0-0.2-0.1-0.3c0-0.1,0-0.1,0-0.2c0-0.1,0-0.1,0-0.2c0-0.2-0.1-0.4-0.1-0.5c0-0.2-0.1-0.3-0.1-0.5    c0-0.2-0.1-0.3-0.1-0.5c0-0.2-0.1-0.4-0.1-0.5s0-0.4-0.1-0.5c0-0.1,0-0.2,0-0.4c0-0.1,0-0.2,0-0.3c0,0,0-0.1,0-0.1    c0-0.2,0-0.3-0.1-0.5c0,0,0,0,0,0c0-0.2,0-0.4-0.1-0.5c0-0.1,0-0.3,0-0.4c0-0.1,0-0.3,0-0.4c0-0.4-0.1-0.9-0.1-1.3    c0-0.1,0-0.3,0-0.4s0-0.3,0-0.4c0-0.5,0-0.9-0.1-1.4c0-0.4,0-0.7,0-1.1c0-0.2,0-0.3,0-0.5c0-0.5,0-1.1,0-1.7c0-0.1,0-0.2,0-0.4    c0-0.1,0-0.2,0-0.4l0-31v0h12.3v31.1c0,0.6,0,1.2,0,1.8C29.3,131.2,29.5,133.1,29.8,134.7"/>
		<polygon class="st14" points="23.2,123.6 29.2,96.2 17,96.2   "/>
		<path class="st8" d="M23.2,123.6l-4.4,18.8l-0.3,0.2c0,0,0-0.1,0-0.1c0-0.1,0-0.2-0.1-0.3c-0.1-0.3-0.1-0.5-0.2-0.8    c-0.1-0.3-0.1-0.5-0.2-0.8c0-0.1,0-0.2-0.1-0.3c0-0.1,0-0.1,0-0.2c0-0.1,0-0.1,0-0.2c0-0.2-0.1-0.4-0.1-0.5c0-0.2-0.1-0.3-0.1-0.5    c0-0.2-0.1-0.3-0.1-0.5c0-0.2,0-0.4-0.1-0.5c0-0.2,0-0.4-0.1-0.5c0-0.1,0-0.2,0-0.4c0-0.1,0-0.2,0-0.3c0,0,0-0.1,0-0.1    c0-0.2,0-0.3-0.1-0.5c0,0,0,0,0,0c0-0.2,0-0.4-0.1-0.5c0-0.1,0-0.3,0-0.4c0-0.1,0-0.3,0-0.4c0-0.4-0.1-0.9-0.1-1.3    c0-0.1,0-0.3,0-0.4c0-0.1,0-0.3,0-0.4c0-0.4,0-0.9-0.1-1.4c0-0.4,0-0.7,0-1.1c0-0.2,0-0.3,0-0.5c0-0.5,0-1.1,0-1.7    c0-0.1,0-0.2,0-0.4c0-0.1,0-0.2,0-0.4l0-31L23.2,123.6z"/>
		<path class="st5" d="M29.2,129.3l-6-5.7l6-27.4C29.2,96.2,29.2,128.7,29.2,129.3"/>
		<path class="st4" d="M100.5,136.7l11,5.1l0-8.4c0-1.5,0-3,0-4.6c0-0.6,0-1.1,0-1.7V127c0-0.2,0-0.4,0-0.5l0,0v0l0,0    c0-3.7-0.4-7.7-1.4-11.4c-0.2-0.6-0.3-1.2-0.5-1.8c-1.8-5.8-5.2-9.9-9.6-12.7c-4.4-2.8-9.8-4.1-15.6-4.2l5.4,3.9    c2,4,3.5,8.6,6,12.2c0.2,0.3,0.7,0.8,0.7,0.8c1.3,1.7,2.1,3.9,2.5,6c0,0.1,0,0.2,0.1,0.3c0,0,0,0.1,0,0.2c0,0.1,0,0.1,0,0.2    c0.6,2.9,0.7,6,0.7,9c0,2.4-0.1,4.9-0.1,7.3l0.2,0.1L100.5,136.7L100.5,136.7z"/>
		<path class="st12" d="M107.9,114.9l-8.9,4.4c-0.5-2.4-1.3-4.2-2.3-5.7c-0.1-0.1-0.1-0.2-0.2-0.3l0,0c-0.1-0.1-0.1-0.2-0.2-0.3    c-0.1-0.1-0.1-0.2-0.2-0.3c-0.1-0.1-0.2-0.2-0.2-0.3l0,0l-6-12.2L107.9,114.9z"/>
		<path class="st15" d="M99.7,136.3l0.2,0.1l8-21.5l-8.9,4.4c0,0.1,0,0.2,0.1,0.3c0,0.1,0,0.2,0.1,0.3c0.4,2.1,0.6,4.6,0.6,7.4    L99.7,136.3L99.7,136.3z"/>
		<path class="st2" d="M100.5,136.7L100.5,136.7l0.4-0.1l0.1,0c0.1,0,0.3-0.1,0.4-0.1l0.3-0.1l0.3-0.1l0.4-0.1l0.6-0.2l0.6-0.2    l1.7-0.5l0.9-0.3l0.2-0.1l0.7-0.2l0.7-0.2l0.7-0.2l0.8-0.2l2-0.6l0-6c0-0.1,0-0.2,0-0.3V127c0-0.2,0-0.4,0-0.5v0    c0-0.2,0-0.4,0-0.6c-0.1-3.5-0.5-6.8-1.1-9.6c-0.1-0.4-0.2-0.8-0.3-1.1c-0.2-0.6-0.3-1.2-0.5-1.8l-1.7,1.6l-8,21.5L100.5,136.7    L100.5,136.7z"/>
		<path class="st12" d="M100.5,136.7l11,5.1l0-8.4l-2,0.6l-0.8,0.2l-0.7,0.2l-0.7,0.2l-0.7,0.2l-0.2,0.1l-0.9,0.3l-1.7,0.5l-0.6,0.2    l-0.6,0.2l-0.4,0.1l-0.3,0.1l-0.3,0.1c-0.1,0-0.3,0.1-0.4,0.1l-0.1,0L100.5,136.7L100.5,136.7L100.5,136.7z"/>
		<path class="st12" d="M109.6,113.3l-1.7,1.6l0.3-4.4l0.1-0.4C108.8,111.1,109.2,112.2,109.6,113.3"/>
		<path class="st12" d="M111.5,125.8L111.5,125.8l-3.6-11l1.7-1.6C110.8,116.9,111.4,121.1,111.5,125.8"/>
		<path class="st4" d="M111.5,126.5l-3.6-11.6l2.5,1.3C111,119.1,111.5,122.4,111.5,126.5"/>
		<path class="st1" d="M88.4,108.7c2,0.4,3.8,1,5.3,2l-4.7-9.6l0,0l-6.4-4.7c-8.7,0.2-15.2,2.7-19.7,7.5 M62.8,103.8L62.8,103.8    L62.8,103.8c-2,2.1-3.5,4.7-4.7,7.7l0.4,0.6l7.2,12.3l0,0l2,3.4c0-0.2,0-0.4,0-0.6c0-4.7,0.3-8.3,1.3-11.1l0,0    c0,0,0.8-1.8,1.3-2.5c0,0,0,0,0-0.1c1.5-2,3.5-3.4,6.2-4.3c2-0.7,4.4-1,7.1-1c1.8,0,3.4,0.1,4.8,0.4 M68.9,116.2L68.9,116.2"/>
		<path class="st9" d="M88.4,108.7c-1.5-0.3-3.1-0.4-4.8-0.4c-2.7,0-5.1,0.3-7.1,1c-2.7,0.9-4.7,2.3-6.2,4.3    c-0.5,0.6-0.8,1.4-1.2,2.2c-0.1,0.1-0.1,0.3-0.1,0.4h0l-1.1-2.1l-0.9-1.7l-4.3-8.5l11.2,0.6l10.8,0.6L88.4,108.7z"/>
		<path class="st3" d="M88.9,101.1l-4.1,3.9L74,104.4l-11.2-0.6c4.5-4.8,11-7.3,19.7-7.5L88.9,101.1L88.9,101.1z"/>
		<path class="st1" d="M88.9,101.1l4.7,9.6c-1.5-0.9-3.2-1.6-5.3-2l-3.5-3.8L88.9,101.1z"/>
		<polygon class="st1" points="66.9,112.1 74,104.4 62.8,103.8   "/>
		<path class="st11" d="M76.4,109.3c-2.7,0.9-4.7,2.3-6.2,4.3c-0.5,0.6-1.3,2.6-1.3,2.6l-1.1-2.1l-1-2l7.1-7.7L76.4,109.3z"/>
		<path class="st3" d="M68.9,116.2c-1,2.7-1.3,6.4-1.3,11.1c0,0.2,0,0.4,0,0.6l-2-3.4l0,0l-7.2-12.3h8.4l1,2L68.9,116.2L68.9,116.2    L68.9,116.2z"/>
		<polygon class="st14" points="68.9,116.2 68.9,116.2 68.9,116.2   "/>
		<path class="st14" d="M67.6,130c-0.1,2.4-0.3,4.7-0.6,7.1l0,0c-0.2,1.5-0.5,3-0.9,4.5c-2.2,1-4.3,2.1-6.5,3.1    c-1.9-1.8-3.8-3.7-5.7-5.5c3.2-8.4,0.5-17.9,3.7-26.3l7.5,12.8v0L67.6,130z"/>
		<path class="st5" d="M64.3,136.9c-0.5-1.8-1.1-3.5-1.6-5.3l-6.6-11.8c-0.7,6.5,0,13.2-2.2,19.4c1.9,1.8,3.8,3.7,5.7,5.5l6.1-3    L64.3,136.9z"/>
		<path class="st10" d="M67.6,130L67.6,130c0,0.1,0,0.2,0,0.4c0,0.1,0,0.2,0,0.4c0,0.1,0,0.2,0,0.2c0,0.1,0,0.2,0,0.3    c0,0,0,0.1,0,0.1c0,0,0,0,0,0.1c0,0.6-0.1,1.3-0.1,1.9c0,0.2,0,0.3,0,0.5c0,0.3-0.1,0.6-0.1,0.9c0,0.2,0,0.3-0.1,0.5    c-0.1,0.6-0.1,1.2-0.2,1.8l0,0c-0.1,0.6-0.2,1.3-0.3,2c0,0.1-0.1,0.3-0.1,0.4c0,0.1-0.1,0.3-0.1,0.4c0,0,0,0,0,0.1    c0,0.1-0.1,0.2-0.1,0.4c0,0.1,0,0.2-0.1,0.2c0,0,0,0,0,0.1c0,0,0,0.1,0,0.1s0,0.1,0,0.2c0,0.2-0.1,0.3-0.1,0.5c0,0,0,0,0,0.1    c0,0,0,0.1,0,0.1c0,0,0,0,0,0c0,0,0,0,0,0c0,0,0,0,0,0l-0.3,0.2l-1.5-4.9l0,0l-1.6-5.3v0l2.3-5.8L67.6,130z"/>
		<path class="st14" d="M65.8,141.8l-6.1,3l-5.4-5.2c1.7-1.3,5.6-5,5.6-5l4.5,2.4l0,0L65.8,141.8z"/>
		<path class="st8" d="M64.3,136.9l-4.5-2.4L56.2,120c0-0.1,0-0.1,0-0.2l6.6,11.8l0,0L64.3,136.9z"/>
		<polygon class="st4" points="29.3,71.7 22.6,71.7 23,75.9 29.3,78   "/>
		<path class="st3" d="M31.6,140l-3,7.4l-9.3-4l10.8-7.5C30.5,137.5,31,138.9,31.6,140"/>
		<path class="st9" d="M42.7,146.8v5.8l-4.2,6.5c0,0,0,0,0,0c-0.2,0-0.4,0-0.5,0c-0.1,0-0.3,0-0.4,0c-0.1,0-0.1,0-0.2,0    c-0.2,0-0.3,0-0.5-0.1c-0.2,0-0.3,0-0.5-0.1c-0.2,0-0.3,0-0.5-0.1c0,0,0,0,0,0c-0.2,0-0.3-0.1-0.5-0.1c-0.2,0-0.3-0.1-0.5-0.1    c0,0-0.1,0-0.1,0l-6.1-11.1l3-7.4c0.3,0.5,0.6,1,0.9,1.4c2.6,3.6,4.6,5.4,10.1,5.4C42.6,146.8,42.6,146.8,42.7,146.8"/>
		<polygon class="st1" points="17.7,84.1 23.2,75.5 29.2,79.3 29.3,84.1   "/>
		<polygon class="st8" points="23.2,75.5 21.4,71.7 17.1,71.7 17.1,82.9   "/>
		<path class="st1" d="M34.8,158.6c0,0-0.1,0-0.1,0c-8.7-1.7-13.5-6.6-15.9-14.8l0.5-0.3l9.3,4L34.8,158.6z"/>
		<path class="st7" d="M23.7,75.1c-0.3-0.9-1.1-3.4-1.1-3.4h-1.2c0,0,0.9,2.8,1.2,3.7l-5.4,7.5v1.2h0.6l5.7-7.8l5.9,3l0-1.3    L23.7,75.1z"/>
		<line class="st7" x1="57.6" y1="112.9" x2="57.6" y2="112.9"/>
		<line class="st7" x1="59.4" y1="146.1" x2="59.4" y2="146.1"/>
		<line class="st7" x1="59.4" y1="146.1" x2="59.4" y2="146.1"/>
		<polygon class="st7" points="66.1,141.6 65.7,143.1 59.4,146.1 53.5,140.4 53.9,139.3 54.2,139.5 59.7,144.8 65.8,141.8   "/>
		<path class="st7" d="M65.6,124.4l2,3.4c0,0.6,0,1.1,0,1.6c0,0.2,0,0.3,0,0.5c0,0,0,0,0,0l-2.5-4.3v0l-7.5-12.8l0,0    c0,0,0-0.1,0-0.1c0,0,0-0.1,0-0.1c0,0,0-0.1,0-0.1c0,0,0,0,0,0c0,0,0,0,0,0c0-0.1,0.1-0.2,0.1-0.3c0,0,0,0,0-0.1c0,0,0,0,0,0    c0.1-0.2,0.2-0.4,0.2-0.6l0.4,0.6L65.6,124.4L65.6,124.4z"/>
		<path class="st7" d="M95.8,112.5c-0.1-0.1-0.3-0.3-0.4-0.4c-0.1-0.1-0.1-0.1-0.2-0.2c-0.5-0.5-1-0.9-1.6-1.2v0l-4.7-9.6l0,0    l-6.4-4.7c0.2,0,0.4,0,0.6,0h0c0.1,0,0.3,0,0.4,0c0.2,0,0.3,0,0.5,0c0.1,0,0.3,0,0.4,0l5.4,3.9l0.1,0.1l0.5,1L95.8,112.5z"/>
		<path class="st1" d="M66.9,112.1h-8.4l-0.4-0.6c1.1-3,2.7-5.6,4.7-7.7L66.9,112.1z"/>
		<polygon class="st7" points="111.5,141.8 111.5,142.6 111.5,143.1 111.3,143 100.2,137.8 99.7,137.6 99.7,136.3 99.7,136.3     99.9,136.4 100.5,136.7 100.5,136.7 100.5,136.7   "/>
		<polygon class="st8" points="107.3,151.2 99.7,158.5 99.7,137.6 100.2,137.8   "/>
		<polygon class="st13" points="111.5,143.1 111.5,143.1 111.5,146.4 111.5,158.5 107.3,151.2 111.3,143   "/>
		<polygon class="st5" points="99.7,158.5 111.5,158.5 107.3,151.2   "/>
		<polygon class="st6" points="111.3,143 107.3,151.2 100.2,137.8   "/>
		<path class="st7" d="M30.1,136L30.1,136l-10.8,7.5l-0.5,0.3c-0.1-0.2-0.1-0.4-0.2-0.6c0-0.2-0.1-0.4-0.1-0.5l0.3-0.2l11-7.7    c0,0.2,0.1,0.5,0.1,0.7c0,0.1,0,0.2,0.1,0.3C30.1,135.8,30.1,135.9,30.1,136"/>
		<path class="st15" d="M59.4,146.1l-1.8,9c-4.6-0.8-9.2-1.5-13.8-2.3v-6.1c0.2,0,0.4,0,0.6-0.1c0.2,0,0.4,0,0.6-0.1    c0.1,0,0.3,0,0.4-0.1c0.1,0,0.3,0,0.4-0.1c0.2,0,0.4-0.1,0.6-0.1c0.2-0.1,0.4-0.1,0.6-0.2c0.2-0.1,0.4-0.1,0.6-0.2    c0.1,0,0.2-0.1,0.3-0.1c0.2-0.1,0.3-0.1,0.5-0.2c0.1,0,0.1-0.1,0.2-0.1c0.1,0,0.1-0.1,0.2-0.1c0.1,0,0.1-0.1,0.2-0.1    c0.1,0,0.1-0.1,0.2-0.1c0.1,0,0.1-0.1,0.2-0.1c0.2-0.1,0.4-0.2,0.6-0.4l0.1-0.1c0.4-0.3,0.8-0.6,1.2-1c0,0,0.1-0.1,0.1-0.1    c0.3-0.3,0.6-0.7,0.9-1.1c0,0,0.1-0.1,0.1-0.1c0.1-0.1,0.1-0.1,0.1-0.2c0,0,0.1-0.1,0.1-0.1c0,0,0-0.1,0.1-0.1    c0,0,0.1-0.1,0.1-0.1c0.2-0.3,0.3-0.6,0.5-0.9c0,0,0-0.1,0.1-0.1c0.1-0.1,0.1-0.3,0.2-0.5L59.4,146.1z"/>
		<polygon class="st4" points="39.9,159 39.9,159.1 39.9,159   "/>
		<path class="st7" d="M43.9,146.8v6.1l-4,6.2c-0.3,0-0.5,0-0.8,0c-0.1,0-0.3,0-0.4,0c0,0-0.1,0-0.1,0l4.2-6.5v-5.8    c0.2,0,0.4,0,0.6,0c0.1,0,0.1,0,0.2,0C43.6,146.8,43.7,146.8,43.9,146.8C43.8,146.8,43.8,146.8,43.9,146.8"/>
	</g>
</g>
</svg>