<svg xmlns="http://www.w3.org/2000/svg" viewBox="0 0 623.62 255.12"><defs><style>.cls-1{fill:#fff;}.cls-2{fill:#5a5758;}.cls-3{fill:#bf1d23;}.cls-4{fill:#231f20;}</style></defs><title>kanbanbox</title><g id="BG"><rect class="cls-1" width="623.62" height="255.12"/></g><g id="Logo"><path class="cls-2" d="M156.19,177.66v-11c0-4.3,0-7.4-.23-10.66l.12,0a74.75,74.75,0,0,0,4.78,8.62l8.2,13.1h3.37V151.84h-3.14v10.8c0,4,.08,7.16.38,10.61l-.11,0a72.14,72.14,0,0,0-4.6-8.39l-8.23-13.06h-3.68v25.82ZM195,169a8.93,8.93,0,0,0,.11-1.57c0-3.41-1.57-8.7-7.66-8.7-5.4,0-8.69,4.37-8.69,10s3.4,9.39,9.11,9.39a15.07,15.07,0,0,0,6.21-1.19l-.61-2.41a12.21,12.21,0,0,1-5.14,1c-3.41,0-6.28-1.88-6.36-6.44Zm-13-2.41c.27-2.34,1.73-5.44,5.17-5.44,3.8,0,4.71,3.33,4.67,5.44Zm20-10.92v3.45h-2.88v2.57h2.88V171.8c0,2.18.39,3.83,1.3,4.86a4.79,4.79,0,0,0,3.64,1.42,9.2,9.2,0,0,0,3-.46l-.15-2.57a6.45,6.45,0,0,1-2,.23c-1.88,0-2.52-1.3-2.52-3.6v-10h4.82v-2.57h-4.82v-4.45ZM214,159.12l5.6,18.54h3.06l3-8.81a54.78,54.78,0,0,0,1.69-6.14h.08a62,62,0,0,0,1.64,6.1l2.84,8.85H235l6-18.54h-3.33L235,168.43a54.56,54.56,0,0,0-1.42,6h-.11c-.42-1.88-1-3.83-1.65-6.05l-2.87-9.27h-2.83l-3,9.46c-.61,2-1.22,4-1.64,5.86h-.11c-.35-1.92-.85-3.83-1.34-5.9l-2.5-9.42Zm39.7-.39c-5.1,0-9.2,3.64-9.2,9.81,0,5.86,3.91,9.54,8.88,9.54,4.45,0,9.24-3,9.24-9.85,0-5.63-3.6-9.5-8.92-9.5m-.08,2.53c4,0,5.55,4,5.55,7.09,0,4.17-2.41,7.2-5.63,7.2s-5.59-3.06-5.59-7.12c0-3.49,1.72-7.17,5.67-7.17m15.16,16.4h3.37v-9.89a9.72,9.72,0,0,1,.12-1.57c.46-2.53,2.15-4.29,4.52-4.29a5,5,0,0,1,1.15.08v-3.18a6.57,6.57,0,0,0-.92-.08,5.6,5.6,0,0,0-5.17,4.06h-.11l-.16-3.67h-2.95c.12,1.72.15,3.59.15,5.78Zm17.93-27.2h-3.33v27.2h3.33v-7l1.72-1.92,6.37,8.89h4.14l-8.16-10.92,7.12-7.62h-4l-5.48,6.4c-.54.65-1.15,1.45-1.61,2.1h-.08Zm27.35,5.21v3.45h-2.87v2.57h2.87V171.8c0,2.18.39,3.83,1.31,4.86a4.77,4.77,0,0,0,3.64,1.42,9.2,9.2,0,0,0,3-.46l-.16-2.57a6.33,6.33,0,0,1-1.95.23c-1.88,0-2.53-1.3-2.53-3.6v-10h4.83v-2.57h-4.83v-4.45Zm21.46,3.06c-5.1,0-9.2,3.64-9.2,9.81,0,5.86,3.91,9.54,8.89,9.54,4.45,0,9.23-3,9.23-9.85,0-5.63-3.6-9.5-8.92-9.5m-.08,2.53c4,0,5.56,4,5.56,7.09,0,4.17-2.42,7.2-5.64,7.2s-5.59-3.06-5.59-7.12c0-3.49,1.72-7.17,5.67-7.17m37.85,13.22a9.72,9.72,0,0,1-4.14.88c-3.68,0-6.43-2.65-6.43-6.93,0-3.83,2.29-7,6.54-7a8.19,8.19,0,0,1,3.92.88l.76-2.57a10.58,10.58,0,0,0-4.68-1c-6.05,0-9.95,4.18-9.95,9.88s3.64,9.47,9.22,9.47a13.05,13.05,0,0,0,5.33-1.07Zm6.43,3.18h3.37v-9.89a9.72,9.72,0,0,1,.12-1.57c.46-2.53,2.15-4.29,4.52-4.29a5.06,5.06,0,0,1,1.15.08v-3.18a6.57,6.57,0,0,0-.92-.08,5.6,5.6,0,0,0-5.17,4.06h-.11l-.16-3.67h-2.95c.12,1.72.15,3.59.15,5.78Zm29-8.66a7.92,7.92,0,0,0,.12-1.57c0-3.41-1.57-8.7-7.66-8.7-5.4,0-8.7,4.37-8.7,10s3.41,9.39,9.12,9.39a15.07,15.07,0,0,0,6.21-1.19l-.62-2.41a12.13,12.13,0,0,1-5.13,1c-3.41,0-6.28-1.88-6.36-6.44Zm-13-2.41c.27-2.34,1.72-5.44,5.17-5.44,3.79,0,4.71,3.33,4.67,5.44Zm32.21-.31c0-3.68-1.37-7.55-7-7.55a11.88,11.88,0,0,0-6.13,1.62l.76,2.25a9,9,0,0,1,4.87-1.38c3.79,0,4.21,2.76,4.21,4.25v.39c-7.16,0-11.15,2.41-11.15,6.9a5.29,5.29,0,0,0,5.68,5.32,6.87,6.87,0,0,0,5.66-2.76h.12l.27,2.34h3a31.4,31.4,0,0,1-.27-4.44Zm-3.25,5.13a4,4,0,0,1-.15,1.08,4.7,4.7,0,0,1-4.56,3.1,3,3,0,0,1-3.14-3.22c0-3.6,4.18-4.25,7.85-4.17Zm11.22-15.74v3.45H433v2.57h2.87V171.8c0,2.18.39,3.83,1.3,4.86a4.79,4.79,0,0,0,3.64,1.42,9.16,9.16,0,0,0,3-.46l-.15-2.57a6.37,6.37,0,0,1-1.95.23c-1.88,0-2.53-1.3-2.53-3.6v-10H444v-2.57h-4.83v-4.45ZM464.38,169a8.93,8.93,0,0,0,.11-1.57c0-3.41-1.57-8.7-7.66-8.7-5.4,0-8.7,4.37-8.7,10s3.41,9.39,9.12,9.39a15,15,0,0,0,6.2-1.19l-.61-2.41a12.16,12.16,0,0,1-5.13,1c-3.41,0-6.28-1.88-6.36-6.44Zm-13-2.41c.26-2.34,1.73-5.44,5.17-5.44,3.79,0,4.71,3.33,4.67,5.44Zm28,10.19a10.52,10.52,0,0,0,5.21,1.3c4.33,0,6.9-2.3,6.9-5.59,0-2.76-1.69-4.37-4.87-5.56-2.41-1-3.48-1.65-3.48-3.18,0-1.38,1.07-2.53,3.06-2.53a7.19,7.19,0,0,1,3.79,1.11l.81-2.45a8.66,8.66,0,0,0-4.53-1.15c-3.94,0-6.39,2.46-6.39,5.44,0,2.23,1.57,4,4.94,5.25,2.45.92,3.41,1.76,3.41,3.37s-1.15,2.76-3.56,2.76a9.52,9.52,0,0,1-4.48-1.3Zm33.86-17.66h-3.37v11.34a4.64,4.64,0,0,1-.3,1.72,4.84,4.84,0,0,1-4.44,3.1c-3,0-4.14-2.41-4.14-5.94V159.12h-3.37V170c0,6.47,3.48,8.12,6.39,8.12a6.94,6.94,0,0,0,6.14-3.45h.07l.19,3h3c-.12-1.46-.16-3.15-.16-5.1Zm20.16,15.36a9.68,9.68,0,0,1-4.14.88c-3.68,0-6.43-2.65-6.43-6.93,0-3.83,2.29-7,6.54-7a8.15,8.15,0,0,1,3.91.88l.77-2.57a10.62,10.62,0,0,0-4.68-1c-6.05,0-10,4.18-10,9.88s3.64,9.47,9.24,9.47a13,13,0,0,0,5.32-1.07Zm18.84,0a9.63,9.63,0,0,1-4.13.88c-3.68,0-6.44-2.65-6.44-6.93,0-3.83,2.3-7,6.55-7a8.18,8.18,0,0,1,3.91.88l.77-2.57a10.62,10.62,0,0,0-4.68-1c-6.05,0-10,4.18-10,9.88s3.64,9.47,9.23,9.47a13.09,13.09,0,0,0,5.33-1.07ZM573.32,169a8.05,8.05,0,0,0,.11-1.57c0-3.41-1.57-8.7-7.65-8.7-5.41,0-8.7,4.37-8.7,10s3.41,9.39,9.11,9.39a15,15,0,0,0,6.21-1.19l-.61-2.41a12.13,12.13,0,0,1-5.13,1c-3.41,0-6.29-1.88-6.37-6.44Zm-13-2.41c.26-2.34,1.72-5.44,5.17-5.44,3.79,0,4.71,3.33,4.67,5.44Zm17.92,10.19a10.59,10.59,0,0,0,5.22,1.3c4.32,0,6.89-2.3,6.89-5.59,0-2.76-1.68-4.37-4.87-5.56-2.41-1-3.48-1.65-3.48-3.18,0-1.38,1.07-2.53,3.06-2.53a7.2,7.2,0,0,1,3.8,1.11l.8-2.45a8.62,8.62,0,0,0-4.52-1.15c-3.95,0-6.4,2.46-6.4,5.44,0,2.23,1.57,4,5,5.25,2.45.92,3.4,1.76,3.4,3.37s-1.15,2.76-3.56,2.76a9.55,9.55,0,0,1-4.48-1.3Zm17.09,0a10.5,10.5,0,0,0,5.21,1.3c4.33,0,6.9-2.3,6.9-5.59,0-2.76-1.69-4.37-4.87-5.56-2.42-1-3.49-1.65-3.49-3.18,0-1.38,1.07-2.53,3.07-2.53a7.19,7.19,0,0,1,3.79,1.11l.8-2.45a8.59,8.59,0,0,0-4.52-1.15c-3.94,0-6.4,2.46-6.4,5.44,0,2.23,1.58,4,4.95,5.25,2.45.92,3.41,1.76,3.41,3.37s-1.15,2.76-3.57,2.76a9.55,9.55,0,0,1-4.48-1.3Z"/><path class="cls-3" d="M473.52,110.81a16.35,16.35,0,0,0,4.42-2.25,12.37,12.37,0,0,0,3-3,11.93,11.93,0,0,0,1.66-3.73,16.65,16.65,0,0,0,.52-4.22,14.58,14.58,0,0,0-.86-5.07,13.43,13.43,0,0,0-2.47-4.18,15.19,15.19,0,0,0-3.88-3.17,21.48,21.48,0,0,0-5.09-2.09c-.71-.17-1.46-.33-2.26-.47s-1.66-.24-2.6-.33-1.94-.16-3.06-.2-2.35-.07-3.7-.07H444.33v60.08H459.7a71.71,71.71,0,0,0,7.77-.36,28.14,28.14,0,0,0,5.91-1.25,19.2,19.2,0,0,0,5.8-3,17.52,17.52,0,0,0,3.77-4,15,15,0,0,0,2.07-4.49,17.33,17.33,0,0,0,.63-4.43,15.13,15.13,0,0,0-.86-5.27,11.63,11.63,0,0,0-2.45-4,13,13,0,0,0-3.82-2.76,17,17,0,0,0-5-1.48ZM451.65,108V88.58h8.21c2,0,3.81.06,5.3.2a21.55,21.55,0,0,1,4,.7,9.69,9.69,0,0,1,5.07,3.14,8.69,8.69,0,0,1,1.62,5.44,10.09,10.09,0,0,1-1.55,5.61,9,9,0,0,1-4.92,3.5,15.46,15.46,0,0,1-2.83.6,28.58,28.58,0,0,1-3.72.21Zm11.45,6.6c1.7,0,3.13,0,4.29.14a21,21,0,0,1,3.08.45,12.55,12.55,0,0,1,3.74,1.38,8.66,8.66,0,0,1,2.43,2.09,7.56,7.56,0,0,1,1.32,2.7,12.27,12.27,0,0,1,.41,3.21,11.53,11.53,0,0,1-.38,2.92,8.91,8.91,0,0,1-1.26,2.71,9.52,9.52,0,0,1-2.32,2.34,12.3,12.3,0,0,1-3.5,1.73,22.37,22.37,0,0,1-4.58.92,55.65,55.65,0,0,1-5.84.29h-8.84V114.58Zm80.63,8.15a22.08,22.08,0,0,1-4.38,7.7,18.25,18.25,0,0,1-6.54,4.67,20.67,20.67,0,0,1-8.1,1.57,21.11,21.11,0,0,1-8.19-1.57,18.26,18.26,0,0,1-6.59-4.67,22.27,22.27,0,0,1-4.4-7.7,32.38,32.38,0,0,1-1.61-10.66,32.81,32.81,0,0,1,1.59-10.69,22.07,22.07,0,0,1,4.38-7.73A18.44,18.44,0,0,1,516.47,89a21.68,21.68,0,0,1,16.3,0,18.44,18.44,0,0,1,6.58,4.69,22.23,22.23,0,0,1,4.38,7.73,32.81,32.81,0,0,1,1.59,10.69,32.66,32.66,0,0,1-1.59,10.66m6.95-23.26a28.59,28.59,0,0,0-5.52-9.85,25,25,0,0,0-8.8-6.45,28.57,28.57,0,0,0-11.74-2.31A28,28,0,0,0,513,83.17a25.21,25.21,0,0,0-8.8,6.45,29.28,29.28,0,0,0-5.62,9.85,38.36,38.36,0,0,0-2,12.6,39.11,39.11,0,0,0,1.92,12.53,28.52,28.52,0,0,0,5.52,9.83,25.06,25.06,0,0,0,8.83,6.44,28.63,28.63,0,0,0,11.8,2.31,27.65,27.65,0,0,0,11.51-2.31,25.68,25.68,0,0,0,8.8-6.44,28.54,28.54,0,0,0,5.61-9.83,38.29,38.29,0,0,0,2-12.53,39.46,39.46,0,0,0-1.91-12.6m32.9,6.85L566.88,82h-8L579,111.39l-21.51,30.67h8.31l17.6-25.46h.19l17.6,25.46h8.22l-21.33-30.49L608.5,82h-8.12l-16.62,24.34Z"/><path class="cls-4" d="M159.67,142.06V112.65h.09L189,142.06h7.32l-29.68-30.18,28-29.9h-7.32l-27.62,29.68h-.09V82h-7.31v60.08Zm73.16,0h5.83V113.6a23.39,23.39,0,0,0-.29-3.8,12.76,12.76,0,0,0-1-3.17,13.69,13.69,0,0,0-5.91-6.06,21.66,21.66,0,0,0-10.58-2.29c-1.2,0-2.39.06-3.59.18a31.28,31.28,0,0,0-3.41.52,27.13,27.13,0,0,0-3.08.81,18,18,0,0,0-2.54,1v5.84A39.39,39.39,0,0,1,214,105a29.58,29.58,0,0,1,6.09-.61,14.22,14.22,0,0,1,6.91,1.42,9,9,0,0,1,3.73,3.57,8.22,8.22,0,0,1,.77,2.38,19,19,0,0,1,.22,3.1v3h-.18a32,32,0,0,0-5-1.35,35.5,35.5,0,0,0-6.15-.58,20.57,20.57,0,0,0-6.4.94,14.6,14.6,0,0,0-5,2.69,12,12,0,0,0-3.21,4.27,13.69,13.69,0,0,0-1.15,5.7,15.37,15.37,0,0,0,1,5.8,12.11,12.11,0,0,0,2.89,4.33,12.54,12.54,0,0,0,4.45,2.7,16.88,16.88,0,0,0,5.68.91,18.07,18.07,0,0,0,4.31-.49,19.08,19.08,0,0,0,3.73-1.32,16.07,16.07,0,0,0,3-1.88,14.5,14.5,0,0,0,2.15-2.14h.18Zm-1.13-10.19c-.33.33-.84.79-1.54,1.39a18.74,18.74,0,0,1-2.55,1.8,18,18,0,0,1-3.42,1.55,13,13,0,0,1-4.16.65,10.65,10.65,0,0,1-3.19-.47,7.24,7.24,0,0,1-2.6-1.44,6.77,6.77,0,0,1-1.72-2.45,8.94,8.94,0,0,1-.62-3.46,6.78,6.78,0,0,1,2.5-5.79,11.34,11.34,0,0,1,6.93-1.89,34.14,34.14,0,0,1,5.81.55c1.76.32,3.28.67,4.56,1ZM257.52,99.4h-5.39v42.66h7V111.75a18.58,18.58,0,0,1,5.8-5.5,13.46,13.46,0,0,1,7-2,7.8,7.8,0,0,1,6.21,2.43q2.15,2.43,2.14,7.94v27.44h7V113.5a20.19,20.19,0,0,0-1.1-7.11,12.46,12.46,0,0,0-3-4.7,11.41,11.41,0,0,0-4.44-2.6,19.2,19.2,0,0,0-10-.27,16.26,16.26,0,0,0-3.84,1.51,16.49,16.49,0,0,0-3.16,2.24,22.51,22.51,0,0,0-2.59,2.76h-.13Zm73.29,27.91a15.84,15.84,0,0,1-2.41,5.3,11,11,0,0,1-3.95,3.44,11.73,11.73,0,0,1-5.45,1.21,11.2,11.2,0,0,1-3.79-.61,14.83,14.83,0,0,1-3.13-1.48,13,13,0,0,1-2.4-1.89,15.84,15.84,0,0,1-1.64-1.86V109.1a18.4,18.4,0,0,1,5-3.5,14,14,0,0,1,6.09-1.35,13.84,13.84,0,0,1,4.22.68,10.36,10.36,0,0,1,4,2.44,13.2,13.2,0,0,1,3.05,4.94,24.16,24.16,0,0,1,1.19,8.24,26.49,26.49,0,0,1-.81,6.76M338,112.4a21.88,21.88,0,0,0-2.29-5.7,16.42,16.42,0,0,0-3.32-4,18.82,18.82,0,0,0-3.94-2.61,17,17,0,0,0-4.13-1.39,21.22,21.22,0,0,0-3.88-.4,17,17,0,0,0-7,1.35,16.2,16.2,0,0,0-5.35,3.77H308V77h-7v65h5.25l1.48-4.76H308a12.08,12.08,0,0,0,1.24,1.58,12.27,12.27,0,0,0,2.33,2,15,15,0,0,0,3.55,1.66,15.38,15.38,0,0,0,4.83.69,18.41,18.41,0,0,0,7-1.39,16.88,16.88,0,0,0,6.07-4.24,21.44,21.44,0,0,0,4.27-7.21A29.86,29.86,0,0,0,338.89,120a30.54,30.54,0,0,0-.85-7.62m37.58,29.66h5.84V113.6a23.39,23.39,0,0,0-.29-3.8,12,12,0,0,0-1-3.17,13.66,13.66,0,0,0-5.9-6.06,21.68,21.68,0,0,0-10.58-2.29c-1.19,0-2.39.06-3.59.18a31.66,31.66,0,0,0-3.41.52,27.13,27.13,0,0,0-3.08.81,17.79,17.79,0,0,0-2.53,1v5.84a38.3,38.3,0,0,1,5.68-1.68,29.42,29.42,0,0,1,6.08-.61,14.29,14.29,0,0,1,6.92,1.42,9.14,9.14,0,0,1,3.73,3.57,8.21,8.21,0,0,1,.76,2.38,20.13,20.13,0,0,1,.22,3.1v3h-.17a32.69,32.69,0,0,0-5-1.35,35.5,35.5,0,0,0-6.15-.58,20.53,20.53,0,0,0-6.4.94,14.7,14.7,0,0,0-5,2.69,12.15,12.15,0,0,0-3.22,4.27,13.68,13.68,0,0,0-1.14,5.7,15.37,15.37,0,0,0,1,5.8,12,12,0,0,0,2.9,4.33,12.33,12.33,0,0,0,4.44,2.7,16.88,16.88,0,0,0,5.68.91,18.13,18.13,0,0,0,4.31-.49,18.53,18.53,0,0,0,3.72-1.32,15.75,15.75,0,0,0,3-1.88,13.68,13.68,0,0,0,2.16-2.14h.18Zm-1.12-10.19c-.33.33-.84.79-1.54,1.39a18.74,18.74,0,0,1-2.55,1.8,18,18,0,0,1-3.42,1.55,13,13,0,0,1-4.16.65,10.7,10.7,0,0,1-3.19-.47,7.24,7.24,0,0,1-2.6-1.44,6.77,6.77,0,0,1-1.72-2.45,8.94,8.94,0,0,1-.63-3.46,6.79,6.79,0,0,1,2.51-5.79,11.34,11.34,0,0,1,6.93-1.89,34.24,34.24,0,0,1,5.81.55c1.76.32,3.28.67,4.56,1ZM400.32,99.4h-5.39v42.66h7V111.75a18.58,18.58,0,0,1,5.8-5.5,13.46,13.46,0,0,1,7-2,7.85,7.85,0,0,1,6.22,2.43q2.13,2.43,2.13,7.94v27.44h7V113.5a20.19,20.19,0,0,0-1.1-7.11,12.46,12.46,0,0,0-3-4.7,11.31,11.31,0,0,0-4.45-2.6,18,18,0,0,0-5.47-.81,18.22,18.22,0,0,0-4.56.54,16.26,16.26,0,0,0-3.84,1.51,16.49,16.49,0,0,0-3.16,2.24,21,21,0,0,0-2.58,2.76h-.14Z"/><path class="cls-4" d="M112.14,103.17a4,4,0,1,0,4,4,4,4,0,0,0-4-4"/><path class="cls-4" d="M109.75,112.82a4.44,4.44,0,1,0,2.35,5.82,4.43,4.43,0,0,0-2.35-5.82"/><path class="cls-4" d="M103.1,121.64a4.94,4.94,0,1,0-.12,7,4.93,4.93,0,0,0,.12-7"/><path class="cls-4" d="M92.48,127.79a5.49,5.49,0,1,0-3.16,7.09,5.49,5.49,0,0,0,3.16-7.09"/><path class="cls-4" d="M78.94,129.46a6.1,6.1,0,1,0-6.31,5.89,6.11,6.11,0,0,0,6.31-5.89"/><path class="cls-4" d="M64.37,125.3a6.78,6.78,0,1,0-9,3.27,6.79,6.79,0,0,0,9-3.27"/><path class="cls-4" d="M123.75,111.26a.81.81,0,0,0,.59.1.66.66,0,0,0,.41-.34l0-.43a9.84,9.84,0,0,0-.43-1.76c-.26-.85-.44-1.49-.55-1.93l-2.34-9.76-.82-4-.07-.5-.09-.31a58.53,58.53,0,0,0-5.84,2q-5.7,2-9.82,3.16c-1,.3-1.74.51-2.15.65a1.35,1.35,0,0,0-.74.4.71.71,0,0,0-.06.52.72.72,0,0,0,.36.45c.54.3,2.1.28,4.69,0,1.63-.21,5.09-.77,10.36-1.66,1,2.32,2,4.76,3.15,7.32,1.76,3.91,2.86,6,3.3,6.23"/><path class="cls-3" d="M26.24,125.32a4,4,0,1,0-4-4,4,4,0,0,0,4,4"/><path class="cls-3" d="M28.64,115.68a4.45,4.45,0,1,0-2.36-5.83,4.43,4.43,0,0,0,2.36,5.83"/><path class="cls-3" d="M35.28,106.85a4.94,4.94,0,1,0,.12-7,4.94,4.94,0,0,0-.12,7"/><path class="cls-3" d="M45.9,100.7a5.49,5.49,0,1,0,3.16-7.09,5.5,5.5,0,0,0-3.16,7.09"/><path class="cls-3" d="M59.44,99a6.1,6.1,0,1,0,6.31-5.88A6.1,6.1,0,0,0,59.44,99"/><path class="cls-3" d="M74,103.19a6.77,6.77,0,1,0,9-3.27,6.76,6.76,0,0,0-9,3.27"/><path class="cls-3" d="M35.78,129a.79.79,0,0,1,.36.48.65.65,0,0,1-.1.52l-.36.25a11,11,0,0,1-1.75.44c-.88.17-1.53.31-2,.42l-9.7,2.52-4,1.18-.46.17-.33.07c-.09-.06-.42-2.09-1-6.08s-1.19-7.38-1.81-10.15c-.22-1-.37-1.78-.45-2.21a1.34,1.34,0,0,1,0-.84.66.66,0,0,1,.43-.3.73.73,0,0,1,.56.11q.78.51,2.15,4.17.89,2.31,3.41,9.92,3.72-.37,7.94-.66,6.4-.42,7.05,0"/></g></svg>