<svg xmlns="http://www.w3.org/2000/svg" viewBox="0 0 623.62 255.12"><defs><style>.cls-1{fill:#fff;}.cls-2{fill:#fc6c4f;}.cls-3{fill:#abb2b1;}</style></defs><title>musement</title><g id="BG"><rect class="cls-1" width="623.62" height="255.12"/></g><g id="Logo"><path class="cls-2" d="M100.15,105.89A20.28,20.28,0,0,0,65.54,90.7l-8.36,8.36L48.81,90.7a20.32,20.32,0,0,0-28.74,28.73L57.3,156.64l37-37.21a20.19,20.19,0,0,0,5.88-13.54"/><path class="cls-3" d="M205.26,108.63a13.83,13.83,0,0,0-5.4-4.6,19,19,0,0,0-8.42-1.68,19.32,19.32,0,0,0-9.28,2,16.5,16.5,0,0,0-6.43,6.83,13.55,13.55,0,0,0-6.07-6.73,19.31,19.31,0,0,0-9.23-2.14,17.66,17.66,0,0,0-5.1.71,18,18,0,0,0-4.18,1.84,15,15,0,0,0-3.16,2.55,13.05,13.05,0,0,0-2.05,2.86h-.19v-6.73h-14.7v49.57h15.3V128.47a35.45,35.45,0,0,1,.31-4.7,11.49,11.49,0,0,1,1.28-4,7.26,7.26,0,0,1,2.8-2.86,9.47,9.47,0,0,1,4.79-1.07,5.92,5.92,0,0,1,4,1.23,7.1,7.1,0,0,1,2,3,12.32,12.32,0,0,1,.71,3.67c.07,1.29.11,2.38.11,3.26v26.22h15.3V126.93a19.23,19.23,0,0,1,.46-4.28,9.76,9.76,0,0,1,1.53-3.57,7.32,7.32,0,0,1,2.86-2.4,10.19,10.19,0,0,1,4.43-.87c2.52,0,4.27.84,5.25,2.5a11.5,11.5,0,0,1,1.48,6v28.87H209V123.88a39.51,39.51,0,0,0-.86-8.42,19.23,19.23,0,0,0-2.86-6.83"/><path class="cls-3" d="M250.2,128.26a33.69,33.69,0,0,1-.31,4.69,11.7,11.7,0,0,1-1.28,4,7.32,7.32,0,0,1-2.8,2.86,9.51,9.51,0,0,1-4.8,1.07,6.63,6.63,0,0,1-6.89-4.39,14.21,14.21,0,0,1-.91-4.23q-.15-2.29-.15-4.44V103.58h-15.3v27.33a61,61,0,0,0,.66,9.28,19.31,19.31,0,0,0,2.66,7.45,13.45,13.45,0,0,0,5.6,5,21.59,21.59,0,0,0,9.44,1.78,17.71,17.71,0,0,0,5.1-.71,18.58,18.58,0,0,0,4.18-1.83,13.51,13.51,0,0,0,3.11-2.56,16.68,16.68,0,0,0,2.09-2.85h.21v6.73H265.5V103.58H250.2Z"/><path class="cls-3" d="M307,126.12a23.4,23.4,0,0,0-6.23-2.4l-6.22-1.43a24.41,24.41,0,0,1-4.79-1.53,2.83,2.83,0,0,1-1.89-2.7,3.24,3.24,0,0,1,1.84-3.16,8.35,8.35,0,0,1,3.77-.92,10.82,10.82,0,0,1,8.87,4.18l9.39-9.28a18.38,18.38,0,0,0-8.47-5.1,36,36,0,0,0-9.89-1.43,30.45,30.45,0,0,0-7.65,1,20.27,20.27,0,0,0-6.68,3,15.77,15.77,0,0,0-4.7,5.2,15.11,15.11,0,0,0-1.78,7.55,13.22,13.22,0,0,0,1.89,7.5,13,13,0,0,0,4.79,4.33,25.3,25.3,0,0,0,6.22,2.29l6.22,1.43a20.89,20.89,0,0,1,4.8,1.64,3.1,3.1,0,0,1,1.88,2.9,2.82,2.82,0,0,1-2.14,2.81,14.16,14.16,0,0,1-4.79.76,12.76,12.76,0,0,1-6.07-1.37,15.46,15.46,0,0,1-4.74-4l-9.29,10.3a19.64,19.64,0,0,0,9,5.26,39.19,39.19,0,0,0,10.51,1.47,43.68,43.68,0,0,0,8.06-.76,22.93,22.93,0,0,0,7.33-2.65,16.1,16.1,0,0,0,5.37-5,13.88,13.88,0,0,0,2.08-7.9,13.23,13.23,0,0,0-1.88-7.5,14,14,0,0,0-4.79-4.43"/><path class="cls-3" d="M450.17,108.63a13.94,13.94,0,0,0-5.41-4.6,19,19,0,0,0-8.41-1.68,19.27,19.27,0,0,0-9.28,2,16.52,16.52,0,0,0-6.44,6.83,13.58,13.58,0,0,0-6.06-6.73,19.38,19.38,0,0,0-9.24-2.14,17.59,17.59,0,0,0-5.09.71,18,18,0,0,0-4.19,1.84,15,15,0,0,0-3.16,2.55,12.66,12.66,0,0,0-2,2.86h-.2v-6.73H376v49.57h15.3V128.47a35.48,35.48,0,0,1,.3-4.7,11.7,11.7,0,0,1,1.28-4,7.39,7.39,0,0,1,2.8-2.86,9.49,9.49,0,0,1,4.79-1.07,5.9,5.9,0,0,1,4,1.23,7,7,0,0,1,2,3,12.65,12.65,0,0,1,.72,3.67c.06,1.29.11,2.38.11,3.26v26.22h15.29V126.93a19.84,19.84,0,0,1,.46-4.28,9.93,9.93,0,0,1,1.53-3.57,7.39,7.39,0,0,1,2.86-2.4,10.22,10.22,0,0,1,4.43-.87c2.52,0,4.27.84,5.26,2.5a11.5,11.5,0,0,1,1.48,6v28.87h15.3V123.88a38.86,38.86,0,0,0-.87-8.42,19.22,19.22,0,0,0-2.85-6.83"/><path class="cls-3" d="M563.49,109.08a13.8,13.8,0,0,0-5.56-5,21.23,21.23,0,0,0-9.39-1.78,17.71,17.71,0,0,0-5.1.71,18,18,0,0,0-4.18,1.84,15,15,0,0,0-3.16,2.55,12.66,12.66,0,0,0-2,2.86h-.2v-6.74h-14.7v49.58h15.3V128.46a35.41,35.41,0,0,1,.31-4.69,11.77,11.77,0,0,1,1.28-4,7.23,7.23,0,0,1,2.8-2.85,9.39,9.39,0,0,1,4.79-1.08,6.6,6.6,0,0,1,6.89,4.39,13.91,13.91,0,0,1,.92,4.23c.1,1.53.16,3,.16,4.44v24.28H566.9V125.81a57.17,57.17,0,0,0-.71-9.28,20,20,0,0,0-2.7-7.45"/><path class="cls-3" d="M609.45,115.81V103.58H596V88.89H580.67v14.69h-9.78v12.23h9.78v23.57a15.94,15.94,0,0,0,1.38,6.93,12.2,12.2,0,0,0,3.83,4.65,16.4,16.4,0,0,0,5.71,2.59,29.1,29.1,0,0,0,7.14.82,50,50,0,0,0,5.41-.3,23.06,23.06,0,0,0,5.31-1.23V140.09a5.52,5.52,0,0,1-3,1.18,28.41,28.41,0,0,1-3.21.25,9.77,9.77,0,0,1-3.93-.66A4.65,4.65,0,0,1,597.1,139a7.39,7.39,0,0,1-.92-2.91,32.37,32.37,0,0,1-.2-3.72V115.81Z"/><path class="cls-3" d="M368.65,126.64a25.39,25.39,0,0,0-50.72,1.12c0,.18,0,.36,0,.54v.06a25.93,25.93,0,0,0,2.15,10.71,24.39,24.39,0,0,0,5.86,8.21,26,26,0,0,0,8.77,5.26,31.38,31.38,0,0,0,10.76,1.83,27.86,27.86,0,0,0,11.64-2.55,24.47,24.47,0,0,0,9.28-7.24l-2.28-1.67-8.43-6.19a17.12,17.12,0,0,1-4.54,4.34,11.53,11.53,0,0,1-6.38,1.68,11.23,11.23,0,0,1-7.55-2.6,12.14,12.14,0,0,1-4-7h35.5V128.3c0-.55,0-1.11-.07-1.66m-35.43-3.89a9.85,9.85,0,0,1,.87-3.52,9.42,9.42,0,0,1,2.14-3,11.32,11.32,0,0,1,3.32-2.09,11.57,11.57,0,0,1,4.49-.82,9.1,9.1,0,0,1,6.83,2.76,8.89,8.89,0,0,1,2.55,6.63Z"/><path class="cls-3" d="M511.86,126.64a25.39,25.39,0,0,0-50.72,1.12c0,.18,0,.36,0,.54v.06a25.93,25.93,0,0,0,2.15,10.71,24.39,24.39,0,0,0,5.86,8.21,26,26,0,0,0,8.77,5.26,31.38,31.38,0,0,0,10.76,1.83,27.86,27.86,0,0,0,11.64-2.55,24.36,24.36,0,0,0,9.27-7.24l-2.28-1.67-8.42-6.19a17.12,17.12,0,0,1-4.54,4.34,11.53,11.53,0,0,1-6.38,1.68,11.21,11.21,0,0,1-7.55-2.6,12.14,12.14,0,0,1-4-7h35.5V128.3c0-.55,0-1.11-.07-1.66m-35.43-3.89a9.85,9.85,0,0,1,.87-3.52,9.15,9.15,0,0,1,2.15-3,11.13,11.13,0,0,1,3.31-2.09,11.55,11.55,0,0,1,4.48-.82,9.11,9.11,0,0,1,6.84,2.76,8.85,8.85,0,0,1,2.55,6.63Z"/><path class="cls-3" d="M61.89,160.78l3.72,3.72A20.34,20.34,0,0,0,100.25,150V122.17Z"/><path class="cls-3" d="M14.25,122.17V150A20.34,20.34,0,0,0,48.9,164.49l3.72-3.71Z"/></g></svg>