<svg xmlns="http://www.w3.org/2000/svg" viewBox="0 0 623.62 255.12"><defs><style>.cls-1{fill:#fff;}.cls-2{fill:#ee372d;}</style></defs><title>rds</title><g id="BG"><rect class="cls-1" width="623.62" height="255.12"/></g><g id="Logo"><g id="Logo-2" data-name="Logo"><path class="cls-2" d="M505.46,40.81v.8a7.22,7.22,0,0,0-.4,1q-2.81,16-5.63,32-3.1,17.69-6.23,35.32-2.32,13-4.64,26l-4,22.7L480,184.89q-2.06,11.67-4.14,23.48c-1.5,8.54-3,17.07-4.53,25.62-.38,2.19-.65,4.4-1,6.67H282.8c.93-5.15,1.88-10.3,2.88-15.72H118.16v-.45a2.35,2.35,0,0,0,.3-.48q1.83-10.37,3.63-20.77l4.5-26.09q2.05-11.65,4.12-23.33,2.28-13,4.53-26c1.5-8.54,3-17.07,4.53-25.6q2.32-13.18,4.64-26.39,2.25-12.9,4.51-25.8c.54-3,1.09-6.05,1.67-9.23h24V185.56h26.58V144.87c0-6.78-.1-13.47,0-20.2h8.44q7.41,30.58,14.81,61c5.09.37,26.9.2,28.44-.23l-19.77-67.07c.35-.27.6-.47.87-.65a35,35,0,0,0,12.55-16.57A59.4,59.4,0,0,0,249.83,86a87.21,87.21,0,0,0-.6-23.16,48,48,0,0,0-10.47-23.53,23,23,0,0,0-12.16-7.72,30.62,30.62,0,0,0-5.62-1c-4.47-.28-8.93-.48-13.34-.52H177a15.32,15.32,0,0,1,0-1.66c.55-3.1,1.19-6.19,1.67-9.29.27-1.53.38-3.1.57-4.65H426c-.18,1.37-.32,2.73-.57,4.08-1.21,6.86-2.48,13.69-3.7,20.54a11.43,11.43,0,0,0,0,1.85h67.49C494.7,40.86,500.08,40.83,505.46,40.81ZM261.88,30c-.36,3.5-.21,154.19.17,155.76h33.48a64,64,0,0,0,8.07-.43,33.55,33.55,0,0,0,23.2-12.76,70.14,70.14,0,0,0,12.45-26.78,161.36,161.36,0,0,0,4.2-35.77,211.25,211.25,0,0,0-.95-23.33,111.82,111.82,0,0,0-5.68-26.52,48.93,48.93,0,0,0-9.75-17,36,36,0,0,0-21-12,90.53,90.53,0,0,0-15.5-1.33H263.73C263.15,29.91,262.57,30,261.88,30ZM422.33,63.61c-.17-.78-.25-1.43-.44-2-1.05-3.18-2.06-6.38-3.16-9.53a41.05,41.05,0,0,0-11-16.44,25.73,25.73,0,0,0-8.8-5.48,35,35,0,0,0-9.6-2.08,30,30,0,0,0-23.08,7.11,40.12,40.12,0,0,0-10.74,14.7,62.56,62.56,0,0,0-3,41.86,39.56,39.56,0,0,0,16.67,23.61c2.8,1.87,5.58,3.74,8.43,5.49,3.34,2,6.67,3.88,10,5.88,4,2.39,7.39,5.32,8.92,9.9a22.65,22.65,0,0,1-.08,14.92,11.91,11.91,0,0,1-6.82,7.75,15.25,15.25,0,0,1-9.3.55,13,13,0,0,1-8.33-7,39.43,39.43,0,0,1-3.5-9.38c-.5-1.95-.94-3.93-1.42-6.07l-21.54,8.89a87.18,87.18,0,0,0,5,19.06,37.54,37.54,0,0,0,5.19,9.27,31,31,0,0,0,17,12.14,44,44,0,0,0,22.05.25,33.8,33.8,0,0,0,20-13.56,42.25,42.25,0,0,0,5.84-11.15,68.59,68.59,0,0,0,2-38.47,39.15,39.15,0,0,0-14.77-22.9,69.4,69.4,0,0,0-9.45-6.08,138.81,138.81,0,0,1-15.95-9.42,15,15,0,0,1-6.67-11.57,23.35,23.35,0,0,1,2.14-12.45,10.44,10.44,0,0,1,11.83-5.26,12.45,12.45,0,0,1,8.33,6.23,32.12,32.12,0,0,1,3.34,8.22c.3,1.11.61,2.23,1,3.5ZM278.8,193.41v20h3.62V203.29h.23l2.83,10.2h4.29V193.66h-3.62v5.28a21.15,21.15,0,0,1-.15,4.9l-2.95-10.3Zm14.35-.15v20.15h6c3.2-.12,4.65-1.42,5-4.64a43.45,43.45,0,0,0,0-10.81,1.87,1.87,0,0,0-.11-.77,4.21,4.21,0,0,0-3.94-3.58c-2.21-.24-4.51-.24-6.93-.35Zm41.09.18a2.8,2.8,0,0,0-.17.63v14.22a8.33,8.33,0,0,0,.42,2.32,4.15,4.15,0,0,0,3.8,3.21,10.87,10.87,0,0,0,2.55,0,4.51,4.51,0,0,0,4.26-4.16,21,21,0,0,0,.24-2.95V195a8.56,8.56,0,0,0-.12-1.67h-4v13.3A14.19,14.19,0,0,1,341,209a1.13,1.13,0,0,1-1.22,1h0a1.22,1.22,0,0,1-1.19-1.14,18.43,18.43,0,0,1-.16-2.35V194.91c0-.52-.09-1-.12-1.59Zm-83-.18v20h4.09v-7.74c2.15-.1,2.56.2,2.7,2v3a28.15,28.15,0,0,0,.31,2.88,21.26,21.26,0,0,0,4.44-.11c-.17-1.67-.42-3.14-.45-4.62a6.66,6.66,0,0,0-1.87-5.27,6.41,6.41,0,0,0,1.79-6.56,3.61,3.61,0,0,0-3.26-3.24c-2.51-.18-5.06-.2-7.75-.31Zm-7.05,13c-.13,1.05-.2,2-.38,2.85a1.26,1.26,0,0,1-1.37,1.12h0a1.2,1.2,0,0,1-1.13-1.16,10.41,10.41,0,0,1-.22-1.57v-7.88a9.1,9.1,0,0,1,.3-2c.15-.65.62-1.12,1.27-.94a1.76,1.76,0,0,1,1.05,1,12.23,12.23,0,0,1,.41,2.33h3.8a7.49,7.49,0,0,0-.46-4.13,4.3,4.3,0,0,0-3.34-2.8,5.36,5.36,0,0,0-6.79,3.38,5.3,5.3,0,0,0-.27,1.47,76.87,76.87,0,0,0-.24,8.85,12.31,12.31,0,0,0,.77,4,4.37,4.37,0,0,0,5,2.92,10.91,10.91,0,0,0,2.4-.92c.88,1.07,2,.59,3,.6a53.17,53.17,0,0,0,0-10.85h-5.49v3.34Zm-49.23-2.72c-.15-2-.19-4.18-.54-6.3a5.22,5.22,0,0,0-10.1-.12,41.3,41.3,0,0,0,0,12.94,4.7,4.7,0,0,0,5.22,3.81,4.63,4.63,0,0,0,5-4.1C194.63,207.82,194.69,205.72,194.93,203.54Zm13.06,0c-.18-2.07-.23-4.23-.56-6.35a4.35,4.35,0,0,0-3.44-3.65,5,5,0,0,0-6.44,2.91,4.91,4.91,0,0,0-.32,1.61c-.24,3.33-.12,6.8-.12,10.21a7.86,7.86,0,0,0,.23,1.94,4.83,4.83,0,0,0,5.3,3.71,4.61,4.61,0,0,0,4.84-4c.2-2.1.25-4.23.43-6.43ZM356,205.81c-.1,1.05-.15,2-.32,3a1.45,1.45,0,0,1-1.4,1.4,1.49,1.49,0,0,1-1.52-1.5,44.38,44.38,0,0,1,0-10.43,1.45,1.45,0,0,1,1.35-1.45c.8-.09,1.34.36,1.67,1.4a18,18,0,0,1,.33,2.06h4.15a34.14,34.14,0,0,0-.81-4,4.54,4.54,0,0,0-3.34-3.06c-4.13-1.09-7.35,1-7.61,5.3-.2,3.33,0,6.66,0,10a5.91,5.91,0,0,0,.3,1.55,6,6,0,0,0,7.8,3.39,5.83,5.83,0,0,0,1.63-1,4.21,4.21,0,0,0,.82-1.1,9.76,9.76,0,0,0,.86-5.63Zm-88-12.34-3.88,19.92h4.15l.58-3.55H272l.64,3.6a16.09,16.09,0,0,0,4.16,0L273,193.52Zm106.67,12.34h-4.23a15.3,15.3,0,0,1-.2,2.25c-.2,1.5-.68,2.15-1.57,2.15s-1.46-.62-1.53-2.15c-.12-3,0-6,0-9a4.68,4.68,0,0,1,.17-1,1.39,1.39,0,0,1,1.33-1.23,1.42,1.42,0,0,1,1.52,1.25c.18.75.31,1.5.46,2.26h3.8a7.16,7.16,0,0,0-.73-4.45,6,6,0,0,0-1.95-2.13,5.69,5.69,0,0,0-8.75,4.2,46.44,46.44,0,0,0,0,10.8c.35,3.72,3.08,5.7,6.92,5.17a4.65,4.65,0,0,0,4.28-3.74c.18-1.38.23-2.75.45-4.41Zm-53.88.95a20.19,20.19,0,0,0,0,2.91A4.8,4.8,0,0,0,326,214a5,5,0,0,0,5.34-4.25c.56-3.22,0-6-3-7.89a22.2,22.2,0,0,1-2.5-1.93,2.26,2.26,0,0,1-.86-2.12,1.25,1.25,0,0,1,1.15-1.38,1.23,1.23,0,0,1,1.28,1,17.59,17.59,0,0,1,.33,1.76h3.8a20.9,20.9,0,0,0-.43-3,4.64,4.64,0,0,0-4.8-3.34,4.72,4.72,0,0,0-4.87,3,6.86,6.86,0,0,0,1.79,7.74c1,.75,2,1.53,2.95,2.31a3.16,3.16,0,0,1,1.38,2.49c0,1-.48,1.66-1.23,1.76s-1.37-.38-1.55-1.41c-.12-.69-.17-1.39-.25-2.09Zm68.57,0a30.17,30.17,0,0,0,.46,3.53,4.63,4.63,0,0,0,5,3.68,5,5,0,0,0,5.24-3.33,7.22,7.22,0,0,0-2.57-8.57c-.63-.48-1.3-.9-1.92-1.4a4.57,4.57,0,0,1-1.25-1.23,4,4,0,0,1-.45-1.83,1.06,1.06,0,0,1,1-1.09H395a1.84,1.84,0,0,1,1.15.89,7.76,7.76,0,0,1,.5,1.83h3.65a8.36,8.36,0,0,0-.13-1.88,4.71,4.71,0,0,0-5-4.41h-.13a4.81,4.81,0,0,0-5.15,4.41,6.48,6.48,0,0,0,2.53,6.67c1,.7,1.9,1.43,2.8,2.2a2.81,2.81,0,0,1,1.1,2.78c-.13.7-.45,1.25-1.25,1.3a1.26,1.26,0,0,1-1.38-1.14h0c-.15-.75-.25-1.51-.37-2.33Zm12.88,0a30.94,30.94,0,0,0,.28,3.33,4.67,4.67,0,0,0,4.79,3.88,5,5,0,0,0,5.43-3.33,7.09,7.09,0,0,0-2.5-8.57c-.68-.53-1.42-1-2.07-1.53a5.62,5.62,0,0,1-1.33-1.42,2.39,2.39,0,0,1-.2-1.66,1.48,1.48,0,0,1,1.05-1,1.53,1.53,0,0,1,1.15.8,7,7,0,0,1,.5,1.86h3.83c-.18-1.08-.23-2-.46-2.86a4.68,4.68,0,0,0-4.77-3.34,4.77,4.77,0,0,0-5,3.1,6.67,6.67,0,0,0,1.92,7.69c1,.75,2,1.51,2.93,2.31a3.05,3.05,0,0,1,1.32,2.72,1.47,1.47,0,0,1-1.3,1.5c-.75.08-1.25-.35-1.44-1.3-.15-.7-.2-1.42-.3-2.2ZM381.81,201v-3.67h5.38v-3.8h-9.5a193.68,193.68,0,0,0,.12,19.87h9.43v-4h-5.47V205h5v-4.07ZM440.14,82.73A10.2,10.2,0,1,0,430,72.54,10.2,10.2,0,0,0,440.14,82.73ZM180.29,213.37a185.34,185.34,0,0,0-.15-20H178a14,14,0,0,1-2.32,2.49,11.76,11.76,0,0,1-2.83.88v2.75l3.45.15v13.68Zm235.42-20v19.9h4.1V193.44ZM311.4,213.29V193.46h-4v20h3a8.26,8.26,0,0,0,1-.1Zm-93.62-15a21.2,21.2,0,0,0-.38-2.62,3.34,3.34,0,0,0-3.77-2.43,3.21,3.21,0,0,0-3.43,2.62,11.16,11.16,0,0,0,0,4.88,3.33,3.33,0,0,0,3.61,3h.1a3.34,3.34,0,0,0,3.72-2.9s0-.08,0-.12c0-.67,0-1.4.13-2.42Zm2.15,9.85a10.89,10.89,0,0,0,.17,2.52,4.44,4.44,0,0,0,.33,1.13c.58,1.48,1.67,2.07,3.63,2a3.09,3.09,0,0,0,3.34-2.19,10.22,10.22,0,0,0,0-6c-.47-1.55-1.67-2.21-3.52-2.21s-3,.6-3.52,2.2A16.72,16.72,0,0,0,219.93,208.14Zm-4.13,5.58c2.81-6.66,5.61-13.5,8.48-20.4H222c-2.82,6.67-5.68,13.47-8.5,20.4Z"/><path class="cls-1" d="M261.88,30h1.85c8.95,0,17.89-.08,26.84,0a91.55,91.55,0,0,1,15.5,1.33,36.08,36.08,0,0,1,21,12,49,49,0,0,1,9.75,17A111.93,111.93,0,0,1,342.5,86.8a208.83,208.83,0,0,1,.95,23.33,161.29,161.29,0,0,1-4.2,35.77,70.25,70.25,0,0,1-12.45,26.79,33.54,33.54,0,0,1-23.2,12.75,62.16,62.16,0,0,1-8.07.43H262.05C261.6,184.17,261.6,33.48,261.88,30Zm26.5,26.93c0,.67-.1,1-.1,1.3V158c0,49.92,0,.11.1.16l.27.22c2.25,0,4.62-.1,7,0a22.18,22.18,0,0,0,7.91-1.33A9.66,9.66,0,0,0,308,154a16.14,16.14,0,0,0,3.45-6.67,59.94,59.94,0,0,0,1.58-8.72c.64-7.33,1.27-14.68,1.47-22,.2-8,0-16-.22-24a114.89,114.89,0,0,0-1.66-16.87A42.07,42.07,0,0,0,309.18,64a11.2,11.2,0,0,0-8.95-6.67C296.48,57,292.52,57.06,288.38,56.91Z"/><path class="cls-1" d="M174.58,40.86c.55-2.76,1-5.51,1.66-8.33a22.37,22.37,0,0,1,.84-2.55h30.6c4.47,0,8.93.23,13.33.52a30.62,30.62,0,0,1,5.62,1,23,23,0,0,1,12.1,7.72,47.88,47.88,0,0,1,10.5,23.61A87.16,87.16,0,0,1,249.78,86a59.4,59.4,0,0,1-3.33,15.18,35,35,0,0,1-12.55,16.57c-.27.18-.52.38-.87.65l19.9,67c-1.53.43-23.33.6-28.43.23q-7.41-30.4-14.82-61h-8.44c-.16,6.67,0,13.47,0,20.2v40.77H174.63V44.21C174.63,43.1,174.59,42,174.58,40.86Zm26.66,57.92c3.34,0,6.47.22,9.61,0a11,11,0,0,0,9.16-6,23.32,23.32,0,0,0,2-5,46.81,46.81,0,0,0,1-18,31.07,31.07,0,0,0-1.67-7,12.15,12.15,0,0,0-12-8.33h-6.67a9.86,9.86,0,0,0-1.33.16Z"/><path class="cls-1" d="M422.33,63.61,402.22,74.08c-.35-1.27-.66-2.38-1-3.5a32.27,32.27,0,0,0-3.34-8.22,12.48,12.48,0,0,0-8.33-6.23,10.46,10.46,0,0,0-11.87,5.28,23.34,23.34,0,0,0-2.13,12.45,15,15,0,0,0,6.67,11.57,138.81,138.81,0,0,0,15.95,9.42,69.4,69.4,0,0,1,9.45,6.08,39.15,39.15,0,0,1,14.77,22.9,68.68,68.68,0,0,1-2,38.47,42.22,42.22,0,0,1-5.83,11.15,33.8,33.8,0,0,1-20,13.56,44,44,0,0,1-22.05-.25,31,31,0,0,1-17-12.14,37.83,37.83,0,0,1-5.18-9.27,87.18,87.18,0,0,1-5-19.06l21.54-8.89c.48,2.14.91,4.12,1.41,6.07a40.31,40.31,0,0,0,3.5,9.38,13,13,0,0,0,8.34,7,15.25,15.25,0,0,0,9.3-.55,11.87,11.87,0,0,0,6.81-7.75,22.71,22.71,0,0,0,.09-14.92c-1.54-4.58-5-7.51-8.92-9.9-3.33-2-6.67-3.85-10-5.88-2.85-1.67-5.63-3.62-8.43-5.49a39.56,39.56,0,0,1-16.67-23.61,62.44,62.44,0,0,1,3-41.86,39.89,39.89,0,0,1,10.74-14.7,30,30,0,0,1,23.08-7.11,35.14,35.14,0,0,1,9.6,2.08,25.73,25.73,0,0,1,8.8,5.48,41.13,41.13,0,0,1,11,16.44c1.1,3.15,2.12,6.35,3.17,9.53A6,6,0,0,1,422.33,63.61Z"/><path class="cls-1" d="M278.8,193.41h4.27l2.95,10.3a21.16,21.16,0,0,0,.15-4.9v-5.29h3.61v19.84H285.5l-2.83-10.2h-.24v10.11h-3.61Z"/><path class="cls-1" d="M293.15,193.26c2.42.11,4.72.11,7,.33a4.22,4.22,0,0,1,3.94,3.58,1.87,1.87,0,0,0,.11.77,43.53,43.53,0,0,1,0,10.82c-.4,3.21-1.85,4.51-5,4.63h-6Zm4.28,4.08v12.33c1.87,0,2.54-.3,2.6-1.88.12-2.88.12-5.78,0-8.67-.1-1.55-.73-1.91-2.6-1.78Z"/><path class="cls-1" d="M334.24,193.44h4c0,.57.1,1.07.12,1.58v11.67a18.43,18.43,0,0,0,.16,2.35,1.2,1.2,0,0,0,1.19,1.13,1.13,1.13,0,0,0,1.23-1h0a14.19,14.19,0,0,0,.25-2.35v-13.3h4c0,.6.12,1.12.12,1.67v11.66a20.71,20.71,0,0,1-.24,3,4.51,4.51,0,0,1-4.26,4.17,12.08,12.08,0,0,1-2.55,0,4.15,4.15,0,0,1-3.8-3.22,8.33,8.33,0,0,1-.42-2.31V194.19A2.73,2.73,0,0,1,334.24,193.44Z"/><path class="cls-1" d="M251.21,193.26c2.69.11,5.24.13,7.77.36a3.6,3.6,0,0,1,3.25,3.24,6.4,6.4,0,0,1-1.78,6.56,6.73,6.73,0,0,1,1.87,5.27c0,1.48.28,3,.45,4.62a21.26,21.26,0,0,1-4.44.11c-.1-1-.25-1.93-.32-2.88s0-2,0-2.95c-.13-1.82-.55-2.12-2.7-2v7.74h-4.1Zm4.15,3.68v4.72c2.15,0,2.82-.62,2.8-2.42S257.56,197,255.36,196.94Z"/><path class="cls-1" d="M244.16,206.26l-1.66-.44v-3.33h5.35a53.17,53.17,0,0,1,0,10.85c-1,0-2.14.47-3-.6a11.1,11.1,0,0,1-2.28.95,4.36,4.36,0,0,1-5-2.92,12.31,12.31,0,0,1-.77-4,79.19,79.19,0,0,1,.23-8.85,5.37,5.37,0,0,1,5.6-5.12,5.23,5.23,0,0,1,1.47.27,4.28,4.28,0,0,1,3.33,2.8,7.4,7.4,0,0,1,.47,4.13h-3.82a12.23,12.23,0,0,0-.41-2.33,1.76,1.76,0,0,0-1.05-1c-.65-.18-1.12.29-1.27.94a9.1,9.1,0,0,0-.3,1.95v7.88a10.41,10.41,0,0,0,.22,1.57,1.2,1.2,0,0,0,1.13,1.16,1.25,1.25,0,0,0,1.4-1.08v0C244,208.22,244,207.31,244.16,206.26Z"/><path class="cls-1" d="M194.93,203.54c-.15,2.18-.22,4.22-.49,6.23a4.62,4.62,0,0,1-5,4.1,4.69,4.69,0,0,1-5.21-3.81,40.7,40.7,0,0,1,0-12.94,5.22,5.22,0,0,1,10.1.12C194.66,199.36,194.69,201.52,194.93,203.54Zm-6.85,0h0v4.55a4.2,4.2,0,0,0,.38,1.67,1,1,0,0,0,1.32.34,1,1,0,0,0,.35-.34,3.16,3.16,0,0,0,.31-1.32c0-2.88.1-5.78.12-8.67a3.9,3.9,0,0,0-.2-1.55c-.22-.48-.63-1.15-1.05-1.23-.77-.17-1.1.55-1.23,1.23a8.07,8.07,0,0,0-.12,1.39c0,1.26,0,2.56,0,3.88Z"/><path class="cls-1" d="M207.91,203.49c-.18,2.2-.23,4.3-.52,6.38a4.6,4.6,0,0,1-4.83,4,4.82,4.82,0,0,1-5.3-3.71,7.41,7.41,0,0,1-.23-1.94c0-3.41-.12-6.83.11-10.21a5,5,0,0,1,5.16-4.84,4.91,4.91,0,0,1,1.61.32,4.34,4.34,0,0,1,3.43,3.65C207.68,199.26,207.73,201.42,207.91,203.49Zm-6.88,0h0V208a3.93,3.93,0,0,0,.31,1.52,1.14,1.14,0,0,0,.87.63,1.63,1.63,0,0,0,1-.68,2.66,2.66,0,0,0,.25-1.33v-8.87a2.59,2.59,0,0,0-.17-1.17c-.26-.46-.63-1.13-1.06-1.21-.77-.15-1.1.56-1.24,1.25a8.91,8.91,0,0,0-.11,1.36c.08,1.35.1,2.67.1,4Z"/><path class="cls-1" d="M356,205.76h4a9.84,9.84,0,0,1-.87,5.63,4.21,4.21,0,0,1-.82,1.1,6,6,0,0,1-8.49-.55,5.57,5.57,0,0,1-1.42-3.45c0-3.33-.19-6.67,0-10,.26-4.27,3.48-6.38,7.61-5.3a4.55,4.55,0,0,1,3.34,3.07,33.73,33.73,0,0,1,.81,4H356a17.84,17.84,0,0,0-.33-2.07c-.27-1-.8-1.48-1.67-1.4a1.45,1.45,0,0,0-1.35,1.45,44.38,44.38,0,0,0,0,10.43c.12,1,.74,1.55,1.52,1.5a1.44,1.44,0,0,0,1.4-1.4A16.05,16.05,0,0,0,356,205.76Z"/><path class="cls-1" d="M267.92,193.42h5l3.86,19.92a16.09,16.09,0,0,1-4.16,0l-.64-3.6H268.8l-.58,3.55H264C265.33,206.66,266.6,200.12,267.92,193.42Zm3.7,12.42-1.09-7.45h-.26l-1,7.42Z"/><path class="cls-1" d="M374.64,205.76c-.22,1.66-.27,3-.58,4.36a4.67,4.67,0,0,1-4.29,3.74c-3.83.53-6.57-1.45-6.92-5.17a47.57,47.57,0,0,1,0-10.8,5.71,5.71,0,0,1,8.76-4.2,6,6,0,0,1,1.95,2.13,7.23,7.23,0,0,1,.73,4.45h-3.8c-.15-.76-.28-1.51-.47-2.26a1.41,1.41,0,0,0-1.51-1.25,1.4,1.4,0,0,0-1.34,1.23,4.66,4.66,0,0,0-.16,1v9c0,1.53.66,2.15,1.53,2.15s1.37-.65,1.57-2.15c.1-.7.13-1.42.2-2.25Z"/><path class="cls-1" d="M320.75,206.71h3.67c.08.7.13,1.4.25,2.08.18,1,.75,1.53,1.55,1.42s1.22-.79,1.23-1.77a3.14,3.14,0,0,0-1.38-2.48c-1-.79-1.95-1.57-2.95-2.32a6.83,6.83,0,0,1-1.78-7.73,4.68,4.68,0,0,1,4.86-3,4.62,4.62,0,0,1,4.8,3.33,21.27,21.27,0,0,1,.44,3h-3.8a15,15,0,0,0-.34-1.77,1.24,1.24,0,0,0-1.28-1c-.78,0-1.07.69-1.15,1.39a2.22,2.22,0,0,0,.92,2.06,21.41,21.41,0,0,0,2.5,1.94c3,1.86,3.6,4.66,3,7.88a5,5,0,0,1-5.33,4.25,4.81,4.81,0,0,1-5.22-4.33A21.6,21.6,0,0,1,320.75,206.71Z"/><path class="cls-1" d="M389.32,206.74h3.95c.12.82.22,1.67.37,2.33a1.26,1.26,0,0,0,1.37,1.15h0c.8,0,1.12-.6,1.25-1.3a2.77,2.77,0,0,0-1.1-2.78c-.9-.77-1.83-1.5-2.8-2.2a6.5,6.5,0,0,1-2.53-6.67,4.81,4.81,0,0,1,5.15-4.41,4.7,4.7,0,0,1,5.12,4.27.53.53,0,0,1,0,.13,9.31,9.31,0,0,0,.14,1.88h-3.65a8.85,8.85,0,0,0-.5-1.83,1.9,1.9,0,0,0-1.15-.89,1.06,1.06,0,0,0-1.15,1v.14a3.79,3.79,0,0,0,.45,1.83,4.44,4.44,0,0,0,1.25,1.23c.61.5,1.28.92,1.91,1.4a7.2,7.2,0,0,1,2.57,8.57,5,5,0,0,1-5.23,3.33,4.62,4.62,0,0,1-5-3.68A30.69,30.69,0,0,1,389.32,206.74Z"/><path class="cls-1" d="M402.21,206.72h3.85c.1.79.15,1.5.3,2.2.18,1,.68,1.39,1.43,1.3a1.46,1.46,0,0,0,1.3-1.5,3,3,0,0,0-1.32-2.71c-.95-.8-1.95-1.57-2.93-2.32a6.68,6.68,0,0,1-1.92-7.68,4.75,4.75,0,0,1,5-3.1,4.66,4.66,0,0,1,4.77,3.33c.23.87.28,1.78.47,2.87h-3.84a7.08,7.08,0,0,0-.5-1.87,1.56,1.56,0,0,0-1.15-.8,1.52,1.52,0,0,0-1.05.95,2.48,2.48,0,0,0,.2,1.67,5.29,5.29,0,0,0,1.34,1.41c.65.55,1.38,1,2.06,1.54a7.06,7.06,0,0,1,2.5,8.56,5,5,0,0,1-5.43,3.34,4.67,4.67,0,0,1-4.78-3.89A30.19,30.19,0,0,1,402.21,206.72Z"/><path class="cls-1" d="M381.77,200.92h5V205h-5v4.37h5.44v4h-9.44a193.46,193.46,0,0,1-.11-19.86h9.5v3.8h-5.39Z"/><path class="cls-1" d="M440.11,82.7a10.2,10.2,0,1,1,9.83-10.56v.36a10,10,0,0,1-9.79,10.2Zm4.55-4.35c.32-.13.72-.18.92-.42a8.23,8.23,0,0,0,1.81-7,7.54,7.54,0,0,0-6.66-6.35,7.38,7.38,0,0,0-7.64,4.73,8.56,8.56,0,0,0,.2,6.89,7.35,7.35,0,0,0,11,2.85c.2-.15.24-.5.35-.75Z"/><path class="cls-1" d="M180.29,213.37h-4V199.69l-3.45-.2v-2.8a11.76,11.76,0,0,0,2.83-.88,14,14,0,0,0,2.32-2.49h2.11A186.26,186.26,0,0,1,180.29,213.37Z"/><path class="cls-1" d="M415.71,193.44h4.1v19.9h-4.1Z"/><path class="cls-1" d="M311.4,213.36a6.65,6.65,0,0,1-1,.11h-3v-20h4Z"/><path class="cls-1" d="M217.78,198.32a8.39,8.39,0,0,1-.22,2.45,3.33,3.33,0,0,1-3.61,3h-.12a3.34,3.34,0,0,1-3.71-2.91s0-.07,0-.11a11.16,11.16,0,0,1,0-4.88,3.22,3.22,0,0,1,3.44-2.62,3.33,3.33,0,0,1,3.76,2.44A21,21,0,0,1,217.78,198.32Zm-5,.25a10.42,10.42,0,0,0,.25,1.85,1.17,1.17,0,0,0,.78.69c.29,0,.84-.37.85-.6a27.77,27.77,0,0,0,0-3.87c0-.27-.56-.73-.78-.68a1.45,1.45,0,0,0-.93.78,7.08,7.08,0,0,0-.2,1.83Z"/><path class="cls-1" d="M219.93,208.14a18.12,18.12,0,0,1,.45-2.53c.5-1.67,1.57-2.2,3.52-2.2s3,.66,3.51,2.21a10.22,10.22,0,0,1,0,6,3.09,3.09,0,0,1-3.33,2.19c-2,0-3.05-.54-3.63-2a4.47,4.47,0,0,1-.34-1.13A16.81,16.81,0,0,1,219.93,208.14Zm2.78.27a13.9,13.9,0,0,0,.34,2.13,1.13,1.13,0,0,0,.8.7c.28,0,.81-.38.83-.63v-4.05A.88.88,0,0,0,224,206a1.2,1.2,0,0,0-.88.55A9.92,9.92,0,0,0,222.71,208.41Z"/><path class="cls-1" d="M215.8,213.72h-2.32c2.82-6.93,5.68-13.65,8.5-20.4h2.3Z"/><path class="cls-2" d="M288.38,56.91c4.14.15,8.1,0,12,.5a11.23,11.23,0,0,1,8.95,6.67,42.05,42.05,0,0,1,3.45,11.67,114.9,114.9,0,0,1,1.67,16.87c.16,8,.41,16,.21,24-.2,7.35-.83,14.7-1.46,22a61.34,61.34,0,0,1-1.59,8.72,16.14,16.14,0,0,1-3.45,6.67,9.63,9.63,0,0,1-4.48,3.1,22.27,22.27,0,0,1-7.92,1.33c-2.35-.12-4.72,0-7,0l-.26-.22s-.1-.11-.1-.16V58.31A2.45,2.45,0,0,1,288.38,56.91Z"/><path class="cls-2" d="M201.23,98.78v-44a9.87,9.87,0,0,1,1.33-.17h6.67a12.15,12.15,0,0,1,12,8.33,31.19,31.19,0,0,1,1.67,7,46.72,46.72,0,0,1-.9,17.86,23.32,23.32,0,0,1-2,5,11,11,0,0,1-9.18,6C207.69,99,204.54,98.78,201.23,98.78Z"/><path class="cls-2" d="M297.43,197.34c1.87-.13,2.57.23,2.62,1.78.1,2.89.1,5.79,0,8.67,0,1.67-.73,2-2.6,1.88Z"/><path class="cls-2" d="M255.36,196.94c2.2,0,2.79.58,2.8,2.3s-.65,2.4-2.8,2.42Z"/><path class="cls-2" d="M188,203.49v-3.93a8.07,8.07,0,0,1,.12-1.39c.13-.68.47-1.4,1.23-1.23.42.08.84.75,1,1.23a3.9,3.9,0,0,1,.2,1.55c0,2.89,0,5.79-.11,8.67a3.17,3.17,0,0,1-.32,1.32,1,1,0,0,1-1.32.34,1,1,0,0,1-.35-.34,4.2,4.2,0,0,1-.38-1.67v-4.55Z"/><path class="cls-2" d="M201,203.51v-3.95a8.94,8.94,0,0,1,.11-1.37c.14-.68.47-1.4,1.24-1.25.43.08.8.75,1.06,1.22a2.57,2.57,0,0,1,.17,1.16v8.87a2.64,2.64,0,0,1-.25,1.33,1.68,1.68,0,0,1-1.05.67,1.14,1.14,0,0,1-.87-.63,4,4,0,0,1-.31-1.52v-4.53Z"/><path class="cls-2" d="M271.6,205.84h-2.32l1-7.42h.27Z"/><path class="cls-2" d="M444.71,78.3c-.12.25-.15.6-.35.75a7.35,7.35,0,0,1-11-2.85,8.56,8.56,0,0,1-.2-6.89,7.38,7.38,0,0,1,7.63-4.73,7.54,7.54,0,0,1,6.67,6.35,8.2,8.2,0,0,1-1.82,7c-.2.24-.6.29-.91.42-.89-1.58-1.75-3.19-2.69-4.85l.74-.32a2.9,2.9,0,0,0,1.83-3.33A2.76,2.76,0,0,0,442,67.28a32.49,32.49,0,0,0-5.58,0c-.37,3.57-.25,10.59.3,11l1.67-.13V73.73c1-.5,1.55,0,2,.72.71,1.28,1.51,2.55,2.28,3.85Z"/><path class="cls-2" d="M212.75,198.57a7.56,7.56,0,0,1,.21-1.83,1.47,1.47,0,0,1,.94-.78c.21,0,.76.41.78.68a31.23,31.23,0,0,1,0,3.87c0,.23-.57.61-.85.6a1.13,1.13,0,0,1-.78-.69A9.52,9.52,0,0,1,212.75,198.57Z"/><path class="cls-2" d="M222.71,208.41a10.73,10.73,0,0,1,.4-1.87A1.2,1.2,0,0,1,224,206a.87.87,0,0,1,.66.57v4.05c0,.25-.55.65-.83.63a1.15,1.15,0,0,1-.8-.7A13.86,13.86,0,0,1,222.71,208.41Z"/><path class="cls-1" d="M444.71,78.3h-2.1c-.77-1.3-1.57-2.57-2.28-3.85-.45-.79-1-1.22-2-.72v4.39l-1.67.13c-.55-.43-.67-7.45-.3-11a32.49,32.49,0,0,1,5.58,0,2.76,2.76,0,0,1,2.57,2.57,2.9,2.9,0,0,1-1.83,3.33l-.74.32c.94,1.66,1.8,3.33,2.69,4.85Zm-6.32-9.47v3h1.67a5.24,5.24,0,0,0,1,0c1.06-.22,1.45-.64,1.45-1.52s-.4-1.35-1.45-1.47A21.4,21.4,0,0,0,438.39,68.83Z"/><path class="cls-2" d="M438.39,68.83H441a1.41,1.41,0,0,1,1.45,1.47c0,.86-.39,1.3-1.45,1.51a3.94,3.94,0,0,1-1,0h-1.67Z"/></g></g></svg>