<svg xmlns="http://www.w3.org/2000/svg" viewBox="0 0 623.62 255.12"><defs><style>.cls-1{fill:#fff;}.cls-2{fill:#08a9e1;}</style></defs><title>sailsquare</title><g id="BG"><rect class="cls-1" width="623.62" height="255.12"/></g><g id="Logo"><path class="cls-2" d="M101.6,145.39a12.75,12.75,0,0,1-3.79,2.77,8.33,8.33,0,0,1-3.21.77,10.53,10.53,0,0,1-2-.25,5.65,5.65,0,0,1-2.7-1.57,10,10,0,0,1-2.3-3.82,20.75,20.75,0,0,1-.94-7c0-5.95,1.31-10.3,3.9-12.93s6.22-4,10.79-4h.39Zm39.86-.5,0,0-.08.07a42.86,42.86,0,0,1-5.5,3.89c-3.76,2.29-6.78,2.76-8.92.42-.93-1-1.39-2.81-1.39-5.46V113.64c0-1-.5-1.44-1.62-1.58-3.56-.58-29.48-.07-36.49,1.92a35.91,35.91,0,0,0-12.22,5.81,22.67,22.67,0,0,0-7,8.85A27.89,27.89,0,0,0,65.86,140c0,7.62,1.62,13.55,4.82,17.63S78.31,163.7,84,163.7a16.13,16.13,0,0,0,11.79-4.36,22.48,22.48,0,0,0,3.37-4c.94-1.43,1.83-2.7,2.65-3.76l.5-.64.18.79a27.67,27.67,0,0,0,1.32,4.16,12.09,12.09,0,0,0,2.44,3.8,13.08,13.08,0,0,0,4,2.85,13.85,13.85,0,0,0,5.95,1.13,29.76,29.76,0,0,0,13.41-3.27,39,39,0,0,0,12-9.7v0l.17-.29,0-5.3c0-.2,0-.23-.22-.23Z"/><path class="cls-2" d="M144.39,101.55a14,14,0,0,0,4.16,2.26,15.63,15.63,0,0,0,10.09,0,14,14,0,0,0,4.11-2.26,10.6,10.6,0,0,0,2.77-3.3,8.42,8.42,0,0,0,0-8,10.38,10.38,0,0,0-2.77-3.3,14.21,14.21,0,0,0-4.11-2.27,15.54,15.54,0,0,0-10.08,0A13.82,13.82,0,0,0,144.39,87a10.41,10.41,0,0,0-2.78,3.3,8.5,8.5,0,0,0,0,8,10.63,10.63,0,0,0,2.78,3.3Z"/><path class="cls-2" d="M181.69,144.54a62.37,62.37,0,0,1-6.2,4.27c-3.79,2.3-6.84,2.75-8.88.42-.88-1-1.32-2.81-1.32-5.46V116.22a6.2,6.2,0,0,0-.45-2.65,3.12,3.12,0,0,0-3.13-1.74H145c-2.38,0-3.58,1.48-3.58,4.39l0,28.9a32.42,32.42,0,0,0,.67,6.34,19.68,19.68,0,0,0,2.27,6.07,12.92,12.92,0,0,0,4.4,4.45,13.61,13.61,0,0,0,7.2,1.72,29.73,29.73,0,0,0,13.41-3.27,44.41,44.41,0,0,0,13-10.64l-.43-5c0-.19,0-.23-.23-.23Z"/><path class="cls-2" d="M60.32,143a23.11,23.11,0,0,0-5.13-5.43,36.29,36.29,0,0,0-6.43-3.94c-2.24-1.06-3.94-1.87-5.08-2.45-2.85-1.42-4.72-2.79-5.75-4.2s-1.1-2.79-.09-3.89a6.62,6.62,0,0,1,3.48-1.62,19.44,19.44,0,0,1,5-.25,29.75,29.75,0,0,1,5.74,1,21.72,21.72,0,0,1,5.47,2.3c.44.08.49,0,.49-.21,0,0,0-5.88,0-6h0c0-.07-.07-.11-.17-.18a32,32,0,0,0-5.78-3.1,41.74,41.74,0,0,0-7.22-2.24,44.57,44.57,0,0,0-8.72-.79h-.69a32.49,32.49,0,0,0-9.76,1.57,19.39,19.39,0,0,0-7.76,4.7A13.58,13.58,0,0,0,14.29,127a10,10,0,0,0,1.78,6.4,26,26,0,0,0,5,5.43,49,49,0,0,0,6.2,4.32q3.24,1.91,5.2,3.13a17.49,17.49,0,0,1,3.06,2.3,8.27,8.27,0,0,1,1.53,2,2.83,2.83,0,0,1,.33,1.73,2.5,2.5,0,0,1-.7,1.33,7,7,0,0,1-4.1,1.69,19.5,19.5,0,0,1-5.91-.19,28,28,0,0,1-6.43-2,19.46,19.46,0,0,1-5.56-3.58.2.2,0,0,0-.07-.06l-.06,0-.1,0a.28.28,0,0,0-.16,0l0,0a.14.14,0,0,0-.06.07h0l0,.07,0,.06V156a.36.36,0,0,0,.15.25,28,28,0,0,0,6.53,4.42A40.25,40.25,0,0,0,30.19,164a31.94,31.94,0,0,0,9.51.55,35.38,35.38,0,0,0,9.76-2.19,24.18,24.18,0,0,0,8-4.89A13.49,13.49,0,0,0,61.61,150,9.14,9.14,0,0,0,60.32,143Z"/><path class="cls-2" d="M221,149.64h0a.16.16,0,0,0-.07-.07,0,0,0,0,0,0,0,.3.3,0,0,0-.16,0h0a.18.18,0,0,0-.1,0l-.07,0-.06.05c-.31.3-.65.57-1,.85s-.57.44-.89.67l-.06,0c-.33.23-.68.46-1,.68l-.72.43c-.32.17-.64.34-1,.49l-.13.06-1.48.66c-.74.3-1.47.57-2.2.81a5.25,5.25,0,0,1-5.5-1.28,6.75,6.75,0,0,1-1.27-2.64l0,0a12.39,12.39,0,0,1-.53-3.54s-2.29-54.36-2.14-55.95c0-.2,0-.39,0-.58l.06-.55h0c1-9.78,3-17.44,13.17-18.82A32.11,32.11,0,0,1,226,62a42.7,42.7,0,0,0-22.1,2.67A29,29,0,0,0,201.19,66c-11.31,6.1-16,15.81-18,24.6a70.11,70.11,0,0,0-1.43,15.85,1.69,1.69,0,0,1,0,.23c0,.17,0,.33,0,.51l0,22.06,0,17.13a29.61,29.61,0,0,0,.29,4c.1.73.21,1.48.37,2.23a18.88,18.88,0,0,0,.67,2.48c.16.48.35,1,.55,1.43a17.15,17.15,0,0,0,1,2.06,12.63,12.63,0,0,0,4.33,4.39,13.45,13.45,0,0,0,7.1,1.69h2.65a30.36,30.36,0,0,0,5.76-.54A4.63,4.63,0,0,0,205,164l.08,0a40.67,40.67,0,0,0,8.92-3.15l.35-.17a28.54,28.54,0,0,0,6.53-4.4A.45.45,0,0,0,221,156v-6.24a.21.21,0,0,0,0-.06Z"/><path class="cls-2" d="M366.76,76.35c-8.18,4.48-18.23,6.72-29.25,6.72A95.65,95.65,0,0,1,315,80.24a86.45,86.45,0,0,1-12.11-3.95c-15.39-6-35.75-14.17-54.79-14.17a60.6,60.6,0,0,0-7.29.43s-.67.08-1,.13-1,.16-1,.16a42.7,42.7,0,0,0-5,1c-3.18.83-13.79,5.65-16.76,15.31a17.25,17.25,0,0,0-.8,5.29A17.56,17.56,0,0,0,233.91,102c9.28,0,18.05-6.67,18.05-17.38a16.84,16.84,0,0,0-2.37-9c-2.06-1.31-7.94.06-9.8.53a12.71,12.71,0,0,1,3.79,9.37,9.27,9.27,0,0,1-16.33,6l-.58-.69c-.17-.26-.32-.54-.47-.81s-.21-.37-.27-.49a9.23,9.23,0,0,1-1-4.05,10.91,10.91,0,0,1,.53-3.34c2-6.36,9.09-11.65,20.39-11.65.74,0,1.5,0,2.29.07a136.27,136.27,0,0,1,35,6.81c7.16,2.41,25.38,9.36,30.42,10.71,7.43,2.1,16.72,4.5,26.13,4.5h1C352.61,92.36,367.71,88.74,366.76,76.35Z"/><path class="cls-2" d="M462.68,145.53a12.65,12.65,0,0,1-3.79,2.78,8.22,8.22,0,0,1-3.21.76,10.62,10.62,0,0,1-2-.25,5.66,5.66,0,0,1-2.7-1.57,9.9,9.9,0,0,1-2.29-3.81,20.57,20.57,0,0,1-1-7c0-5.95,1.31-10.3,3.91-12.93s6.22-4,10.79-4h.38Zm40.14-.7,0-.05-.09.08a49.32,49.32,0,0,1-5.77,4.1c-3.78,2.29-6.8,2.74-8.92.42-.94-1-1.39-2.81-1.39-5.46V115.41c0-1-.5-1.43-1.62-1.58-3.56-.57-6.87-1-9.84-1.34-10.42-1.11-19.64-.35-26.65,1.64a36.23,36.23,0,0,0-12.23,5.8,22.74,22.74,0,0,0-7,8.85,27.59,27.59,0,0,0-2.3,11.34c0,7.63,1.62,13.56,4.81,17.63s7.64,6.09,13.28,6.09a16.17,16.17,0,0,0,11.79-4.36,22.92,22.92,0,0,0,3.37-4c1-1.48,1.84-2.71,2.64-3.76l.5-.64.18.79a29.12,29.12,0,0,0,1.33,4.17,12.19,12.19,0,0,0,2.43,3.79,12.78,12.78,0,0,0,4,2.86,14,14,0,0,0,6,1.12,29.91,29.91,0,0,0,13.41-3.26,40.64,40.64,0,0,0,12.29-9.92h0l.17-.3,0-5.31c0-.19,0-.22-.22-.22Z"/><path class="cls-2" d="M428.15,145a51.33,51.33,0,0,1-5.61,3.93c-3.78,2.29-6.84,2.74-8.87.41-.89-1-1.32-2.8-1.32-5.45l0-27.56a6.2,6.2,0,0,0-.45-2.65,3.11,3.11,0,0,0-3.13-1.73H392c-2.38,0-3.58,1.47-3.58,4.38V127h0v18.5l-.18.11q-1.47,1-3.63,2.22a14.9,14.9,0,0,1-4.2,1.69,5.31,5.31,0,0,1-3.56-.28c-1-.52-1.56-1.77-1.56-3.82v-29a6.34,6.34,0,0,0-.45-2.64,3.1,3.1,0,0,0-3.12-1.72H355c-2.36,0-3.56,1.47-3.56,4.36v30.88a32.33,32.33,0,0,0,.42,4.41,16.23,16.23,0,0,0,2,5.56,15,15,0,0,0,4.42,4.77,13,13,0,0,0,7.61,2A20.61,20.61,0,0,0,376.81,161a69.42,69.42,0,0,0,10.34-8c.15-.15.41-.38.74-.67s.56-.5.71-.66l.53-.53.12.73a19.36,19.36,0,0,0,1.27,4.14,12.94,12.94,0,0,0,2.49,3.8,13.18,13.18,0,0,0,4,2.86,14.09,14.09,0,0,0,6,1.12,29.91,29.91,0,0,0,13.41-3.26,37.8,37.8,0,0,0,12-9.81l0-5.51c0-.19,0-.23-.23-.23Z"/><path class="cls-2" d="M545.71,112.43s-.15-.07-.15-.08a2.22,2.22,0,0,0-1-.15,12.85,12.85,0,0,0-4.1.7,25,25,0,0,0-5.24,2.47,33,33,0,0,0-4.78,3.57c-1.51,1.35-2.85,2.64-3.95,3.83l-.73.92V116.2a6,6,0,0,0-.44-2.55,3,3,0,0,0-3-1.67H506.13c-2.29,0-3.44,1.42-3.44,4.22v43.25a6.2,6.2,0,0,0,.45,2.65,3.12,3.12,0,0,0,3.14,1.74h16.8c2.38,0,3.58-1.48,3.58-4.39V148.81h0V132.9c.17-1.87.67-3.08,1.49-3.72a5.38,5.38,0,0,1,1.63-.8,20.46,20.46,0,0,1,3.18-.87,25.38,25.38,0,0,1,4.1-.44h.4a14.24,14.24,0,0,1,4,.57,1.58,1.58,0,0,0,.39.11c.86.2,1.54-.86,1.79-1.88l2.76-11.1a2.12,2.12,0,0,0-.67-2.34Z"/><path class="cls-2" d="M569.09,140.38h0a18.06,18.06,0,0,1,.94-5.7,11.87,11.87,0,0,1,2.46-4.18,9.51,9.51,0,0,1,3.25-2.28,11.3,11.3,0,0,1,3.24-.83,6.15,6.15,0,0,1,5,1.32,5.11,5.11,0,0,1,1.9,4.33c-.33,3.29-3,4.69-4.38,5.34a37.6,37.6,0,0,1-10.11,2.73c-.47.07-1.63.16-2.27.2,0-.32,0-.66,0-.92Zm40.36,4.81c0-.17-.13-.23-.27-.21a.6.6,0,0,0-.24.12,39.46,39.46,0,0,1-6,3.2,71.47,71.47,0,0,1-7.27,2.89,57.82,57.82,0,0,1-7.69,2c-5.42,1-10.39,1-13.25-.21a8.57,8.57,0,0,1-3.58-2.63,7.61,7.61,0,0,1-1.56-3.52c0-.2-.06-.47-.09-.71A102,102,0,0,0,582.42,145a38,38,0,0,0,10.05-3.45,19.43,19.43,0,0,0,7.14-6.18,13.91,13.91,0,0,0,2-9.53,13.54,13.54,0,0,0-1.08-3.75,12.63,12.63,0,0,0-3.44-4.51,21.85,21.85,0,0,0-7.1-3.83,36.31,36.31,0,0,0-12-1.64,41.84,41.84,0,0,0-15.88,3.22,30.18,30.18,0,0,0-12.93,10,20.73,20.73,0,0,0-3.18,6,26.74,26.74,0,0,0-1.27,6.15,23.39,23.39,0,0,0,.18,5.6,39.88,39.88,0,0,0,1,4.66,20.63,20.63,0,0,0,4.69,8.17,24.08,24.08,0,0,0,7.1,5.11,31.86,31.86,0,0,0,8.46,2.6,39.94,39.94,0,0,0,8.73.48,52,52,0,0,0,9-1.33,67.34,67.34,0,0,0,9.12-2.86,74.12,74.12,0,0,0,8.7-4.08,49.81,49.81,0,0,0,7.34-4.89,1.15,1.15,0,0,0,.23-.21.29.29,0,0,0,.07-.23s.05-5.16.05-5.29Z"/><path class="cls-2" d="M317.93,145.53a12.8,12.8,0,0,1-3.79,2.78,8.39,8.39,0,0,1-3.2.76,10.62,10.62,0,0,1-2-.25,5.74,5.74,0,0,1-2.7-1.57,10.15,10.15,0,0,1-2.29-3.81,20.6,20.6,0,0,1-.94-7c0-5.95,1.31-10.3,3.9-12.93s6.22-4,10.78-4H318Zm23.92-31.75c0-1-.5-1.43-1.62-1.58-3.57-.57-29.46-.06-36.47,1.93a35.9,35.9,0,0,0-12.22,5.8,22.74,22.74,0,0,0-7.05,8.85,27.92,27.92,0,0,0-2.29,11.34c0,7.63,1.62,13.56,4.81,17.63s7.64,6.09,13.28,6.09a16.13,16.13,0,0,0,11.79-4.36,22.42,22.42,0,0,0,3.36-4c.94-1.43,1.83-2.7,2.64-3.76l.11-.13v37.14a12.43,12.43,0,0,0,.19,3.44c.27.81,1.42,1.25,3.43,1.33a38.37,38.37,0,0,0,4.71-.37,41,41,0,0,0,5.82-1.15,39.06,39.06,0,0,0,5.39-1.88,8.45,8.45,0,0,0,3.45-2.44,4.47,4.47,0,0,0,.66-2.83V144.09c0-.06,0-.13,0-.18Z"/><path class="cls-2" d="M275.65,143.18a22.73,22.73,0,0,0-5.13-5.43,35.15,35.15,0,0,0-6.43-3.94c-2.24-1.07-3.94-1.88-5.08-2.45-2.84-1.43-4.72-2.8-5.75-4.2s-1.1-2.79-.09-3.89a6.55,6.55,0,0,1,3.48-1.63,19.89,19.89,0,0,1,5-.25,29.26,29.26,0,0,1,5.75,1,21.44,21.44,0,0,1,5.46,2.3c.44.08.49,0,.49-.22,0,0,0-5.88,0-6h0c0-.08-.08-.11-.18-.19a31.38,31.38,0,0,0-5.78-3.09,41.75,41.75,0,0,0-7.22-2.25,44.57,44.57,0,0,0-8.72-.79h-.69A32.18,32.18,0,0,0,241,113.7a19.48,19.48,0,0,0-7.76,4.69,13.62,13.62,0,0,0-3.64,8.79,10,10,0,0,0,1.78,6.4,25.54,25.54,0,0,0,5,5.44,47.87,47.87,0,0,0,6.2,4.31q3.24,1.9,5.2,3.13a17.1,17.1,0,0,1,3.06,2.31,8.08,8.08,0,0,1,1.53,2,2.79,2.79,0,0,1,.33,1.72,2.46,2.46,0,0,1-.7,1.34,7,7,0,0,1-4.1,1.68,18.88,18.88,0,0,1-5.91-.19,28.46,28.46,0,0,1-6.43-2,19.49,19.49,0,0,1-5.56-3.59l-.06-.05-.06,0-.11,0a.28.28,0,0,0-.16.05l0,0s-.05,0-.06.07h0l0,.07,0,.06v6.24a.38.38,0,0,0,.15.26,28.22,28.22,0,0,0,6.53,4.41,40.55,40.55,0,0,0,9.34,3.34,32,32,0,0,0,9.51.54,35.74,35.74,0,0,0,9.76-2.18,24.35,24.35,0,0,0,8-4.89A13.6,13.6,0,0,0,277,150.1a9.13,9.13,0,0,0-1.3-6.92Z"/></g></svg>