<svg xmlns="http://www.w3.org/2000/svg" viewBox="0 0 623.62 255.12"><defs><style>.cls-1{fill:#fff;}.cls-2{fill:#112a46;fill-rule:evenodd;}</style></defs><title>sulu</title><g id="BG"><rect class="cls-1" width="623.62" height="255.12"/></g><g id="Logo"><g id="Layout"><g id="_01" data-name="01"><g id="sulu-logo"><g id="sulu"><path id="Combined-Shape" class="cls-2" d="M148.73,49.18a4.88,4.88,0,0,1,6.68,4.29h0L158.72,85a16.29,16.29,0,0,0,5.8,10h0l47.42,34.43a7,7,0,0,1,1.82,9.13h0L174.88,202a9.58,9.58,0,0,1-9.51,4.07h0l-118-25.48a12.48,12.48,0,0,1-8.24-7.35h0L14.51,100.71a6.31,6.31,0,0,1,4-8h0ZM31.14,105c-3.41-.75-5.28,1.34-4.16,4.64h0l19,56a12.48,12.48,0,0,0,8.24,7.35h0l95.52,20.68c3.41.73,4.52-1,2.47-3.8h0L105.7,125.66a19.33,19.33,0,0,0-9.92-6.5h0ZM165.77,107c-2.82-2.05-4.83-.88-4.47,2.58h0l8.08,76.95c.36,3.47,2.15,3.87,4,.9h0L201.81,141a7,7,0,0,0-1.82-9.13h0ZM148.3,71.5c-.36-3.47-2.34-4-4.4-1.18h0l-30,41.09a9.29,9.29,0,0,0,0,10.25h0l42.69,58.85c2,2.82,3.43,2.3,3.07-1.17h0ZM604.46,93.58a4.67,4.67,0,0,1,4.25,2.27c.69,1.3.74,2.08.74,4.54v37.29c0,13.63-10.16,22.8-23.56,22.8s-23.56-9.17-23.56-22.8V100.39c0-2.46,0-3.24.74-4.54a5.11,5.11,0,0,1,8.5,0c.69,1.3.74,2.08.74,4.54v36.83c0,8.85,5.36,14.36,13.58,14.36s13.58-5.51,13.58-14.36V100.39c0-2.46,0-3.24.74-4.54A4.66,4.66,0,0,1,604.46,93.58ZM434,93.58a4.67,4.67,0,0,1,4.25,2.27A7,7,0,0,1,439,99.7v38c0,13.63-10.16,22.8-23.56,22.8s-23.56-9.17-23.56-22.8V100.39c0-2.46,0-3.24.74-4.54a5.11,5.11,0,0,1,8.5,0c.69,1.3.74,2.08.74,4.54v36.83c0,8.85,5.36,14.36,13.58,14.36S429,146.07,429,137.22V100.39c0-2.46.05-3.24.74-4.54A4.66,4.66,0,0,1,434,93.58Zm-104.84-.19a29,29,0,0,1,15.47,3.9c2.31,1.2,4,2.91,4,5a4.69,4.69,0,0,1-1.15,3.06,3.8,3.8,0,0,1-3.05,1.44,8.78,8.78,0,0,1-4-1.44,20,20,0,0,0-11.64-3.24c-7.76,0-11.92,4.21-11.92,10.24a7.66,7.66,0,0,0,2.4,6.11c1.67,1.49,3.61,2.41,7.21,3l7.85,1.2c6,.93,9.33,2.32,12.2,4.92,3.51,3.24,5.36,7.78,5.36,13.52,0,12.14-9.8,19.37-23.65,19.37-7.91,0-12.85-1.53-17.7-4.45-3.42-2-4.66-3.43-4.66-5.84a4.9,4.9,0,0,1,1.38-3.29,4,4,0,0,1,2.91-1.2,7.12,7.12,0,0,1,4.25,1.67,22.28,22.28,0,0,0,14,4.21c8.68,0,13.58-3.7,13.58-10.19,0-3-.74-5.28-2.58-6.86-1.67-1.48-3.89-2.31-7.17-2.78l-7.8-1.11c-5.32-.79-9.33-2.45-12.43-5.33-3.28-3-4.85-7.27-4.85-12.64C307.17,101.18,315.48,93.39,329.16,93.39Zm158.58.19A4.68,4.68,0,0,1,492,95.85c.69,1.3.73,2.08.73,4.54V151h26c2.12,0,3,.09,4.06.64a4.57,4.57,0,0,1,0,7.6c-1,.56-1.94.65-4.06.65H488.85c-1.48,0-3.23,0-4.66-1.43a5.5,5.5,0,0,1-1.43-4.18V100.39c0-2.46.05-3.24.74-4.54A4.67,4.67,0,0,1,487.74,93.58ZM135.25,67c2.05-2.82,1-4.22-2.28-3.11h0L41,94.62c-3.31,1.11-3.23,2.62.18,3.37h0l55.38,12.17a10.6,10.6,0,0,0,9.94-3.75h0Z"/></g></g></g></g></g></svg>