<?xml version="1.0" encoding="utf-8"?>
<!-- Generator: Adobe Illustrator 16.0.3, SVG Export Plug-In . SVG Version: 6.00 Build 0)  -->
<!DOCTYPE svg PUBLIC "-//W3C//DTD SVG 1.1//EN" "http://www.w3.org/Graphics/SVG/1.1/DTD/svg11.dtd">
<svg version="1.1" xmlns="http://www.w3.org/2000/svg" xmlns:xlink="http://www.w3.org/1999/xlink" x="0px" y="0px" width="623.6px"
	 height="255.1px" viewBox="0 0 623.6 255.1" style="enable-background:new 0 0 623.6 255.1;" xml:space="preserve">
<style type="text/css">
<![CDATA[
	.st0{fill:#FFFFFF;}
	.st1{fill:#D42027;}
	.st2{clip-path:url(#SVGID_2_);fill:#D42027;}
]]>
</style>
<g id="BG">
	<rect class="st0" width="623.6" height="255.1"/>
</g>
<g id="Logo">
	<g>
		<polygon class="st1" points="18.4,64.8 53.9,64.8 80.4,147.7 107.2,64.8 142.1,64.8 95.4,189.5 65,189.5 		"/>
		<polygon class="st1" points="299.4,67.9 325,67.9 384.2,140.9 384.2,67.9 411.6,67.9 411.6,186.5 388,186.5 326.8,111.1 
			326.8,186.5 299.4,186.5 		"/>
		<rect x="577.9" y="162.5" class="st1" width="27.9" height="27.5"/>
		<g>
			<defs>
				<rect id="SVGID_1_" x="-32" y="16.6" width="685.1" height="221.8"/>
			</defs>
			<clipPath id="SVGID_2_">
				<use xlink:href="#SVGID_1_"  style="overflow:visible;"/>
			</clipPath>
			<path class="st2" d="M151.3,127.3v-0.4c0-35.3,27.8-64.2,66.1-64.2c38.3,0,65.8,28.6,65.8,63.8v0.4c0,35.3-27.8,64.2-66.1,64.2
				C178.8,191.1,151.3,162.6,151.3,127.3 M254.7,127.3v-0.4c0-21.3-15.6-39-37.6-39c-22,0-37.2,17.4-37.2,38.7v0.4
				c0,21.3,15.6,39,37.6,39C239.4,165.9,254.7,148.6,254.7,127.3"/>
			<path class="st2" d="M547.5,192.6l-13.5-12.1c-10.4,6.7-22.9,10.5-36.6,10.5c-38,0-65.2-28.3-65.2-63.3v-0.4
				c0-35,27.6-63.6,65.6-63.6c38,0,65.2,28.3,65.2,63.3v0.4c0,13-4,25.1-10.9,35.3l12.7,10.7L547.5,192.6z M513.9,162.7l-20-17
				l17.2-19.3l20.2,18.3c2.1-4.9,3.3-10.7,3.3-16.9v-0.4c0-21.1-15.5-38.7-37.3-38.7c-21.8,0-36.9,17.2-36.9,38.3v0.4
				c0,21.1,15.5,38.7,37.3,38.7C503.7,166,509.1,165,513.9,162.7"/>
		</g>
		<path class="st1" d="M151.3,127.3v-0.4c0-35.3,27.8-64.2,66.1-64.2c38.3,0,65.8,28.6,65.8,63.8v0.4c0,35.3-27.8,64.2-66.1,64.2
			C178.8,191.1,151.3,162.6,151.3,127.3 M254.7,127.3v-0.4c0-21.3-15.6-39-37.6-39c-22,0-37.2,17.4-37.2,38.7v0.4
			c0,21.3,15.6,39,37.6,39C239.4,165.9,254.7,148.6,254.7,127.3"/>
		<path class="st1" d="M547.5,192.6l-13.5-12.1c-10.4,6.7-22.9,10.5-36.6,10.5c-38,0-65.2-28.3-65.2-63.3v-0.4
			c0-35,27.6-63.6,65.6-63.6c38,0,65.2,28.3,65.2,63.3v0.4c0,13-4,25.1-10.9,35.3l12.7,10.7L547.5,192.6z M513.9,162.7l-20-17
			l17.2-19.3l20.2,18.3c2.1-4.9,3.3-10.7,3.3-16.9v-0.4c0-21.1-15.5-38.7-37.3-38.7c-21.8,0-36.9,17.2-36.9,38.3v0.4
			c0,21.1,15.5,38.7,37.3,38.7C503.7,166,509.1,165,513.9,162.7"/>
	</g>
</g>
</svg>
