<svg xmlns="http://www.w3.org/2000/svg" viewBox="0 0 623.62 255.12"><defs><style>.cls-1{fill:#fff;}.cls-2{fill:#041b55;}</style></defs><title>voxnest</title><g id="BG"><rect class="cls-1" width="623.62" height="255.12"/></g><g id="Logo"><g id="Group_1030" data-name="Group 1030"><path id="Path_1052" data-name="Path 1052" class="cls-2" d="M49.9,76.73l17.21,44.34L84.45,76.73h35.73L80.34,178.9H53.87L14.17,76.73Z"/><path id="Path_1053" data-name="Path 1053" class="cls-2" d="M112.63,127.69a47.06,47.06,0,0,1,4.11-20,54.87,54.87,0,0,1,11-16.41,48.43,48.43,0,0,1,16.28-11,49.54,49.54,0,0,1,20-4.11A54.37,54.37,0,0,1,184,80a52.84,52.84,0,0,1,16.28,11,47.84,47.84,0,0,1,11,16.41,49.53,49.53,0,0,1,4.1,20,47,47,0,0,1-4.1,20,54.93,54.93,0,0,1-11,16.41,48.66,48.66,0,0,1-16.28,11,51.07,51.07,0,0,1-40,0,52.61,52.61,0,0,1-16.28-11,47.7,47.7,0,0,1-11-16.41A43.63,43.63,0,0,1,112.63,127.69Zm30.71,0a20.47,20.47,0,0,0,6.22,14.42,22,22,0,0,0,6.48,4.5,20.37,20.37,0,0,0,7.94,1.72,20.52,20.52,0,0,0,14.43-6.22,24.73,24.73,0,0,0,4.5-6.48,20.41,20.41,0,0,0,1.72-7.94,18.33,18.33,0,0,0-1.72-8,18.54,18.54,0,0,0-4.5-6.48,24.62,24.62,0,0,0-6.49-4.5A20.33,20.33,0,0,0,164,107a20.47,20.47,0,0,0-14.42,6.22,21.8,21.8,0,0,0-4.5,6.48A18.74,18.74,0,0,0,143.34,127.69Z"/><path id="Path_1054" data-name="Path 1054" class="cls-2" d="M237.17,126l-27-49.23H245.9l9.27,16.81,9.26-16.81h35.73L272.9,126l29,52.94H266.15l-11.38-20.38L243.65,178.9H208.19Z"/><path id="Path_1055" data-name="Path 1055" class="cls-2" d="M304.27,76.73h26.86l28.19,39.44V76.73h32V178.9H364.48l-27.92-39.17V178.9H304.27V76.73Z"/><path id="Path_1056" data-name="Path 1056" class="cls-2" d="M402.73,76.73h60.08v26.74H435.29v11.38h27.13v25.41H435.29V152h28.58V178.9H402.6V76.73Z"/><path id="Path_1057" data-name="Path 1057" class="cls-2" d="M474.72,146.48a58.79,58.79,0,0,0,6.89,1.72c2,.4,4.23.92,6.88,1.32a73,73,0,0,0,7.67.4c4.5,0,6.89-1.72,6.89-5.16a5.41,5.41,0,0,0-2.12-3.84,58.84,58.84,0,0,0-5.43-4.5c-2.12-1.72-4.5-3.44-6.88-5.43a55.89,55.89,0,0,1-6.88-6.88,44.83,44.83,0,0,1-5.43-8.6,29.9,29.9,0,0,1-2.12-11.25A28.19,28.19,0,0,1,476.71,92a26.31,26.31,0,0,1,7.15-9,28.77,28.77,0,0,1,10.58-5.42,42.43,42.43,0,0,1,12.84-2c2.38,0,4.76.27,7.15.4s4.5.4,6.48.66,4.24.66,6.49.93v27.79c-.8,0-1.72-.27-2.52-.27s-1.72-.26-2.51-.26c-1.06,0-2-.26-3.18-.26h-2.12a7.81,7.81,0,0,0-2.51.39,6.4,6.4,0,0,0-2.12,1.06,2.2,2.2,0,0,0-.79,2.12c0,.79.66,1.72,2,3,1.59,1.46,3.18,2.78,4.9,4.11,2,1.45,4.1,3.44,6.48,5.55A47.76,47.76,0,0,1,531.5,128a40.11,40.11,0,0,1,4.9,9,33.83,33.83,0,0,1,2,11.38,35.31,35.31,0,0,1-2.12,12.31,25.78,25.78,0,0,1-6.48,9.92,28.89,28.89,0,0,1-11.12,6.62,47.12,47.12,0,0,1-16.14,2.38c-3.84,0-7.28-.26-10.59-.39-3.18-.4-6-.93-8.6-1.33s-5.3-1.06-7.94-1.72V146.48Z"/><path id="Path_1058" data-name="Path 1058" class="cls-2" d="M557,103.47H538.12V76.73h71.33v26.74H590.52v75.3H556.78v-75.3Z"/></g></g></svg>