<?xml version="1.0" encoding="utf-8"?>
<!-- Generator: Adobe Illustrator 22.1.0, SVG Export Plug-In . SVG Version: 6.00 Build 0)  -->
<svg version="1.1" id="Layer_1" xmlns="http://www.w3.org/2000/svg" xmlns:xlink="http://www.w3.org/1999/xlink" x="0px" y="0px"
	 viewBox="0 0 1920 1080" style="enable-background:new 0 0 1920 1080;" xml:space="preserve">
<style type="text/css">
	.st0{fill:#FFFFFF;}
</style>
<title>intro</title>
<path class="st0" d="M1081.9,421.3c0-19.7-11.8-37.4-29.9-45c-58.9-24-124.9-24-183.9,0c-18.1,7.6-29.9,25.3-29.9,45v361.5
	c0,19.7,11.8,37.4,29.9,45c58.9,24,124.9,24,183.9,0c18.1-7.6,29.9-25.3,29.9-45c0-0.1,0-0.3,0-0.4V421.7
	C1081.8,421.5,1081.9,421.4,1081.9,421.3z"/>
<path class="st0" d="M789.4,297.2c0-19.7-11.8-37.4-29.9-45c-28.4-11.6-59.4-19.2-91.9-19.2H570c-13.4,0-24.3,10.9-24.4,24.4v689.3
	c0,13.5,10.9,24.4,24.3,24.4c0,0,0,0,0,0h97.5c32.5,0,63.6-7.6,91.9-19.2c18.1-7.6,29.9-25.3,29.9-45c0-0.1,0-0.2,0-0.4V297.6
	C789.4,297.5,789.4,297.3,789.4,297.2z"/>
<path class="st0" d="M472.6,234.2c-123.1,12.3-219.4,116.1-219.4,242.5c0,0.4,0,0.8,0,1.2s0,0.8,0,1.2
	c0,126.4,96.2,230.3,219.4,242.5c13.5,0,24.4-10.8,24.4-24.3c0,0,0,0,0-0.1V258.6C497,245.1,486.1,234.2,472.6,234.2
	C472.6,234.2,472.6,234.2,472.6,234.2z"/>
<path class="st0" d="M1666.8,476.7c0-126.4-96.2-230.3-219.3-242.5c-13.5,0-24.4,10.9-24.4,24.4l0,0v438.7
	c0,13.4,10.9,24.4,24.3,24.4c0,0,0,0,0,0c123.2-12.2,219.3-116.1,219.3-242.5c0-0.4,0-0.8,0-1.2S1666.8,477.1,1666.8,476.7z"/>
<path class="st0" d="M1350,233h-97.5c-32.5,0-63.6,7.6-91.9,19.2c-18.1,7.6-29.9,25.3-29.9,45c0,0.1,0,0.3,0,0.4v608.7
	c0,0.2,0,0.3,0,0.4c0,19.7,11.8,37.4,29.9,45c28.4,11.6,59.4,19.2,91.9,19.2h97.5c13.5,0,24.4-10.9,24.4-24.3c0,0,0,0,0,0V257.4
	C1374.4,243.9,1363.5,233,1350,233z"/>
</svg>
